<svg xmlns="http://www.w3.org/2000/svg" xmlns:xlink="http://www.w3.org/1999/xlink" width="200" height="200" viewBox="0 0 200 200">
  <defs>
    <clipPath id="a">
      <rect y="29.811" width="200" height="140.378" fill="none"/>
    </clipPath>
  </defs>
  <g clip-path="url(#a)">
    <path d="M193.334,150.6H160V117.958h33.334Zm-40,9.793a3.335,3.335,0,0,1-6.668,0V108.158A3.348,3.348,0,0,1,150,104.9a3.3,3.3,0,0,1,3.334,3.26ZM140,150.6h-13.37a3.344,3.344,0,0,0-2.665,1.305,30.348,30.348,0,0,1-41.9,5.905,29.724,29.724,0,0,1-6.032-5.905,3.346,3.346,0,0,0-2.665-1.305H60V117.951H73.367a3.327,3.327,0,0,0,2.665-1.326A29.647,29.647,0,0,1,85,108.875a3.254,3.254,0,0,0,1.671-2.834V88.573h26.666v17.468A3.235,3.235,0,0,0,115,108.875a28.082,28.082,0,0,1,3,1.961,27.568,27.568,0,0,1,5.925,5.8,3.332,3.332,0,0,0,2.664,1.325H140ZM73.333,82.046A3.305,3.305,0,0,1,70,78.78a3.153,3.153,0,0,1,1.021-2.326,3.233,3.233,0,0,1,2.313-.941h53.333A3.3,3.3,0,0,1,130,78.78a3.142,3.142,0,0,1-1.022,2.32,3.205,3.205,0,0,1-2.312.946Zm33.335-13.059H93.331V62.461h13.337ZM83.335,49.4H116.67v6.526H83.335ZM56.669,42.869a3.267,3.267,0,1,1,0-6.533h86.667a3.267,3.267,0,1,1,0,6.533ZM53.335,160.4a3.335,3.335,0,0,1-6.668,0V108.158a3.333,3.333,0,0,1,5.708-2.265,3.1,3.1,0,0,1,.96,2.265ZM40,150.6H6.664V117.958H40Zm120-39.177v-3.267a10,10,0,0,0-20,0v3.267h-11.74a34.265,34.265,0,0,0-6.263-5.85c-.663-.487-1.332-.947-2-1.366V88.573h6.669a9.8,9.8,0,1,0,0-19.586h-13.33V62.454H120a3.3,3.3,0,0,0,3.334-3.266V49.4h20.005a9.795,9.795,0,1,0,0-19.585H56.669a9.795,9.795,0,1,0,0,19.585h20v9.793A3.3,3.3,0,0,0,80,62.454H86.67v6.533H73.333a9.8,9.8,0,1,0,0,19.586H80v15.636c-.669.419-1.332.872-1.974,1.359a34.015,34.015,0,0,0-6.29,5.857H60v-3.267a10,10,0,0,0-20,0v3.267H0v45.7H40V160.4a10,10,0,0,0,20,0v-3.267H71.744a37.135,37.135,0,0,0,51.527,4.883,36.178,36.178,0,0,0,4.984-4.883H140V160.4a10,10,0,0,0,20,0v-3.267h40v-45.7Z" fill="#222221"/>
  </g>
</svg>
