<svg xmlns="http://www.w3.org/2000/svg" xmlns:xlink="http://www.w3.org/1999/xlink" width="200" height="200" viewBox="0 0 200 200">
  <defs>
    <clipPath id="a">
      <rect x="27.219" width="145.562" height="200" fill="none"/>
    </clipPath>
  </defs>
  <g clip-path="url(#a)">
    <path d="M118.876,55.189a5.969,5.969,0,1,1-.006,0Zm-46.613-.468A5.966,5.966,0,1,1,66.3,48.778,5.949,5.949,0,0,1,72.263,54.721ZM64.9,86.7a5.969,5.969,0,1,1,5.966,5.943A5.955,5.955,0,0,1,64.9,86.7Zm9.068,24.406A5.969,5.969,0,1,1,68,105.163a5.958,5.958,0,0,1,5.972,5.942m36.95-20.883a5.969,5.969,0,1,1,5.972,5.943,5.958,5.958,0,0,1-5.972-5.943M124.1,122.679a5.966,5.966,0,1,1-5.965-5.943,5.953,5.953,0,0,1,5.965,5.943m29.172-41.138A5.969,5.969,0,1,1,147.3,75.6a5.957,5.957,0,0,1,5.972,5.942m-8.357-20.329v9.8a10.854,10.854,0,1,0,4.9,0v-9.8a3.854,3.854,0,0,1,3.818-3.9h13.012a63,63,0,0,1,1.241,12.44c0,19.711-9.263,38.1-25.44,50.569H128.728a10.786,10.786,0,1,0-.023,4.88h8.161a37.4,37.4,0,0,0-9.951,20.733H102.45V95.246a3.945,3.945,0,0,1,3.581-3.869,10.986,10.986,0,1,0,.659-4.794h-.231a8.8,8.8,0,0,0-8.912,8.663v50.69H91.835V117.5a9.14,9.14,0,0,0-9-8.964H78.6A11.183,11.183,0,0,0,68,100.184a10.809,10.809,0,1,0,10.569,13.232h4.268a4.244,4.244,0,0,1,4.106,4.083v28.437H73.094a36.835,36.835,0,0,0-14.929-25.192A63.128,63.128,0,0,1,32.349,75.2h5.672a3.939,3.939,0,0,1,4.008,3.823v1.808a8.565,8.565,0,0,0,8.53,8.6H60.4a10.6,10.6,0,0,0,10.465,8A10.832,10.832,0,1,0,60.187,84.55h-9.46A3.678,3.678,0,0,1,46.926,81V79.023a8.826,8.826,0,0,0-8.905-8.7H32.13c-.006-.266-.012-.531-.012-.8A63.146,63.146,0,0,1,50.7,25.394,68.678,68.678,0,0,1,73.868,9.921v7.514A8.771,8.771,0,0,0,82.647,26.2a3.883,3.883,0,0,1,3.881,3.881V48.449a4.029,4.029,0,0,1-3.956,3.985H76.9A10.859,10.859,0,1,0,66.3,65.59a11.17,11.17,0,0,0,10.575-8.276h5.706a8.916,8.916,0,0,0,8.847-8.865V30.083a8.767,8.767,0,0,0-8.778-8.761,3.88,3.88,0,0,1-3.875-3.881V8.148A69.163,69.163,0,0,1,95.728,5.007c1.565-.093,3.124-.127,4.678-.116v16.4a8.87,8.87,0,0,0,8.871,8.784h3.95a3.9,3.9,0,0,1,3.922,3.87V50.453a10.734,10.734,0,0,0-9.137,10.678,10.87,10.87,0,1,0,14.034-10.349V33.947a8.8,8.8,0,0,0-8.819-8.75h-3.95a3.969,3.969,0,0,1-3.968-3.9V5.1a69.483,69.483,0,0,1,42.264,18.377,63.964,63.964,0,0,1,17.875,28.958H153.655a8.752,8.752,0,0,0-8.744,8.761v.017m-13.474,97.326H68.567v-7.721h62.87Zm0,23.171H68.567V163.418h62.87Zm-8.5,6.532a10.048,10.048,0,0,1-9.558,6.878H86.62a10.051,10.051,0,0,1-9.564-6.878l-.543-1.658H123.49ZM150.934,19.924A74.87,74.87,0,0,0,95.439.132,73.584,73.584,0,0,0,47.2,21.963a67.508,67.508,0,0,0,8.045,102.7,32.126,32.126,0,0,1,12.908,21.276H66.066a2.3,2.3,0,0,0-2.4,2.195v36.021a2.4,2.4,0,0,0,2.368,2.431H71.35l1.057,3.183A14.94,14.94,0,0,0,86.62,200h26.763a14.938,14.938,0,0,0,14.208-10.233l1.056-3.183h5.285a2.4,2.4,0,0,0,2.4-2.4V148.252a2.3,2.3,0,0,0-2.281-2.321.98.98,0,0,0-.121,0h-2.074A31.991,31.991,0,0,1,144.6,124.822c17.909-13.4,28.178-33.5,28.178-55.068a67.88,67.88,0,0,0-21.849-49.83" fill="#222221"/>
    <path d="M74.374,173.577h1.837a2.44,2.44,0,1,0,0-4.88H74.374a2.44,2.44,0,1,0,0,4.88" fill="#222221"/>
    <path d="M85.207,173.577h23.979a2.44,2.44,0,1,0,0-4.88H85.207a2.44,2.44,0,1,0,0,4.88" fill="#222221"/>
  </g>
</svg>
