<svg xmlns="http://www.w3.org/2000/svg" xmlns:xlink="http://www.w3.org/1999/xlink" width="200" height="200" viewBox="0 0 200 200">
  <defs>
    <clipPath id="a">
      <rect y="56.517" width="200" height="86.967" fill="none"/>
    </clipPath>
  </defs>
  <g>
    <g clip-path="url(#a)">
      <path d="M193.087,116.989l-13.4,0a19.62,19.62,0,0,0-38.9-.017l-81.169-.034a19.621,19.621,0,0,0-38.887-.018l-6.117,0c-.038,0-.1,0-.153,0-2.884.137-4.556-.578-5.959-2.535-2.5-3.488-2.255-7.359-1.685-12.055a.263.263,0,0,0,.009-.055c.459-4.347,2.19-11.991,5.206-16.355H152.452c1.914.412,4.168.88,6.84,1.425,9.188,1.888,20.626,4.236,25.883,6.469a12.494,12.494,0,0,1,6.674,7.313c2.268,5.738,1.83,12.727,1.238,15.866M167.425,130.6a13.172,13.172,0,1,1,5.98-11.039,13.138,13.138,0,0,1-5.98,11.039M40.171,132.732a13.17,13.17,0,1,1,13.178-13.17,13.182,13.182,0,0,1-13.178,13.17m2.8-66.23c1.055-.187,2.114-.387,3.144-.579,1.3-.242,2.633-.493,3.939-.714A171.782,171.782,0,0,1,78.735,62.98V79.463H22.391Zm64.023-1.689c6.712,1,12.667,3.969,18.1,7.023,4.092,2.3,8.235,4.858,12.37,7.627H85.192V63.056c2,.056,4.041.128,6.134.23a157.106,157.106,0,0,1,15.667,1.527M187.7,87.868c-5.849-2.484-17.147-4.8-27.109-6.848-5.73-1.174-12.842-2.638-14.322-3.34a201.261,201.261,0,0,0-18.01-11.472c-5.972-3.36-12.566-6.627-20.312-7.78-5.363-.795-10.851-1.335-16.312-1.591-16.326-.782-29.878-.14-42.652,2.008-1.366.23-2.731.481-4.058.732-1.208.225-2.459.463-3.675.672a3.217,3.217,0,0,0-1.179.451L15.338,76.277C3.245,78.1.68,98.983.412,101.573c-.668,5.445-.991,11.213,2.842,16.569,2.675,3.726,6.414,5.44,11.429,5.227h6.24a19.628,19.628,0,0,0,38.5.022l81.564.034a19.622,19.622,0,0,0,38.479.017l15.82,0c3.058,0,3.734-3.335,4.066-4.939,1.336-6.58,1.851-24.9-11.659-30.639" fill="#272426"/>
    </g>
    <rect x="2.023" y="138.762" width="195.955" height="4.722" fill="#272426"/>
  </g>
</svg>
