<svg xmlns="http://www.w3.org/2000/svg" xmlns:xlink="http://www.w3.org/1999/xlink" width="200" height="200" viewBox="0 0 200 200">
  <defs>
    <clipPath id="a">
      <rect width="200" height="200" fill="none"/>
    </clipPath>
  </defs>
  <g clip-path="url(#a)">
    <path d="M102.724,178.949V157.221h14.534v-5.457H102.724v-21.79h14.534v-5.458H102.724v-21.79h21.8v14.529h5.453V102.726h21.8v14.529h5.453V102.726h21.722a79.088,79.088,0,0,1-76.223,76.223M21.049,102.726H42.776v14.529h5.453V102.726h21.8v14.529h5.453V102.726h21.8v21.79H82.743v5.458H97.272v21.79H82.743v5.457H97.272v21.728a79.088,79.088,0,0,1-76.223-76.223m76.223-81.68V42.773H82.743v5.458H97.272v21.79H82.743v5.458H97.272v21.79H75.477V82.74H70.024V97.269H48.229V82.74H42.776V97.269H21.049A79.091,79.091,0,0,1,97.272,21.046m81.675,76.223H157.225V82.74h-5.453V97.269h-21.8V82.74h-5.453V97.269H102.724V75.479h14.534V70.021H102.724V48.231h14.534V42.773H102.724V21.046a79.091,79.091,0,0,1,76.223,76.223m21.051,0H184.405a84.556,84.556,0,0,0-81.681-81.676V0H97.272V15.593A84.56,84.56,0,0,0,15.591,97.269H0v5.457H15.591A84.556,84.556,0,0,0,97.272,184.4V200h5.452V184.4a84.553,84.553,0,0,0,81.681-81.676H200Z" fill="#272426"/>
  </g>
</svg>
