<svg xmlns="http://www.w3.org/2000/svg" xmlns:xlink="http://www.w3.org/1999/xlink" width="200" height="200" viewBox="0 0 200 200">
  <defs>
    <clipPath id="a">
      <rect x="2.793" y="-1.542" width="192.697" height="200.579" fill="none"/>
    </clipPath>
  </defs>
  <g>
    <g clip-path="url(#a)">
      <path d="M66.257,197.455a4.089,4.089,0,0,1-4.084-4.084V171.4a4.091,4.091,0,0,1,4.084-4.088H80.043v-124H35.255V53.937a14.042,14.042,0,0,1,0,27.563v4.946a2.7,2.7,0,0,1-2.694,2.691,2.99,2.99,0,1,0,2.992,2.988,2.689,2.689,0,1,1,5.377,0A8.368,8.368,0,1,1,29.874,84.2V81.5a14.042,14.042,0,0,1,0-27.564V43.308H6.192A2.692,2.692,0,0,1,3.5,40.621l0-9.694a2.729,2.729,0,0,1,1.755-2.6L81.976.113H82a2.743,2.743,0,0,1,.732-.1l27.349.005,1.938,0,0,.125A3.722,3.722,0,0,1,113.615.9l27.7,24.012V21.065a4.656,4.656,0,0,1,4.648-4.653h28.448a4.658,4.658,0,0,1,4.652,4.653v7.1h2.723a2.687,2.687,0,0,1,1.7.606l12,9.765a2.691,2.691,0,0,1-1.7,4.776H179.055v6.318a4.652,4.652,0,0,1-4.647,4.648H145.96a4.655,4.655,0,0,1-4.652-4.648V43.308H113.657v124h13.785a4.089,4.089,0,0,1,4.08,4.088v21.973a4.086,4.086,0,0,1-4.08,4.084Zm59.888-5.376V180.428H85.293a2.691,2.691,0,1,1,0-5.381h40.852V172.7H67.555v13.9H97.8a2.691,2.691,0,0,1,0,5.381H67.555v.1ZM104.351,167.31,85.424,148.7V167.31Zm3.929-3.684V134.043L99.5,142.825a2.689,2.689,0,1,1-3.808-3.8l12.587-12.6v-5.556l-21.552,21.56Zm-22.856-27.5,21.581-21.588L85.424,93.048Zm22.856-27.913V76.883L99.5,85.669a2.694,2.694,0,0,1-3.813-3.808L108.28,69.266V65.133L86.694,86.722ZM85.424,80.385l21.582-21.594-21.582-21.5ZM32.565,59.056a8.662,8.662,0,1,0,8.666,8.666A8.674,8.674,0,0,0,32.565,59.056Zm75.715-6.591V21.676L99.5,30.462a2.693,2.693,0,0,1-3.811-3.806l12.59-12.6v-4.7L86.693,30.956Zm65.4-3.572V43.308H146.693v5.585Zm12.543-10.961-5.393-4.39H113.662v4.39Zm-106.175,0V33.651H8.883v4.281Zm0-9.662V6.555L21,28.27Zm93.632-.109V21.794H146.693v6.367Zm-36.822,0L113.662,8.049V28.161ZM85.424,24.617,104.645,5.389H85.424Z" fill="#272426"/>
      <path d="M176.365,38.921H112.671V32.552h68.5L189,38.921Zm-1.7,10.7a.257.257,0,0,1-.256.257H145.96a.258.258,0,0,1-.257-.257V42.318h28.961ZM127.135,176.037H85.293a1.7,1.7,0,1,0,0,3.4h41.842v13.63H66.565v-2.079H97.8a1.7,1.7,0,0,0,0-3.4H66.565V171.705h60.57Zm-42.7-29.7L106.77,168.3H84.434ZM7.893,32.662h73.14v6.259H7.893ZM107.035,4.4l-22.6,22.609V4.4ZM85.293,30.957,109.27,6.971v7.5L96.393,27.354a1.709,1.709,0,0,0,0,2.407,1.7,1.7,0,0,0,2.408,0L109.27,19.284V54.85Zm23.977,87.528v8.355L96.393,139.726a1.7,1.7,0,1,0,2.408,2.4l10.469-10.473v34.337L85.322,142.441ZM84.434,90.664l23.973,23.872L84.434,138.518ZM109.27,69.676,96.393,82.557A1.7,1.7,0,0,0,98.8,84.969L109.27,74.491V110.6L85.293,86.724,109.27,62.743ZM84.434,40.622V34.9L108.407,58.79,84.434,82.776Zm-3.4-11.362H15.441L81.033,5.136Zm58.474-.109H112.671V5.881Zm6.2-8.086a.258.258,0,0,1,.257-.261h28.448a.258.258,0,0,1,.256.261v8.086H145.7ZM42.221,67.722a9.655,9.655,0,1,1-9.656-9.656,9.663,9.663,0,0,1,9.656,9.656M194.861,39.3l-12-9.766a1.694,1.694,0,0,0-1.073-.383H178.07V21.065a3.668,3.668,0,0,0-3.662-3.663H145.96a3.665,3.665,0,0,0-3.658,3.663v6.011L112.962,1.638a3.327,3.327,0,0,0-1.92-.632c-.05,0,.047,0,0,0L82.733,1a1.771,1.771,0,0,0-.58.1h0L5.607,29.252A1.761,1.761,0,0,0,4.5,30.927h0l0,9.7a1.7,1.7,0,0,0,1.7,1.7H30.864v12.46a13.051,13.051,0,0,0,0,25.88v4.285a7.39,7.39,0,0,0-5.674,7.182,7.378,7.378,0,0,0,7.375,7.383,7.392,7.392,0,0,0,7.379-7.383,1.7,1.7,0,1,0-3.4,0,3.98,3.98,0,1,1-3.982-3.978,1.709,1.709,0,0,0,1.705-1.7V80.658a13.051,13.051,0,0,0-.005-25.88V42.318H81.033V168.3H66.257a3.1,3.1,0,0,0-3.093,3.1v21.973a3.1,3.1,0,0,0,3.093,3.094h61.185a3.093,3.093,0,0,0,3.09-3.094V171.4a3.1,3.1,0,0,0-3.09-3.1H112.667V42.318H142.3v7.308a3.667,3.667,0,0,0,3.662,3.658h28.448a3.663,3.663,0,0,0,3.658-3.658V42.318h15.718a1.7,1.7,0,0,0,1.077-3.018" fill="#272426"/>
      <rect x="3.503" y="0.01" width="195.493" height="199.99" fill="none"/>
    </g>
    <rect x="9.493" y="192.943" width="169.472" height="7.057" fill="#272426"/>
    <rect x="10.483" y="193.933" width="167.491" height="5.077" fill="#272426"/>
  </g>
</svg>
