<svg xmlns="http://www.w3.org/2000/svg" xmlns:xlink="http://www.w3.org/1999/xlink" width="200" height="200" viewBox="0 0 200 200">
  <defs>
    <clipPath id="a">
      <rect y="0.269" width="200" height="199.462" fill="none"/>
    </clipPath>
  </defs>
  <g clip-path="url(#a)">
    <path d="M60.9,43.664A17.213,17.213,0,1,0,77.991,60.877,17.173,17.173,0,0,0,60.9,43.664m0,41.221A24.009,24.009,0,1,1,84.741,60.877,23.95,23.95,0,0,1,60.9,84.885M37.36,97.568l1.984,1.149a43.016,43.016,0,0,0,9.628,4.1l2.165.621,1.215,10.5a1.877,1.877,0,0,0,1.854,1.673H66.583a1.877,1.877,0,0,0,1.854-1.673l1.173-10.264,2.239-.584a43.456,43.456,0,0,0,10.333-4.209l1.97-1.117,7.932,6.323a1.881,1.881,0,0,0,2.5-.148l8.739-8.8a1.9,1.9,0,0,0,.134-2.5L97.243,84.7l1.145-1.994A42.883,42.883,0,0,0,102.634,72.5l.6-2.225,9.652-1.117a1.883,1.883,0,0,0,1.659-1.868V54.822a1.882,1.882,0,0,0-1.668-1.863l-9.559-1.127-.584-2.243a43.112,43.112,0,0,0-4.075-10.1l-1.1-1.984,5.878-7.487a1.911,1.911,0,0,0-.149-2.517l-8.715-8.78a1.866,1.866,0,0,0-2.489-.134l-7.3,5.827-1.994-1.178a42.846,42.846,0,0,0-10.55-4.45l-2.212-.6L68.933,8.735a1.878,1.878,0,0,0-1.854-1.674H54.707a1.876,1.876,0,0,0-1.855,1.674l-1.094,9.452-2.211.6a42.357,42.357,0,0,0-10.819,4.608l-2,1.2L29.2,18.581a1.881,1.881,0,0,0-2.494.148l-8.738,8.8a1.9,1.9,0,0,0-.134,2.5L24,37.888l-1.084,1.975a42.493,42.493,0,0,0-4,10.189l-.57,2.281L8.4,53.478a1.887,1.887,0,0,0-1.655,1.868V67.812A1.888,1.888,0,0,0,8.41,69.68l10.268,1.2.626,2.169a44.026,44.026,0,0,0,3.9,9.341l1.117,1.989-6.49,8.242a1.922,1.922,0,0,0,.153,2.522l8.734,8.793a1.861,1.861,0,0,0,2.489.135ZM66.583,122.41H54.206a8.642,8.642,0,0,1-8.553-7.681l-.7-6.054a49.7,49.7,0,0,1-6.94-2.958L33.392,109.4a8.565,8.565,0,0,1-11.445-.663L13.2,99.927A8.763,8.763,0,0,1,12.541,88.4l3.708-4.71a51,51,0,0,1-2.744-6.578l-5.873-.686A8.663,8.663,0,0,1,0,67.812V55.346a8.663,8.663,0,0,1,7.626-8.617L13,46.107A49.7,49.7,0,0,1,15.957,38.6l-3.416-4.344A8.728,8.728,0,0,1,13.2,22.73l8.752-8.812a8.6,8.6,0,0,1,11.436-.663l3.931,3.138a48.883,48.883,0,0,1,8.261-3.514l.575-4.932A8.638,8.638,0,0,1,54.707.266H67.079a8.653,8.653,0,0,1,8.557,7.681l.571,4.932a49.526,49.526,0,0,1,7.959,3.356l3.727-2.976a8.574,8.574,0,0,1,11.445.654l8.729,8.794a8.758,8.758,0,0,1,.654,11.529l-3.11,3.958a50.021,50.021,0,0,1,3,7.422l5.049.593a8.655,8.655,0,0,1,7.625,8.613V67.288a8.662,8.662,0,0,1-7.625,8.617l-5.174.6a49.761,49.761,0,0,1-3.152,7.57l3.407,4.353a8.729,8.729,0,0,1-.653,11.524l-8.753,8.808a8.6,8.6,0,0,1-11.445.658l-4.422-3.527a49.8,49.8,0,0,1-7.682,3.133l-.653,5.7a8.639,8.639,0,0,1-8.553,7.686" fill="#272426"/>
    <path d="M149.774,96.392c-.385,0-.769.019-1.159.051a13.219,13.219,0,0,0-9.1,4.738,13.54,13.54,0,0,0,1.594,18.983,13.243,13.243,0,0,0,9.749,3.129l.009-.005a13.213,13.213,0,0,0,9.086-4.728,13.538,13.538,0,0,0-1.59-18.988,13.2,13.2,0,0,0-8.59-3.18m-.083,33.743a19.857,19.857,0,0,1-12.929-4.779,20.369,20.369,0,0,1-2.4-28.561,20.013,20.013,0,0,1,28.351-2.415,20.368,20.368,0,0,1,2.4,28.56,19.927,19.927,0,0,1-13.685,7.121c-.584.051-1.163.074-1.738.074m-16.781,10.6,2.063.969a33.8,33.8,0,0,0,7.978,2.624l2.22.431,1.632,8.121a1.834,1.834,0,0,0,1.937,1.461l8.512-.724a1.827,1.827,0,0,0,1.654-1.761l.265-8.085,2.174-.774a34.732,34.732,0,0,0,8-4.075l1.873-1.279,6.592,4.39a1.8,1.8,0,0,0,2.378-.338l5.516-6.583a1.81,1.81,0,0,0-.055-2.4l-5.378-5.739.983-2.1a34.659,34.659,0,0,0,2.717-8.478l.408-2.262,7.417-1.521a1.847,1.847,0,0,0,1.46-1.961l-.728-8.557a1.821,1.821,0,0,0-1.743-1.674l-7.5-.241L182.511,98a34.822,34.822,0,0,0-3.949-7.834l-1.271-1.892,4.094-6.2a1.817,1.817,0,0,0-.3-2.416L174.556,74.1a1.784,1.784,0,0,0-2.392.06l-5.312,5.011-2.081-1.015a33.937,33.937,0,0,0-8.753-2.851L153.77,74.9,152.3,67.633a1.85,1.85,0,0,0-1.943-1.465l-8.5.728a1.825,1.825,0,0,0-1.665,1.752l-.241,7.4-2.151.779a34.084,34.084,0,0,0-8.358,4.431l-1.891,1.373-6.258-4.186a1.805,1.805,0,0,0-2.378.347l-5.507,6.611a1.811,1.811,0,0,0,.055,2.41l5.308,5.711-.9,2.058a35.658,35.658,0,0,0-2.536,8.461l-.389,2.29-7.649,1.576a1.874,1.874,0,0,0-1.465,1.961l.728,8.557A1.82,1.82,0,0,0,108.3,120.1l8.071.265.8,2.113a35.06,35.06,0,0,0,3.764,7.227l1.275,1.887-4.506,6.852a1.843,1.843,0,0,0,.339,2.405l6.531,5.549a1.777,1.777,0,0,0,2.388-.06ZM148.6,161.138a8.591,8.591,0,0,1-8.409-6.916l-.751-3.723a40.981,40.981,0,0,1-5.205-1.715l-2.652,2.5a8.48,8.48,0,0,1-11.367.306l-6.531-5.553a8.675,8.675,0,0,1-1.613-11.339l2.044-3.106a42.21,42.21,0,0,1-2.383-4.58l-3.648-.116a8.592,8.592,0,0,1-8.251-7.885l-.728-8.585a8.643,8.643,0,0,1,6.842-9.179l3.189-.653a42.321,42.321,0,0,1,1.7-5.661l-2.286-2.456a8.62,8.62,0,0,1-.3-11.45l5.5-6.611a8.53,8.53,0,0,1,11.265-1.636l2.438,1.632a40.958,40.958,0,0,1,5.9-3.125l.1-2.86a8.587,8.587,0,0,1,7.83-8.3l8.525-.732a8.579,8.579,0,0,1,9.1,6.884l.57,2.823a40.812,40.812,0,0,1,6.087,1.975l1.975-1.859a8.481,8.481,0,0,1,11.366-.306l6.532,5.558a8.622,8.622,0,0,1,1.544,11.395l-1.6,2.424a42.375,42.375,0,0,1,2.642,5.243l2.976.093a8.6,8.6,0,0,1,8.247,7.885l.728,8.59a8.65,8.65,0,0,1-6.843,9.174l-3.008.616a41.335,41.335,0,0,1-1.841,5.734l2.263,2.42a8.631,8.631,0,0,1,.31,11.45l-5.516,6.578a8.515,8.515,0,0,1-11.255,1.627l-2.875-1.919a41.792,41.792,0,0,1-5.446,2.782l-.112,3.509a8.611,8.611,0,0,1-7.82,8.311l-8.534.728q-.348.028-.7.028" fill="#272426"/>
    <path d="M79.574,147.2A10.312,10.312,0,0,0,69.3,157.408a10.333,10.333,0,0,0,2.925,7.357,10.14,10.14,0,0,0,7.213,3.115,9.923,9.923,0,0,0,7.3-2.949,10.374,10.374,0,0,0,.166-14.62,10.115,10.115,0,0,0-7.213-3.116Zm-.014,27.481h-.2a16.815,16.815,0,0,1-11.969-5.169,17.21,17.21,0,0,1,.287-24.231,16.581,16.581,0,0,1,12.09-4.876,16.821,16.821,0,0,1,11.969,5.168,17.214,17.214,0,0,1-.292,24.231,16.87,16.87,0,0,1-11.885,4.877m-16.068,5.785,1.966,1.168a26.677,26.677,0,0,0,6.114,2.693l2.175.64.653,6.281a1.8,1.8,0,0,0,1.766,1.632l5.257.06h.033a1.8,1.8,0,0,0,1.789-1.585l.765-6.11,2.253-.556a27.983,27.983,0,0,0,6.661-2.61l1.98-1.085,4.649,3.788a1.783,1.783,0,0,0,2.406-.1l3.75-3.7a1.815,1.815,0,0,0,.167-2.429l-3.625-4.738,1.187-1.988a27.041,27.041,0,0,0,2.8-6.495l.631-2.216,5.715-.579a1.814,1.814,0,0,0,1.613-1.79l.061-5.293a1.808,1.808,0,0,0-1.572-1.832l-5.641-.737-.561-2.234a28.423,28.423,0,0,0-2.531-6.522l-1.085-2,3.528-4.353a1.815,1.815,0,0,0-.112-2.415l-3.666-3.778a1.788,1.788,0,0,0-2.411-.167l-4.348,3.361-1.97-1.2a26.742,26.742,0,0,0-6.713-2.934l-2.211-.626L84.4,124.43a1.8,1.8,0,0,0-1.771-1.623l-5.261-.065a1.812,1.812,0,0,0-1.817,1.581l-.709,5.549-2.212.575a27.646,27.646,0,0,0-6.967,2.869l-2.017,1.173-4.4-3.62a1.773,1.773,0,0,0-2.387.111L53.081,134.7a1.828,1.828,0,0,0-.162,2.433l3.588,4.655-1.1,1.965a27.332,27.332,0,0,0-2.642,6.5l-.589,2.29-5.957.608a1.837,1.837,0,0,0-1.618,1.789l-.06,5.289a1.808,1.808,0,0,0,1.571,1.836l6.087.788.6,2.179a26.948,26.948,0,0,0,2.429,5.994l1.113,2.007-3.927,4.877a1.81,1.81,0,0,0,.1,2.419l3.667,3.774a1.783,1.783,0,0,0,2.411.167Zm17.977,19.27H81.33l-5.229-.06a8.555,8.555,0,0,1-8.413-7.728l-.19-1.826a33.474,33.474,0,0,1-3.435-1.516l-1.345,1.048a8.518,8.518,0,0,1-11.357-.8l-3.667-3.773a8.669,8.669,0,0,1-.524-11.446l1.1-1.376c-.487-1.048-.923-2.128-1.308-3.231l-1.71-.223a8.575,8.575,0,0,1-7.459-8.668l.06-5.267a8.574,8.574,0,0,1,7.672-8.478h0l1.391-.144a33.5,33.5,0,0,1,1.553-3.8l-.9-1.159a8.682,8.682,0,0,1,.783-11.445l3.774-3.714A8.511,8.511,0,0,1,63.5,125.6l.871.714a34.789,34.789,0,0,1,4.348-1.785l.14-1.061a8.55,8.55,0,0,1,8.469-7.519h.13l5.233.064a8.561,8.561,0,0,1,8.414,7.728l.107,1.066a33.149,33.149,0,0,1,4.121,1.8l.751-.58a8.512,8.512,0,0,1,11.348.8L111.1,130.6a8.676,8.676,0,0,1,.529,11.446l-.728.895a35.1,35.1,0,0,1,1.47,3.787l1.168.148A8.569,8.569,0,0,1,121,155.544l-.061,5.271a8.57,8.57,0,0,1-7.667,8.474l-1.261.13a33.26,33.26,0,0,1-1.659,3.847l.866,1.136a8.661,8.661,0,0,1-.792,11.436l-3.751,3.695a8.51,8.51,0,0,1-11.357.528l-1.214-.987a33.917,33.917,0,0,1-3.968,1.562l-.2,1.571a8.562,8.562,0,0,1-8.47,7.524" fill="#272426"/>
  </g>
</svg>
