<svg xmlns="http://www.w3.org/2000/svg" xmlns:xlink="http://www.w3.org/1999/xlink" width="200" height="200" viewBox="0 0 200 200">
  <defs>
    <clipPath id="a">
      <rect y="5.576" width="200" height="188.849" fill="none"/>
    </clipPath>
  </defs>
  <g clip-path="url(#a)">
    <path d="M63.9,163.78H60.407v-2.294H65.33A11.559,11.559,0,0,0,63.9,163.78m-8.28-15.991h-.61V121.371H62.4a2.479,2.479,0,0,0,2.48-2.488,2.342,2.342,0,0,0-.095-.511,2.428,2.428,0,0,0,.095-.523V78.983l6.541-6.542V132a18.493,18.493,0,0,0-15.8,15.79m18.282-11a13.513,13.513,0,0,1,13.5,13.491v6.237H60.407v-6.237A13.508,13.508,0,0,1,73.9,136.786M76.39,68h9.528a15.923,15.923,0,0,0,11.559,8.259V147.8l-5.285-.012A18.478,18.478,0,0,0,76.39,132ZM76.4,60.59C76.39,47.017,82.054,34.836,87.962,25.8h9.26V44.973A15.883,15.883,0,0,0,84.093,60.59a14.673,14.673,0,0,0,.206,2.418H76.4ZM99.714,11.256a93.425,93.425,0,0,1,8.255,9.582H91.447a91.665,91.665,0,0,1,8.267-9.582M123.026,60.59v2.418h-7.39a16.08,16.08,0,0,0,.193-2.406,15.881,15.881,0,0,0-13.635-15.7V25.8h9.26c5.912,9.021,11.572,21.215,11.572,34.788m15.983,89.687v6.237H112.015v-6.237a13.5,13.5,0,0,1,26.994,0M128,72.441l6.537,6.542v38.866a2.54,2.54,0,0,0,.1.523,2.61,2.61,0,0,0-.1.511,2.481,2.481,0,0,0,2.48,2.488h7.39v26.418h-.6a18.5,18.5,0,0,0-15.8-15.8Zm11.011,91.339h-4.923a14.241,14.241,0,0,0-3.522-2.282h8.445Zm-23.967,0h-3.027V161.5h6.661a14.23,14.23,0,0,0-3.634,2.282M99.97,71.494a10.9,10.9,0,1,1,10.891-10.9,10.909,10.909,0,0,1-10.891,10.9m7.258,76.295h-4.774V76.256A15.912,15.912,0,0,0,114.008,68h9.018v64a18.461,18.461,0,0,0-15.8,15.79m3.048,24.832a14.684,14.684,0,0,0-13.8,3.6,14.516,14.516,0,0,0-9.52-6.163,10.817,10.817,0,0,0,.05-1.091c0-.075-.025-.136-.025-.211h2.917a2.484,2.484,0,0,0,2.492-2.475V152.769H107.03v13.508a2.484,2.484,0,0,0,2.492,2.475h1.92a14.007,14.007,0,0,0-1.166,3.869M84.361,161.486H87.4v2.294H85.8a12.417,12.417,0,0,0-1.438-2.294M69.89,163.78a7.119,7.119,0,0,1,9.9,0ZM50.026,147.789H39.6V135.332L50.026,124.9Zm99.36-22.887,10.43,10.43v12.457h-10.43ZM2.493,166.516a13.045,13.045,0,0,1,12.382,8.922,2.5,2.5,0,0,0,2.48,1.7l.684-.038A13.013,13.013,0,0,1,30.9,187.924a2.485,2.485,0,0,0,1.19,1.726,2.517,2.517,0,0,0,2.1.194,12.9,12.9,0,0,1,12.519,2.035,2.484,2.484,0,0,0,3.1,0,12.991,12.991,0,0,1,12.3-2.122,2.49,2.49,0,0,0,3.16-3.164,6.963,6.963,0,0,1-.4-2.319,7.117,7.117,0,0,1,4.046-6.438,2.492,2.492,0,0,0,.72-3.955,7.149,7.149,0,0,1-1.981-4.935c0-.058.021-.132.021-.194H81.993a1.292,1.292,0,0,1,.024.194,7.294,7.294,0,0,1-.461,2.542,2.489,2.489,0,0,0,.424,2.348,2.708,2.708,0,0,0,2.274,1l.268-.013a9.485,9.485,0,0,1,9.079,6.826,2.455,2.455,0,0,0,2.126,1.792,2.512,2.512,0,0,0,2.455-1.3,9.458,9.458,0,0,1,8.354-5.038,9.556,9.556,0,0,1,4.931,1.4,2.445,2.445,0,0,0,2.661-.045,2.478,2.478,0,0,0,1.091-2.431,10.724,10.724,0,0,1-.119-1.409,9.361,9.361,0,0,1,2.093-5.862h14.755a9.31,9.31,0,0,1,.606,10.929,2.457,2.457,0,0,0-.219,2.249,2.491,2.491,0,0,0,1.706,1.5,13.062,13.062,0,0,1,9.334,9.165,2.5,2.5,0,0,0,1.846,1.772,2.784,2.784,0,0,0,.56.061,2.446,2.446,0,0,0,1.87-.865,13.014,13.014,0,0,1,16.507-2.673,2.451,2.451,0,0,0,2.393.074,2.48,2.48,0,0,0,1.351-1.994,12.982,12.982,0,0,1,13-11.876,13.17,13.17,0,0,1,1.812.144,2.493,2.493,0,0,0,2.666-1.54,13,13,0,0,1,12.127-8.252,2.486,2.486,0,1,0,0-4.972,17.92,17.92,0,0,0-15.971,9.664c-.218-.012-.424-.012-.646-.012a17.905,17.905,0,0,0-17.318,13.017,18.261,18.261,0,0,0-16.832,2.513,18.066,18.066,0,0,0-8.618-8.057,14.392,14.392,0,0,0-.366-10.843h3.732a2.492,2.492,0,0,0,2.492-2.488v-5.907a2.462,2.462,0,0,0,.461-1.363,2.341,2.341,0,0,0-.461-1.36v-4.865H162.3a2.5,2.5,0,0,0,2.5-2.492V134.286a2.586,2.586,0,0,0-.2-.952,2.309,2.309,0,0,0-.535-.8L148.648,117.12a2.462,2.462,0,0,0-.8-.535,2.627,2.627,0,0,0-.96-.19h-7.374V77.945a2.488,2.488,0,0,0-.2-.943,2.349,2.349,0,0,0-.536-.816L128,65.405V60.6c0-12.712-4.4-24.1-9.6-33.144,0,0-2.867-5.384-3.241-5.24A91.494,91.494,0,0,0,101.621,6.189a2.425,2.425,0,0,0-1.907-.6,2.489,2.489,0,0,0-1.92.6A90.838,90.838,0,0,0,84.5,21.88a2.725,2.725,0,0,0-.441-.037l-2.974,5.5c-5.24,9.07-9.664,20.493-9.664,33.255v4.8L60.638,76.186a2.621,2.621,0,0,0-.544.816,2.454,2.454,0,0,0-.185.943V116.4H52.523a2.607,2.607,0,0,0-.956.19,2.966,2.966,0,0,0-.812.535l-15.4,15.411a2.519,2.519,0,0,0-.729,1.767v15.979a2.484,2.484,0,0,0,2.488,2.492H55.423v13.508a2.491,2.491,0,0,0,2.492,2.475h4.791c0,.075-.029.136-.029.194a12.086,12.086,0,0,0,1.6,6.01,12,12,0,0,0-4.366,9.236,17.773,17.773,0,0,0-11.646,2.7,17.785,17.785,0,0,0-13.124-2.455,17.99,17.99,0,0,0-16.214-12.288A18.02,18.02,0,0,0,2.493,161.531a2.493,2.493,0,1,0,0,4.985" fill="#272426"/>
  </g>
</svg>
