<svg xmlns="http://www.w3.org/2000/svg" xmlns:xlink="http://www.w3.org/1999/xlink" width="200" height="200" viewBox="0 0 200 200">
  <defs>
    <clipPath id="a">
      <rect x="-1.277" width="202.554" height="200" fill="none"/>
    </clipPath>
  </defs>
  <g clip-path="url(#a)">
    <path d="M67.261,166.4a3.9,3.9,0,0,1-3.18-1.7,3.546,3.546,0,0,1-.3-3.412L86.539,107.18l-36.038.055a3.714,3.714,0,0,1-3.217-1.806,3.614,3.614,0,0,1-.061-3.643L64.64,70.3a3.747,3.747,0,0,1,3.278-1.916,3.8,3.8,0,0,1,1.782.45,3.661,3.661,0,0,1,1.484,5l-14.4,26.022c3.308,0,35.333-.048,35.351-.048a3.73,3.73,0,0,1,3.1,1.636,3.636,3.636,0,0,1,.34,3.46L77.819,147.1l62.644-61.483H103.087a3.685,3.685,0,0,1-3.284-1.94,3.61,3.61,0,0,1,.182-3.783L126.19,40.984H89.367L76.511,64.209a3.742,3.742,0,0,1-5.06,1.466,3.661,3.661,0,0,1-1.484-4.993L83.882,35.535a3.731,3.731,0,0,1,3.272-1.916h45.993a3.671,3.671,0,0,1,3.284,1.94,3.586,3.586,0,0,1-.176,3.777l-26.2,38.915h39.456a3.666,3.666,0,0,1,3.443,2.281,3.588,3.588,0,0,1-.809,4.013L69.846,165.307A3.638,3.638,0,0,1,67.261,166.4Z" fill="#222221"/>
    <path d="M69.294,164.76l82.288-80.768a2.9,2.9,0,0,0-2.074-4.962H108.58L135.6,38.911a2.91,2.91,0,0,0-2.451-4.519H87.155a2.946,2.946,0,0,0-2.584,1.515L70.656,61.053a2.884,2.884,0,0,0,1.174,3.941,2.96,2.96,0,0,0,4-1.155L88.9,40.206h38.757l-27.02,40.119a2.908,2.908,0,0,0,2.451,4.519h39.28l-66.78,65.539,19.266-45.774a2.915,2.915,0,0,0-2.719-4.026l-36.677.054L70.5,73.466a2.89,2.89,0,0,0-1.173-3.947,2.972,2.972,0,0,0-4,1.155L47.912,102.158a2.906,2.906,0,0,0,2.578,4.3H50.5l37.224-.054L64.5,161.585a2.936,2.936,0,0,0,4.792,3.175" fill="#222221"/>
    <path d="M30.116,26.51a2.764,2.764,0,1,0,2.8,2.767,2.784,2.784,0,0,0-2.8-2.767m0,12.892A10.129,10.129,0,1,1,40.375,29.271,10.207,10.207,0,0,1,30.116,39.4" fill="#222221"/>
    <path d="M30.116,32.814a3.54,3.54,0,1,1,3.582-3.54,3.569,3.569,0,0,1-3.582,3.54m0-12.893a9.354,9.354,0,1,0,9.469,9.353,9.426,9.426,0,0,0-9.469-9.353" fill="#222221"/>
    <path d="M169.884,26.51a2.764,2.764,0,1,0,2.8,2.767,2.783,2.783,0,0,0-2.8-2.767m0,12.892a10.129,10.129,0,1,1,10.26-10.131A10.207,10.207,0,0,1,169.884,39.4" fill="#222221"/>
    <path d="M169.884,32.814a3.54,3.54,0,1,1,3.588-3.54,3.565,3.565,0,0,1-3.588,3.54m0-12.893a9.354,9.354,0,1,0,9.475,9.353,9.421,9.421,0,0,0-9.475-9.353" fill="#222221"/>
    <path d="M30.116,167.959a2.764,2.764,0,1,0,2.8,2.767,2.784,2.784,0,0,0-2.8-2.767m0,12.892A10.129,10.129,0,1,1,40.375,170.72a10.207,10.207,0,0,1-10.259,10.131" fill="#222221"/>
    <path d="M30.116,174.263a3.54,3.54,0,1,1,3.582-3.54,3.569,3.569,0,0,1-3.582,3.54m0-12.893a9.354,9.354,0,1,0,9.469,9.353,9.426,9.426,0,0,0-9.469-9.353" fill="#222221"/>
    <path d="M169.884,167.959a2.764,2.764,0,1,0,2.8,2.767,2.783,2.783,0,0,0-2.8-2.767m0,12.892a10.129,10.129,0,1,1,10.26-10.131,10.206,10.206,0,0,1-10.26,10.131" fill="#222221"/>
    <path d="M169.884,174.263a3.54,3.54,0,1,1,3.588-3.54,3.564,3.564,0,0,1-3.588,3.54m0-12.893a9.354,9.354,0,1,0,9.475,9.353,9.421,9.421,0,0,0-9.475-9.353" fill="#222221"/>
    <path d="M34.958,200c-19.977,0-36.233-16.049-36.233-35.777V35.777C-1.275,16.049,14.981,0,34.958,0H165.04c19.984,0,36.24,16.049,36.24,35.777v90.565a3.731,3.731,0,0,1-7.462,0V35.777A28.626,28.626,0,0,0,165.04,7.365H34.958A28.63,28.63,0,0,0,6.181,35.777V164.223a28.63,28.63,0,0,0,28.777,28.412H165.04a28.626,28.626,0,0,0,28.778-28.412v-28.1a3.731,3.731,0,0,1,7.462,0v28.1c0,19.728-16.256,35.777-36.24,35.777Z" fill="#222221"/>
    <path d="M197.548,129.246a2.926,2.926,0,0,0,2.943-2.907V35.774c0-19.3-15.9-35.005-35.448-35.005H34.961C15.409.769-.494,16.478-.494,35.774V164.22c0,19.3,15.9,35,35.455,35H165.043c19.545,0,35.448-15.7,35.448-35v-28.1a2.943,2.943,0,0,0-5.886,0v28.1a29.412,29.412,0,0,1-29.562,29.191H34.961A29.414,29.414,0,0,1,5.393,164.22V35.774A29.413,29.413,0,0,1,34.961,6.589H165.043a29.411,29.411,0,0,1,29.562,29.185v90.565a2.926,2.926,0,0,0,2.943,2.907" fill="#222221"/>
  </g>
</svg>
