<svg xmlns="http://www.w3.org/2000/svg" width="32" height="32" viewBox="0 0 32 32">
  <rect width="32" height="32" fill="#878585"/>
  <g>
    <path d="M2.166,14.788a14.116,14.116,0,0,1,.416-4.43A5.194,5.194,0,0,1,7.959,6.689,5.365,5.365,0,0,1,13.174,9.8a.222.222,0,0,1-.07.323l-1.384.67a.221.221,0,0,1-.323-.116A3.535,3.535,0,0,0,7.959,8.6a3.236,3.236,0,0,0-3.393,2.331,12.3,12.3,0,0,0-.323,3.853,12.308,12.308,0,0,0,.323,3.855,3.236,3.236,0,0,0,3.393,2.33,3.321,3.321,0,0,0,3.368-2.262,8.376,8.376,0,0,0,.3-2.469.122.122,0,0,0-.138-.138H8.443a.218.218,0,0,1-.231-.231V14.535a.218.218,0,0,1,.231-.231H13.45a.218.218,0,0,1,.231.231v1.177a13.21,13.21,0,0,1-.392,3.461,5.246,5.246,0,0,1-5.33,3.716,5.2,5.2,0,0,1-5.377-3.67A14.12,14.12,0,0,1,2.166,14.788Z" fill="#231f20"/>
    <path d="M15.227,7.174a.219.219,0,0,1,.231-.231H18.2a.359.359,0,0,1,.37.231l3.969,8.953h.091l3.9-8.953a.357.357,0,0,1,.369-.231h2.7a.218.218,0,0,1,.23.231V22.4a.218.218,0,0,1-.23.231H27a.219.219,0,0,1-.231-.231V13.566h-.092l-2.908,6.623a.442.442,0,0,1-.438.3H21.735a.444.444,0,0,1-.439-.3l-2.908-6.623H18.3V22.4a.219.219,0,0,1-.232.231H15.458a.219.219,0,0,1-.231-.231Z" fill="#231f20"/>
  </g>
  <polygon points="30 25.73 16 25.661 2 25.73 2 25.812 2 25.87 16 25.962 30 25.87 30 25.812 30 25.73" fill="#231f20"/>
</svg>
