<svg xmlns="http://www.w3.org/2000/svg" xmlns:xlink="http://www.w3.org/1999/xlink" width="481" height="1212.595" viewBox="0 0 481 1212.595">
  <defs>
    <clipPath id="a">
      <rect x="107.2" y="68.646" width="158.074" height="135.267" fill="none"/>
    </clipPath>
  </defs>
  <g>
    <g>
      <g clip-path="url(#a)">
        <path d="M125.459,199.5h26.516V164.245H125.459Zm28.775,4.415H123.2a2.234,2.234,0,0,1-2.259-2.209V162.036a2.234,2.234,0,0,1,2.259-2.209h31.031a2.234,2.234,0,0,1,2.259,2.209v39.669a2.234,2.234,0,0,1-2.259,2.209" fill="#4b4b4a"/>
        <path d="M156.491,199.5h26.516V147.171H156.491Zm28.775,4.415H154.235a2.234,2.234,0,0,1-2.259-2.209V144.962a2.234,2.234,0,0,1,2.259-2.209h31.031a2.234,2.234,0,0,1,2.259,2.209v56.743a2.234,2.234,0,0,1-2.259,2.209" fill="#4b4b4a"/>
        <path d="M187.524,199.5H214.04V129.234H187.524Zm28.775,4.415H185.268a2.234,2.234,0,0,1-2.26-2.209v-74.68a2.234,2.234,0,0,1,2.26-2.206H216.3a2.234,2.234,0,0,1,2.259,2.206v74.68a2.234,2.234,0,0,1-2.259,2.209" fill="#4b4b4a"/>
        <path d="M247.323,170.344a2.234,2.234,0,0,1-2.26-2.209v-6.468a2.26,2.26,0,0,1,4.519,0v6.468a2.234,2.234,0,0,1-2.259,2.209" fill="#4b4b4a"/>
        <path d="M247.323,203.905H216.294a2.236,2.236,0,0,1-2.259-2.209V103.553H200.622a2.233,2.233,0,0,1-2.256-2.209,2.194,2.194,0,0,1,.659-1.561l31.187-30.489a2.291,2.291,0,0,1,3.192,0l31.21,30.489a2.174,2.174,0,0,1,0,3.125,2.291,2.291,0,0,1-1.6.645H249.582v20.71a2.26,2.26,0,0,1-4.519,0V101.344a2.234,2.234,0,0,1,2.26-2.206H257.56L231.818,73.966,206.073,99.138h10.221a2.234,2.234,0,0,1,2.259,2.206V199.49h26.51V183.614a2.26,2.26,0,0,1,4.519,0V201.7a2.234,2.234,0,0,1-2.259,2.209" fill="#4b4b4a"/>
        <path d="M247.323,148.419a2.234,2.234,0,0,1-2.26-2.209V139.7a2.26,2.26,0,0,1,4.519,0v6.512a2.234,2.234,0,0,1-2.259,2.209" fill="#4b4b4a"/>
        <path d="M262.421,203.914H109.457a2.208,2.208,0,1,1,0-4.415H262.421a2.208,2.208,0,1,1,0,4.415" fill="#4b4b4a"/>
      </g>
      <g>
        <path d="M51.363,138.289a.511.511,0,0,1-.54-.541V122.611c0-4.163-1.893-6.6-5.785-6.6-3.46,0-5.947,2.487-5.947,6.326v15.407a.511.511,0,0,1-.541.541H35.09a.511.511,0,0,1-.54-.541V122.611c0-4.163-1.893-6.6-5.785-6.6-3.514,0-5.947,2.487-5.947,6.326v15.407a.511.511,0,0,1-.54.541h-3.46a.511.511,0,0,1-.541-.541V112.934a.511.511,0,0,1,.541-.541h3.46a.511.511,0,0,1,.54.541v2.379h.054c1.244-2,3.731-3.514,7.244-3.514s6.11,1.459,7.569,4.054h.055a9.638,9.638,0,0,1,8.379-4.054c6,0,9.245,3.838,9.245,9.73v16.219a.512.512,0,0,1-.541.541Z" fill="#4b4b4a"/>
        <path d="M61.647,106.554a.511.511,0,0,1-.541-.54v-3.947a.511.511,0,0,1,.541-.54h3.677a.51.51,0,0,1,.54.54v3.947a.51.51,0,0,1-.54.54Zm.108,31.735a.511.511,0,0,1-.54-.541V112.934a.511.511,0,0,1,.54-.541h3.46a.512.512,0,0,1,.541.541v24.814a.512.512,0,0,1-.541.541Z" fill="#4b4b4a"/>
        <path d="M77.935,138.559c-4.542,0-6.326-2.162-6.326-6.812v-29.68a.51.51,0,0,1,.541-.54h3.46a.511.511,0,0,1,.541.54v29.41c0,2.162.811,2.865,2.594,2.865h1.028a.51.51,0,0,1,.54.541v3.135a.51.51,0,0,1-.54.541Z" fill="#4b4b4a"/>
        <path d="M90.357,138.559c-4.542,0-6.326-2.162-6.326-6.812v-29.68a.51.51,0,0,1,.541-.54h3.46a.511.511,0,0,1,.541.54v29.41c0,2.162.811,2.865,2.594,2.865H92.2a.51.51,0,0,1,.54.541v3.135a.51.51,0,0,1-.54.541Z" fill="#4b4b4a"/>
        <path d="M97.021,106.554a.511.511,0,0,1-.541-.54v-3.947a.511.511,0,0,1,.541-.54H100.7a.51.51,0,0,1,.54.54v3.947a.51.51,0,0,1-.54.54Zm.108,31.735a.511.511,0,0,1-.54-.541V112.934a.511.511,0,0,1,.54-.541h3.46a.512.512,0,0,1,.541.541v24.814a.512.512,0,0,1-.541.541Z" fill="#4b4b4a"/>
        <path d="M106.7,131.909a19.456,19.456,0,0,1-.865-6.595,19.319,19.319,0,0,1,.865-6.541c1.406-4.433,5.19-6.974,10.218-6.974s8.812,2.541,10.217,6.974a19.291,19.291,0,0,1,.866,6.541,19.427,19.427,0,0,1-.866,6.595c-1.405,4.379-5.189,6.975-10.217,6.975S108.108,136.288,106.7,131.909Zm16.057-1.3a16.981,16.981,0,0,0,.594-5.3,16.6,16.6,0,0,0-.594-5.244,6.231,6.231,0,0,0-11.678,0,16.6,16.6,0,0,0-.594,5.244,16.981,16.981,0,0,0,.594,5.3,6.231,6.231,0,0,0,11.678,0Z" fill="#4b4b4a"/>
        <path d="M149.6,138.289a.511.511,0,0,1-.54-.541V122.611c0-4.163-1.892-6.6-5.785-6.6-3.514,0-5.947,2.487-5.947,6.326v15.407a.511.511,0,0,1-.54.541h-3.46a.512.512,0,0,1-.541-.541V112.934a.512.512,0,0,1,.541-.541h3.46a.511.511,0,0,1,.54.541v2.379h.055c1.243-2,3.73-3.514,7.244-3.514,5.622,0,8.974,3.838,8.974,9.73v16.219a.511.511,0,0,1-.541.541Z" fill="#4b4b4a"/>
        <path d="M157.808,134.991a.523.523,0,0,1,0-.757l2.217-2.379a.523.523,0,0,1,.757,0,12.578,12.578,0,0,0,8,2.974c3.785,0,5.677-1.622,5.677-3.946,0-2.055-.973-3.19-5.028-3.623l-2.757-.27c-5.081-.541-7.731-3.082-7.731-7.3,0-4.92,3.514-7.893,9.623-7.893a15.489,15.489,0,0,1,9.191,2.865.522.522,0,0,1,.108.757l-1.838,2.324a.529.529,0,0,1-.757.108,13.636,13.636,0,0,0-6.974-2.108c-3.243,0-4.92,1.46-4.92,3.568,0,2.054,1.244,3.135,5.082,3.514l2.7.27c5.244.487,7.785,3.136,7.785,7.3,0,5.082-3.676,8.488-10.434,8.488A16.092,16.092,0,0,1,157.808,134.991Z" fill="#4b4b4a"/>
      </g>
      <g>
        <path d="M12.95,74.686a36.766,36.766,0,0,1-1.743-12.2.66.66,0,0,0-.747-.747H5.977A1.177,1.177,0,0,1,4.732,60.49V52.769a1.176,1.176,0,0,1,1.245-1.245H10.46a.66.66,0,0,0,.747-.747V46.543a.66.66,0,0,0-.747-.747H5.977A1.177,1.177,0,0,1,4.732,44.55V36.83a1.176,1.176,0,0,1,1.245-1.245H10.46a.66.66,0,0,0,.747-.747A35.7,35.7,0,0,1,12.95,23.132C16.686,11.426,26.151,5.2,39.35,5.2c12.827,0,20.921,6.351,25.155,15.068a1.238,1.238,0,0,1-.623,1.743L52.052,27.49a1.345,1.345,0,0,1-1.868-.622c-2.49-4.483-5.479-6.974-10.585-6.974-4.732,0-8.094,2.242-9.838,7.347a25.569,25.569,0,0,0-.871,7.6.66.66,0,0,0,.747.747H50.309a1.176,1.176,0,0,1,1.245,1.245l-1.245,7.72c-.125.872-.5,1.246-1.246,1.246H29.637a.66.66,0,0,0-.747.747v4.234a.66.66,0,0,0,.747.747H47.818a1.176,1.176,0,0,1,1.245,1.245L47.818,60.49c-.124.872-.5,1.246-1.245,1.246H29.637a.66.66,0,0,0-.747.747,27.1,27.1,0,0,0,.871,8.094c1.744,5.105,5.106,7.347,9.838,7.347,5.106,0,8.1-2.491,10.585-6.974a1.345,1.345,0,0,1,1.868-.622l11.83,5.479a1.238,1.238,0,0,1,.623,1.743C60.271,86.267,52.177,92.618,39.35,92.618,26.151,92.618,16.686,86.392,12.95,74.686Z" fill="#4b4b4a"/>
        <path d="M71.263,78.422a2.333,2.333,0,0,1,.623-1.744l29.762-35.365c3.238-3.736,4.981-7.347,4.981-11.705,0-5.6-3.362-9.714-9.215-9.714-5.728,0-9.215,3.487-9.962,9.963,0,.747-.5,1.12-1.37,1l-13.7-2.242a1.2,1.2,0,0,1-1-1.494C72.26,15.411,81.724,5.2,98.037,5.2c16.188,0,26.026,10.46,26.026,24.158,0,8.094-3.238,14.445-8.593,20.547L93.18,76.18v.249h29.638a1.177,1.177,0,0,1,1.245,1.246V90a1.176,1.176,0,0,1-1.245,1.245H72.509A1.177,1.177,0,0,1,71.263,90Z" fill="#4b4b4a"/>
        <path d="M131.856,48.909c0-18.8.622-22.664,1.867-26.4C137.21,11.675,145.927,5.2,159.252,5.2s22.041,6.475,25.528,17.309c1.245,3.736,1.868,7.6,1.868,26.4s-.623,22.664-1.868,26.4c-3.487,10.834-12.2,17.309-25.528,17.309s-22.042-6.475-25.529-17.309C132.478,71.573,131.856,67.713,131.856,48.909Zm27.4,29.015c4.358,0,7.347-1.868,8.592-5.728.747-2.242,1-4.732,1-23.287s-.249-21.045-1-23.286c-1.245-3.861-4.234-5.729-8.592-5.729-4.483,0-7.347,1.868-8.593,5.729-.747,2.241-1,4.732-1,23.286s.249,21.045,1,23.287C151.905,76.056,154.769,77.924,159.252,77.924Z" fill="#4b4b4a"/>
      </g>
    </g>
    <g>
      <g>
        <path d="M320.764,286.127c-4.981,0-9.016-4.574-9.016-10.216s4.038-10.211,9.016-10.219,9.015,4.576,9.015,10.219-4.035,10.216-9.015,10.216m0-24.52c-6.971,0-12.624,6.4-12.624,14.3s5.656,14.294,12.624,14.3,12.623-6.4,12.623-14.3-5.653-14.3-12.623-14.3" fill="#00030c"/>
        <path d="M326.173,292.256H315.355c-8.96.011-16.221,8.24-16.228,18.39v34.737h7.212v38.822h3.606v-47h-3.606V341.3h-3.607V310.646c.008-7.9,5.655-14.294,12.623-14.3h10.818c6.967.01,12.615,6.408,12.623,14.3V341.3h-3.608v-4.089h-3.6v47h3.6V345.383H342.4V310.646c-.01-10.15-7.271-18.379-16.228-18.39" fill="#00030c"/>
        <rect x="318.962" y="345.384" width="3.605" height="38.822" fill="#00030c"/>
        <path d="M356.826,302.472c-3.982,0-7.213-3.658-7.213-8.173s3.231-8.174,7.213-8.174,7.213,3.661,7.213,8.174-3.23,8.173-7.213,8.173m0-20.432c-5.975,0-10.818,5.489-10.818,12.259s4.846,12.254,10.818,12.261,10.818-5.489,10.818-12.261S362.8,282.04,356.826,282.04" fill="#00030c"/>
        <path d="M362.236,308.6H346.008v4.086h16.228c4.977.008,9.01,4.579,9.015,10.218v26.564h-3.6v-4.088h-3.608v38.825h3.608V353.556h7.213V322.907c-.008-7.9-5.656-14.3-12.623-14.3" fill="#00030c"/>
        <polygon points="346.008 345.383 346.008 349.471 338.795 349.471 338.795 353.556 346.008 353.556 346.008 384.205 349.613 384.205 349.613 345.383 346.008 345.383" fill="#00030c"/>
        <rect x="355.024" y="353.555" width="3.605" height="30.651" fill="#00030c"/>
        <path d="M284.7,302.472c-3.983,0-7.213-3.658-7.213-8.173s3.23-8.174,7.213-8.174,7.212,3.661,7.212,8.174-3.23,8.173-7.212,8.173m0-20.432c-5.976,0-10.818,5.489-10.818,12.259s4.845,12.254,10.818,12.261,10.818-5.489,10.818-12.261S290.676,282.04,284.7,282.04" fill="#00030c"/>
        <path d="M279.291,308.6c-6.967.008-12.615,6.408-12.623,14.3v30.649h7.213v30.652h3.608V345.383h-3.608v4.088h-3.6V322.907c0-5.639,4.038-10.21,9.015-10.218H295.52V308.6Z" fill="#00030c"/>
        <polygon points="291.913 345.383 291.913 384.205 295.519 384.205 295.519 353.556 302.734 353.556 302.734 349.471 295.519 349.471 295.519 345.383 291.913 345.383" fill="#00030c"/>
        <rect x="282.897" y="353.555" width="3.605" height="30.651" fill="#00030c"/>
      </g>
      <g>
        <path d="M258.508,417.563a.4.4,0,0,1,0-.58l1.7-1.823a.4.4,0,0,1,.58,0,9.644,9.644,0,0,0,6.132,2.278c2.9,0,4.349-1.242,4.349-3.024,0-1.574-.745-2.444-3.852-2.776l-2.113-.207c-3.9-.414-5.924-2.361-5.924-5.592,0-3.77,2.693-6.048,7.374-6.048a11.872,11.872,0,0,1,7.043,2.195.4.4,0,0,1,.082.58l-1.408,1.781a.406.406,0,0,1-.58.083,10.445,10.445,0,0,0-5.344-1.616c-2.486,0-3.77,1.119-3.77,2.735,0,1.574.953,2.4,3.894,2.693l2.071.207c4.019.372,5.966,2.4,5.966,5.593,0,3.893-2.817,6.5-8,6.5A12.332,12.332,0,0,1,258.508,417.563Z" fill="#00030c"/>
        <path d="M291.441,420.09a.71.71,0,0,1-.663-.415l-5.634-9.238-3.439,4.019v5.219a.391.391,0,0,1-.414.415H278.64a.392.392,0,0,1-.415-.415V392.334a.392.392,0,0,1,.415-.415h2.651a.391.391,0,0,1,.414.415v17.523l7.83-9.238a.882.882,0,0,1,.746-.373h3.065c.249,0,.332.207.166.414l-6.089,7.085,7.332,11.93a.268.268,0,0,1-.248.415Z" fill="#00030c"/>
        <path d="M298.162,395.772a.392.392,0,0,1-.414-.415v-3.023a.392.392,0,0,1,.414-.415h2.817a.392.392,0,0,1,.415.415v3.023a.392.392,0,0,1-.415.415Zm.083,24.318a.391.391,0,0,1-.414-.415V400.66a.392.392,0,0,1,.414-.414H300.9a.392.392,0,0,1,.414.414v19.015a.391.391,0,0,1-.414.415Z" fill="#00030c"/>
        <path d="M310.822,420.3c-3.48,0-4.848-1.658-4.848-5.22V392.334a.392.392,0,0,1,.415-.415h2.651a.391.391,0,0,1,.414.415V414.87c0,1.657.622,2.195,1.989,2.195h.787a.391.391,0,0,1,.414.415v2.4a.391.391,0,0,1-.414.414Z" fill="#00030c"/>
        <path d="M320.514,420.3c-3.48,0-4.846-1.658-4.846-5.22V392.334a.391.391,0,0,1,.414-.415h2.651a.391.391,0,0,1,.414.415V414.87c0,1.657.622,2.195,1.989,2.195h.787a.391.391,0,0,1,.414.415v2.4a.391.391,0,0,1-.414.414Z" fill="#00030c"/>
        <path d="M324.9,415.16a19.893,19.893,0,0,1-.042-10.026c1.119-3.438,4.019-5.343,7.789-5.343,3.811,0,6.67,1.946,7.788,5.343a17.331,17.331,0,0,1,.621,5.676.4.4,0,0,1-.455.414H328.053a.22.22,0,0,0-.249.248,7.443,7.443,0,0,0,.332,2.4,4.9,4.9,0,0,0,5.013,3.438,6.483,6.483,0,0,0,5.1-2.195.423.423,0,0,1,.622-.083l1.7,1.532a.371.371,0,0,1,.042.58,9.647,9.647,0,0,1-7.747,3.4C328.84,420.546,325.982,418.6,324.9,415.16Zm12.345-6.711a.22.22,0,0,0,.249-.249,6.99,6.99,0,0,0-.29-2.237,4.9,4.9,0,0,0-9.114,0,6.959,6.959,0,0,0-.291,2.237.22.22,0,0,0,.249.249Z" fill="#00030c"/>
        <path d="M357.626,420.09a.391.391,0,0,1-.414-.415V417.77h-.041c-.953,1.574-2.652,2.776-5.635,2.776-3.438,0-5.841-1.617-6.835-4.765a22.732,22.732,0,0,1,0-11.227c.994-3.148,3.4-4.763,6.835-4.763,2.983,0,4.682,1.159,5.635,2.733h.041v-10.19a.392.392,0,0,1,.414-.415h2.652a.392.392,0,0,1,.414.415v27.341a.391.391,0,0,1-.414.415Zm-.869-5.8a12.771,12.771,0,0,0,.455-4.143,12.926,12.926,0,0,0-.455-4.142,4.693,4.693,0,0,0-8.742,0,14.129,14.129,0,0,0-.456,4.142,13.775,13.775,0,0,0,.456,4.143,4.671,4.671,0,0,0,8.742,0Z" fill="#00030c"/>
        <path d="M375.769,427.547a.392.392,0,0,1-.414-.414V400.66a.392.392,0,0,1,.414-.414h2.652a.392.392,0,0,1,.414.414v1.864h.041c.953-1.574,2.652-2.733,5.635-2.733,3.438,0,5.841,1.615,6.835,4.763a22.732,22.732,0,0,1,0,11.227c-.994,3.148-3.4,4.765-6.835,4.765-2.983,0-4.682-1.2-5.635-2.776h-.041v9.363a.392.392,0,0,1-.414.414Zm12.263-13.257a13.775,13.775,0,0,0,.456-4.143,14.129,14.129,0,0,0-.456-4.142,4.693,4.693,0,0,0-8.742,0,12.926,12.926,0,0,0-.455,4.142,12.771,12.771,0,0,0,.455,4.143,4.671,4.671,0,0,0,8.742,0Z" fill="#00030c"/>
        <path d="M395.722,415.16a15.571,15.571,0,0,1-.662-5.013,15.409,15.409,0,0,1,.621-5.013c1.119-3.438,4.018-5.343,7.789-5.343,3.811,0,6.669,1.946,7.788,5.343a17.331,17.331,0,0,1,.621,5.676.4.4,0,0,1-.455.414H398.871a.22.22,0,0,0-.249.248,7.443,7.443,0,0,0,.332,2.4,4.9,4.9,0,0,0,5.013,3.438,6.483,6.483,0,0,0,5.1-2.195.423.423,0,0,1,.622-.083l1.7,1.532a.371.371,0,0,1,.042.58,9.649,9.649,0,0,1-7.747,3.4C399.658,420.546,396.8,418.6,395.722,415.16Zm12.346-6.711a.22.22,0,0,0,.249-.249,6.99,6.99,0,0,0-.29-2.237,4.9,4.9,0,0,0-9.115,0,6.99,6.99,0,0,0-.29,2.237.22.22,0,0,0,.249.249Z" fill="#00030c"/>
        <path d="M415.478,415.2a19.438,19.438,0,0,1,0-10.067c1.077-3.4,3.977-5.343,7.83-5.343s6.752,1.946,7.829,5.343a19.41,19.41,0,0,1,0,10.067c-1.077,3.356-3.977,5.345-7.829,5.345S416.555,418.557,415.478,415.2Zm12.3-.994a12.982,12.982,0,0,0,.456-4.06,12.688,12.688,0,0,0-.456-4.018,4.774,4.774,0,0,0-8.948,0,12.688,12.688,0,0,0-.456,4.018,12.982,12.982,0,0,0,.456,4.06,4.775,4.775,0,0,0,8.948,0Z" fill="#00030c"/>
        <path d="M436.057,427.547a.392.392,0,0,1-.414-.414V400.66a.392.392,0,0,1,.414-.414h2.652a.392.392,0,0,1,.414.414v1.864h.041c.953-1.574,2.652-2.733,5.635-2.733,3.438,0,5.841,1.615,6.835,4.763a22.732,22.732,0,0,1,0,11.227c-.994,3.148-3.4,4.765-6.835,4.765-2.983,0-4.682-1.2-5.635-2.776h-.041v9.363a.392.392,0,0,1-.414.414ZM448.32,414.29a13.775,13.775,0,0,0,.456-4.143,14.129,14.129,0,0,0-.456-4.142,4.693,4.693,0,0,0-8.742,0,12.926,12.926,0,0,0-.455,4.142,12.771,12.771,0,0,0,.455,4.143,4.671,4.671,0,0,0,8.742,0Z" fill="#00030c"/>
        <path d="M461.04,420.3c-3.48,0-4.847-1.658-4.847-5.22V392.334a.392.392,0,0,1,.414-.415h2.652a.392.392,0,0,1,.414.415V414.87c0,1.657.621,2.195,1.988,2.195h.788a.392.392,0,0,1,.414.415v2.4a.391.391,0,0,1-.414.414Z" fill="#00030c"/>
        <path d="M465.43,415.16a15.571,15.571,0,0,1-.662-5.013,15.409,15.409,0,0,1,.621-5.013c1.119-3.438,4.018-5.343,7.789-5.343,3.811,0,6.669,1.946,7.788,5.343a17.331,17.331,0,0,1,.621,5.676.4.4,0,0,1-.455.414H468.579a.22.22,0,0,0-.249.248,7.443,7.443,0,0,0,.332,2.4,4.9,4.9,0,0,0,5.013,3.438,6.483,6.483,0,0,0,5.095-2.195.423.423,0,0,1,.622-.083l1.7,1.532a.371.371,0,0,1,.042.58,9.649,9.649,0,0,1-7.747,3.4C469.366,420.546,466.508,418.6,465.43,415.16Zm12.346-6.711a.22.22,0,0,0,.249-.249,6.99,6.99,0,0,0-.29-2.237,4.9,4.9,0,0,0-9.115,0,6.99,6.99,0,0,0-.29,2.237.22.22,0,0,0,.249.249Z" fill="#00030c"/>
      </g>
      <g>
        <path d="M85.991,410.781a2.18,2.18,0,0,1,.583-1.632l27.851-33.1c3.029-3.5,4.661-6.875,4.661-10.954,0-5.243-3.147-9.089-8.624-9.089-5.36,0-8.623,3.263-9.322,9.323,0,.7-.466,1.049-1.282.932l-12.818-2.1a1.13,1.13,0,0,1-.933-1.4c.816-10.954,9.673-20.51,24.938-20.51,15.149,0,24.355,9.79,24.355,22.608,0,7.574-3.03,13.517-8.04,19.227L106.5,408.683v.234h27.735a1.1,1.1,0,0,1,1.165,1.165v11.536a1.1,1.1,0,0,1-1.165,1.166H87.156a1.1,1.1,0,0,1-1.165-1.166Z" fill="#00030c"/>
        <path d="M142.7,383.163c0-17.6.582-21.209,1.748-24.7,3.262-10.139,11.419-16.2,23.888-16.2s20.627,6.06,23.889,16.2c1.166,3.5,1.748,7.108,1.748,24.7s-.582,21.209-1.748,24.7c-3.262,10.138-11.42,16.2-23.889,16.2s-20.626-6.059-23.888-16.2C143.28,404.372,142.7,400.759,142.7,383.163Zm25.636,27.152c4.079,0,6.876-1.748,8.041-5.36.7-2.1.932-4.429.932-21.792s-.233-19.694-.932-21.791c-1.165-3.613-3.962-5.361-8.041-5.361-4.195,0-6.875,1.748-8.04,5.361-.7,2.1-.932,4.428-.932,21.791s.233,19.694.932,21.792C161.459,408.567,164.139,410.315,168.334,410.315Z" fill="#00030c"/>
        <path d="M201.98,383.163c0-17.6.582-21.209,1.748-24.7,3.262-10.139,11.42-16.2,23.888-16.2s20.627,6.06,23.89,16.2c1.165,3.5,1.748,7.108,1.748,24.7s-.583,21.209-1.748,24.7c-3.263,10.138-11.42,16.2-23.89,16.2s-20.626-6.059-23.888-16.2C202.562,404.372,201.98,400.759,201.98,383.163Zm25.636,27.152c4.079,0,6.876-1.748,8.041-5.36.7-2.1.933-4.429.933-21.792s-.233-19.694-.933-21.791c-1.165-3.613-3.962-5.361-8.041-5.361-4.194,0-6.875,1.748-8.04,5.361-.7,2.1-.932,4.428-.932,21.791s.233,19.694.932,21.792C220.741,408.567,223.422,410.315,227.616,410.315Z" fill="#00030c"/>
      </g>
    </g>
    <g>
      <g>
        <path d="M289.7,664.517H214.683V550.372H289.7Zm1.973-118.374H212.706a2.055,2.055,0,0,0-1.973,2.115V666.632a2.054,2.054,0,0,0,1.973,2.112h78.967a2.053,2.053,0,0,0,1.974-2.112V548.258a2.054,2.054,0,0,0-1.974-2.115" fill="#4b4b4a"/>
        <path d="M252.19,596.689a7.575,7.575,0,1,1,7.057-7.557,7.316,7.316,0,0,1-7.057,7.557m0-19.341c-6.07,0-11.006,5.285-11.006,11.784s4.936,11.786,11.006,11.786,11.007-5.285,11.007-11.786-4.937-11.784-11.007-11.784" fill="#4b4b4a"/>
        <path d="M266.5,608.37a2.052,2.052,0,0,0-1.454,1.558l-.989,4.307-6-6.421a5.381,5.381,0,0,0,1.186-.395,6.761,6.761,0,0,0,3.8-4.677,2.694,2.694,0,0,1,1.482-1.824l5.973,6.393Zm-11.029-5.023a6.147,6.147,0,0,0-6.564,0,2.4,2.4,0,0,1-2.272.161,2.785,2.785,0,0,1-1.5-1.85,6.735,6.735,0,0,0-4.641-4.969,2.572,2.572,0,0,1-1.725-1.612,2.88,2.88,0,0,1,.147-2.43,7.388,7.388,0,0,0,0-7.029,2.79,2.79,0,0,1-.147-2.429,2.709,2.709,0,0,1,1.725-1.614,6.729,6.729,0,0,0,4.641-4.967,2.644,2.644,0,0,1,1.5-1.85,2.574,2.574,0,0,1,.989-.21,2.477,2.477,0,0,1,1.283.371,6.147,6.147,0,0,0,6.564,0,2.322,2.322,0,0,1,2.27-.161,2.774,2.774,0,0,1,1.506,1.85,6.732,6.732,0,0,0,4.638,4.967,2.576,2.576,0,0,1,1.728,1.614,2.889,2.889,0,0,1-.149,2.429,7.4,7.4,0,0,0,0,7.029,2.891,2.891,0,0,1,.149,2.43,2.7,2.7,0,0,1-1.728,1.612,6.738,6.738,0,0,0-4.638,4.969,2.661,2.661,0,0,1-1.506,1.85,2.4,2.4,0,0,1-2.27-.161m-15.152,10.86-.987-4.306a2.107,2.107,0,0,0-1.457-1.559l-4.021-1.056,5.97-6.4a2.634,2.634,0,0,1,1.482,1.824,6.767,6.767,0,0,0,3.8,4.677,10.521,10.521,0,0,0,1.183.395Zm35.485-7.239-7.723-8.245a7.324,7.324,0,0,0,.788-8.19,2.923,2.923,0,0,1,0-2.775,7.328,7.328,0,0,0,.4-6.183,6.586,6.586,0,0,0-4.367-4.069,2.678,2.678,0,0,1-1.827-1.954,6.756,6.756,0,0,0-3.8-4.677,6.066,6.066,0,0,0-5.774.423,2.411,2.411,0,0,1-2.59,0,6.066,6.066,0,0,0-5.774-.423,6.763,6.763,0,0,0-3.8,4.677,2.67,2.67,0,0,1-1.827,1.954,6.64,6.64,0,0,0-4.367,4.069,7.332,7.332,0,0,0,.395,6.183,2.907,2.907,0,0,1,0,2.775,7.332,7.332,0,0,0-.395,6.183,7.215,7.215,0,0,0,1.186,2.007l-7.7,8.245a2.211,2.211,0,0,0-.492,2.062,2.048,2.048,0,0,0,1.432,1.479l6.266,1.639,1.531,6.711a2.056,2.056,0,0,0,1.383,1.531,1.787,1.787,0,0,0,.541.081,1.9,1.9,0,0,0,1.407-.636l11.548-12.364,11.549,12.364a1.957,1.957,0,0,0,1.407.636,1.972,1.972,0,0,0,1.923-1.612l1.532-6.711,6.269-1.639a2.044,2.044,0,0,0,1.429-1.479,2.365,2.365,0,0,0-.542-2.062" fill="#4b4b4a"/>
        <path d="M280.816,646.762a10.286,10.286,0,0,0-7.7,8.242H231.264a10.284,10.284,0,0,0-7.7-8.242V568.127a10.284,10.284,0,0,0,7.7-8.243h41.851a10.286,10.286,0,0,0,7.7,8.243Zm1.973-82.651a6.162,6.162,0,0,1-5.923-6.341,2.053,2.053,0,0,0-1.974-2.115h-45.4a2.054,2.054,0,0,0-1.974,2.115,6.16,6.16,0,0,1-5.923,6.341,2.054,2.054,0,0,0-1.973,2.114v82.439a2.056,2.056,0,0,0,1.973,2.114,6.16,6.16,0,0,1,5.923,6.341,2.055,2.055,0,0,0,1.974,2.114h45.405a2.054,2.054,0,0,0,1.974-2.114,6.162,6.162,0,0,1,5.923-6.341,2.055,2.055,0,0,0,1.974-2.114V566.225a2.053,2.053,0,0,0-1.974-2.114" fill="#4b4b4a"/>
        <path d="M276.373,628.582A2.053,2.053,0,0,1,274.4,630.7H229.981a2.12,2.12,0,0,1,0-4.229H274.4a2.052,2.052,0,0,1,1.973,2.114" fill="#4b4b4a"/>
        <path d="M272.425,641.265a2.053,2.053,0,0,1-1.973,2.115H233.93a2.12,2.12,0,0,1,0-4.23h36.522a2.053,2.053,0,0,1,1.973,2.115" fill="#4b4b4a"/>
      </g>
      <g>
        <path d="M54.722,537.2a.391.391,0,0,1-.414-.414v-11.6c0-3.19-1.45-5.054-4.433-5.054-2.651,0-4.557,1.906-4.557,4.847v11.807a.391.391,0,0,1-.414.414H42.253a.391.391,0,0,1-.415-.414v-11.6c0-3.19-1.45-5.054-4.432-5.054-2.693,0-4.558,1.906-4.558,4.847v11.807a.391.391,0,0,1-.414.414H29.783a.391.391,0,0,1-.415-.414V517.767a.392.392,0,0,1,.415-.414h2.651a.391.391,0,0,1,.414.414v1.824h.042a6.27,6.27,0,0,1,5.551-2.693,6.236,6.236,0,0,1,5.8,3.107h.041A7.388,7.388,0,0,1,50.7,516.9c4.6,0,7.084,2.941,7.084,7.456v12.429a.391.391,0,0,1-.414.414Z" fill="#4b4b4a"/>
        <path d="M62.176,532.308a19.435,19.435,0,0,1,0-10.066c1.077-3.4,3.977-5.344,7.83-5.344s6.753,1.946,7.83,5.344a19.435,19.435,0,0,1,0,10.066c-1.077,3.357-3.977,5.345-7.83,5.345S63.253,535.665,62.176,532.308Zm12.3-.994a12.975,12.975,0,0,0,.456-4.059,12.691,12.691,0,0,0-.456-4.019,4.775,4.775,0,0,0-8.948,0,12.691,12.691,0,0,0-.456,4.019,12.975,12.975,0,0,0,.456,4.059,4.774,4.774,0,0,0,8.948,0Z" fill="#4b4b4a"/>
        <path d="M82.756,537.2a.391.391,0,0,1-.415-.414V517.767a.392.392,0,0,1,.415-.414h2.651a.391.391,0,0,1,.414.414V519.8h.042a5.526,5.526,0,0,1,5.261-2.9,6.094,6.094,0,0,1,4.06,1.491c.207.207.248.373.082.58L93.734,521a.375.375,0,0,1-.58.083,5.593,5.593,0,0,0-3.066-.953c-3.024,0-4.267,2.361-4.267,5.8v10.854a.391.391,0,0,1-.414.414Z" fill="#4b4b4a"/>
        <path d="M97.116,532.267a15.564,15.564,0,0,1-.662-5.012,15.4,15.4,0,0,1,.621-5.013c1.119-3.439,4.019-5.344,7.789-5.344,3.811,0,6.669,1.946,7.788,5.344a17.323,17.323,0,0,1,.621,5.676.4.4,0,0,1-.455.414H100.265a.22.22,0,0,0-.249.249,7.439,7.439,0,0,0,.332,2.4,4.9,4.9,0,0,0,5.013,3.439,6.484,6.484,0,0,0,5.095-2.2.423.423,0,0,1,.622-.083l1.7,1.532a.373.373,0,0,1,.042.581,9.648,9.648,0,0,1-7.747,3.4C101.052,537.653,98.194,535.706,97.116,532.267Zm12.346-6.711a.22.22,0,0,0,.249-.249,6.99,6.99,0,0,0-.29-2.237,4.9,4.9,0,0,0-9.115,0,6.99,6.99,0,0,0-.29,2.237.22.22,0,0,0,.249.249Z" fill="#4b4b4a"/>
        <path d="M132.492,537.4c-3.852,0-5.343-1.739-5.343-5.634V520.419a.22.22,0,0,0-.249-.248h-1.657a.392.392,0,0,1-.415-.414v-1.99a.392.392,0,0,1,.415-.414H126.9a.22.22,0,0,0,.249-.248v-5.593a.391.391,0,0,1,.414-.415h2.651a.391.391,0,0,1,.414.415v5.593a.22.22,0,0,0,.249.248h3.149a.392.392,0,0,1,.414.414v1.99a.392.392,0,0,1-.414.414h-3.149a.22.22,0,0,0-.249.248v11.227c0,1.988.746,2.527,2.528,2.527h.87a.392.392,0,0,1,.414.415v2.4a.391.391,0,0,1-.414.414Z" fill="#4b4b4a"/>
        <path d="M150.687,537.2a.391.391,0,0,1-.415-.414v-11.6c0-3.19-1.449-5.054-4.432-5.054-2.693,0-4.558,1.906-4.558,4.847v11.807a.391.391,0,0,1-.414.414h-2.651a.391.391,0,0,1-.414-.414V509.441a.392.392,0,0,1,.414-.415h2.651a.391.391,0,0,1,.414.415v10.15h.042a6.27,6.27,0,0,1,5.551-2.693c4.309,0,6.877,2.941,6.877,7.456v12.429a.391.391,0,0,1-.414.414Z" fill="#4b4b4a"/>
        <path d="M170.268,537.2a.391.391,0,0,1-.415-.414v-1.74h-.041c-.911,1.492-2.859,2.61-5.883,2.61-3.77,0-6.669-1.947-6.669-5.966,0-4.183,2.9-6.131,7.747-6.131h4.515a.22.22,0,0,0,.249-.249v-1.45c0-2.733-1.077-3.893-4.764-3.893a7.718,7.718,0,0,0-4.806,1.408c-.207.166-.456.166-.58-.041l-1.119-1.906a.441.441,0,0,1,.083-.581,11.015,11.015,0,0,1,6.753-1.946c5.634,0,7.788,1.864,7.788,6.752v13.133a.391.391,0,0,1-.414.414Zm-.5-6.421v-2.195a.22.22,0,0,0-.249-.249h-3.977c-3.438,0-4.93.994-4.93,3.231,0,2.03,1.492,3.108,4.143,3.108C167.865,534.671,169.771,533.22,169.771,530.776Z" fill="#4b4b4a"/>
        <path d="M190.694,537.2a.391.391,0,0,1-.414-.414v-11.6c0-3.19-1.45-5.054-4.433-5.054-2.693,0-4.557,1.906-4.557,4.847v11.807a.391.391,0,0,1-.414.414h-2.652a.391.391,0,0,1-.414-.414V517.767a.392.392,0,0,1,.414-.414h2.652a.392.392,0,0,1,.414.414v1.824h.041a6.272,6.272,0,0,1,5.552-2.693c4.308,0,6.877,2.941,6.877,7.456v12.429a.391.391,0,0,1-.415.414Z" fill="#4b4b4a"/>
      </g>
      <g>
        <path d="M306.678,672.664a.392.392,0,0,1-.415-.414v-2.4a.392.392,0,0,1,.415-.414h.745c1.616,0,2.485-.7,3.356-2.982l.663-1.823-7.292-18.85c-.083-.248.042-.414.332-.414h2.9a.485.485,0,0,1,.5.414l5.219,14.334h.083l5.013-14.334a.485.485,0,0,1,.5-.414h2.818c.248,0,.414.166.331.414l-7.83,20.963c-1.74,4.681-3.273,5.924-6.256,5.924Z" fill="#4b4b4a"/>
        <path d="M323.843,660.277a15.562,15.562,0,0,1-.663-5.013,15.366,15.366,0,0,1,.622-5.012c1.118-3.439,4.018-5.345,7.788-5.345,3.812,0,6.67,1.947,7.789,5.345a17.317,17.317,0,0,1,.621,5.674.405.405,0,0,1-.456.416H326.991a.219.219,0,0,0-.248.248,7.445,7.445,0,0,0,.331,2.4,4.9,4.9,0,0,0,5.013,3.438,6.481,6.481,0,0,0,5.1-2.2.422.422,0,0,1,.621-.082l1.7,1.532a.371.371,0,0,1,.041.58,9.647,9.647,0,0,1-7.747,3.4C327.779,665.663,324.92,663.716,323.843,660.277Zm12.346-6.712a.219.219,0,0,0,.248-.248,6.986,6.986,0,0,0-.29-2.237,4.9,4.9,0,0,0-9.114,0,6.986,6.986,0,0,0-.29,2.237.219.219,0,0,0,.248.248Z" fill="#4b4b4a"/>
        <path d="M355.782,665.207a.392.392,0,0,1-.415-.414v-1.741h-.041c-.911,1.492-2.858,2.611-5.882,2.611-3.77,0-6.67-1.947-6.67-5.966,0-4.185,2.9-6.132,7.747-6.132h4.515a.219.219,0,0,0,.249-.248v-1.45c0-2.734-1.077-3.894-4.764-3.894a7.705,7.705,0,0,0-4.806,1.409c-.207.166-.455.166-.58-.042l-1.119-1.906a.439.439,0,0,1,.083-.58,11.01,11.01,0,0,1,6.753-1.947c5.634,0,7.788,1.864,7.788,6.753v13.133a.391.391,0,0,1-.414.414Zm-.5-6.421v-2.2a.22.22,0,0,0-.249-.248h-3.977c-3.438,0-4.93.994-4.93,3.231,0,2.029,1.492,3.106,4.143,3.106C353.379,662.679,355.285,661.229,355.285,658.786Z" fill="#4b4b4a"/>
        <path d="M363.739,665.207a.392.392,0,0,1-.415-.414V645.777a.392.392,0,0,1,.415-.414h2.651a.392.392,0,0,1,.414.414v2.03h.041a5.531,5.531,0,0,1,5.262-2.9,6.1,6.1,0,0,1,4.06,1.491c.207.208.248.373.082.58l-1.532,2.031a.376.376,0,0,1-.581.083,5.58,5.58,0,0,0-3.065-.954c-3.024,0-4.267,2.362-4.267,5.8v10.855a.392.392,0,0,1-.414.414Z" fill="#4b4b4a"/>
        <path d="M377.466,662.679a.4.4,0,0,1,0-.58l1.7-1.822a.4.4,0,0,1,.58,0,9.644,9.644,0,0,0,6.132,2.278c2.9,0,4.349-1.243,4.349-3.024,0-1.574-.745-2.444-3.852-2.775l-2.113-.207c-3.895-.415-5.924-2.362-5.924-5.593,0-3.771,2.693-6.049,7.374-6.049a11.872,11.872,0,0,1,7.043,2.2.4.4,0,0,1,.082.58l-1.408,1.782a.406.406,0,0,1-.58.083,10.436,10.436,0,0,0-5.344-1.617c-2.486,0-3.77,1.119-3.77,2.735,0,1.574.953,2.4,3.894,2.692l2.072.207c4.018.373,5.965,2.4,5.965,5.593,0,3.894-2.817,6.5-8,6.5A12.322,12.322,0,0,1,377.466,662.679Z" fill="#4b4b4a"/>
        <path d="M406.462,660.318a19.463,19.463,0,0,1,0-10.066c1.077-3.4,3.977-5.345,7.83-5.345s6.753,1.947,7.83,5.345a19.435,19.435,0,0,1,0,10.066c-1.077,3.356-3.977,5.345-7.83,5.345S407.539,663.674,406.462,660.318Zm12.3-.994a12.978,12.978,0,0,0,.456-4.06,12.684,12.684,0,0,0-.456-4.018,4.774,4.774,0,0,0-8.948,0,12.713,12.713,0,0,0-.456,4.018,13.008,13.008,0,0,0,.456,4.06,4.775,4.775,0,0,0,8.948,0Z" fill="#4b4b4a"/>
        <path d="M427.564,665.207a.391.391,0,0,1-.414-.414V648.428a.219.219,0,0,0-.249-.248h-1.7a.392.392,0,0,1-.414-.415v-1.988a.392.392,0,0,1,.414-.414h1.7a.22.22,0,0,0,.249-.249v-1.7c0-4.682,1.905-6.38,6.048-6.38h1.533a.392.392,0,0,1,.414.414v2.4a.392.392,0,0,1-.414.414h-1.077c-2.527,0-3.024.539-3.024,2.983v1.864a.219.219,0,0,0,.248.249h3.853a.392.392,0,0,1,.414.414v1.988a.392.392,0,0,1-.414.415h-3.853a.219.219,0,0,0-.248.248v16.365a.392.392,0,0,1-.415.414Z" fill="#4b4b4a"/>
        <path d="M281.879,700.735a15.562,15.562,0,0,1-.663-5.013,15.4,15.4,0,0,1,.621-5.012c1.119-3.439,4.019-5.345,7.789-5.345,3.811,0,6.67,1.947,7.788,5.345a17.32,17.32,0,0,1,.621,5.675.4.4,0,0,1-.455.415H285.027a.219.219,0,0,0-.248.248,7.445,7.445,0,0,0,.331,2.4,4.9,4.9,0,0,0,5.013,3.438,6.484,6.484,0,0,0,5.1-2.2.422.422,0,0,1,.621-.082l1.7,1.532a.371.371,0,0,1,.042.58,9.647,9.647,0,0,1-7.747,3.4C285.814,706.121,282.956,704.174,281.879,700.735Zm12.345-6.712a.219.219,0,0,0,.249-.248,6.986,6.986,0,0,0-.29-2.237,4.895,4.895,0,0,0-9.114,0,6.986,6.986,0,0,0-.29,2.237.219.219,0,0,0,.248.248Z" fill="#4b4b4a"/>
        <path d="M313.772,705.665c-.29,0-.414-.083-.621-.373l-4.806-7H308.3l-4.806,7a.618.618,0,0,1-.621.373h-2.942c-.331,0-.414-.207-.29-.414l6.753-9.943-6.173-9.073c-.124-.207-.041-.414.29-.414H303.5a.591.591,0,0,1,.621.373l4.185,6.173h.041l4.267-6.173a.6.6,0,0,1,.58-.373h2.983c.332,0,.414.207.29.414l-6.214,9.073,6.794,9.943c.124.207.042.414-.29.414Z" fill="#4b4b4a"/>
        <path d="M320.536,713.122a.392.392,0,0,1-.415-.414V686.235a.392.392,0,0,1,.415-.414h2.651a.391.391,0,0,1,.414.414V688.1h.042c.952-1.574,2.651-2.734,5.634-2.734,3.439,0,5.841,1.616,6.836,4.765a22.728,22.728,0,0,1,0,11.226c-1,3.149-3.4,4.765-6.836,4.765-2.983,0-4.682-1.2-5.634-2.777H323.6v9.364a.391.391,0,0,1-.414.414ZM332.8,699.865a13.747,13.747,0,0,0,.456-4.143,14.1,14.1,0,0,0-.456-4.142,4.693,4.693,0,0,0-8.741,0,12.916,12.916,0,0,0-.456,4.142,12.761,12.761,0,0,0,.456,4.143,4.67,4.67,0,0,0,8.741,0Z" fill="#4b4b4a"/>
        <path d="M340.49,700.735a19.889,19.889,0,0,1-.042-10.025c1.119-3.439,4.019-5.345,7.789-5.345,3.811,0,6.67,1.947,7.788,5.345a17.32,17.32,0,0,1,.621,5.675.4.4,0,0,1-.455.415H343.638a.22.22,0,0,0-.249.248,7.441,7.441,0,0,0,.332,2.4,4.9,4.9,0,0,0,5.013,3.438,6.48,6.48,0,0,0,5.1-2.2.423.423,0,0,1,.622-.082l1.7,1.532a.371.371,0,0,1,.042.58,9.649,9.649,0,0,1-7.747,3.4C344.425,706.121,341.567,704.174,340.49,700.735Zm12.345-6.712a.219.219,0,0,0,.249-.248,6.986,6.986,0,0,0-.29-2.237,4.9,4.9,0,0,0-9.115,0,6.986,6.986,0,0,0-.29,2.237.219.219,0,0,0,.249.248Z" fill="#4b4b4a"/>
        <path d="M360.845,705.665a.392.392,0,0,1-.414-.414V686.235a.392.392,0,0,1,.414-.414H363.5a.392.392,0,0,1,.414.414v2.03h.041a5.531,5.531,0,0,1,5.262-2.9,6.1,6.1,0,0,1,4.06,1.491c.207.208.248.373.082.58l-1.532,2.031a.376.376,0,0,1-.581.083,5.58,5.58,0,0,0-3.065-.954c-3.024,0-4.267,2.362-4.267,5.8v10.855a.392.392,0,0,1-.414.414Z" fill="#4b4b4a"/>
        <path d="M376.507,681.346a.391.391,0,0,1-.414-.414v-3.024a.392.392,0,0,1,.414-.414h2.817a.392.392,0,0,1,.415.414v3.024a.391.391,0,0,1-.415.414Zm.083,24.319a.392.392,0,0,1-.414-.414V686.235a.392.392,0,0,1,.414-.414h2.651a.392.392,0,0,1,.415.414v19.016a.392.392,0,0,1-.415.414Z" fill="#4b4b4a"/>
        <path d="M384.1,700.735a15.562,15.562,0,0,1-.663-5.013,15.4,15.4,0,0,1,.621-5.012c1.119-3.439,4.019-5.345,7.789-5.345,3.811,0,6.67,1.947,7.788,5.345a17.313,17.313,0,0,1,.622,5.675.4.4,0,0,1-.456.415H387.252a.219.219,0,0,0-.248.248,7.445,7.445,0,0,0,.331,2.4,4.9,4.9,0,0,0,5.013,3.438,6.484,6.484,0,0,0,5.1-2.2.422.422,0,0,1,.621-.082l1.7,1.532a.371.371,0,0,1,.042.58,9.647,9.647,0,0,1-7.747,3.4C388.039,706.121,385.181,704.174,384.1,700.735Zm12.345-6.712a.219.219,0,0,0,.249-.248,6.986,6.986,0,0,0-.29-2.237,4.895,4.895,0,0,0-9.114,0,6.986,6.986,0,0,0-.29,2.237.219.219,0,0,0,.248.248Z" fill="#4b4b4a"/>
        <path d="M416.929,705.665a.392.392,0,0,1-.414-.414v-11.6c0-3.19-1.45-5.055-4.433-5.055-2.693,0-4.557,1.907-4.557,4.848v11.807a.391.391,0,0,1-.414.414H404.46a.392.392,0,0,1-.415-.414V686.235a.392.392,0,0,1,.415-.414h2.651a.391.391,0,0,1,.414.414v1.823h.042a6.271,6.271,0,0,1,5.551-2.693c4.309,0,6.877,2.941,6.877,7.457v12.429a.392.392,0,0,1-.414.414Z" fill="#4b4b4a"/>
        <path d="M424.3,690.71c1.119-3.439,4.019-5.345,7.83-5.345a7.957,7.957,0,0,1,6.794,3.355c.125.208.125.373-.124.58l-1.823,1.493a.371.371,0,0,1-.58-.042,4.877,4.877,0,0,0-4.267-2.155A4.305,4.305,0,0,0,427.7,691.7a18.077,18.077,0,0,0,0,8.078,4.3,4.3,0,0,0,4.432,3.107,4.879,4.879,0,0,0,4.267-2.154.371.371,0,0,1,.58-.042l1.823,1.492c.249.207.249.372.124.579a7.954,7.954,0,0,1-6.794,3.357c-3.811,0-6.711-1.906-7.83-5.345a20.706,20.706,0,0,1,0-10.066Z" fill="#4b4b4a"/>
        <path d="M442.005,700.735a15.566,15.566,0,0,1-.662-5.013,15.4,15.4,0,0,1,.621-5.012c1.118-3.439,4.018-5.345,7.788-5.345,3.812,0,6.67,1.947,7.789,5.345a17.32,17.32,0,0,1,.621,5.675.4.4,0,0,1-.456.415H445.154a.22.22,0,0,0-.249.248,7.441,7.441,0,0,0,.332,2.4,4.9,4.9,0,0,0,5.012,3.438,6.481,6.481,0,0,0,5.1-2.2.423.423,0,0,1,.622-.082l1.7,1.532a.371.371,0,0,1,.041.58,9.647,9.647,0,0,1-7.747,3.4C445.941,706.121,443.082,704.174,442.005,700.735Zm12.346-6.712a.219.219,0,0,0,.248-.248,6.986,6.986,0,0,0-.29-2.237,4.895,4.895,0,0,0-9.114,0,6.986,6.986,0,0,0-.29,2.237.219.219,0,0,0,.249.248Z" fill="#4b4b4a"/>
      </g>
      <g>
        <path d="M44.371,562.4h-.252L30.5,571.736c-.756.5-1.387.252-1.387-.757V555.337a2.045,2.045,0,0,1,.883-1.766l14.38-10.344a3.521,3.521,0,0,1,2.271-.757H60.77a1.193,1.193,0,0,1,1.262,1.262v83.255a1.193,1.193,0,0,1-1.262,1.262H45.633a1.193,1.193,0,0,1-1.262-1.262Z" fill="#4b4b4a"/>
        <path d="M77.89,585.36c0-19.048.631-22.959,1.892-26.743,3.533-10.975,12.363-17.534,25.86-17.534s22.328,6.559,25.86,17.534c1.261,3.784,1.892,7.7,1.892,26.743s-.631,22.958-1.892,26.742c-3.532,10.975-12.363,17.534-25.86,17.534s-22.327-6.559-25.86-17.534C78.521,608.318,77.89,604.408,77.89,585.36Zm27.752,29.392c4.415,0,7.443-1.893,8.7-5.8.757-2.271,1.009-4.794,1.009-23.589s-.252-21.318-1.009-23.59c-1.261-3.91-4.289-5.8-8.7-5.8-4.541,0-7.443,1.893-8.7,5.8-.757,2.272-1.009,4.794-1.009,23.59s.252,21.318,1.009,23.589C98.2,612.859,101.1,614.752,105.642,614.752Z" fill="#4b4b4a"/>
        <path d="M142.063,585.36c0-19.048.631-22.959,1.892-26.743,3.532-10.975,12.362-17.534,25.86-17.534s22.327,6.559,25.859,17.534c1.261,3.784,1.892,7.7,1.892,26.743s-.631,22.958-1.892,26.742c-3.532,10.975-12.362,17.534-25.859,17.534s-22.328-6.559-25.86-17.534C142.694,608.318,142.063,604.408,142.063,585.36Zm27.752,29.392c4.415,0,7.442-1.893,8.7-5.8.757-2.271,1.01-4.794,1.01-23.589s-.253-21.318-1.01-23.59c-1.261-3.91-4.288-5.8-8.7-5.8-4.542,0-7.443,1.893-8.7,5.8-.757,2.272-1.01,4.794-1.01,23.59s.253,21.318,1.01,23.589C162.372,612.859,165.273,614.752,169.815,614.752Z" fill="#4b4b4a"/>
      </g>
    </g>
    <g>
      <path d="M95.745,941.726a30.741,30.741,0,0,0,2.808-4.414c2.869-5.4,5.238-12.85,6.885-21.632a9.967,9.967,0,0,0,8.74-7.623h23.39A55.991,55.991,0,0,1,95.745,941.726ZM40.118,927.693a5.187,5.187,0,1,1,5.188,5.268,5.234,5.234,0,0,1-5.188-5.268m18.2-58.9a10.035,10.035,0,0,0,6.6,7.184c-.183,3.308-.282,6.68-.282,10.055,0,5.924.282,11.715.826,17.243H33.31a57.827,57.827,0,0,1,.014-34.482Zm9.616-7.662a5.269,5.269,0,1,1-5.185,5.268,5.234,5.234,0,0,1,5.185-5.268m18.392-31.61c3.95,0,8.223,5.838,11.433,15.617A106.844,106.844,0,0,1,101.892,864H77.554a10.048,10.048,0,0,0-5.682-6.833c3.584-19.078,9.773-27.649,14.458-27.649m46.213,14.849a5.188,5.188,0,1,1-5.188-5.269,5.234,5.234,0,0,1,5.188,5.269m-30.305-.747a45.057,45.057,0,0,0-6.468-13.3,54.461,54.461,0,0,1,22.712,9.583,10.118,10.118,0,0,0-1.028,4.462,9.991,9.991,0,0,0,9.9,10.055,9.706,9.706,0,0,0,4.392-1.047A56.523,56.523,0,0,1,137.6,864H106.646A112.8,112.8,0,0,0,102.238,843.618Zm2.324,67.314a5.269,5.269,0,1,1,5.186-5.269,5.235,5.235,0,0,1-5.186,5.269m-35.209-24.9c0-3.267.094-6.526.271-9.726a9.986,9.986,0,0,0,7.93-7.513h24.9a171.7,171.7,0,0,1,.849,17.239c0,3.259-.094,6.51-.269,9.7a9.987,9.987,0,0,0-8.09,7.543H70.2a171.738,171.738,0,0,1-.849-17.243m-24.047,31.61a9.744,9.744,0,0,0-4.392,1.045,56.4,56.4,0,0,1-5.852-10.625h30.95a113,113,0,0,0,4.411,20.382,45.149,45.149,0,0,0,6.465,13.3,54.5,54.5,0,0,1-22.712-9.58,10.078,10.078,0,0,0-8.87-14.517m41.024,24.9c-3.95,0-8.226-5.838-11.435-15.614a107.133,107.133,0,0,1-4.129-18.865h24.18a10.057,10.057,0,0,0,5.829,6.9C97.188,933.99,91,942.539,86.33,942.539m52.99-39.269H114.178a10.039,10.039,0,0,0-6.443-7.132c.185-3.325.285-6.714.285-10.111,0-5.92-.282-11.714-.826-17.239h32.157a57.712,57.712,0,0,1-.031,34.482m-3.961-53a10.109,10.109,0,0,0,1.9-5.909,9.992,9.992,0,0,0-9.9-10.059,9.74,9.74,0,0,0-5.819,1.927,59.628,59.628,0,0,0-69.972-.321A2.42,2.42,0,0,0,51,839.251a2.338,2.338,0,0,0,3.287.575,54.715,54.715,0,0,1,22.637-9.506,30.717,30.717,0,0,0-2.833,4.456c-2.861,5.4-5.221,12.831-6.866,21.59a9.963,9.963,0,0,0-8.9,7.632H35.073a56.865,56.865,0,0,1,5.039-9.448,2.418,2.418,0,0,0-.644-3.322,2.333,2.333,0,0,0-3.27.652,62.1,62.1,0,0,0,1.1,69.9,10.119,10.119,0,0,0-1.9,5.91,9.992,9.992,0,0,0,9.9,10.058,9.754,9.754,0,0,0,5.818-1.926,59.666,59.666,0,0,0,77.884-6.451,62.026,62.026,0,0,0,6.351-79.1" fill="#00030c"/>
      <path d="M44.848,847.251a2.358,2.358,0,0,0,1.67-.7,2.427,2.427,0,0,0,0-3.386,2.334,2.334,0,0,0-3.337,0,2.419,2.419,0,0,0,0,3.386,2.351,2.351,0,0,0,1.667.7" fill="#00030c"/>
      <g>
        <path d="M143.2,825.929a.392.392,0,0,1-.415-.414V799.043a.392.392,0,0,1,.415-.414h2.651a.392.392,0,0,1,.414.414v1.864h.041c.953-1.574,2.652-2.734,5.635-2.734,3.438,0,5.841,1.616,6.835,4.764a22.732,22.732,0,0,1,0,11.227c-.994,3.148-3.4,4.764-6.835,4.764-2.983,0-4.682-1.2-5.635-2.776h-.041v9.363a.392.392,0,0,1-.414.414Zm12.262-13.256a13.788,13.788,0,0,0,.456-4.143,14.141,14.141,0,0,0-.456-4.143,4.693,4.693,0,0,0-8.741,0,12.9,12.9,0,0,0-.456,4.143,12.74,12.74,0,0,0,.456,4.143,4.67,4.67,0,0,0,8.741,0Z" fill="#00030c"/>
        <path d="M163.839,818.472a.392.392,0,0,1-.414-.414V799.043a.392.392,0,0,1,.414-.414h2.651a.392.392,0,0,1,.415.414v2.03h.041a5.529,5.529,0,0,1,5.261-2.9,6.1,6.1,0,0,1,4.06,1.491c.207.208.249.373.083.58l-1.533,2.03a.375.375,0,0,1-.58.083,5.587,5.587,0,0,0-3.065-.953c-3.025,0-4.267,2.361-4.267,5.8v10.854a.392.392,0,0,1-.415.414Z" fill="#00030c"/>
        <path d="M178.2,813.543a15.566,15.566,0,0,1-.663-5.013,15.4,15.4,0,0,1,.621-5.013c1.119-3.438,4.019-5.344,7.789-5.344,3.812,0,6.67,1.947,7.789,5.344a17.327,17.327,0,0,1,.621,5.676.4.4,0,0,1-.456.414H181.348a.219.219,0,0,0-.248.248,7.456,7.456,0,0,0,.331,2.4,4.9,4.9,0,0,0,5.013,3.438,6.483,6.483,0,0,0,5.1-2.2.422.422,0,0,1,.621-.082l1.7,1.532a.371.371,0,0,1,.041.58,9.65,9.65,0,0,1-7.747,3.4C182.136,818.928,179.277,816.981,178.2,813.543Zm12.346-6.712a.219.219,0,0,0,.248-.248,7,7,0,0,0-.29-2.238,4.9,4.9,0,0,0-9.114,0,7,7,0,0,0-.29,2.238.219.219,0,0,0,.248.248Z" fill="#00030c"/>
        <path d="M197.106,815.945a.4.4,0,0,1,0-.58l1.7-1.822a.4.4,0,0,1,.581,0,9.64,9.64,0,0,0,6.131,2.278c2.9,0,4.349-1.243,4.349-3.024,0-1.575-.745-2.445-3.852-2.776l-2.113-.207c-3.894-.414-5.924-2.361-5.924-5.593,0-3.77,2.693-6.048,7.374-6.048a11.87,11.87,0,0,1,7.043,2.2.4.4,0,0,1,.082.58l-1.408,1.781a.406.406,0,0,1-.58.083,10.442,10.442,0,0,0-5.344-1.616c-2.486,0-3.77,1.118-3.77,2.734,0,1.575.953,2.4,3.894,2.693l2.072.207c4.018.373,5.965,2.4,5.965,5.593,0,3.894-2.817,6.5-8,6.5A12.327,12.327,0,0,1,197.106,815.945Z" fill="#00030c"/>
        <path d="M216.757,813.543a15.571,15.571,0,0,1-.662-5.013,15.4,15.4,0,0,1,.621-5.013c1.118-3.438,4.018-5.344,7.788-5.344,3.812,0,6.67,1.947,7.789,5.344a17.327,17.327,0,0,1,.621,5.676.4.4,0,0,1-.456.414H219.906a.22.22,0,0,0-.249.248,7.452,7.452,0,0,0,.332,2.4A4.9,4.9,0,0,0,225,815.7a6.481,6.481,0,0,0,5.1-2.2.423.423,0,0,1,.622-.082l1.7,1.532a.371.371,0,0,1,.041.58,9.65,9.65,0,0,1-7.747,3.4C220.693,818.928,217.834,816.981,216.757,813.543Zm12.346-6.712a.219.219,0,0,0,.248-.248,7,7,0,0,0-.29-2.238,4.9,4.9,0,0,0-9.114,0,7,7,0,0,0-.29,2.238.219.219,0,0,0,.249.248Z" fill="#00030c"/>
        <path d="M249.583,818.472a.392.392,0,0,1-.415-.414v-11.6c0-3.191-1.449-5.055-4.432-5.055-2.693,0-4.558,1.906-4.558,4.848v11.806a.391.391,0,0,1-.414.414h-2.651a.392.392,0,0,1-.414-.414V799.043a.392.392,0,0,1,.414-.414h2.651a.391.391,0,0,1,.414.414v1.823h.042a6.272,6.272,0,0,1,5.551-2.693c4.309,0,6.877,2.941,6.877,7.457v12.428a.391.391,0,0,1-.414.414Z" fill="#00030c"/>
        <path d="M263.015,818.679c-3.852,0-5.343-1.74-5.343-5.633V801.694a.219.219,0,0,0-.249-.248h-1.657a.392.392,0,0,1-.415-.415v-1.988a.392.392,0,0,1,.415-.414h1.657a.22.22,0,0,0,.249-.249v-5.593a.391.391,0,0,1,.414-.414h2.651a.391.391,0,0,1,.414.414v5.593a.22.22,0,0,0,.249.249h3.149a.392.392,0,0,1,.414.414v1.988a.392.392,0,0,1-.414.415H261.4a.219.219,0,0,0-.249.248v11.227c0,1.989.746,2.527,2.527,2.527h.871a.392.392,0,0,1,.414.414v2.4a.392.392,0,0,1-.414.414Z" fill="#00030c"/>
        <path d="M278.549,794.154a.391.391,0,0,1-.414-.414v-3.024a.391.391,0,0,1,.414-.415h2.816a.392.392,0,0,1,.415.415v3.024a.391.391,0,0,1-.415.414Zm.083,24.318a.392.392,0,0,1-.415-.414V799.043a.392.392,0,0,1,.415-.414h2.651a.391.391,0,0,1,.414.414v19.015a.391.391,0,0,1-.414.414Z" fill="#00030c"/>
        <path d="M299.332,818.472a.392.392,0,0,1-.415-.414v-11.6c0-3.191-1.449-5.055-4.432-5.055-2.693,0-4.557,1.906-4.557,4.848v11.806a.392.392,0,0,1-.415.414h-2.651a.392.392,0,0,1-.414-.414V799.043a.392.392,0,0,1,.414-.414h2.651a.392.392,0,0,1,.415.414v1.823h.041a6.272,6.272,0,0,1,5.551-2.693c4.309,0,6.877,2.941,6.877,7.457v12.428a.391.391,0,0,1-.414.414Z" fill="#00030c"/>
      </g>
      <g>
        <path d="M146.644,967.229c1.118-3.438,4.018-5.345,7.83-5.345a7.958,7.958,0,0,1,6.794,3.356c.124.208.124.373-.124.58l-1.823,1.492a.371.371,0,0,1-.58-.042,4.879,4.879,0,0,0-4.267-2.154,4.307,4.307,0,0,0-4.433,3.107,18.115,18.115,0,0,0,0,8.078,4.306,4.306,0,0,0,4.433,3.108,4.879,4.879,0,0,0,4.267-2.154.371.371,0,0,1,.58-.042l1.823,1.492c.248.207.248.372.124.579a7.955,7.955,0,0,1-6.794,3.356c-3.812,0-6.712-1.906-7.83-5.344a20.71,20.71,0,0,1,0-10.067Z" fill="#00030c"/>
        <path d="M164.348,977.3a19.438,19.438,0,0,1,0-10.067c1.077-3.4,3.977-5.345,7.83-5.345s6.752,1.948,7.83,5.345a19.438,19.438,0,0,1,0,10.067c-1.078,3.355-3.977,5.344-7.83,5.344S165.425,980.651,164.348,977.3Zm12.3-1a12.975,12.975,0,0,0,.456-4.059,12.691,12.691,0,0,0-.456-4.019,4.775,4.775,0,0,0-8.948,0,12.691,12.691,0,0,0-.456,4.019,12.975,12.975,0,0,0,.456,4.059,4.774,4.774,0,0,0,8.948,0Z" fill="#00030c"/>
        <path d="M197.012,982.184a.391.391,0,0,1-.414-.414v-1.864h-.042a6.05,6.05,0,0,1-5.427,2.734c-4.349,0-6.877-2.983-6.877-7.5V962.755a.392.392,0,0,1,.415-.414h2.651a.391.391,0,0,1,.414.414v11.558c0,3.232,1.45,5.1,4.392,5.1,2.692,0,4.474-1.906,4.474-4.889V962.755a.391.391,0,0,1,.414-.414h2.651a.392.392,0,0,1,.415.414V981.77a.392.392,0,0,1-.415.414Z" fill="#00030c"/>
        <path d="M217.744,982.184a.392.392,0,0,1-.414-.414v-11.6c0-3.191-1.45-5.055-4.433-5.055-2.693,0-4.557,1.906-4.557,4.848V981.77a.391.391,0,0,1-.414.414h-2.651a.392.392,0,0,1-.415-.414V962.755a.392.392,0,0,1,.415-.414h2.651a.391.391,0,0,1,.414.414v1.823h.042a6.272,6.272,0,0,1,5.551-2.694c4.308,0,6.877,2.942,6.877,7.458V981.77a.392.392,0,0,1-.414.414Z" fill="#00030c"/>
        <path d="M231.177,982.391c-3.853,0-5.344-1.74-5.344-5.633V965.406a.219.219,0,0,0-.248-.248h-1.657a.392.392,0,0,1-.415-.415v-1.988a.392.392,0,0,1,.415-.414h1.657a.22.22,0,0,0,.248-.249V956.5a.392.392,0,0,1,.414-.414H228.9a.392.392,0,0,1,.414.414v5.593a.22.22,0,0,0,.249.249h3.148a.391.391,0,0,1,.414.414v1.988a.391.391,0,0,1-.414.415h-3.148a.219.219,0,0,0-.249.248v11.227c0,1.989.746,2.527,2.527,2.527h.87a.391.391,0,0,1,.414.414v2.4a.391.391,0,0,1-.414.414Z" fill="#00030c"/>
        <path d="M236.9,982.184a.392.392,0,0,1-.415-.414V962.755a.392.392,0,0,1,.415-.414h2.651a.391.391,0,0,1,.414.414v2.03h.042a5.529,5.529,0,0,1,5.261-2.9,6.1,6.1,0,0,1,4.06,1.492c.207.208.248.373.082.58l-1.532,2.03a.375.375,0,0,1-.58.083,5.593,5.593,0,0,0-3.066-.953c-3.024,0-4.267,2.361-4.267,5.8V981.77a.391.391,0,0,1-.414.414Z" fill="#00030c"/>
        <path d="M252.564,957.866a.391.391,0,0,1-.415-.414v-3.025a.392.392,0,0,1,.415-.414h2.817a.392.392,0,0,1,.414.414v3.025a.391.391,0,0,1-.414.414Zm.083,24.318a.392.392,0,0,1-.415-.414V962.755a.392.392,0,0,1,.415-.414H255.3a.391.391,0,0,1,.414.414V981.77a.391.391,0,0,1-.414.414Z" fill="#00030c"/>
        <path d="M260.16,977.255a15.571,15.571,0,0,1-.663-5.013,15.4,15.4,0,0,1,.621-5.013c1.119-3.438,4.019-5.345,7.789-5.345,3.812,0,6.67,1.948,7.789,5.345a17.324,17.324,0,0,1,.621,5.675.4.4,0,0,1-.456.415H263.308a.219.219,0,0,0-.248.248,7.445,7.445,0,0,0,.331,2.4,4.9,4.9,0,0,0,5.013,3.439,6.483,6.483,0,0,0,5.1-2.2.422.422,0,0,1,.621-.082l1.7,1.532a.371.371,0,0,1,.041.58,9.65,9.65,0,0,1-7.747,3.4C264.1,982.64,261.237,980.693,260.16,977.255Zm12.346-6.712a.219.219,0,0,0,.248-.248,6.992,6.992,0,0,0-.29-2.238,4.9,4.9,0,0,0-9.114,0,6.992,6.992,0,0,0-.29,2.238.219.219,0,0,0,.248.248Z" fill="#00030c"/>
        <path d="M279.066,979.657a.4.4,0,0,1,0-.58l1.7-1.822a.4.4,0,0,1,.581,0,9.64,9.64,0,0,0,6.131,2.278c2.9,0,4.349-1.243,4.349-3.024,0-1.575-.745-2.445-3.852-2.776l-2.113-.207c-3.894-.414-5.924-2.361-5.924-5.593,0-3.77,2.693-6.049,7.374-6.049a11.87,11.87,0,0,1,7.043,2.2.4.4,0,0,1,.082.58l-1.408,1.781a.406.406,0,0,1-.58.083,10.442,10.442,0,0,0-5.344-1.616c-2.486,0-3.77,1.118-3.77,2.734,0,1.574.953,2.4,3.894,2.693l2.072.207c4.018.373,5.965,2.4,5.965,5.592,0,3.895-2.817,6.5-8,6.5A12.327,12.327,0,0,1,279.066,979.657Z" fill="#00030c"/>
      </g>
      <g>
        <path d="M149.186,916.855,166.5,913.55a1.594,1.594,0,0,1,1.889,1.259c1.889,5.667,6.454,10.075,14.009,10.075,8.186,0,13.223-5.825,13.223-13.853,0-9.6-5.824-15.111-14.954-15.111H176.1a1.486,1.486,0,0,1-1.574-1.574V879.077A1.486,1.486,0,0,1,176.1,877.5h4.25c8.028,0,13.222-5.2,13.222-13.38,0-7.556-4.564-12.593-12.12-12.593-6.769,0-10.547,3.935-12.121,9.916a1.5,1.5,0,0,1-1.889,1.1l-17.157-3.306a1.382,1.382,0,0,1-1.259-1.732c2.518-14.167,14.639-24.556,33.527-24.556,20.936,0,33.057,12.435,33.057,29.594a25.642,25.642,0,0,1-11.963,22.037v.314c6.453,3.149,14.009,11.806,14.009,25.973,0,19.518-14.8,32.584-34.945,32.584-18.26,0-31.8-9.13-34.787-24.556A1.755,1.755,0,0,1,149.186,916.855Z" fill="#00030c"/>
        <path d="M262.917,898.754l-.315-.316a20.269,20.269,0,0,1-6.611.946c-16.843,0-30.7-12.593-30.7-32.27,0-21.565,15.584-34.158,35.889-34.158,20.464,0,35.89,12.593,35.89,33.686,0,9.129-2.834,17.315-7.871,26.445l-25.972,47.538c-.472.944-.787,1.1-1.889,1.1H241.352c-1.259,0-1.574-.63-1.1-1.574Zm12.435-32.427c0-8.657-5.509-14.8-14.167-14.8s-14.167,6.139-14.167,14.8c0,8.815,5.51,14.954,14.167,14.954S275.352,875.142,275.352,866.327Z" fill="#00030c"/>
      </g>
    </g>
    <g>
      <g>
        <path d="M394.765,1205.55a.4.4,0,0,1,0-.58l1.7-1.822a.4.4,0,0,1,.58,0,9.64,9.64,0,0,0,6.131,2.278c2.9,0,4.35-1.243,4.35-3.024,0-1.574-.746-2.444-3.853-2.775l-2.113-.207c-3.894-.414-5.924-2.362-5.924-5.593,0-3.771,2.693-6.049,7.374-6.049a11.87,11.87,0,0,1,7.043,2.2.4.4,0,0,1,.083.58l-1.409,1.782a.406.406,0,0,1-.58.083,10.442,10.442,0,0,0-5.344-1.617c-2.486,0-3.77,1.119-3.77,2.735,0,1.574.953,2.4,3.9,2.692l2.071.207c4.018.373,5.965,2.4,5.965,5.593,0,3.895-2.817,6.505-8,6.505A12.325,12.325,0,0,1,394.765,1205.55Z" fill="#4b4b4a"/>
        <path d="M414.785,1183.759a.391.391,0,0,1-.414-.414v-3.024a.392.392,0,0,1,.414-.414H417.6a.392.392,0,0,1,.415.414v3.024a.391.391,0,0,1-.415.414Zm.083,24.319a.392.392,0,0,1-.414-.414v-19.016a.392.392,0,0,1,.414-.414h2.652a.392.392,0,0,1,.414.414v19.016a.392.392,0,0,1-.414.414Z" fill="#4b4b4a"/>
        <path d="M428.728,1208.285c-3.852,0-5.343-1.74-5.343-5.634V1191.3a.22.22,0,0,0-.249-.249h-1.657a.392.392,0,0,1-.415-.415v-1.988a.392.392,0,0,1,.415-.414h1.657a.22.22,0,0,0,.249-.249v-5.593a.391.391,0,0,1,.414-.414h2.651a.391.391,0,0,1,.414.414v5.593a.22.22,0,0,0,.249.249h3.148a.392.392,0,0,1,.415.414v1.988a.392.392,0,0,1-.415.415h-3.148a.22.22,0,0,0-.249.249v11.226c0,1.989.746,2.527,2.527,2.527h.87a.392.392,0,0,1,.415.414v2.4a.392.392,0,0,1-.415.414Z" fill="#4b4b4a"/>
        <path d="M433.479,1203.148a15.562,15.562,0,0,1-.663-5.013,15.4,15.4,0,0,1,.621-5.012c1.119-3.439,4.019-5.345,7.789-5.345,3.811,0,6.67,1.947,7.788,5.345a17.313,17.313,0,0,1,.622,5.675.4.4,0,0,1-.456.415H436.627a.219.219,0,0,0-.248.248,7.445,7.445,0,0,0,.331,2.4,4.9,4.9,0,0,0,5.013,3.438,6.484,6.484,0,0,0,5.1-2.2.422.422,0,0,1,.621-.082l1.7,1.532a.371.371,0,0,1,.042.58,9.647,9.647,0,0,1-7.747,3.4C437.414,1208.534,434.556,1206.587,433.479,1203.148Zm12.345-6.712a.219.219,0,0,0,.249-.248,6.986,6.986,0,0,0-.29-2.237,4.9,4.9,0,0,0-9.114,0,6.986,6.986,0,0,0-.29,2.237.219.219,0,0,0,.248.248Z" fill="#4b4b4a"/>
        <path d="M452.385,1205.55a.4.4,0,0,1,0-.58l1.7-1.822a.4.4,0,0,1,.58,0,9.644,9.644,0,0,0,6.132,2.278c2.9,0,4.349-1.243,4.349-3.024,0-1.574-.745-2.444-3.852-2.775l-2.113-.207c-3.895-.414-5.924-2.362-5.924-5.593,0-3.771,2.693-6.049,7.374-6.049a11.872,11.872,0,0,1,7.043,2.2.4.4,0,0,1,.082.58l-1.408,1.782a.406.406,0,0,1-.58.083,10.445,10.445,0,0,0-5.344-1.617c-2.486,0-3.77,1.119-3.77,2.735,0,1.574.953,2.4,3.894,2.692l2.071.207c4.019.373,5.966,2.4,5.966,5.593,0,3.895-2.817,6.505-8,6.505A12.322,12.322,0,0,1,452.385,1205.55Z" fill="#4b4b4a"/>
      </g>
      <path d="M390.766,1160.161v-18.068a4.5,4.5,0,0,1,.354-2.126l36.137-79.535a2.371,2.371,0,0,1,2.48-1.418h22.5c1.24,0,1.594.709,1.24,1.772l-36.136,79.181v.532h22.142a.94.94,0,0,0,1.063-1.063V1113.4a1.674,1.674,0,0,1,1.771-1.771h20.549a1.673,1.673,0,0,1,1.771,1.771v26.04a.94.94,0,0,0,1.063,1.063h7.971a1.673,1.673,0,0,1,1.771,1.771v17.891a1.673,1.673,0,0,1-1.771,1.771H465.7a.94.94,0,0,0-1.063,1.064v14.7a1.673,1.673,0,0,1-1.771,1.771H442.313a1.674,1.674,0,0,1-1.771-1.771V1163a.94.94,0,0,0-1.063-1.064H392.537A1.673,1.673,0,0,1,390.766,1160.161Z" fill="#4b4b4a"/>
      <g>
        <path d="M275.945,1209.867a3.221,3.221,0,0,1,0-6.442h40l-24.292-41.065-.391-.219a61.91,61.91,0,1,1,60.666,0l-.39.219-24.3,41.065h40a3.221,3.221,0,0,1,0,6.442Zm45.649-157.152a55.46,55.46,0,0,0-26.105,104.4,3.225,3.225,0,0,1,1.252,1.2l24.853,42,24.85-42.008a3.2,3.2,0,0,1,1.252-1.2,55.462,55.462,0,0,0-26.1-104.4Z" fill="#4b4b4a"/>
        <path d="M321.591,1152.158a3.224,3.224,0,0,1-3.219-3.22v-3.412l-1.461-.183a37.05,37.05,0,0,1-9.843-2.64l-1.36-.576-1.7,2.959a3.236,3.236,0,0,1-2.792,1.611,3.222,3.222,0,0,1-2.789-4.832l1.715-2.967-1.171-.89a37.8,37.8,0,0,1-7.2-7.2l-.889-1.17-2.967,1.707a3.172,3.172,0,0,1-1.61.437,3.224,3.224,0,0,1-1.614-6.014l2.954-1.709-.573-1.356a36.982,36.982,0,0,1-2.636-9.838l-.182-1.464h-3.413a3.222,3.222,0,0,1,0-6.443h3.411l.184-1.462a37.217,37.217,0,0,1,2.636-9.84l.572-1.355-2.947-1.71a3.216,3.216,0,0,1-1.183-4.4,3.219,3.219,0,0,1,4.4-1.176l2.967,1.714.89-1.171a37.887,37.887,0,0,1,7.2-7.2l1.168-.889-1.707-2.967a3.22,3.22,0,1,1,5.576-3.221l1.709,2.955,1.358-.574a37.13,37.13,0,0,1,9.84-2.639l1.461-.182v-3.409a3.222,3.222,0,1,1,6.443,0v3.409l1.461.182a37.243,37.243,0,0,1,9.84,2.639l1.36.576,1.7-2.959a3.222,3.222,0,0,1,5.581,3.221l-1.715,2.967,1.17.891a37.884,37.884,0,0,1,7.206,7.2l.891,1.171,2.963-1.715a3.223,3.223,0,1,1,3.222,5.583l-2.957,1.7.576,1.36a37.111,37.111,0,0,1,2.64,9.838l.183,1.462h3.407a3.222,3.222,0,1,1,0,6.443H358.94l-.183,1.462a37.091,37.091,0,0,1-2.64,9.838l-.575,1.358,2.955,1.709a3.223,3.223,0,1,1-3.226,5.58l-2.958-1.712-.891,1.171a37.755,37.755,0,0,1-7.2,7.2l-1.173.892,1.716,2.967a3.223,3.223,0,0,1-2.786,4.832,3.238,3.238,0,0,1-2.8-1.613l-1.7-2.95-1.357.572a37.2,37.2,0,0,1-9.841,2.637l-1.461.183v3.412A3.226,3.226,0,0,1,321.591,1152.158Zm15.644-39.544a16.388,16.388,0,0,1-11.207,11.211l-1.213.344v14.921l1.947-.328a31.02,31.02,0,0,0,25.41-25.415l.328-1.946H337.58Zm-46.223.733a31.025,31.025,0,0,0,25.413,25.415l1.947.328v-14.921l-1.213-.344a16.392,16.392,0,0,1-11.21-11.211l-.345-1.213H290.683Zm30.579-14.986a9.82,9.82,0,1,0,9.822,9.82A9.832,9.832,0,0,0,321.591,1098.361Zm3.224-6.169,1.214.344a16.377,16.377,0,0,1,11.206,11.208l.344,1.214H352.5l-.328-1.946a31.011,31.011,0,0,0-25.411-25.412l-1.946-.328Zm-8.389-14.592a31.015,31.015,0,0,0-25.414,25.412l-.329,1.946H305.6l.345-1.213a16.382,16.382,0,0,1,11.21-11.209l1.213-.344v-14.92Z" fill="#4b4b4a"/>
      </g>
      <rect x="388.761" y="1046.272" width="90.934" height="120.148" fill="none"/>
    </g>
  </g>
</svg>
