<svg xmlns="http://www.w3.org/2000/svg" width="322.839" height="199.744" viewBox="0 0 322.839 199.744">
  <g>
    <path d="M.66,86h3.1v.66H1.439v2.458H3.178v.66H1.439v3.438H.66Z" fill="#fff"/>
    <path d="M4.191,86H4.91v.84H4.191Zm0,2.019H4.91v5.2H4.191Z" fill="#fff"/>
    <path d="M5.682,88.014H6.4v.63h.02a1.331,1.331,0,0,1,1.319-.73v.68a1.375,1.375,0,0,0-1.339.92v3.7h-.72Z" fill="#fff"/>
    <path d="M10.13,89.333c-.13-.449-.32-.819-.9-.819a.584.584,0,0,0-.58.62c0,1.058,2.2,1.119,2.2,2.738a1.393,1.393,0,0,1-1.419,1.44,1.606,1.606,0,0,1-1.659-1.38l.659-.14c.15.46.42.92.95.92a.791.791,0,0,0,.749-.79c0-1.2-2.2-1.22-2.2-2.748a1.29,1.29,0,0,1,1.35-1.26,1.4,1.4,0,0,1,1.449,1.239Z" fill="#fff"/>
    <path d="M10.918,88.014h.7V86.275h.719v1.739h.96v.6h-.96v3.639a.473.473,0,0,0,.52.519,1.569,1.569,0,0,0,.44-.1v.539a2.121,2.121,0,0,1-.68.1c-.679,0-1-.321-1-1.121V88.613h-.7Z" fill="#fff"/>
    <path d="M15.457,89.434A1.59,1.59,0,0,1,17,87.914a1.355,1.355,0,0,1,1.49,1.48v2.9a2.143,2.143,0,0,0,.129.919h-.749l-.09-.44a1.9,1.9,0,0,1-1.109.541,1.263,1.263,0,0,1-1.35-1.34c0-1.28,1.41-1.929,2.449-2.159v-.37c0-.569-.29-.929-.75-.929-.549,0-.819.549-.9,1.019Zm2.309.979c-.66.2-1.729.68-1.729,1.5,0,.489.22.8.74.8a1.476,1.476,0,0,0,.989-.54Z" fill="#fff"/>
    <path d="M21.456,89.553c-.07-.78-.38-1.039-.82-1.039-.609,0-.869.38-.869,2.1s.26,2.1.869,2.1c.46,0,.72-.24.84-1.14h.7c-.121,1.02-.6,1.74-1.54,1.74-1.089,0-1.589-.821-1.589-2.7s.5-2.7,1.589-2.7c.94,0,1.38.62,1.52,1.639Z" fill="#fff"/>
    <path d="M22.239,88.014h.7V86.275h.719v1.739h.96v.6h-.96v3.639a.473.473,0,0,0,.52.519,1.569,1.569,0,0,0,.44-.1v.539a2.121,2.121,0,0,1-.68.1c-.679,0-1-.321-1-1.121V88.613h-.7Z" fill="#fff"/>
    <path d="M25.09,86h.72v.84h-.72Zm0,2.019h.72v5.2h-.72Z" fill="#fff"/>
    <path d="M26.929,88.014l1.04,4.477h.02l1.02-4.477h.719l-1.28,5.2h-.959l-1.279-5.2Z" fill="#fff"/>
    <path d="M30.14,86h.72v.84h-.72Zm0,2.019h.72v5.2h-.72Z" fill="#fff"/>
    <path d="M31.208,88.014h.7V86.275h.719v1.739h.96v.6h-.96v3.639a.473.473,0,0,0,.52.519,1.569,1.569,0,0,0,.44-.1v.539a2.121,2.121,0,0,1-.68.1c-.679,0-1-.321-1-1.121V88.613h-.7Z" fill="#fff"/>
    <path d="M34.059,86h.72v.84h-.72Zm0,2.019h.72v5.2h-.72Z" fill="#fff"/>
    <path d="M36.056,90.732v.29c0,1.27.29,1.69.97,1.69.549,0,.779-.51.869-.98l.679.08a1.662,1.662,0,0,1-1.648,1.5c-1.09,0-1.59-.821-1.59-2.7s.5-2.7,1.59-2.7,1.588.98,1.588,2.479v.339Zm1.739-.6c-.02-1.119-.22-1.619-.869-1.619-.52,0-.86.38-.87,1.619Z" fill="#fff"/>
    <path d="M41.21,89.333c-.13-.449-.32-.819-.9-.819a.583.583,0,0,0-.579.62c0,1.058,2.2,1.119,2.2,2.738a1.393,1.393,0,0,1-1.419,1.44,1.607,1.607,0,0,1-1.659-1.38l.66-.14c.15.46.419.92.949.92a.791.791,0,0,0,.75-.79c0-1.2-2.2-1.22-2.2-2.748a1.29,1.29,0,0,1,1.35-1.26,1.4,1.4,0,0,1,1.449,1.239Z" fill="#fff"/>
    <path d="M.75,96h.719v.84H.75Zm0,2.019h.719v5.2H.75Z" fill="#fff"/>
    <path d="M2.272,98.014h.679v.57a2.056,2.056,0,0,1,1.18-.67c.719,0,1.139.4,1.139,1.359v3.938H4.551V99.373c0-.6-.181-.859-.57-.859a1.365,1.365,0,0,0-.99.639v4.058H2.272Z" fill="#fff"/>
    <path d="M7.292,98.014h.7V96.275h.72v1.739H9.67v.6H8.711v3.639a.473.473,0,0,0,.52.519,1.562,1.562,0,0,0,.439-.1v.539a2.117,2.117,0,0,1-.68.1c-.679,0-1-.321-1-1.121V98.613h-.7Z" fill="#fff"/>
    <path d="M10.127,96h.719v2.589a1.862,1.862,0,0,1,1.14-.67c.72,0,1.139.4,1.139,1.359v3.938h-.719V99.373c0-.6-.18-.859-.57-.859a1.367,1.367,0,0,0-.99.639v4.058h-.719Z" fill="#fff"/>
    <path d="M14.389,100.732v.29c0,1.27.29,1.69.97,1.69.549,0,.779-.51.869-.98l.679.08a1.662,1.662,0,0,1-1.648,1.5c-1.09,0-1.59-.821-1.59-2.7s.5-2.7,1.59-2.7,1.588.98,1.588,2.479v.339Zm1.739-.6c-.02-1.119-.22-1.619-.869-1.619-.52,0-.86.38-.87,1.619Z" fill="#fff"/>
    <path d="M19.089,96h1.339c1.52,0,2.439.84,2.439,3.609s-.919,3.607-2.439,3.607H19.089Zm.78,6.557h.419c1.14,0,1.8-.48,1.8-2.948s-.66-2.949-1.8-2.949h-.419Z" fill="#fff"/>
    <path d="M24.033,100.732v.29c0,1.27.29,1.69.97,1.69.549,0,.779-.51.869-.98l.68.08a1.664,1.664,0,0,1-1.649,1.5c-1.089,0-1.589-.821-1.589-2.7s.5-2.7,1.589-2.7,1.589.98,1.589,2.479v.339Zm1.74-.6c-.02-1.119-.221-1.619-.87-1.619-.519,0-.859.38-.87,1.619Z" fill="#fff"/>
    <path d="M26.552,98.014h.8V96.955c0-.7.28-1.059,1.059-1.059a3.314,3.314,0,0,1,.56.059v.56a.909.909,0,0,0-.39-.08c-.35,0-.509.22-.509.549v1.03h.839v.6h-.839v4.6h-.72v-4.6h-.8Z" fill="#fff"/>
    <path d="M29.716,100.732v.29c0,1.27.29,1.69.969,1.69.55,0,.78-.51.869-.98l.68.08a1.664,1.664,0,0,1-1.649,1.5c-1.089,0-1.589-.821-1.589-2.7s.5-2.7,1.589-2.7,1.589.98,1.589,2.479v.339Zm1.739-.6c-.02-1.119-.22-1.619-.87-1.619-.519,0-.859.38-.869,1.619Z" fill="#fff"/>
    <path d="M32.716,98.014h.68v.57a2.054,2.054,0,0,1,1.179-.67c.72,0,1.139.4,1.139,1.359v3.938h-.719V99.373c0-.6-.18-.859-.57-.859a1.367,1.367,0,0,0-.99.639v4.058h-.719Z" fill="#fff"/>
    <path d="M38.667,99.553c-.07-.78-.38-1.039-.82-1.039-.609,0-.869.38-.869,2.1s.26,2.1.869,2.1c.46,0,.72-.24.84-1.14h.7c-.12,1.02-.6,1.74-1.539,1.74-1.089,0-1.589-.821-1.589-2.7s.5-2.7,1.589-2.7c.94,0,1.38.62,1.519,1.639Z" fill="#fff"/>
    <path d="M40.405,100.732v.29c0,1.27.29,1.69.969,1.69.55,0,.78-.51.869-.98l.68.08a1.664,1.664,0,0,1-1.649,1.5c-1.089,0-1.589-.821-1.589-2.7s.5-2.7,1.589-2.7,1.589.98,1.589,2.479v.339Zm1.739-.6c-.02-1.119-.22-1.619-.87-1.619-.519,0-.859.38-.869,1.619Z" fill="#fff"/>
    <path d="M4.818,109.753a5.6,5.6,0,0,1-.5,2.139,4.8,4.8,0,0,0,.88.78l-.42.539a3.312,3.312,0,0,1-.9-.68,2.039,2.039,0,0,1-1.529.781A1.719,1.719,0,0,1,.5,111.472a3.256,3.256,0,0,1,1.189-2.2,5.272,5.272,0,0,1-.51-1.848c0-1.03.561-1.529,1.26-1.529a1.273,1.273,0,0,1,1.339,1.258,2.981,2.981,0,0,1-1.269,2.19A9.581,9.581,0,0,0,3.8,111.332a5.964,5.964,0,0,0,.32-1.619Zm-2.389,2.9a1.318,1.318,0,0,0,1.009-.6,12.35,12.35,0,0,1-1.459-2.189,2.491,2.491,0,0,0-.76,1.549A1.127,1.127,0,0,0,2.429,112.651Zm-.18-3.908a2.426,2.426,0,0,0,.809-1.648.625.625,0,0,0-.519-.66c-.38,0-.64.22-.64.929A3.582,3.582,0,0,0,2.249,108.743Z" fill="#fff"/>
    <path d="M7.44,106H9.359a1.618,1.618,0,0,1,1.7,1.779,1.536,1.536,0,0,1-1.1,1.6v.021a1.692,1.692,0,0,1,1.26,1.818c0,1.34-.74,2-2.319,2H7.44Zm.779,3.1h.44c1.12,0,1.619-.34,1.619-1.32,0-.819-.36-1.119-1.279-1.119h-.78Zm0,3.458H9c.939,0,1.439-.41,1.439-1.34,0-.949-.42-1.459-1.439-1.459h-.78Z" fill="#fff"/>
    <path d="M11.911,106h.72v.84h-.72Zm0,2.019h.72v5.2h-.72Z" fill="#fff"/>
    <path d="M15.6,109.553c-.07-.78-.379-1.039-.819-1.039-.61,0-.87.38-.87,2.1s.26,2.1.87,2.1c.459,0,.719-.24.839-1.14h.7c-.12,1.02-.6,1.74-1.539,1.74-1.09,0-1.59-.821-1.59-2.7s.5-2.7,1.59-2.7c.939,0,1.379.62,1.519,1.639Z" fill="#fff"/>
    <path d="M17.036,108.014l.979,3.978h.02l.8-3.978h.739L18.385,113.1c-.27,1.138-.77,1.808-1.639,1.808h-.37v-.6h.22c.57,0,.939-.411,1.08-1.14l-1.38-5.157Z" fill="#fff"/>
    <path d="M21.925,109.553c-.07-.78-.379-1.039-.819-1.039-.61,0-.87.38-.87,2.1s.26,2.1.87,2.1c.459,0,.719-.24.839-1.14h.7c-.12,1.02-.6,1.74-1.539,1.74-1.09,0-1.59-.821-1.59-2.7s.5-2.7,1.59-2.7c.939,0,1.379.62,1.519,1.639Z" fill="#fff"/>
    <path d="M23.17,106h.719v7.216H23.17Z" fill="#fff"/>
    <path d="M25.166,110.732v.29c0,1.27.29,1.69.97,1.69.549,0,.779-.51.869-.98l.68.08a1.664,1.664,0,0,1-1.649,1.5c-1.089,0-1.589-.821-1.589-2.7s.5-2.7,1.589-2.7,1.589.98,1.589,2.479v.339Zm1.74-.6c-.021-1.119-.221-1.619-.87-1.619-.52,0-.859.38-.87,1.619Z" fill="#fff"/>
    <path d="M31.945,109.333c-.13-.449-.32-.819-.9-.819a.584.584,0,0,0-.58.62c0,1.058,2.2,1.119,2.2,2.738a1.393,1.393,0,0,1-1.419,1.44,1.606,1.606,0,0,1-1.659-1.38l.659-.14c.15.46.42.92.95.92a.791.791,0,0,0,.749-.79c0-1.2-2.2-1.22-2.2-2.748a1.29,1.29,0,0,1,1.35-1.26,1.4,1.4,0,0,1,1.449,1.239Z" fill="#fff"/>
    <path d="M33.684,110.732v.29c0,1.27.29,1.69.97,1.69.549,0,.779-.51.869-.98l.68.08a1.664,1.664,0,0,1-1.649,1.5c-1.089,0-1.589-.821-1.589-2.7s.5-2.7,1.589-2.7,1.589.98,1.589,2.479v.339Zm1.74-.6c-.02-1.119-.221-1.619-.87-1.619-.52,0-.859.38-.87,1.619Z" fill="#fff"/>
    <path d="M38.844,109.553c-.069-.78-.379-1.039-.819-1.039-.61,0-.869.38-.869,2.1s.259,2.1.869,2.1c.46,0,.72-.24.84-1.14h.7c-.12,1.02-.6,1.74-1.539,1.74-1.089,0-1.589-.821-1.589-2.7s.5-2.7,1.589-2.7c.94,0,1.38.62,1.519,1.639Z" fill="#fff"/>
    <path d="M39.627,108.014h.7v-1.739h.719v1.739h.96v.6h-.96v3.639a.473.473,0,0,0,.52.519,1.569,1.569,0,0,0,.44-.1v.539a2.121,2.121,0,0,1-.68.1c-.679,0-1-.321-1-1.121v-3.578h-.7Z" fill="#fff"/>
    <path d="M43.721,107.914c1.089,0,1.589.819,1.589,2.7s-.5,2.7-1.589,2.7-1.589-.821-1.589-2.7S42.632,107.914,43.721,107.914Zm0,4.8c.61,0,.87-.38.87-2.1s-.26-2.1-.87-2.1-.87.38-.87,2.1S43.111,112.712,43.721,112.712Z" fill="#fff"/>
    <path d="M45.832,108.014h.72v.63h.02a1.33,1.33,0,0,1,1.318-.73v.68a1.375,1.375,0,0,0-1.338.92v3.7h-.72Z" fill="#fff"/>
  </g>
  <g>
    <path d="M43.35,28.111v7.216h-.779V28.111Z" fill="#fff"/>
    <path d="M44.213,30.13h.68v.57a2.06,2.06,0,0,1,1.179-.67c.72,0,1.139.4,1.139,1.36v3.937h-.719V31.489c0-.6-.18-.859-.57-.859a1.365,1.365,0,0,0-.99.64v4.057h-.719Z" fill="#fff"/>
    <path d="M48.235,30.13l1.04,4.477h.02l1.019-4.477h.719l-1.279,5.2H48.8l-1.28-5.2Z" fill="#fff"/>
    <path d="M51.774,32.849v.29c0,1.269.29,1.689.97,1.689.549,0,.779-.51.869-.979l.68.079a1.664,1.664,0,0,1-1.649,1.5c-1.09,0-1.59-.821-1.59-2.7s.5-2.7,1.59-2.7,1.589.98,1.589,2.479v.34Zm1.739-.6c-.02-1.119-.22-1.619-.869-1.619-.52,0-.86.38-.87,1.619Z" fill="#fff"/>
    <path d="M54.775,30.13h.679v.57a2.062,2.062,0,0,1,1.18-.67c.719,0,1.139.4,1.139,1.36v3.937h-.72V31.489c0-.6-.18-.859-.569-.859a1.364,1.364,0,0,0-.99.64v4.057h-.719Z" fill="#fff"/>
    <path d="M58.088,30.13h.7V28.392h.72V30.13h.959v.6h-.959v3.639a.473.473,0,0,0,.52.52,1.571,1.571,0,0,0,.439-.1v.539a2.089,2.089,0,0,1-.68.1c-.679,0-1-.321-1-1.12V30.729h-.7Z" fill="#fff"/>
    <path d="M62.181,30.03c1.09,0,1.589.82,1.589,2.7s-.5,2.7-1.589,2.7-1.589-.821-1.589-2.7S61.092,30.03,62.181,30.03Zm0,4.8c.61,0,.87-.38.87-2.1s-.26-2.1-.87-2.1-.869.38-.869,2.1S61.572,34.828,62.181,34.828Z" fill="#fff"/>
    <path d="M64.292,30.13h.72v.63h.02a1.332,1.332,0,0,1,1.319-.73v.68a1.377,1.377,0,0,0-1.339.92v3.7h-.72Z" fill="#fff"/>
    <path d="M43.79,40.03c1.089,0,1.589.82,1.589,2.7s-.5,2.7-1.589,2.7-1.59-.821-1.59-2.7S42.7,40.03,43.79,40.03Zm0,4.8c.61,0,.869-.38.869-2.1s-.259-2.1-.869-2.1-.87.38-.87,2.1S43.18,44.828,43.79,44.828Z" fill="#fff"/>
    <path d="M45.444,40.13h.8V39.071c0-.7.28-1.059,1.06-1.059a3.314,3.314,0,0,1,.56.059v.56a.909.909,0,0,0-.39-.08c-.35,0-.51.22-.51.55V40.13H47.8v.6h-.839v4.6h-.72v-4.6h-.8Z" fill="#fff"/>
    <path d="M49.344,40.13h.7V38.392h.719V40.13h.96v.6h-.96v3.639a.474.474,0,0,0,.52.52,1.57,1.57,0,0,0,.44-.1v.539a2.089,2.089,0,0,1-.68.1c-.679,0-1-.321-1-1.12V40.729h-.7Z" fill="#fff"/>
    <path d="M52.179,38.111H52.9V40.7a1.864,1.864,0,0,1,1.14-.67c.72,0,1.139.4,1.139,1.36v3.937h-.719V41.489c0-.6-.18-.859-.57-.859a1.365,1.365,0,0,0-.99.64v4.057h-.719Z" fill="#fff"/>
    <path d="M56.441,42.849v.29c0,1.269.29,1.689.969,1.689.55,0,.78-.51.87-.979l.679.079a1.663,1.663,0,0,1-1.649,1.5c-1.089,0-1.589-.821-1.589-2.7s.5-2.7,1.589-2.7,1.589.98,1.589,2.479v.34Zm1.739-.6c-.02-1.119-.22-1.619-.87-1.619-.519,0-.859.38-.869,1.619Z" fill="#fff"/>
    <path d="M60.5,40.13h.8V39.071c0-.7.28-1.059,1.059-1.059a3.314,3.314,0,0,1,.56.059v.56a.909.909,0,0,0-.39-.08c-.35,0-.51.22-.51.55V40.13h.84v.6h-.84v4.6H61.3v-4.6h-.8Zm3.049-2.019h.719v.84H63.55Zm0,2.019h.719v5.2H63.55Z" fill="#fff"/>
    <path d="M65.048,40.13h.719v.63h.02a1.332,1.332,0,0,1,1.319-.73v.68a1.378,1.378,0,0,0-1.339.92v3.7h-.719Z" fill="#fff"/>
    <path d="M69.5,41.449c-.13-.449-.32-.819-.9-.819a.583.583,0,0,0-.579.62c0,1.059,2.2,1.119,2.2,2.738a1.393,1.393,0,0,1-1.419,1.44,1.607,1.607,0,0,1-1.66-1.38l.66-.14c.15.46.42.92.949.92a.791.791,0,0,0,.75-.79c0-1.2-2.2-1.22-2.2-2.748a1.29,1.29,0,0,1,1.35-1.26A1.4,1.4,0,0,1,70.1,41.27Z" fill="#fff"/>
    <path d="M70.284,40.13h.7V38.392H71.7V40.13h.959v.6H71.7v3.639a.473.473,0,0,0,.52.52,1.555,1.555,0,0,0,.439-.1v.539a2.083,2.083,0,0,1-.679.1c-.68,0-1-.321-1-1.12V40.729h-.7Z" fill="#fff"/>
    <path d="M44.589,51.449c-.13-.449-.32-.819-.9-.819a.584.584,0,0,0-.58.62c0,1.059,2.2,1.119,2.2,2.738a1.393,1.393,0,0,1-1.419,1.44,1.606,1.606,0,0,1-1.659-1.38l.659-.14c.15.46.42.92.95.92a.791.791,0,0,0,.749-.79c0-1.2-2.2-1.22-2.2-2.748a1.29,1.29,0,0,1,1.35-1.26,1.4,1.4,0,0,1,1.449,1.24Z" fill="#fff"/>
    <path d="M46.459,50.63h.02a1.229,1.229,0,0,1,1.059-.6c.82,0,1.5.7,1.5,2.7s-.68,2.7-1.5,2.7a1.412,1.412,0,0,1-.959-.481v2.079H45.86v-6.9h.6Zm.12,3.738a1.2,1.2,0,0,0,.78.46c.609,0,.959-.5.959-2.1s-.38-2.1-.979-2.1a1.129,1.129,0,0,0-.76.5Z" fill="#fff"/>
    <path d="M49.617,50.13h.72v.63h.02a1.333,1.333,0,0,1,1.32-.73v.68a1.378,1.378,0,0,0-1.34.92v3.7h-.72Z" fill="#fff"/>
    <path d="M52.015,48.111h.72v.84h-.72Zm0,2.019h.72v5.2h-.72Z" fill="#fff"/>
    <path d="M53.537,50.13h.68v.57a2.06,2.06,0,0,1,1.179-.67c.72,0,1.139.4,1.139,1.36v3.937h-.719V51.489c0-.6-.18-.859-.57-.859a1.362,1.362,0,0,0-.989.64v4.057h-.72Z" fill="#fff"/>
    <path d="M60.628,50.69a.777.777,0,0,0-.21-.02.624.624,0,0,0-.449.2,2.985,2.985,0,0,1,.16,1c0,1.3-.6,1.86-1.4,1.86-.159,0-.32-.041-.479-.041-.12.031-.36.14-.36.34,0,.369.589.39,1.259.53.75.16,1.419.4,1.419,1.25,0,.678-.659,1.218-1.759,1.218-1.179,0-1.779-.439-1.779-1.119a1.136,1.136,0,0,1,.76-1.04.7.7,0,0,1,.12-1.388,1.918,1.918,0,0,1-.62-1.49c0-1.239.6-1.959,1.509-1.959a1.089,1.089,0,0,1,.95.48.947.947,0,0,1,.879-.48Zm-2.239,4.358c-.419.18-.7.42-.7.709,0,.43.36.729,1.139.729.8,0,1.08-.319,1.08-.739C59.909,55.268,59.009,55.188,58.389,55.048Zm.32-1.86c.42,0,.76-.319.76-1.309s-.34-1.309-.76-1.309-.759.32-.759,1.309S58.29,53.188,58.709,53.188Z" fill="#fff"/>
    <path d="M65.828,50.29c-.1-1.14-.46-1.619-1.069-1.619-.91,0-1.31.8-1.31,3.049s.4,3.048,1.31,3.048c.73,0,1.149-.5,1.169-1.839h.78c-.02,1.6-.72,2.5-1.949,2.5-1.29,0-2.089-.98-2.089-3.708s.8-3.708,2.089-3.708c1.069,0,1.729.739,1.849,2.278Z" fill="#fff"/>
    <path d="M68.718,50.03c1.089,0,1.589.82,1.589,2.7s-.5,2.7-1.589,2.7-1.589-.821-1.589-2.7S67.629,50.03,68.718,50.03Zm0,4.8c.61,0,.87-.38.87-2.1s-.26-2.1-.87-2.1-.87.38-.87,2.1S68.108,54.828,68.718,54.828Z" fill="#fff"/>
    <path d="M70.876,48.111H71.6v.84h-.719Zm0,2.019H71.6v5.2h-.719Z" fill="#fff"/>
    <path d="M72.41,48.111h.72v7.216h-.72Z" fill="#fff"/>
    <path d="M73.945,48.111h.72v.84h-.72Zm0,2.019h.72v5.2h-.72Z" fill="#fff"/>
    <path d="M75.467,50.13h.68v.57a2.06,2.06,0,0,1,1.179-.67c.72,0,1.139.4,1.139,1.36v3.937h-.719V51.489c0-.6-.18-.859-.57-.859a1.365,1.365,0,0,0-.99.64v4.057h-.719Z" fill="#fff"/>
    <path d="M82.558,50.69a.784.784,0,0,0-.21-.02.628.628,0,0,0-.45.2,2.985,2.985,0,0,1,.16,1c0,1.3-.6,1.86-1.4,1.86-.16,0-.32-.041-.48-.041-.12.031-.359.14-.359.34,0,.369.589.39,1.259.53.749.16,1.419.4,1.419,1.25,0,.678-.659,1.218-1.759,1.218-1.179,0-1.779-.439-1.779-1.119a1.137,1.137,0,0,1,.759-1.04.7.7,0,0,1,.121-1.388,1.918,1.918,0,0,1-.62-1.49c0-1.239.6-1.959,1.509-1.959a1.086,1.086,0,0,1,.949.48.949.949,0,0,1,.88-.48Zm-2.239,4.358c-.419.18-.7.42-.7.709,0,.43.36.729,1.14.729.8,0,1.08-.319,1.08-.739C81.839,55.268,80.939,55.188,80.319,55.048Zm.32-1.86c.42,0,.76-.319.76-1.309s-.34-1.309-.76-1.309-.759.32-.759,1.309S80.219,53.188,80.639,53.188Z" fill="#fff"/>
    <path d="M43.65,58.111l1.259,5.457h.02l1.229-5.457H47.4v7.216h-.72V58.711h-.02l-1.5,6.616h-.51l-1.5-6.616h-.02v6.616h-.72V58.111Z" fill="#fff"/>
    <path d="M48.08,61.55a1.59,1.59,0,0,1,1.539-1.52,1.355,1.355,0,0,1,1.49,1.48v2.9a2.122,2.122,0,0,0,.13.919h-.75l-.09-.439a1.9,1.9,0,0,1-1.109.54,1.263,1.263,0,0,1-1.35-1.34c0-1.279,1.41-1.929,2.449-2.158v-.37c0-.57-.29-.93-.75-.93-.549,0-.819.55-.9,1.019Zm2.309.979c-.66.2-1.729.68-1.729,1.5,0,.49.22.8.74.8a1.472,1.472,0,0,0,.989-.54Z" fill="#fff"/>
    <path d="M54.079,61.669c-.07-.779-.38-1.039-.819-1.039-.61,0-.87.38-.87,2.1s.26,2.1.87,2.1c.459,0,.719-.24.839-1.14h.7c-.121,1.02-.6,1.74-1.539,1.74-1.09,0-1.59-.821-1.59-2.7s.5-2.7,1.59-2.7c.939,0,1.379.62,1.519,1.639Z" fill="#fff"/>
    <path d="M55.308,58.111h.72V60.7a1.862,1.862,0,0,1,1.139-.67c.72,0,1.139.4,1.139,1.36v3.937h-.719V61.489c0-.6-.18-.859-.57-.859a1.362,1.362,0,0,0-.989.64v4.057h-.72Z" fill="#fff"/>
    <path d="M59.11,58.111h.72v.84h-.72Zm0,2.019h.72v5.2h-.72Z" fill="#fff"/>
    <path d="M60.632,60.13h.68v.57a2.06,2.06,0,0,1,1.179-.67c.72,0,1.139.4,1.139,1.36v3.937h-.719V61.489c0-.6-.18-.859-.57-.859a1.365,1.365,0,0,0-.99.64v4.057h-.719Z" fill="#fff"/>
    <path d="M64.894,62.849v.29c0,1.269.29,1.689.97,1.689.549,0,.779-.51.869-.979l.679.079a1.663,1.663,0,0,1-1.649,1.5c-1.089,0-1.589-.821-1.589-2.7s.5-2.7,1.589-2.7,1.589.98,1.589,2.479v.34Zm1.739-.6c-.02-1.119-.22-1.619-.87-1.619-.519,0-.859.38-.869,1.619Z" fill="#fff"/>
  </g>
  <g>
    <path d="M78.6,87.854c-.06-.74-.36-1.3-1.109-1.3a.924.924,0,0,0-.99.949c0,1.63,2.9,1.649,2.9,3.968a1.682,1.682,0,0,1-1.849,1.84,1.837,1.837,0,0,1-1.829-2.04h.72c.02.85.419,1.379,1.189,1.379A1.04,1.04,0,0,0,78.7,91.462c0-1.639-2.9-1.829-2.9-3.888A1.61,1.61,0,0,1,77.545,85.9c1.039,0,1.719.7,1.779,1.958Z" fill="#fff"/>
    <path d="M79.591,88.014h.7V86.275h.719v1.739h.959v.6H81.01v3.639a.473.473,0,0,0,.52.519,1.555,1.555,0,0,0,.439-.1v.539a2.11,2.11,0,0,1-.679.1c-.679,0-1-.321-1-1.121V88.613h-.7Z" fill="#fff"/>
    <path d="M82.4,89.434a1.59,1.59,0,0,1,1.539-1.52,1.355,1.355,0,0,1,1.49,1.48v2.9a2.143,2.143,0,0,0,.129.919h-.749l-.09-.44a1.9,1.9,0,0,1-1.109.541,1.262,1.262,0,0,1-1.349-1.34c0-1.28,1.409-1.929,2.448-2.159v-.37c0-.569-.29-.929-.75-.929-.55,0-.819.549-.9,1.019Zm2.309.979c-.66.2-1.729.68-1.729,1.5,0,.489.22.8.74.8a1.476,1.476,0,0,0,.989-.54Z" fill="#fff"/>
    <path d="M86.219,88.014h.719v.63h.02a1.332,1.332,0,0,1,1.319-.73v.68a1.377,1.377,0,0,0-1.339.92v3.7h-.719Z" fill="#fff"/>
    <path d="M88.269,88.014h.7V86.275h.719v1.739h.96v.6h-.96v3.639a.473.473,0,0,0,.52.519,1.569,1.569,0,0,0,.44-.1v.539a2.121,2.121,0,0,1-.68.1c-.679,0-1-.321-1-1.121V88.613h-.7Z" fill="#fff"/>
    <path d="M93.258,90.732v.29c0,1.27.29,1.69.97,1.69.549,0,.779-.51.869-.98l.68.08a1.664,1.664,0,0,1-1.649,1.5c-1.09,0-1.59-.821-1.59-2.7s.5-2.7,1.59-2.7,1.589.98,1.589,2.479v.339Zm1.739-.6c-.02-1.119-.22-1.619-.869-1.619-.52,0-.86.38-.87,1.619Z" fill="#fff"/>
    <path d="M95.645,88.014h.74l.859,1.819L98,88.014h.739l-1.119,2.5,1.319,2.7H98.2l-.939-2.039-.879,2.039h-.74l1.2-2.7Z" fill="#fff"/>
    <path d="M99.882,88.514h.02a1.227,1.227,0,0,1,1.059-.6c.82,0,1.5.7,1.5,2.7s-.679,2.7-1.5,2.7a1.416,1.416,0,0,1-.96-.481V94.91h-.719v-6.9h.6ZM100,92.252a1.2,1.2,0,0,0,.78.46c.609,0,.959-.5.959-2.1s-.379-2.1-.979-2.1a1.129,1.129,0,0,0-.76.5Z" fill="#fff"/>
    <path d="M104.4,87.914c1.089,0,1.589.819,1.589,2.7s-.5,2.7-1.589,2.7-1.589-.821-1.589-2.7S103.315,87.914,104.4,87.914Zm0,4.8c.61,0,.87-.38.87-2.1s-.26-2.1-.87-2.1-.87.38-.87,2.1S103.794,92.712,104.4,92.712Z" fill="#fff"/>
    <path d="M106.515,88.014h.72v.63h.02a1.331,1.331,0,0,1,1.319-.73v.68a1.375,1.375,0,0,0-1.339.92v3.7h-.72Z" fill="#fff"/>
    <path d="M108.566,88.014h.7V86.275h.719v1.739h.96v.6h-.96v3.639a.473.473,0,0,0,.52.519,1.569,1.569,0,0,0,.44-.1v.539a2.121,2.121,0,0,1-.68.1c-.679,0-1-.321-1-1.121V88.613h-.7Z" fill="#fff"/>
    <path d="M113.474,89.333c-.13-.449-.32-.819-.9-.819a.583.583,0,0,0-.579.62c0,1.058,2.2,1.119,2.2,2.738a1.393,1.393,0,0,1-1.419,1.44,1.607,1.607,0,0,1-1.66-1.38l.66-.14c.15.46.42.92.949.92a.791.791,0,0,0,.75-.79c0-1.2-2.2-1.22-2.2-2.748a1.29,1.29,0,0,1,1.35-1.26,1.4,1.4,0,0,1,1.449,1.239Z" fill="#fff"/>
    <path d="M75.446,98.014h.7V96.275h.719v1.739h.959v.6h-.959v3.639a.473.473,0,0,0,.52.519,1.555,1.555,0,0,0,.439-.1v.539a2.11,2.11,0,0,1-.679.1c-.679,0-1-.321-1-1.121V98.613h-.7Z" fill="#fff"/>
    <path d="M78.281,96H79v2.589a1.86,1.86,0,0,1,1.139-.67c.72,0,1.14.4,1.14,1.359v3.938h-.72V99.373c0-.6-.18-.859-.57-.859a1.363,1.363,0,0,0-.989.639v4.058h-.72Z" fill="#fff"/>
    <path d="M82.041,98.014h.72v.63h.02a1.332,1.332,0,0,1,1.319-.73v.68a1.376,1.376,0,0,0-1.339.92v3.7h-.72Z" fill="#fff"/>
    <path d="M85.681,97.914c1.09,0,1.589.819,1.589,2.7s-.5,2.7-1.589,2.7-1.589-.821-1.589-2.7S84.592,97.914,85.681,97.914Zm0,4.8c.61,0,.87-.38.87-2.1s-.26-2.1-.87-2.1-.869.38-.869,2.1S85.072,102.712,85.681,102.712Z" fill="#fff"/>
    <path d="M90.806,103.211h-.679v-.569a2.063,2.063,0,0,1-1.179.67c-.72,0-1.14-.4-1.14-1.36V98.014h.72v3.838c0,.6.18.86.569.86a1.362,1.362,0,0,0,.99-.64V98.014h.719Z" fill="#fff"/>
    <path d="M94.916,98.574a.777.777,0,0,0-.21-.02.624.624,0,0,0-.449.2,2.985,2.985,0,0,1,.16,1c0,1.3-.6,1.859-1.4,1.859-.159,0-.319-.04-.479-.04-.12.031-.36.14-.36.34,0,.369.589.39,1.259.529.75.161,1.419.4,1.419,1.25,0,.679-.659,1.219-1.759,1.219-1.179,0-1.779-.439-1.779-1.119a1.136,1.136,0,0,1,.76-1.04.7.7,0,0,1,.12-1.389,1.914,1.914,0,0,1-.62-1.489c0-1.239.6-1.959,1.509-1.959a1.087,1.087,0,0,1,.95.48.947.947,0,0,1,.879-.48Zm-2.239,4.358c-.419.179-.7.42-.7.709,0,.429.36.729,1.139.729.8,0,1.08-.319,1.08-.739C94.2,103.151,93.3,103.071,92.677,102.932Zm.32-1.86c.42,0,.76-.319.76-1.309s-.34-1.309-.76-1.309-.759.319-.759,1.309S92.578,101.072,93,101.072Z" fill="#fff"/>
    <path d="M95.4,96h.72v2.589a1.857,1.857,0,0,1,1.139-.67c.72,0,1.139.4,1.139,1.359v3.938h-.719V99.373c0-.6-.18-.859-.57-.859a1.363,1.363,0,0,0-.989.639v4.058H95.4Z" fill="#fff"/>
    <path d="M100.531,97.914c1.09,0,1.589.819,1.589,2.7s-.5,2.7-1.589,2.7-1.589-.821-1.589-2.7S99.442,97.914,100.531,97.914Zm0,4.8c.61,0,.87-.38.87-2.1s-.26-2.1-.87-2.1-.869.38-.869,2.1S99.922,102.712,100.531,102.712Z" fill="#fff"/>
    <path d="M105.656,103.211h-.679v-.569a2.063,2.063,0,0,1-1.179.67c-.72,0-1.14-.4-1.14-1.36V98.014h.72v3.838c0,.6.18.86.57.86a1.362,1.362,0,0,0,.989-.64V98.014h.719Z" fill="#fff"/>
    <path d="M106,98.014h.7V96.275h.719v1.739h.96v.6h-.96v3.639a.473.473,0,0,0,.52.519,1.569,1.569,0,0,0,.44-.1v.539a2.121,2.121,0,0,1-.68.1c-.679,0-1-.321-1-1.121V98.613H106Z" fill="#fff"/>
    <path d="M79.324,106v.66H76.805v2.458h1.859v.66H76.805v2.779h2.639v.659H76.026V106Z" fill="#fff"/>
    <path d="M82.959,113.211h-.68v-.569a2.057,2.057,0,0,1-1.179.67c-.72,0-1.139-.4-1.139-1.36v-3.938h.719v3.838c0,.6.18.86.57.86a1.364,1.364,0,0,0,.99-.64v-4.058h.719Z" fill="#fff"/>
    <path d="M83.721,108.014h.72v.63h.02a1.332,1.332,0,0,1,1.319-.73v.68a1.376,1.376,0,0,0-1.339.92v3.7h-.72Z" fill="#fff"/>
    <path d="M87.362,107.914c1.089,0,1.588.819,1.588,2.7s-.5,2.7-1.588,2.7-1.59-.821-1.59-2.7S86.272,107.914,87.362,107.914Zm0,4.8c.609,0,.869-.38.869-2.1s-.26-2.1-.869-2.1-.87.38-.87,2.1S86.752,112.712,87.362,112.712Z" fill="#fff"/>
    <path d="M90.13,108.514h.02a1.229,1.229,0,0,1,1.059-.6c.82,0,1.5.7,1.5,2.7s-.68,2.7-1.5,2.7a1.416,1.416,0,0,1-.959-.481v2.079h-.719v-6.9h.6Zm.12,3.738a1.2,1.2,0,0,0,.78.46c.609,0,.959-.5.959-2.1s-.38-2.1-.979-2.1a1.129,1.129,0,0,0-.76.5Z" fill="#fff"/>
    <path d="M93.783,110.732v.29c0,1.27.29,1.69.97,1.69.549,0,.779-.51.869-.98l.68.08a1.664,1.664,0,0,1-1.649,1.5c-1.09,0-1.59-.821-1.59-2.7s.5-2.7,1.59-2.7,1.588.98,1.588,2.479v.339Zm1.739-.6c-.02-1.119-.22-1.619-.869-1.619-.52,0-.86.38-.87,1.619Z" fill="#fff"/>
  </g>
  <g>
    <path d="M110.624,28.111h1.7a1.98,1.98,0,0,1,0,3.958H111.4v3.258h-.78Zm.78,3.3h.819c.78,0,1.24-.42,1.24-1.319s-.46-1.319-1.24-1.319H111.4Z" fill="#fff"/>
    <path d="M114.553,31.55a1.591,1.591,0,0,1,1.54-1.52,1.355,1.355,0,0,1,1.489,1.479v2.9a2.14,2.14,0,0,0,.13.92h-.75l-.09-.439a1.9,1.9,0,0,1-1.109.539,1.262,1.262,0,0,1-1.35-1.339c0-1.279,1.41-1.929,2.449-2.159V31.56c0-.571-.289-.93-.749-.93-.55,0-.82.549-.9,1.019Zm2.309.978c-.66.2-1.729.68-1.729,1.5,0,.49.22.8.74.8a1.471,1.471,0,0,0,.989-.539Z" fill="#fff"/>
    <path d="M117.9,30.13h.7V28.392h.72V30.13h.959v.6h-.959v3.639a.474.474,0,0,0,.52.52,1.607,1.607,0,0,0,.439-.1v.539a2.092,2.092,0,0,1-.68.1c-.679,0-1-.32-1-1.119V30.729h-.7Z" fill="#fff"/>
    <path d="M121.123,32.849v.289c0,1.269.29,1.689.97,1.689.549,0,.779-.51.869-.978l.679.079a1.662,1.662,0,0,1-1.649,1.5c-1.089,0-1.589-.82-1.589-2.7s.5-2.7,1.589-2.7,1.589.979,1.589,2.479v.34Zm1.739-.6c-.02-1.119-.22-1.619-.87-1.619-.519,0-.859.379-.869,1.619Z" fill="#fff"/>
    <path d="M124.123,30.13h.68v.57a2.06,2.06,0,0,1,1.179-.67c.72,0,1.139.4,1.139,1.36v3.937H126.4V31.489c0-.6-.18-.859-.57-.859a1.362,1.362,0,0,0-.989.64v4.057h-.72Z" fill="#fff"/>
    <path d="M127.436,30.13h.7V28.392h.719V30.13h.96v.6h-.96v3.639a.474.474,0,0,0,.52.52,1.606,1.606,0,0,0,.44-.1v.539a2.1,2.1,0,0,1-.68.1c-.679,0-1-.32-1-1.119V30.729h-.7Z" fill="#fff"/>
    <path d="M131.535,30.13h.8V29.071c0-.7.28-1.06,1.06-1.06a3.3,3.3,0,0,1,.559.06v.56a.905.905,0,0,0-.389-.08c-.35,0-.51.22-.51.55V30.13h.839v.6h-.839v4.6h-.72v-4.6h-.8Z" fill="#fff"/>
    <path d="M135.569,30.03c1.089,0,1.588.82,1.588,2.7s-.5,2.7-1.588,2.7-1.59-.82-1.59-2.7S134.479,30.03,135.569,30.03Zm0,4.8c.609,0,.869-.379.869-2.1s-.26-2.1-.869-2.1-.87.379-.87,2.1S134.959,34.827,135.569,34.827Z" fill="#fff"/>
    <path d="M137.679,30.13h.72v.63h.02a1.333,1.333,0,0,1,1.32-.73v.68a1.378,1.378,0,0,0-1.34.92v3.7h-.72Z" fill="#fff"/>
    <path d="M110.684,41.55a1.59,1.59,0,0,1,1.539-1.52,1.355,1.355,0,0,1,1.49,1.479v2.9a2.124,2.124,0,0,0,.13.92h-.75l-.09-.439a1.908,1.908,0,0,1-1.109.539,1.262,1.262,0,0,1-1.35-1.339c0-1.279,1.41-1.929,2.449-2.159V41.56c0-.571-.29-.93-.75-.93-.549,0-.819.549-.9,1.019Zm2.309.978c-.66.2-1.729.68-1.729,1.5,0,.49.22.8.74.8a1.471,1.471,0,0,0,.989-.539Z" fill="#fff"/>
    <path d="M118.483,41.669c-.07-.779-.38-1.039-.82-1.039-.61,0-.869.379-.869,2.1s.259,2.1.869,2.1c.46,0,.72-.24.84-1.139h.7c-.12,1.02-.6,1.739-1.539,1.739-1.089,0-1.589-.82-1.589-2.7s.5-2.7,1.589-2.7c.94,0,1.38.619,1.519,1.639Z" fill="#fff"/>
    <path d="M121.091,40.03c1.089,0,1.588.82,1.588,2.7s-.5,2.7-1.588,2.7-1.59-.82-1.59-2.7S120,40.03,121.091,40.03Zm0,4.8c.609,0,.869-.379.869-2.1s-.26-2.1-.869-2.1-.87.379-.87,2.1S120.481,44.827,121.091,44.827Z" fill="#fff"/>
    <path d="M124.562,40.03c1.089,0,1.589.82,1.589,2.7s-.5,2.7-1.589,2.7-1.59-.82-1.59-2.7S123.472,40.03,124.562,40.03Zm0,4.8c.61,0,.869-.379.869-2.1s-.259-2.1-.869-2.1-.87.379-.87,2.1S123.952,44.827,124.562,44.827Z" fill="#fff"/>
    <path d="M126.719,38.111h.72v7.216h-.72Z" fill="#fff"/>
    <path d="M128.254,38.111h.72v.839h-.72Zm0,2.019h.72v5.2h-.72Z" fill="#fff"/>
    <path d="M129.776,40.13h.68v.57a2.06,2.06,0,0,1,1.179-.67c.72,0,1.139.4,1.139,1.36v3.937h-.719V41.489c0-.6-.18-.859-.57-.859a1.365,1.365,0,0,0-.99.64v4.057h-.719Z" fill="#fff"/>
    <path d="M136.867,40.69a.784.784,0,0,0-.21-.02.624.624,0,0,0-.45.2,2.985,2.985,0,0,1,.16,1c0,1.3-.6,1.859-1.4,1.859-.16,0-.32-.04-.479-.04-.121.03-.36.14-.36.34,0,.369.589.389,1.259.53.749.16,1.419.4,1.419,1.25,0,.678-.659,1.218-1.759,1.218-1.179,0-1.779-.439-1.779-1.119a1.136,1.136,0,0,1,.76-1.04.7.7,0,0,1,.12-1.389,1.916,1.916,0,0,1-.62-1.489c0-1.24.6-1.959,1.509-1.959a1.089,1.089,0,0,1,.95.48.944.944,0,0,1,.879-.48Zm-2.239,4.358c-.419.18-.7.42-.7.709,0,.43.36.729,1.14.729.8,0,1.08-.319,1.08-.739C136.148,45.267,135.248,45.187,134.628,45.048Zm.32-1.86c.42,0,.76-.32.76-1.309s-.34-1.31-.76-1.31-.759.321-.759,1.31S134.529,43.188,134.948,43.188Z" fill="#fff"/>
    <path d="M112.8,51.449c-.13-.45-.32-.819-.9-.819a.583.583,0,0,0-.58.619c0,1.06,2.2,1.119,2.2,2.738a1.392,1.392,0,0,1-1.419,1.44,1.606,1.606,0,0,1-1.659-1.379l.659-.141c.15.461.42.92.949.92a.79.79,0,0,0,.75-.789c0-1.2-2.2-1.22-2.2-2.748a1.29,1.29,0,0,1,1.35-1.26,1.4,1.4,0,0,1,1.449,1.24Z" fill="#fff"/>
    <path d="M114.241,50.13l.98,3.978h.019l.8-3.978h.74l-1.189,5.088c-.27,1.138-.77,1.808-1.64,1.808h-.369v-.6h.22c.569,0,.939-.41,1.079-1.14L113.5,50.13Z" fill="#fff"/>
    <path d="M119.107,51.449c-.13-.45-.32-.819-.9-.819a.583.583,0,0,0-.58.619c0,1.06,2.2,1.119,2.2,2.738a1.392,1.392,0,0,1-1.419,1.44,1.607,1.607,0,0,1-1.659-1.379l.659-.141c.15.461.42.92.95.92a.79.79,0,0,0,.749-.789c0-1.2-2.2-1.22-2.2-2.748a1.29,1.29,0,0,1,1.35-1.26,1.4,1.4,0,0,1,1.449,1.24Z" fill="#fff"/>
    <path d="M119.9,50.13h.7V48.392h.719V50.13h.96v.6h-.96v3.639a.474.474,0,0,0,.52.52,1.606,1.606,0,0,0,.44-.1v.539a2.1,2.1,0,0,1-.68.1c-.679,0-1-.32-1-1.119V50.729h-.7Z" fill="#fff"/>
    <path d="M123.12,52.849v.289c0,1.269.29,1.689.97,1.689.549,0,.779-.51.869-.978l.68.079a1.663,1.663,0,0,1-1.649,1.5c-1.089,0-1.589-.82-1.589-2.7s.5-2.7,1.589-2.7,1.589.979,1.589,2.479v.34Zm1.74-.6c-.02-1.119-.221-1.619-.87-1.619-.52,0-.859.379-.87,1.619Z" fill="#fff"/>
    <path d="M126.161,55.327v-5.2h.66v.57a1.687,1.687,0,0,1,1.21-.67.993.993,0,0,1,.929.66,1.711,1.711,0,0,1,1.209-.66c.68,0,1.05.459,1.05,1.2v4.1h-.72v-4c0-.539-.16-.7-.539-.7a1.258,1.258,0,0,0-.91.539v4.158h-.72v-4c0-.539-.19-.7-.569-.7a1.143,1.143,0,0,0-.88.539v4.158Z" fill="#fff"/>
    <path d="M133.431,50.13h.8V49.071c0-.7.28-1.06,1.06-1.06a3.3,3.3,0,0,1,.559.06v.56a.905.905,0,0,0-.389-.08c-.35,0-.51.22-.51.55V50.13h.839v.6h-.839v4.6h-.72v-4.6h-.8Z" fill="#fff"/>
    <path d="M137.465,50.03c1.089,0,1.588.82,1.588,2.7s-.5,2.7-1.588,2.7-1.59-.82-1.59-2.7S136.375,50.03,137.465,50.03Zm0,4.8c.609,0,.869-.379.869-2.1s-.26-2.1-.869-2.1-.87.379-.87,2.1S136.855,54.827,137.465,54.827Z" fill="#fff"/>
    <path d="M139.575,50.13h.72v.63h.02a1.332,1.332,0,0,1,1.319-.73v.68a1.377,1.377,0,0,0-1.339.92v3.7h-.72Z" fill="#fff"/>
    <path d="M110.145,60.13h.7V58.392h.72V60.13h.959v.6h-.959v3.639a.474.474,0,0,0,.52.52,1.6,1.6,0,0,0,.439-.1v.539a2.09,2.09,0,0,1-.679.1c-.68,0-1-.32-1-1.119V60.729h-.7Z" fill="#fff"/>
    <path d="M112.949,60.13h.72v.63h.02a1.331,1.331,0,0,1,1.319-.73v.68a1.377,1.377,0,0,0-1.339.92v3.7h-.72Z" fill="#fff"/>
    <path d="M115.173,61.55a1.59,1.59,0,0,1,1.539-1.52,1.354,1.354,0,0,1,1.489,1.479v2.9a2.14,2.14,0,0,0,.13.92h-.749l-.09-.439a1.908,1.908,0,0,1-1.109.539,1.262,1.262,0,0,1-1.35-1.339c0-1.279,1.41-1.929,2.449-2.159V61.56c0-.571-.29-.93-.75-.93-.55,0-.819.549-.9,1.019Zm2.309.978c-.66.2-1.729.68-1.729,1.5,0,.49.22.8.739.8a1.471,1.471,0,0,0,.99-.539Z" fill="#fff"/>
    <path d="M119.024,60.13h.68v.57a2.06,2.06,0,0,1,1.179-.67c.72,0,1.139.4,1.139,1.36v3.937H121.3V61.489c0-.6-.18-.859-.57-.859a1.365,1.365,0,0,0-.99.64v4.057h-.719Z" fill="#fff"/>
    <path d="M124.874,61.449c-.13-.45-.32-.819-.9-.819a.583.583,0,0,0-.58.619c0,1.06,2.2,1.119,2.2,2.738a1.392,1.392,0,0,1-1.419,1.44,1.607,1.607,0,0,1-1.659-1.379l.66-.141c.149.461.419.92.949.92a.79.79,0,0,0,.749-.789c0-1.2-2.2-1.22-2.2-2.748a1.289,1.289,0,0,1,1.349-1.26,1.4,1.4,0,0,1,1.449,1.24Z" fill="#fff"/>
    <path d="M126.13,58.111h.719v.839h-.719Zm0,2.019h.719v5.2h-.719Z" fill="#fff"/>
    <path d="M129.711,61.449c-.13-.45-.32-.819-.9-.819a.583.583,0,0,0-.58.619c0,1.06,2.2,1.119,2.2,2.738a1.392,1.392,0,0,1-1.419,1.44,1.607,1.607,0,0,1-1.659-1.379l.659-.141c.15.461.42.92.95.92a.79.79,0,0,0,.749-.789c0-1.2-2.2-1.22-2.2-2.748a1.29,1.29,0,0,1,1.35-1.26,1.4,1.4,0,0,1,1.449,1.24Z" fill="#fff"/>
    <path d="M130.5,60.13h.7V58.392h.719V60.13h.96v.6h-.96v3.639a.474.474,0,0,0,.52.52,1.606,1.606,0,0,0,.44-.1v.539a2.1,2.1,0,0,1-.68.1c-.679,0-1-.32-1-1.119V60.729h-.7Z" fill="#fff"/>
    <path d="M134.593,60.03c1.089,0,1.589.82,1.589,2.7s-.5,2.7-1.589,2.7-1.589-.82-1.589-2.7S133.5,60.03,134.593,60.03Zm0,4.8c.61,0,.87-.379.87-2.1s-.26-2.1-.87-2.1-.87.379-.87,2.1S133.983,64.827,134.593,64.827Z" fill="#fff"/>
    <path d="M136.7,60.13h.72v.63h.02a1.331,1.331,0,0,1,1.319-.73v.68a1.377,1.377,0,0,0-1.339.92v3.7h-.72Z" fill="#fff"/>
    <path d="M141.152,61.449c-.13-.45-.32-.819-.9-.819a.583.583,0,0,0-.58.619c0,1.06,2.2,1.119,2.2,2.738a1.392,1.392,0,0,1-1.419,1.44,1.606,1.606,0,0,1-1.659-1.379l.659-.141c.15.461.42.92.95.92a.79.79,0,0,0,.749-.789c0-1.2-2.2-1.22-2.2-2.748a1.29,1.29,0,0,1,1.35-1.26,1.4,1.4,0,0,1,1.449,1.24Z" fill="#fff"/>
  </g>
  <g>
    <path d="M145.29,86h1.7a1.979,1.979,0,0,1,0,3.957h-.92v3.259h-.78Zm.78,3.3h.819c.78,0,1.24-.42,1.24-1.319s-.46-1.32-1.24-1.32h-.819Z" fill="#fff"/>
    <path d="M149.219,89.433a1.591,1.591,0,0,1,1.54-1.519,1.355,1.355,0,0,1,1.489,1.479v2.9a2.14,2.14,0,0,0,.13.92h-.75l-.09-.44a1.9,1.9,0,0,1-1.109.54,1.262,1.262,0,0,1-1.35-1.339c0-1.28,1.41-1.93,2.449-2.16v-.37c0-.569-.289-.928-.749-.928-.55,0-.82.548-.9,1.019Zm2.309.979c-.66.2-1.729.68-1.729,1.5,0,.49.22.8.74.8a1.472,1.472,0,0,0,.989-.54Z" fill="#fff"/>
    <path d="M152.57,88.014h.7v-1.74h.72v1.74h.959v.6h-.959v3.638a.473.473,0,0,0,.52.52,1.571,1.571,0,0,0,.439-.1v.54a2.119,2.119,0,0,1-.68.1c-.679,0-1-.32-1-1.12V88.613h-.7Z" fill="#fff"/>
    <path d="M155.789,90.732v.289c0,1.27.29,1.69.97,1.69.549,0,.779-.51.869-.98l.679.081a1.662,1.662,0,0,1-1.649,1.5c-1.089,0-1.589-.82-1.589-2.7s.5-2.7,1.589-2.7,1.589.98,1.589,2.479v.339Zm1.739-.6c-.02-1.12-.22-1.619-.87-1.619-.519,0-.859.38-.869,1.619Z" fill="#fff"/>
    <path d="M158.789,88.014h.68v.569a2.052,2.052,0,0,1,1.179-.669c.72,0,1.139.4,1.139,1.358v3.939h-.719V89.373c0-.6-.18-.859-.57-.859a1.36,1.36,0,0,0-.989.639v4.058h-.72Z" fill="#fff"/>
    <path d="M162.1,88.014h.7v-1.74h.719v1.74h.96v.6h-.96v3.638a.473.473,0,0,0,.52.52,1.57,1.57,0,0,0,.44-.1v.54a2.124,2.124,0,0,1-.68.1c-.679,0-1-.32-1-1.12V88.613h-.7Z" fill="#fff"/>
    <path d="M166.2,88.014h.8v-1.06c0-.7.28-1.059,1.06-1.059a3.3,3.3,0,0,1,.559.06v.56a.891.891,0,0,0-.389-.08.479.479,0,0,0-.51.549v1.03h.839v.6h-.839v4.6H167v-4.6h-.8Z" fill="#fff"/>
    <path d="M170.235,87.914c1.089,0,1.588.819,1.588,2.7s-.5,2.7-1.588,2.7-1.59-.82-1.59-2.7S169.145,87.914,170.235,87.914Zm0,4.8c.609,0,.869-.38.869-2.1s-.26-2.1-.869-2.1-.87.38-.87,2.1S169.625,92.711,170.235,92.711Z" fill="#fff"/>
    <path d="M172.345,88.014h.72v.63h.02a1.333,1.333,0,0,1,1.32-.73v.679a1.378,1.378,0,0,0-1.34.92v3.7h-.72Z" fill="#fff"/>
    <path d="M176.305,89.433a1.59,1.59,0,0,1,1.539-1.519,1.355,1.355,0,0,1,1.489,1.479v2.9a2.14,2.14,0,0,0,.13.92h-.749l-.09-.44a1.9,1.9,0,0,1-1.11.54,1.262,1.262,0,0,1-1.349-1.339c0-1.28,1.409-1.93,2.449-2.16v-.37c0-.569-.29-.928-.75-.928-.55,0-.819.548-.9,1.019Zm2.309.979c-.66.2-1.729.68-1.729,1.5,0,.49.22.8.739.8a1.472,1.472,0,0,0,.99-.54Z" fill="#fff"/>
    <path d="M146.11,98.514h.02a1.229,1.229,0,0,1,1.059-.6c.82,0,1.5.7,1.5,2.7s-.68,2.7-1.5,2.7a1.419,1.419,0,0,1-.959-.48v2.079h-.72v-6.9h.6Zm.12,3.737a1.2,1.2,0,0,0,.78.46c.609,0,.959-.5.959-2.1s-.38-2.1-.979-2.1a1.127,1.127,0,0,0-.76.5Z" fill="#fff"/>
    <path d="M149.216,99.433a1.59,1.59,0,0,1,1.539-1.519,1.354,1.354,0,0,1,1.489,1.479v2.9a2.14,2.14,0,0,0,.13.92h-.749l-.09-.44a1.9,1.9,0,0,1-1.109.54,1.262,1.262,0,0,1-1.35-1.339c0-1.28,1.41-1.93,2.449-2.16v-.37c0-.569-.29-.928-.75-.928-.55,0-.819.548-.9,1.019Zm2.309.979c-.66.2-1.729.68-1.729,1.5,0,.49.22.8.739.8a1.472,1.472,0,0,0,.99-.54Z" fill="#fff"/>
    <path d="M155.215,99.553c-.07-.78-.379-1.039-.819-1.039-.61,0-.87.38-.87,2.1s.26,2.1.87,2.1c.46,0,.719-.24.839-1.14h.7c-.12,1.02-.6,1.74-1.539,1.74-1.09,0-1.59-.82-1.59-2.7s.5-2.7,1.59-2.7c.939,0,1.379.619,1.519,1.639Z" fill="#fff"/>
    <path d="M156.413,96h.72v4.557h.02l1.379-2.538h.74l-.96,1.659,1.2,3.538h-.739l-.94-2.818h-.019l-.68,1.279v1.539h-.72Z" fill="#fff"/>
    <path d="M159.763,99.433a1.591,1.591,0,0,1,1.539-1.519,1.355,1.355,0,0,1,1.49,1.479v2.9a2.14,2.14,0,0,0,.13.92h-.75l-.09-.44a1.9,1.9,0,0,1-1.109.54,1.262,1.262,0,0,1-1.35-1.339c0-1.28,1.41-1.93,2.449-2.16v-.37c0-.569-.29-.928-.749-.928-.55,0-.82.548-.9,1.019Zm2.309.979c-.66.2-1.729.68-1.729,1.5,0,.49.22.8.74.8a1.472,1.472,0,0,0,.989-.54Z" fill="#fff"/>
    <path d="M167,98.573a.82.82,0,0,0-.21-.019.625.625,0,0,0-.449.2,3,3,0,0,1,.16,1c0,1.3-.6,1.858-1.4,1.858-.159,0-.32-.04-.479-.04-.12.031-.36.141-.36.34,0,.37.589.39,1.259.53.75.16,1.419.4,1.419,1.249,0,.68-.659,1.22-1.759,1.22-1.179,0-1.778-.44-1.778-1.12a1.135,1.135,0,0,1,.759-1.039.7.7,0,0,1,.12-1.39,1.913,1.913,0,0,1-.62-1.489c0-1.239.6-1.958,1.509-1.958a1.085,1.085,0,0,1,.95.48.945.945,0,0,1,.879-.48Zm-2.239,4.358c-.419.179-.7.42-.7.71,0,.429.36.729,1.139.729.8,0,1.08-.32,1.08-.739C166.281,103.15,165.381,103.07,164.761,102.931Zm.32-1.859c.42,0,.76-.32.76-1.309s-.34-1.31-.76-1.31-.759.32-.759,1.31S164.662,101.072,165.081,101.072Z" fill="#fff"/>
    <path d="M167.5,96h.72v.839h-.72Zm0,2.019h.72v5.2h-.72Z" fill="#fff"/>
    <path d="M169.021,98.014h.68v.569a2.052,2.052,0,0,1,1.179-.669c.72,0,1.139.4,1.139,1.358v3.939H171.3V99.373c0-.6-.18-.859-.57-.859a1.364,1.364,0,0,0-.99.639v4.058h-.719Z" fill="#fff"/>
    <path d="M176.112,98.573a.824.824,0,0,0-.21-.019.627.627,0,0,0-.45.2,2.994,2.994,0,0,1,.161,1c0,1.3-.6,1.858-1.4,1.858-.16,0-.32-.04-.479-.04-.12.031-.36.141-.36.34,0,.37.589.39,1.259.53.75.16,1.419.4,1.419,1.249,0,.68-.659,1.22-1.759,1.22-1.179,0-1.779-.44-1.779-1.12a1.136,1.136,0,0,1,.76-1.039.7.7,0,0,1,.12-1.39,1.913,1.913,0,0,1-.62-1.489c0-1.239.6-1.958,1.509-1.958a1.085,1.085,0,0,1,.95.48.945.945,0,0,1,.879-.48Zm-2.239,4.358c-.419.179-.7.42-.7.71,0,.429.359.729,1.139.729.8,0,1.08-.32,1.08-.739C175.393,103.15,174.493,103.07,173.873,102.931Zm.32-1.859c.42,0,.76-.32.76-1.309s-.34-1.31-.76-1.31-.759.32-.759,1.31S173.774,101.072,174.193,101.072Z" fill="#fff"/>
    <path d="M147.469,109.333c-.13-.45-.32-.819-.9-.819a.583.583,0,0,0-.58.619c0,1.059,2.2,1.119,2.2,2.738a1.393,1.393,0,0,1-1.419,1.44,1.606,1.606,0,0,1-1.659-1.379l.659-.141c.15.46.42.92.949.92a.79.79,0,0,0,.75-.789c0-1.2-2.2-1.22-2.2-2.749a1.289,1.289,0,0,1,1.35-1.259,1.4,1.4,0,0,1,1.449,1.239Z" fill="#fff"/>
    <path d="M148.907,108.014l.98,3.977h.019l.8-3.977h.74l-1.189,5.087c-.27,1.139-.77,1.809-1.64,1.809h-.369v-.6h.22c.569,0,.939-.411,1.079-1.14l-1.379-5.157Z" fill="#fff"/>
    <path d="M153.773,109.333c-.13-.45-.32-.819-.9-.819a.583.583,0,0,0-.58.619c0,1.059,2.2,1.119,2.2,2.738a1.393,1.393,0,0,1-1.419,1.44,1.607,1.607,0,0,1-1.659-1.379l.659-.141c.15.46.42.92.95.92a.79.79,0,0,0,.749-.789c0-1.2-2.2-1.22-2.2-2.749a1.29,1.29,0,0,1,1.35-1.259,1.4,1.4,0,0,1,1.449,1.239Z" fill="#fff"/>
    <path d="M154.562,108.014h.7v-1.74h.719v1.74h.96v.6h-.96v3.638a.473.473,0,0,0,.52.52,1.57,1.57,0,0,0,.44-.1v.54a2.124,2.124,0,0,1-.68.1c-.679,0-1-.32-1-1.12v-3.578h-.7Z" fill="#fff"/>
    <path d="M157.786,110.732v.289c0,1.27.29,1.69.97,1.69.549,0,.779-.51.869-.98l.68.081a1.664,1.664,0,0,1-1.649,1.5c-1.089,0-1.589-.82-1.589-2.7s.5-2.7,1.589-2.7,1.589.98,1.589,2.479v.339Zm1.74-.6c-.02-1.12-.221-1.619-.87-1.619-.52,0-.859.38-.87,1.619Z" fill="#fff"/>
    <path d="M160.827,113.211v-5.2h.66v.569a1.689,1.689,0,0,1,1.21-.669.993.993,0,0,1,.929.659,1.713,1.713,0,0,1,1.209-.659c.68,0,1.05.459,1.05,1.2v4.1h-.72v-4c0-.54-.16-.7-.539-.7a1.258,1.258,0,0,0-.91.539v4.158H163v-4c0-.54-.19-.7-.569-.7a1.143,1.143,0,0,0-.88.539v4.158Z" fill="#fff"/>
    <path d="M168.1,108.014h.8v-1.06c0-.7.28-1.059,1.06-1.059a3.3,3.3,0,0,1,.559.06v.56a.891.891,0,0,0-.389-.08.479.479,0,0,0-.51.549v1.03h.839v.6h-.839v4.6h-.72v-4.6h-.8Z" fill="#fff"/>
    <path d="M172.131,107.914c1.089,0,1.588.819,1.588,2.7s-.5,2.7-1.588,2.7-1.59-.82-1.59-2.7S171.041,107.914,172.131,107.914Zm0,4.8c.609,0,.869-.38.869-2.1s-.26-2.1-.869-2.1-.87.38-.87,2.1S171.521,112.711,172.131,112.711Z" fill="#fff"/>
    <path d="M174.241,108.014h.72v.63h.02a1.332,1.332,0,0,1,1.319-.73v.679a1.377,1.377,0,0,0-1.339.92v3.7h-.72Z" fill="#fff"/>
    <path d="M147.489,119.553c-.07-.78-.379-1.039-.819-1.039-.61,0-.87.38-.87,2.1s.26,2.1.87,2.1c.459,0,.719-.24.839-1.14h.7c-.12,1.02-.6,1.74-1.539,1.74-1.09,0-1.59-.82-1.59-2.7s.5-2.7,1.59-2.7c.939,0,1.379.619,1.519,1.639Z" fill="#fff"/>
    <path d="M150.1,117.914c1.089,0,1.589.819,1.589,2.7s-.5,2.7-1.589,2.7-1.589-.82-1.589-2.7S149.008,117.914,150.1,117.914Zm0,4.8c.61,0,.87-.38.87-2.1s-.26-2.1-.87-2.1-.87.38-.87,2.1S149.487,122.711,150.1,122.711Z" fill="#fff"/>
    <path d="M152.276,123.211v-5.2h.659v.569a1.689,1.689,0,0,1,1.209-.669.993.993,0,0,1,.93.659,1.713,1.713,0,0,1,1.209-.659c.68,0,1.05.459,1.05,1.2v4.1h-.72v-4c0-.54-.16-.7-.54-.7a1.258,1.258,0,0,0-.909.539v4.158h-.72v-4c0-.54-.19-.7-.57-.7a1.143,1.143,0,0,0-.879.539v4.158Z" fill="#fff"/>
    <path d="M158.813,118.514h.02a1.229,1.229,0,0,1,1.059-.6c.82,0,1.5.7,1.5,2.7s-.68,2.7-1.5,2.7a1.419,1.419,0,0,1-.959-.48v2.079h-.719v-6.9h.6Zm.12,3.737a1.2,1.2,0,0,0,.78.46c.609,0,.959-.5.959-2.1s-.38-2.1-.979-2.1a1.127,1.127,0,0,0-.76.5Z" fill="#fff"/>
    <path d="M161.971,118.014h.72v.63h.02a1.333,1.333,0,0,1,1.32-.73v.679a1.378,1.378,0,0,0-1.34.92v3.7h-.72Z" fill="#fff"/>
    <path d="M164.742,120.732v.289c0,1.27.29,1.69.97,1.69.549,0,.779-.51.869-.98l.679.081a1.662,1.662,0,0,1-1.648,1.5c-1.09,0-1.59-.82-1.59-2.7s.5-2.7,1.59-2.7,1.588.98,1.588,2.479v.339Zm1.739-.6c-.02-1.12-.22-1.619-.869-1.619-.52,0-.86.38-.87,1.619Z" fill="#fff"/>
    <path d="M169.9,119.333c-.13-.45-.32-.819-.9-.819a.583.583,0,0,0-.58.619c0,1.059,2.2,1.119,2.2,2.738a1.393,1.393,0,0,1-1.419,1.44,1.607,1.607,0,0,1-1.659-1.379l.66-.141c.149.46.419.92.949.92a.79.79,0,0,0,.749-.789c0-1.2-2.2-1.22-2.2-2.749a1.289,1.289,0,0,1,1.349-1.259,1.4,1.4,0,0,1,1.449,1.239Z" fill="#fff"/>
    <path d="M173.318,119.333c-.13-.45-.32-.819-.9-.819a.583.583,0,0,0-.58.619c0,1.059,2.2,1.119,2.2,2.738a1.393,1.393,0,0,1-1.419,1.44,1.606,1.606,0,0,1-1.659-1.379l.659-.141c.15.46.42.92.95.92a.79.79,0,0,0,.749-.789c0-1.2-2.2-1.22-2.2-2.749a1.289,1.289,0,0,1,1.35-1.259,1.4,1.4,0,0,1,1.449,1.239Z" fill="#fff"/>
    <path d="M174.573,116h.72v.839h-.72Zm0,2.019h.72v5.2h-.72Z" fill="#fff"/>
    <path d="M177.44,117.914c1.089,0,1.589.819,1.589,2.7s-.5,2.7-1.589,2.7-1.59-.82-1.59-2.7S176.35,117.914,177.44,117.914Zm0,4.8c.61,0,.869-.38.869-2.1s-.259-2.1-.869-2.1-.87.38-.87,2.1S176.83,122.711,177.44,122.711Z" fill="#fff"/>
    <path d="M179.577,118.014h.68v.569a2.052,2.052,0,0,1,1.179-.669c.72,0,1.139.4,1.139,1.358v3.939h-.719v-3.838c0-.6-.18-.859-.57-.859a1.36,1.36,0,0,0-.989.639v4.058h-.72Z" fill="#fff"/>
    <path d="M147.469,129.333c-.13-.45-.32-.819-.9-.819a.583.583,0,0,0-.58.619c0,1.059,2.2,1.119,2.2,2.738a1.393,1.393,0,0,1-1.419,1.44,1.606,1.606,0,0,1-1.659-1.379l.659-.141c.15.46.42.92.949.92a.79.79,0,0,0,.75-.789c0-1.2-2.2-1.22-2.2-2.749a1.289,1.289,0,0,1,1.35-1.259,1.4,1.4,0,0,1,1.449,1.239Z" fill="#fff"/>
    <path d="M149.339,128.514h.02a1.229,1.229,0,0,1,1.059-.6c.82,0,1.5.7,1.5,2.7s-.68,2.7-1.5,2.7a1.419,1.419,0,0,1-.959-.48v2.079h-.719v-6.9h.6Zm.12,3.737a1.2,1.2,0,0,0,.78.46c.609,0,.959-.5.959-2.1s-.38-2.1-.979-2.1a1.127,1.127,0,0,0-.76.5Z" fill="#fff"/>
    <path d="M152.5,128.014h.72v.63h.02a1.332,1.332,0,0,1,1.319-.73v.679a1.377,1.377,0,0,0-1.339.92v3.7h-.72Z" fill="#fff"/>
    <path d="M154.9,126h.72v.839h-.72Zm0,2.019h.72v5.2h-.72Z" fill="#fff"/>
    <path d="M156.417,128.014h.68v.569a2.052,2.052,0,0,1,1.179-.669c.72,0,1.139.4,1.139,1.358v3.939H158.7v-3.838c0-.6-.18-.859-.57-.859a1.36,1.36,0,0,0-.989.639v4.058h-.72Z" fill="#fff"/>
    <path d="M163.508,128.573a.824.824,0,0,0-.21-.019.629.629,0,0,0-.45.2,2.994,2.994,0,0,1,.161,1c0,1.3-.6,1.858-1.4,1.858-.16,0-.32-.04-.479-.04-.12.031-.36.141-.36.34,0,.37.589.39,1.259.53.75.16,1.419.4,1.419,1.249,0,.68-.66,1.22-1.759,1.22-1.179,0-1.779-.44-1.779-1.12a1.136,1.136,0,0,1,.76-1.039.7.7,0,0,1,.12-1.39,1.913,1.913,0,0,1-.62-1.489c0-1.239.6-1.958,1.509-1.958a1.085,1.085,0,0,1,.95.48.944.944,0,0,1,.879-.48Zm-2.239,4.358c-.419.179-.7.42-.7.71,0,.429.359.729,1.139.729.8,0,1.079-.32,1.079-.739C162.788,133.15,161.889,133.07,161.269,132.931Zm.32-1.859c.42,0,.76-.32.76-1.309s-.34-1.31-.76-1.31-.759.32-.759,1.31S161.17,131.072,161.589,131.072Z" fill="#fff"/>
    <path d="M166.058,129.333c-.13-.45-.319-.819-.9-.819a.583.583,0,0,0-.58.619c0,1.059,2.2,1.119,2.2,2.738a1.393,1.393,0,0,1-1.419,1.44,1.607,1.607,0,0,1-1.659-1.379l.66-.141c.15.46.419.92.949.92a.79.79,0,0,0,.749-.789c0-1.2-2.2-1.22-2.2-2.749a1.289,1.289,0,0,1,1.349-1.259,1.4,1.4,0,0,1,1.449,1.239Z" fill="#fff"/>
  </g>
  <g>
    <path d="M181.371,28.111v3.678h.02l2.019-3.678h.84l-1.4,2.519,1.66,4.7h-.84l-1.339-3.9h-.02l-.94,1.679v2.219h-.779V28.111Z" fill="#fff"/>
    <path d="M184.844,30.13h.679v.57a2.063,2.063,0,0,1,1.179-.67c.72,0,1.14.4,1.14,1.36v3.937h-.72V31.489c0-.6-.18-.859-.57-.859a1.362,1.362,0,0,0-.989.64v4.057h-.719Z" fill="#fff"/>
    <path d="M189.975,30.03c1.089,0,1.589.82,1.589,2.7s-.5,2.7-1.589,2.7-1.59-.82-1.59-2.7S188.885,30.03,189.975,30.03Zm0,4.8c.61,0,.869-.379.869-2.1s-.259-2.1-.869-2.1-.87.379-.87,2.1S189.365,34.827,189.975,34.827Z" fill="#fff"/>
    <path d="M192.285,30.13l.74,3.818h.02l.84-3.818h.679l.86,3.818h.02l.679-3.818h.68l-1.079,5.2h-.6l-.9-4.037h-.02l-.9,4.037h-.6l-1.1-5.2Z" fill="#fff"/>
    <path d="M198.926,28.111h.719V30.7a1.865,1.865,0,0,1,1.139-.67c.72,0,1.14.4,1.14,1.36v3.937h-.72V31.489c0-.6-.18-.859-.569-.859a1.362,1.362,0,0,0-.99.64v4.057h-.719Z" fill="#fff"/>
    <path d="M204.057,30.03c1.089,0,1.589.82,1.589,2.7s-.5,2.7-1.589,2.7-1.589-.82-1.589-2.7S202.968,30.03,204.057,30.03Zm0,4.8c.61,0,.87-.379.87-2.1s-.26-2.1-.87-2.1-.87.379-.87,2.1S203.447,34.827,204.057,34.827Z" fill="#fff"/>
    <path d="M206.367,30.13l.74,3.818h.02l.84-3.818h.679l.86,3.818h.02l.679-3.818h.68l-1.079,5.2h-.6l-.9-4.037h-.02l-.9,4.037h-.6l-1.1-5.2Z" fill="#fff"/>
    <path d="M183.1,44.827h-.02a1.258,1.258,0,0,1-1.069.6c-.82,0-1.5-.7-1.5-2.7s.679-2.7,1.5-2.7a1.415,1.415,0,0,1,.959.48v-2.4h.72v5.817a5.656,5.656,0,0,0,.12,1.4h-.68Zm-.13-3.738a1.2,1.2,0,0,0-.779-.459c-.61,0-.96.5-.96,2.1s.38,2.1.98,2.1a1.124,1.124,0,0,0,.759-.5Z" fill="#fff"/>
    <path d="M184.977,42.849v.289c0,1.269.29,1.689.97,1.689.549,0,.779-.51.869-.978l.68.079a1.663,1.663,0,0,1-1.649,1.5c-1.089,0-1.589-.82-1.589-2.7s.5-2.7,1.589-2.7,1.589.979,1.589,2.479v.34Zm1.74-.6c-.02-1.119-.221-1.619-.87-1.619-.52,0-.859.379-.87,1.619Z" fill="#fff"/>
    <path d="M188.181,40.13l1.04,4.477h.02l1.019-4.477h.72l-1.28,5.2h-.959l-1.279-5.2Z" fill="#fff"/>
    <path d="M191.72,42.849v.289c0,1.269.29,1.689.97,1.689.55,0,.779-.51.869-.978l.68.079a1.663,1.663,0,0,1-1.649,1.5c-1.089,0-1.589-.82-1.589-2.7s.5-2.7,1.589-2.7,1.589.979,1.589,2.479v.34Zm1.74-.6c-.02-1.119-.22-1.619-.87-1.619-.519,0-.859.379-.87,1.619Z" fill="#fff"/>
    <path d="M194.744,38.111h.72v7.216h-.72Z" fill="#fff"/>
    <path d="M197.606,40.03c1.09,0,1.589.82,1.589,2.7s-.5,2.7-1.589,2.7-1.589-.82-1.589-2.7S196.517,40.03,197.606,40.03Zm0,4.8c.61,0,.87-.379.87-2.1s-.26-2.1-.87-2.1-.869.379-.869,2.1S197,44.827,197.606,44.827Z" fill="#fff"/>
    <path d="M200.375,40.63h.02a1.228,1.228,0,0,1,1.059-.6c.82,0,1.5.7,1.5,2.7s-.679,2.7-1.5,2.7a1.417,1.417,0,0,1-.96-.48v2.079h-.719v-6.9h.6Zm.119,3.738a1.2,1.2,0,0,0,.78.459c.61,0,.96-.5.96-2.1s-.38-2.1-.98-2.1a1.128,1.128,0,0,0-.76.5Z" fill="#fff"/>
    <path d="M203.605,45.327v-5.2h.659v.57a1.687,1.687,0,0,1,1.209-.67.993.993,0,0,1,.93.66,1.711,1.711,0,0,1,1.209-.66c.68,0,1.05.459,1.05,1.2v4.1h-.72v-4c0-.539-.16-.7-.539-.7a1.258,1.258,0,0,0-.91.539v4.158h-.72v-4c0-.539-.19-.7-.57-.7a1.143,1.143,0,0,0-.879.539v4.158Z" fill="#fff"/>
    <path d="M209.982,42.849v.289c0,1.269.29,1.689.97,1.689.549,0,.779-.51.869-.978l.68.079a1.663,1.663,0,0,1-1.649,1.5c-1.09,0-1.59-.82-1.59-2.7s.5-2.7,1.59-2.7,1.589.979,1.589,2.479v.34Zm1.739-.6c-.02-1.119-.22-1.619-.869-1.619-.52,0-.86.379-.87,1.619Z" fill="#fff"/>
    <path d="M212.983,40.13h.68v.57a2.06,2.06,0,0,1,1.179-.67c.72,0,1.139.4,1.139,1.36v3.937h-.719V41.489c0-.6-.18-.859-.57-.859a1.365,1.365,0,0,0-.99.64v4.057h-.719Z" fill="#fff"/>
    <path d="M216.3,40.13h.7V38.392h.719V40.13h.96v.6h-.96v3.639a.474.474,0,0,0,.52.52,1.606,1.606,0,0,0,.44-.1v.539a2.1,2.1,0,0,1-.68.1c-.679,0-1-.32-1-1.119V40.729h-.7Z" fill="#fff"/>
    <path d="M180.781,48.111h.72v.839h-.72Zm0,2.019h.72v5.2h-.72Z" fill="#fff"/>
    <path d="M182.3,50.13h.68v.57a2.063,2.063,0,0,1,1.179-.67c.72,0,1.14.4,1.14,1.36v3.937h-.72V51.489c0-.6-.18-.859-.57-.859a1.362,1.362,0,0,0-.989.64v4.057h-.72Z" fill="#fff"/>
    <path d="M190.482,49.97c-.06-.74-.36-1.3-1.11-1.3a.924.924,0,0,0-.989.949c0,1.629,2.9,1.65,2.9,3.968a1.681,1.681,0,0,1-1.849,1.839,1.835,1.835,0,0,1-1.829-2.039h.72c.02.849.419,1.38,1.189,1.38a1.04,1.04,0,0,0,1.07-1.19c0-1.64-2.9-1.829-2.9-3.888a1.611,1.611,0,0,1,1.739-1.679c1.04,0,1.719.7,1.779,1.959Z" fill="#fff"/>
    <path d="M194.835,55.327h-.679v-.57a2.056,2.056,0,0,1-1.18.67c-.719,0-1.139-.4-1.139-1.36V50.13h.72v3.838c0,.6.18.859.569.859a1.365,1.365,0,0,0,.99-.639V50.13h.719Z" fill="#fff"/>
    <path d="M195.6,50.13h.72v.63h.02a1.33,1.33,0,0,1,1.318-.73v.68a1.376,1.376,0,0,0-1.338.92v3.7h-.72Z" fill="#fff"/>
    <path d="M197.7,50.13h.8V49.071c0-.7.28-1.06,1.059-1.06a3.313,3.313,0,0,1,.56.06v.56a.909.909,0,0,0-.39-.08c-.35,0-.51.22-.51.55V50.13h.84v.6h-.84v4.6H198.5v-4.6h-.8Z" fill="#fff"/>
    <path d="M200.318,51.55a1.59,1.59,0,0,1,1.539-1.52,1.355,1.355,0,0,1,1.489,1.479v2.9a2.14,2.14,0,0,0,.13.92h-.75l-.09-.439a1.9,1.9,0,0,1-1.109.539,1.262,1.262,0,0,1-1.349-1.339c0-1.279,1.409-1.929,2.448-2.159V51.56c0-.571-.289-.93-.749-.93-.55,0-.82.549-.9,1.019Zm2.308.978c-.659.2-1.729.68-1.729,1.5,0,.49.22.8.74.8a1.469,1.469,0,0,0,.989-.539Z" fill="#fff"/>
    <path d="M206.316,51.669c-.07-.779-.379-1.039-.819-1.039-.61,0-.87.379-.87,2.1s.26,2.1.87,2.1c.459,0,.72-.24.839-1.139h.7c-.12,1.02-.6,1.739-1.539,1.739-1.09,0-1.59-.82-1.59-2.7s.5-2.7,1.59-2.7c.939,0,1.379.619,1.519,1.639Z" fill="#fff"/>
    <path d="M208.054,52.849v.289c0,1.269.29,1.689.97,1.689.549,0,.779-.51.869-.978l.68.079a1.663,1.663,0,0,1-1.649,1.5c-1.089,0-1.589-.82-1.589-2.7s.5-2.7,1.589-2.7,1.589.979,1.589,2.479v.34Zm1.74-.6c-.02-1.119-.221-1.619-.87-1.619-.519,0-.859.379-.87,1.619Z" fill="#fff"/>
    <path d="M183.84,58.111v.66h-1.479v6.556h-.78V58.771H180.1v-.66Z" fill="#fff"/>
    <path d="M183.65,60.13h.719v.63h.02a1.332,1.332,0,0,1,1.319-.73v.68a1.378,1.378,0,0,0-1.339.92v3.7h-.719Z" fill="#fff"/>
    <path d="M186.42,62.849v.289c0,1.269.29,1.689.97,1.689.549,0,.779-.51.869-.978l.68.079a1.663,1.663,0,0,1-1.649,1.5c-1.09,0-1.59-.82-1.59-2.7s.5-2.7,1.59-2.7,1.589.979,1.589,2.479v.34Zm1.739-.6c-.02-1.119-.22-1.619-.869-1.619-.52,0-.86.379-.87,1.619Z" fill="#fff"/>
    <path d="M189.407,61.55a1.591,1.591,0,0,1,1.54-1.52,1.355,1.355,0,0,1,1.489,1.479v2.9a2.14,2.14,0,0,0,.13.92h-.75l-.09-.439a1.9,1.9,0,0,1-1.109.539,1.261,1.261,0,0,1-1.349-1.339c0-1.279,1.409-1.929,2.448-2.159V61.56c0-.571-.289-.93-.749-.93-.55,0-.82.549-.9,1.019Zm2.309.978c-.66.2-1.729.68-1.729,1.5,0,.49.22.8.74.8a1.471,1.471,0,0,0,.989-.539Z" fill="#fff"/>
    <path d="M192.758,60.13h.7V58.392h.719V60.13h.959v.6h-.959v3.639a.474.474,0,0,0,.52.52,1.59,1.59,0,0,0,.439-.1v.539a2.085,2.085,0,0,1-.679.1c-.679,0-1-.32-1-1.119V60.729h-.7Z" fill="#fff"/>
    <path d="M195.635,65.327v-5.2h.66v.57a1.687,1.687,0,0,1,1.209-.67.993.993,0,0,1,.93.66,1.709,1.709,0,0,1,1.209-.66c.68,0,1.05.459,1.05,1.2v4.1h-.72v-4c0-.539-.16-.7-.54-.7a1.254,1.254,0,0,0-.909.539v4.158h-.72v-4c0-.539-.19-.7-.569-.7a1.143,1.143,0,0,0-.88.539v4.158Z" fill="#fff"/>
    <path d="M202.013,62.849v.289c0,1.269.29,1.689.97,1.689.549,0,.779-.51.869-.978l.679.079a1.661,1.661,0,0,1-1.648,1.5c-1.09,0-1.59-.82-1.59-2.7s.5-2.7,1.59-2.7,1.588.979,1.588,2.479v.34Zm1.739-.6c-.02-1.119-.22-1.619-.869-1.619-.52,0-.86.379-.87,1.619Z" fill="#fff"/>
    <path d="M205.013,60.13h.68v.57a2.06,2.06,0,0,1,1.179-.67c.72,0,1.139.4,1.139,1.36v3.937h-.719V61.489c0-.6-.18-.859-.57-.859a1.362,1.362,0,0,0-.989.64v4.057h-.72Z" fill="#fff"/>
    <path d="M208.327,60.13h.7V58.392h.719V60.13h.959v.6h-.959v3.639a.474.474,0,0,0,.52.52,1.59,1.59,0,0,0,.439-.1v.539a2.09,2.09,0,0,1-.679.1c-.68,0-1-.32-1-1.119V60.729h-.7Z" fill="#fff"/>
  </g>
  <g>
    <path d="M205.721,86v3.678h.02L207.76,86h.839l-1.4,2.52,1.659,4.7h-.839l-1.34-3.9h-.02l-.939,1.68v2.219h-.78V86Z" fill="#fff"/>
    <path d="M209.193,88.015h.68v.569a2.052,2.052,0,0,1,1.179-.669c.72,0,1.139.4,1.139,1.358v3.939h-.719V89.374c0-.6-.18-.859-.57-.859a1.36,1.36,0,0,0-.989.638v4.059h-.72Z" fill="#fff"/>
    <path d="M214.324,87.915c1.09,0,1.589.818,1.589,2.7s-.5,2.7-1.589,2.7-1.589-.821-1.589-2.7S213.235,87.915,214.324,87.915Zm0,4.8c.61,0,.87-.38.87-2.1s-.26-2.1-.87-2.1-.869.379-.869,2.1S213.715,92.712,214.324,92.712Z" fill="#fff"/>
    <path d="M216.635,88.015l.74,3.817h.02l.839-3.817h.68l.859,3.817h.02l.68-3.817h.68l-1.08,5.2h-.6l-.9-4.038h-.02l-.9,4.038h-.6l-1.1-5.2Z" fill="#fff"/>
    <path d="M223.275,86H224v2.589a1.855,1.855,0,0,1,1.139-.669c.72,0,1.139.4,1.139,1.358v3.939h-.719V89.374c0-.6-.18-.859-.57-.859a1.362,1.362,0,0,0-.989.638v4.059h-.72Z" fill="#fff"/>
    <path d="M228.406,87.915c1.09,0,1.589.818,1.589,2.7s-.5,2.7-1.589,2.7-1.589-.821-1.589-2.7S227.317,87.915,228.406,87.915Zm0,4.8c.61,0,.87-.38.87-2.1s-.26-2.1-.87-2.1-.869.379-.869,2.1S227.8,92.712,228.406,92.712Z" fill="#fff"/>
    <path d="M230.717,88.015l.74,3.817h.02l.839-3.817H233l.859,3.817h.02l.68-3.817h.68l-1.079,5.2h-.6l-.9-4.038h-.02l-.9,4.038h-.6l-1.1-5.2Z" fill="#fff"/>
    <path d="M207.45,102.712h-.02a1.261,1.261,0,0,1-1.069.6c-.82,0-1.5-.7-1.5-2.7s.68-2.7,1.5-2.7a1.414,1.414,0,0,1,.959.479V96h.72v5.817a5.683,5.683,0,0,0,.119,1.4h-.679Zm-.13-3.738a1.2,1.2,0,0,0-.78-.459c-.609,0-.959.5-.959,2.1s.38,2.1.979,2.1a1.129,1.129,0,0,0,.76-.5Z" fill="#fff"/>
    <path d="M209.327,100.733v.289c0,1.27.29,1.69.97,1.69.549,0,.779-.51.869-.98l.679.08a1.662,1.662,0,0,1-1.648,1.5c-1.09,0-1.59-.821-1.59-2.7s.5-2.7,1.59-2.7,1.588.979,1.588,2.479v.339Zm1.739-.6c-.02-1.12-.22-1.619-.869-1.619-.52,0-.86.379-.87,1.619Z" fill="#fff"/>
    <path d="M212.531,98.015l1.04,4.476h.02l1.019-4.476h.719l-1.279,5.2h-.959l-1.28-5.2Z" fill="#fff"/>
    <path d="M216.07,100.733v.289c0,1.27.29,1.69.97,1.69.549,0,.779-.51.869-.98l.68.08a1.664,1.664,0,0,1-1.649,1.5c-1.09,0-1.59-.821-1.59-2.7s.5-2.7,1.59-2.7,1.589.979,1.589,2.479v.339Zm1.739-.6c-.02-1.12-.22-1.619-.869-1.619-.52,0-.86.379-.87,1.619Z" fill="#fff"/>
    <path d="M219.094,96h.719v7.217h-.719Z" fill="#fff"/>
    <path d="M221.956,97.915c1.089,0,1.589.818,1.589,2.7s-.5,2.7-1.589,2.7-1.59-.821-1.59-2.7S220.866,97.915,221.956,97.915Zm0,4.8c.61,0,.869-.38.869-2.1s-.259-2.1-.869-2.1-.87.379-.87,2.1S221.346,102.712,221.956,102.712Z" fill="#fff"/>
    <path d="M224.724,98.515h.02a1.227,1.227,0,0,1,1.059-.6c.82,0,1.5.7,1.5,2.7s-.68,2.7-1.5,2.7a1.416,1.416,0,0,1-.959-.481v2.08h-.719v-6.9h.6Zm.12,3.737a1.2,1.2,0,0,0,.78.46c.609,0,.959-.5.959-2.1s-.38-2.1-.979-2.1a1.127,1.127,0,0,0-.76.5Z" fill="#fff"/>
    <path d="M227.954,103.212v-5.2h.66v.569a1.684,1.684,0,0,1,1.209-.669.993.993,0,0,1,.93.659,1.706,1.706,0,0,1,1.209-.659c.679,0,1.049.459,1.049,1.2v4.1h-.719v-4c0-.54-.16-.7-.54-.7a1.251,1.251,0,0,0-.909.539v4.158h-.72v-4c0-.54-.19-.7-.57-.7a1.141,1.141,0,0,0-.879.539v4.158Z" fill="#fff"/>
    <path d="M234.332,100.733v.289c0,1.27.29,1.69.97,1.69.549,0,.779-.51.869-.98l.679.08a1.663,1.663,0,0,1-1.649,1.5c-1.089,0-1.589-.821-1.589-2.7s.5-2.7,1.589-2.7,1.589.979,1.589,2.479v.339Zm1.739-.6c-.02-1.12-.22-1.619-.87-1.619-.519,0-.859.379-.869,1.619Z" fill="#fff"/>
    <path d="M237.333,98.015h.679v.569a2.054,2.054,0,0,1,1.18-.669c.719,0,1.139.4,1.139,1.358v3.939h-.719V99.374c0-.6-.181-.859-.57-.859a1.363,1.363,0,0,0-.99.638v4.059h-.719Z" fill="#fff"/>
    <path d="M240.646,98.015h.7v-1.74h.72v1.74h.959v.6h-.959v3.638a.473.473,0,0,0,.52.519,1.562,1.562,0,0,0,.439-.1v.54a2.152,2.152,0,0,1-.68.1c-.679,0-1-.321-1-1.12V98.614h-.7Z" fill="#fff"/>
    <path d="M205.131,106h.72v.84h-.72Zm0,2.02h.72v5.2h-.72Z" fill="#fff"/>
    <path d="M206.653,108.015h.68v.569a2.052,2.052,0,0,1,1.179-.669c.72,0,1.139.4,1.139,1.358v3.939h-.719v-3.838c0-.6-.18-.859-.57-.859a1.36,1.36,0,0,0-.989.638v4.059h-.72Z" fill="#fff"/>
    <path d="M211.673,108.015h.7v-1.74h.719v1.74h.96v.6h-.96v3.638a.473.473,0,0,0,.52.519,1.569,1.569,0,0,0,.44-.1v.54a2.152,2.152,0,0,1-.68.1c-.679,0-1-.321-1-1.12v-3.578h-.7Z" fill="#fff"/>
    <path d="M214.509,106h.719v2.589a1.858,1.858,0,0,1,1.139-.669c.72,0,1.14.4,1.14,1.358v3.939h-.72v-3.838c0-.6-.18-.859-.569-.859a1.363,1.363,0,0,0-.99.638v4.059h-.719Z" fill="#fff"/>
    <path d="M218.77,110.733v.289c0,1.27.29,1.69.97,1.69.549,0,.779-.51.869-.98l.68.08a1.664,1.664,0,0,1-1.649,1.5c-1.089,0-1.589-.821-1.589-2.7s.5-2.7,1.589-2.7,1.589.979,1.589,2.479v.339Zm1.74-.6c-.02-1.12-.221-1.619-.87-1.619-.52,0-.859.379-.87,1.619Z" fill="#fff"/>
    <path d="M224.19,108.515h.02a1.227,1.227,0,0,1,1.059-.6c.82,0,1.5.7,1.5,2.7s-.68,2.7-1.5,2.7a1.416,1.416,0,0,1-.959-.481v2.08h-.719v-6.9h.6Zm.12,3.737a1.2,1.2,0,0,0,.78.46c.609,0,.959-.5.959-2.1s-.38-2.1-.979-2.1a1.127,1.127,0,0,0-.76.5Z" fill="#fff"/>
    <path d="M227.348,108.015h.72v.629h.02a1.333,1.333,0,0,1,1.319-.729v.679a1.377,1.377,0,0,0-1.339.92v3.7h-.72Z" fill="#fff"/>
    <path d="M230.988,107.915c1.089,0,1.589.818,1.589,2.7s-.5,2.7-1.589,2.7-1.589-.821-1.589-2.7S229.9,107.915,230.988,107.915Zm0,4.8c.61,0,.87-.38.87-2.1s-.26-2.1-.87-2.1-.87.379-.87,2.1S230.378,112.712,230.988,112.712Z" fill="#fff"/>
    <path d="M235.526,112.712h-.02a1.261,1.261,0,0,1-1.07.6c-.82,0-1.5-.7-1.5-2.7s.679-2.7,1.5-2.7a1.414,1.414,0,0,1,.96.479V106h.719v5.817a5.67,5.67,0,0,0,.12,1.4h-.68Zm-.13-3.738a1.2,1.2,0,0,0-.78-.459c-.609,0-.96.5-.96,2.1s.38,2.1.98,2.1a1.129,1.129,0,0,0,.76-.5Z" fill="#fff"/>
    <path d="M239.937,113.212h-.679v-.57a2.062,2.062,0,0,1-1.18.67c-.719,0-1.139-.4-1.139-1.36v-3.937h.72v3.838c0,.6.18.859.569.859a1.364,1.364,0,0,0,.99-.64v-4.057h.719Z" fill="#fff"/>
    <path d="M242.889,109.554c-.069-.78-.379-1.039-.819-1.039-.61,0-.87.379-.87,2.1s.26,2.1.87,2.1c.46,0,.72-.24.839-1.14h.7c-.12,1.02-.6,1.74-1.539,1.74-1.089,0-1.589-.821-1.589-2.7s.5-2.7,1.589-2.7c.94,0,1.379.619,1.519,1.639Z" fill="#fff"/>
    <path d="M243.673,108.015h.7v-1.74h.72v1.74h.959v.6h-.959v3.638a.473.473,0,0,0,.52.519,1.57,1.57,0,0,0,.439-.1v.54a2.148,2.148,0,0,1-.68.1c-.679,0-1-.321-1-1.12v-3.578h-.7Z" fill="#fff"/>
    <path d="M246.524,106h.719v.84h-.719Zm0,2.02h.719v5.2h-.719Z" fill="#fff"/>
    <path d="M249.39,107.915c1.089,0,1.589.818,1.589,2.7s-.5,2.7-1.589,2.7-1.589-.821-1.589-2.7S248.3,107.915,249.39,107.915Zm0,4.8c.61,0,.87-.38.87-2.1s-.26-2.1-.87-2.1-.87.379-.87,2.1S248.78,112.712,249.39,112.712Z" fill="#fff"/>
    <path d="M251.528,108.015h.68v.569a2.052,2.052,0,0,1,1.179-.669c.72,0,1.139.4,1.139,1.358v3.939h-.719v-3.838c0-.6-.18-.859-.57-.859a1.36,1.36,0,0,0-.989.638v4.059h-.72Z" fill="#fff"/>
    <path d="M206.321,117.915c1.089,0,1.588.818,1.588,2.7s-.5,2.7-1.588,2.7-1.59-.821-1.59-2.7S205.231,117.915,206.321,117.915Zm0,4.8c.609,0,.869-.38.869-2.1s-.26-2.1-.869-2.1-.87.379-.87,2.1S205.711,122.712,206.321,122.712Z" fill="#fff"/>
    <path d="M207.974,118.015h.8v-1.06c0-.7.28-1.059,1.06-1.059a3.2,3.2,0,0,1,.559.06v.559a.905.905,0,0,0-.389-.08c-.35,0-.51.22-.51.55v1.03h.839v.6h-.839v4.6h-.72v-4.6h-.8Z" fill="#fff"/>
    <path d="M213.293,116v7.217h-.779V116Z" fill="#fff"/>
    <path d="M214.156,118.015h.68v.569a2.055,2.055,0,0,1,1.179-.669c.72,0,1.14.4,1.14,1.358v3.939h-.72v-3.838c0-.6-.18-.859-.57-.859a1.362,1.362,0,0,0-.989.638v4.059h-.72Z" fill="#fff"/>
    <path d="M220.344,122.712h-.021a1.259,1.259,0,0,1-1.069.6c-.82,0-1.5-.7-1.5-2.7s.679-2.7,1.5-2.7a1.414,1.414,0,0,1,.96.479V116h.719v5.817a5.67,5.67,0,0,0,.12,1.4h-.68Zm-.13-3.738a1.2,1.2,0,0,0-.78-.459c-.61,0-.96.5-.96,2.1s.38,2.1.98,2.1a1.129,1.129,0,0,0,.76-.5Z" fill="#fff"/>
    <path d="M224.755,123.212h-.68v-.57a2.057,2.057,0,0,1-1.179.67c-.72,0-1.139-.4-1.139-1.36v-3.937h.719v3.838c0,.6.18.859.57.859a1.36,1.36,0,0,0,.989-.64v-4.057h.72Z" fill="#fff"/>
    <path d="M227.707,119.554c-.07-.78-.379-1.039-.819-1.039-.61,0-.87.379-.87,2.1s.26,2.1.87,2.1c.459,0,.72-.24.839-1.14h.7c-.12,1.02-.6,1.74-1.539,1.74-1.089,0-1.589-.821-1.589-2.7s.5-2.7,1.589-2.7c.939,0,1.379.619,1.519,1.639Z" fill="#fff"/>
    <path d="M228.49,118.015h.7v-1.74h.719v1.74h.959v.6h-.959v3.638a.473.473,0,0,0,.52.519,1.555,1.555,0,0,0,.439-.1v.54a2.141,2.141,0,0,1-.679.1c-.679,0-1-.321-1-1.12v-3.578h-.7Z" fill="#fff"/>
    <path d="M231.341,116h.72v.84h-.72Zm0,2.02h.72v5.2h-.72Z" fill="#fff"/>
    <path d="M234.207,117.915c1.09,0,1.589.818,1.589,2.7s-.5,2.7-1.589,2.7-1.589-.821-1.589-2.7S233.118,117.915,234.207,117.915Zm0,4.8c.61,0,.87-.38.87-2.1s-.26-2.1-.87-2.1-.869.379-.869,2.1S233.6,122.712,234.207,122.712Z" fill="#fff"/>
    <path d="M236.345,118.015h.68v.569a2.055,2.055,0,0,1,1.179-.669c.72,0,1.14.4,1.14,1.358v3.939h-.72v-3.838c0-.6-.18-.859-.57-.859a1.363,1.363,0,0,0-.989.638v4.059h-.72Z" fill="#fff"/>
    <path d="M244.9,118.175c-.1-1.141-.46-1.619-1.07-1.619-.909,0-1.309.8-1.309,3.048s.4,3.047,1.309,3.047c.73,0,1.149-.5,1.169-1.839h.78c-.02,1.6-.72,2.5-1.949,2.5-1.289,0-2.089-.98-2.089-3.708s.8-3.708,2.089-3.708c1.07,0,1.729.74,1.849,2.279Z" fill="#fff"/>
    <path d="M247.793,117.915c1.09,0,1.589.818,1.589,2.7s-.5,2.7-1.589,2.7-1.589-.821-1.589-2.7S246.7,117.915,247.793,117.915Zm0,4.8c.61,0,.87-.38.87-2.1s-.26-2.1-.87-2.1-.869.379-.869,2.1S247.183,122.712,247.793,122.712Z" fill="#fff"/>
    <path d="M249.951,116h.72v.84h-.72Zm0,2.02h.72v5.2h-.72Z" fill="#fff"/>
    <path d="M251.486,116h.719v7.217h-.719Z" fill="#fff"/>
    <path d="M255.067,119.333c-.13-.449-.32-.818-.9-.818a.583.583,0,0,0-.58.619c0,1.058,2.2,1.119,2.2,2.738a1.393,1.393,0,0,1-1.419,1.44,1.606,1.606,0,0,1-1.659-1.379l.659-.141c.15.46.42.92.95.92a.79.79,0,0,0,.749-.789c0-1.2-2.2-1.221-2.2-2.749a1.289,1.289,0,0,1,1.35-1.259,1.4,1.4,0,0,1,1.449,1.238Z" fill="#fff"/>
  </g>
  <g>
    <path d="M250.844,38.192h3.1v.66h-2.318v2.459h1.739v.659h-1.739v3.438h-.78Z" fill="#fff"/>
    <path d="M254.375,38.192h.719v.839h-.719Zm0,2.019h.719v5.2h-.719Z" fill="#fff"/>
    <path d="M255.866,40.211h.72v.63h.02a1.331,1.331,0,0,1,1.319-.73v.679a1.378,1.378,0,0,0-1.339.92v3.7h-.72Z" fill="#fff"/>
    <path d="M260.314,41.53c-.13-.45-.32-.819-.9-.819a.583.583,0,0,0-.58.619c0,1.06,2.2,1.119,2.2,2.738a1.392,1.392,0,0,1-1.419,1.44,1.607,1.607,0,0,1-1.659-1.379l.659-.141c.15.46.42.92.95.92a.79.79,0,0,0,.749-.789c0-1.2-2.2-1.22-2.2-2.749a1.29,1.29,0,0,1,1.35-1.259,1.4,1.4,0,0,1,1.449,1.24Z" fill="#fff"/>
    <path d="M261.1,40.211h.7V38.472h.719v1.739h.96v.6h-.96v3.637a.473.473,0,0,0,.52.52,1.57,1.57,0,0,0,.44-.1v.54a2.124,2.124,0,0,1-.68.1c-.679,0-1-.32-1-1.119V40.811h-.7Z" fill="#fff"/>
    <path d="M265.771,38.192h.72v.839h-.72Zm0,2.019h.72v5.2h-.72Z" fill="#fff"/>
    <path d="M267.293,40.211h.679v.569a2.06,2.06,0,0,1,1.18-.669c.72,0,1.139.4,1.139,1.359v3.938h-.719V41.57c0-.6-.181-.859-.57-.859a1.362,1.362,0,0,0-.99.64v4.057h-.719Z" fill="#fff"/>
    <path d="M271.052,40.211h.72v.63h.021a1.331,1.331,0,0,1,1.319-.73v.679a1.38,1.38,0,0,0-1.34.92v3.7h-.72Z" fill="#fff"/>
    <path d="M274.693,40.111c1.089,0,1.589.82,1.589,2.7s-.5,2.7-1.589,2.7-1.59-.82-1.59-2.7S273.6,40.111,274.693,40.111Zm0,4.8c.609,0,.869-.38.869-2.1s-.26-2.1-.869-2.1-.87.38-.87,2.1S274.083,44.908,274.693,44.908Z" fill="#fff"/>
    <path d="M276.748,41.63a1.59,1.59,0,0,1,1.539-1.519,1.355,1.355,0,0,1,1.489,1.479v2.9a2.14,2.14,0,0,0,.13.92h-.75l-.09-.44a1.9,1.9,0,0,1-1.109.54,1.261,1.261,0,0,1-1.349-1.339c0-1.279,1.409-1.93,2.448-2.159v-.37c0-.57-.29-.929-.75-.929-.549,0-.819.549-.9,1.019Zm2.308.979c-.66.2-1.729.68-1.729,1.5,0,.491.221.8.74.8a1.464,1.464,0,0,0,.989-.54Z" fill="#fff"/>
    <path d="M282.976,44.908h-.02a1.259,1.259,0,0,1-1.07.6c-.819,0-1.5-.7-1.5-2.7s.68-2.7,1.5-2.7a1.415,1.415,0,0,1,.96.48v-2.4h.72v5.817a5.668,5.668,0,0,0,.119,1.4h-.679Zm-.13-3.738a1.2,1.2,0,0,0-.78-.459c-.609,0-.959.5-.959,2.1s.38,2.1.98,2.1a1.127,1.127,0,0,0,.759-.5Z" fill="#fff"/>
    <path d="M286.449,41.53c-.13-.45-.319-.819-.9-.819a.583.583,0,0,0-.58.619c0,1.06,2.2,1.119,2.2,2.738a1.392,1.392,0,0,1-1.419,1.44,1.606,1.606,0,0,1-1.659-1.379l.66-.141c.149.46.419.92.949.92a.79.79,0,0,0,.749-.789c0-1.2-2.2-1.22-2.2-2.749a1.288,1.288,0,0,1,1.349-1.259,1.4,1.4,0,0,1,1.45,1.24Z" fill="#fff"/>
    <path d="M250.934,48.192h.72v.839h-.72Zm0,2.019h.72v5.2h-.72Z" fill="#fff"/>
    <path d="M252.456,50.211h.679v.569a2.06,2.06,0,0,1,1.18-.669c.719,0,1.139.4,1.139,1.359v3.938h-.719V51.57c0-.6-.181-.859-.57-.859a1.357,1.357,0,0,0-.989.64v4.057h-.72Z" fill="#fff"/>
    <path d="M260.154,48.192l1.589,7.216h-.779l-.43-2.138H258.7l-.43,2.138h-.779l1.589-7.216Zm-1.349,4.417h1.619l-.8-3.878h-.02Z" fill="#fff"/>
    <path d="M262.5,52.93v.289c0,1.269.29,1.689.97,1.689.549,0,.779-.51.869-.979l.68.08a1.664,1.664,0,0,1-1.649,1.5c-1.09,0-1.59-.82-1.59-2.7s.5-2.7,1.59-2.7,1.589.98,1.589,2.479v.34Zm1.739-.6c-.02-1.12-.22-1.619-.869-1.619-.52,0-.86.38-.87,1.619Z" fill="#fff"/>
    <path d="M265.473,50.211h.72v.63h.02a1.332,1.332,0,0,1,1.319-.73v.679a1.379,1.379,0,0,0-1.339.92v3.7h-.72Z" fill="#fff"/>
    <path d="M269.113,50.111c1.09,0,1.589.82,1.589,2.7s-.5,2.7-1.589,2.7-1.589-.82-1.589-2.7S268.024,50.111,269.113,50.111Zm0,4.8c.61,0,.87-.38.87-2.1s-.26-2.1-.87-2.1-.869.38-.869,2.1S268.5,54.908,269.113,54.908Z" fill="#fff"/>
    <path d="M273.325,51.53c-.13-.45-.32-.819-.9-.819a.584.584,0,0,0-.581.619c0,1.06,2.2,1.119,2.2,2.738a1.392,1.392,0,0,1-1.419,1.44,1.606,1.606,0,0,1-1.659-1.379l.659-.141c.15.46.42.92.949.92a.79.79,0,0,0,.75-.789c0-1.2-2.2-1.22-2.2-2.749a1.289,1.289,0,0,1,1.349-1.259,1.4,1.4,0,0,1,1.45,1.24Z" fill="#fff"/>
    <path d="M275.2,50.711h.02a1.228,1.228,0,0,1,1.059-.6c.82,0,1.5.7,1.5,2.7s-.679,2.7-1.5,2.7a1.417,1.417,0,0,1-.96-.48v2.079H274.6v-6.9h.6Zm.119,3.737a1.2,1.2,0,0,0,.78.46c.61,0,.959-.5.959-2.1s-.379-2.1-.979-2.1a1.129,1.129,0,0,0-.76.5Z" fill="#fff"/>
    <path d="M278.3,51.63a1.59,1.59,0,0,1,1.539-1.519,1.355,1.355,0,0,1,1.489,1.479v2.9a2.14,2.14,0,0,0,.13.92h-.75l-.09-.44a1.9,1.9,0,0,1-1.11.54,1.261,1.261,0,0,1-1.348-1.339c0-1.279,1.409-1.93,2.448-2.159v-.37c0-.57-.29-.929-.75-.929-.55,0-.819.549-.9,1.019Zm2.308.979c-.66.2-1.729.68-1.729,1.5,0,.491.22.8.74.8a1.468,1.468,0,0,0,.989-.54Z" fill="#fff"/>
    <path d="M284.3,51.75c-.07-.779-.379-1.039-.82-1.039-.609,0-.869.38-.869,2.1s.26,2.1.869,2.1c.46,0,.72-.24.84-1.139h.7c-.119,1.019-.6,1.739-1.539,1.739-1.089,0-1.589-.82-1.589-2.7s.5-2.7,1.589-2.7c.94,0,1.38.619,1.52,1.639Z" fill="#fff"/>
    <path d="M286.038,52.93v.289c0,1.269.29,1.689.97,1.689.549,0,.779-.51.869-.979l.679.08a1.662,1.662,0,0,1-1.648,1.5c-1.09,0-1.59-.82-1.59-2.7s.5-2.7,1.59-2.7,1.589.98,1.589,2.479v.34Zm1.739-.6c-.019-1.12-.22-1.619-.869-1.619-.52,0-.859.38-.87,1.619Z" fill="#fff"/>
    <path d="M252.923,61.53c-.13-.45-.32-.819-.9-.819a.583.583,0,0,0-.579.619c0,1.06,2.2,1.119,2.2,2.738a1.392,1.392,0,0,1-1.419,1.44,1.607,1.607,0,0,1-1.659-1.379l.66-.141c.15.46.419.92.949.92a.79.79,0,0,0,.75-.789c0-1.2-2.2-1.22-2.2-2.749a1.289,1.289,0,0,1,1.349-1.259,1.4,1.4,0,0,1,1.45,1.24Z" fill="#fff"/>
    <path d="M254.662,62.93v.289c0,1.269.29,1.689.97,1.689.549,0,.779-.51.869-.979l.679.08a1.662,1.662,0,0,1-1.649,1.5c-1.089,0-1.589-.82-1.589-2.7s.5-2.7,1.589-2.7,1.589.98,1.589,2.479v.34Zm1.739-.6c-.02-1.12-.22-1.619-.87-1.619-.519,0-.859.38-.869,1.619Z" fill="#fff"/>
    <path d="M259.822,61.75c-.07-.779-.379-1.039-.819-1.039-.61,0-.87.38-.87,2.1s.26,2.1.87,2.1c.46,0,.719-.24.839-1.139h.7c-.12,1.019-.6,1.739-1.539,1.739-1.09,0-1.59-.82-1.59-2.7s.5-2.7,1.59-2.7c.939,0,1.379.619,1.519,1.639Z" fill="#fff"/>
    <path d="M260.605,60.211h.7V58.472h.72v1.739h.959v.6h-.959v3.637a.473.473,0,0,0,.52.52,1.563,1.563,0,0,0,.439-.1v.54a2.124,2.124,0,0,1-.68.1c-.679,0-1-.32-1-1.119V60.811h-.7Z" fill="#fff"/>
    <path d="M264.7,60.111c1.09,0,1.589.82,1.589,2.7s-.5,2.7-1.589,2.7-1.589-.82-1.589-2.7S263.609,60.111,264.7,60.111Zm0,4.8c.61,0,.87-.38.87-2.1s-.26-2.1-.87-2.1-.869.38-.869,2.1S264.089,64.908,264.7,64.908Z" fill="#fff"/>
    <path d="M266.809,60.211h.72v.63h.02a1.332,1.332,0,0,1,1.319-.73v.679a1.379,1.379,0,0,0-1.339.92v3.7h-.72Z" fill="#fff"/>
  </g>
  <g>
    <path d="M287.621,86v.659h-1.48v6.557h-.779V86.654h-1.479V86Z" fill="#fff"/>
    <path d="M287.692,88.014l.74,3.817h.02l.84-3.817h.679l.86,3.817h.019l.68-3.817h.68l-1.079,5.2h-.6l-.9-4.038h-.021l-.9,4.038h-.6l-1.1-5.2Z" fill="#fff"/>
    <path d="M293.844,87.914c1.089,0,1.589.819,1.589,2.7s-.5,2.7-1.589,2.7-1.589-.821-1.589-2.7S292.755,87.914,293.844,87.914Zm0,4.8c.61,0,.87-.381.87-2.1s-.26-2.1-.87-2.1-.87.38-.87,2.1S293.234,92.712,293.844,92.712Z" fill="#fff"/>
    <path d="M297.735,88.014h.68v.569a2.052,2.052,0,0,1,1.179-.669c.719,0,1.139.4,1.139,1.358v3.939h-.72V89.373c0-.6-.179-.859-.569-.859a1.359,1.359,0,0,0-.989.639v4.058h-.72Z" fill="#fff"/>
    <path d="M302,90.732v.29c0,1.27.29,1.69.97,1.69.549,0,.779-.51.869-.981l.679.081a1.663,1.663,0,0,1-1.648,1.5c-1.09,0-1.59-.821-1.59-2.7s.5-2.7,1.59-2.7,1.589.98,1.589,2.479v.339Zm1.739-.6c-.019-1.12-.22-1.619-.869-1.619-.52,0-.859.38-.87,1.619Z" fill="#fff"/>
    <path d="M305.177,88.014l.739,3.817h.02l.839-3.817h.68l.86,3.817h.02l.679-3.817h.68l-1.079,5.2h-.6l-.9-4.038h-.02l-.9,4.038h-.6l-1.1-5.2Z" fill="#fff"/>
    <path d="M285.192,98.514h.021a1.226,1.226,0,0,1,1.058-.6c.821,0,1.5.7,1.5,2.7s-.679,2.7-1.5,2.7a1.416,1.416,0,0,1-.959-.481v2.079h-.719v-6.9h.6Zm.12,3.737a1.2,1.2,0,0,0,.78.461c.609,0,.96-.5.96-2.1s-.38-2.1-.98-2.1a1.131,1.131,0,0,0-.76.5Z" fill="#fff"/>
    <path d="M288.4,96h.72v7.216h-.72Z" fill="#fff"/>
    <path d="M289.826,99.433a1.591,1.591,0,0,1,1.539-1.519,1.354,1.354,0,0,1,1.489,1.48v2.9a2.138,2.138,0,0,0,.13.919h-.749l-.09-.44a1.905,1.905,0,0,1-1.109.541,1.263,1.263,0,0,1-1.35-1.34c0-1.28,1.409-1.93,2.449-2.159v-.371c0-.568-.29-.928-.75-.928-.549,0-.819.549-.9,1.019Zm2.309.98c-.66.2-1.729.68-1.729,1.5,0,.49.22.8.739.8a1.474,1.474,0,0,0,.99-.541Z" fill="#fff"/>
    <path d="M293.677,98.014h.68v.569a2.052,2.052,0,0,1,1.179-.669c.72,0,1.14.4,1.14,1.358v3.939h-.72V99.373c0-.6-.18-.859-.57-.859a1.362,1.362,0,0,0-.989.639v4.058h-.72Z" fill="#fff"/>
    <path d="M296.991,98.014h.7v-1.74h.72v1.74h.959v.6h-.959v3.638a.473.473,0,0,0,.519.52,1.528,1.528,0,0,0,.44-.1v.54a2.112,2.112,0,0,1-.68.1c-.679,0-1-.321-1-1.121V98.613h-.7Z" fill="#fff"/>
    <path d="M301.9,99.333c-.13-.449-.319-.819-.9-.819a.583.583,0,0,0-.579.62c0,1.058,2.2,1.119,2.2,2.738a1.393,1.393,0,0,1-1.419,1.44,1.607,1.607,0,0,1-1.659-1.38l.66-.14c.149.459.419.92.949.92a.791.791,0,0,0,.749-.79c0-1.2-2.2-1.22-2.2-2.749a1.289,1.289,0,0,1,1.35-1.259,1.4,1.4,0,0,1,1.449,1.239Z" fill="#fff"/>
    <path d="M304.889,99.433a1.592,1.592,0,0,1,1.539-1.519,1.355,1.355,0,0,1,1.49,1.48v2.9a2.138,2.138,0,0,0,.13.919H307.3l-.09-.44a1.911,1.911,0,0,1-1.11.541,1.263,1.263,0,0,1-1.349-1.34c0-1.28,1.409-1.93,2.448-2.159v-.371c0-.568-.289-.928-.749-.928-.55,0-.819.549-.9,1.019Zm2.309.98c-.659.2-1.729.68-1.729,1.5,0,.49.22.8.74.8a1.474,1.474,0,0,0,.989-.541Z" fill="#fff"/>
    <path d="M308.741,98.014h.68v.569a2.05,2.05,0,0,1,1.178-.669c.72,0,1.14.4,1.14,1.358v3.939h-.72V99.373c0-.6-.179-.859-.569-.859a1.359,1.359,0,0,0-.989.639v4.058h-.72Z" fill="#fff"/>
    <path d="M314.927,102.712h-.02a1.259,1.259,0,0,1-1.069.6c-.82,0-1.5-.7-1.5-2.7s.679-2.7,1.5-2.7a1.415,1.415,0,0,1,.96.48V96h.719v5.817a5.668,5.668,0,0,0,.119,1.4h-.679Zm-.129-3.738a1.2,1.2,0,0,0-.781-.46c-.609,0-.959.5-.959,2.1s.38,2.1.98,2.1a1.133,1.133,0,0,0,.76-.5Z" fill="#fff"/>
    <path d="M284.883,110.732v.29c0,1.27.29,1.69.969,1.69.549,0,.78-.51.869-.981l.68.081a1.665,1.665,0,0,1-1.649,1.5c-1.089,0-1.589-.821-1.589-2.7s.5-2.7,1.589-2.7,1.589.98,1.589,2.479v.339Zm1.739-.6c-.021-1.12-.221-1.619-.87-1.619-.52,0-.86.38-.869,1.619Z" fill="#fff"/>
    <path d="M287.269,108.014h.74l.859,1.819.76-1.819h.74l-1.12,2.5,1.319,2.7h-.739l-.94-2.039-.879,2.039h-.74l1.2-2.7Z" fill="#fff"/>
    <path d="M290.447,108.014h.7v-1.74h.719v1.74h.96v.6h-.96v3.638a.473.473,0,0,0,.52.52,1.536,1.536,0,0,0,.44-.1v.54a2.121,2.121,0,0,1-.68.1c-.679,0-1-.321-1-1.121v-3.578h-.7Z" fill="#fff"/>
    <path d="M293.672,110.732v.29c0,1.27.29,1.69.969,1.69.549,0,.78-.51.869-.981l.68.081a1.665,1.665,0,0,1-1.649,1.5c-1.089,0-1.589-.821-1.589-2.7s.5-2.7,1.589-2.7,1.589.98,1.589,2.479v.339Zm1.739-.6c-.021-1.12-.221-1.619-.87-1.619-.52,0-.86.38-.869,1.619Z" fill="#fff"/>
    <path d="M296.667,108.014h.679v.569a2.054,2.054,0,0,1,1.18-.669c.72,0,1.139.4,1.139,1.358v3.939h-.719v-3.838c0-.6-.181-.859-.57-.859a1.364,1.364,0,0,0-.99.639v4.058h-.719Z" fill="#fff"/>
    <path d="M302.517,109.333c-.13-.449-.319-.819-.9-.819a.583.583,0,0,0-.579.62c0,1.058,2.2,1.119,2.2,2.738a1.393,1.393,0,0,1-1.419,1.44,1.607,1.607,0,0,1-1.659-1.38l.66-.14c.15.459.419.92.949.92a.791.791,0,0,0,.749-.79c0-1.2-2.2-1.22-2.2-2.749a1.289,1.289,0,0,1,1.35-1.259,1.4,1.4,0,0,1,1.449,1.239Z" fill="#fff"/>
    <path d="M303.773,106h.72v.84h-.72Zm0,2.019h.72v5.2h-.72Z" fill="#fff"/>
    <path d="M306.638,107.914c1.09,0,1.589.819,1.589,2.7s-.5,2.7-1.589,2.7-1.588-.821-1.588-2.7S305.55,107.914,306.638,107.914Zm0,4.8c.611,0,.871-.381.871-2.1s-.26-2.1-.871-2.1-.869.38-.869,2.1S306.029,112.712,306.638,112.712Z" fill="#fff"/>
    <path d="M308.777,108.014h.68v.569a2.053,2.053,0,0,1,1.178-.669c.72,0,1.14.4,1.14,1.358v3.939h-.72v-3.838c0-.6-.179-.859-.569-.859a1.359,1.359,0,0,0-.989.639v4.058h-.72Z" fill="#fff"/>
    <path d="M314.628,109.333c-.13-.449-.321-.819-.9-.819a.584.584,0,0,0-.58.62c0,1.058,2.2,1.119,2.2,2.738a1.393,1.393,0,0,1-1.419,1.44,1.607,1.607,0,0,1-1.659-1.38l.659-.14c.151.459.42.92.95.92a.791.791,0,0,0,.75-.79c0-1.2-2.2-1.22-2.2-2.749a1.29,1.29,0,0,1,1.35-1.259,1.4,1.4,0,0,1,1.449,1.239Z" fill="#fff"/>
    <path d="M284.562,116h.72v.84h-.72Zm0,2.019h.72v5.2h-.72Z" fill="#fff"/>
    <path d="M286.085,118.014h.679v.569a2.052,2.052,0,0,1,1.179-.669c.72,0,1.14.4,1.14,1.358v3.939h-.72v-3.838c0-.6-.18-.859-.569-.859a1.362,1.362,0,0,0-.99.639v4.058h-.719Z" fill="#fff"/>
    <path d="M291.684,116H293.6a1.617,1.617,0,0,1,1.7,1.779,1.537,1.537,0,0,1-1.1,1.6v.021a1.692,1.692,0,0,1,1.259,1.818c0,1.34-.74,2-2.319,2h-1.459Zm.78,3.1h.439c1.12,0,1.619-.34,1.619-1.319,0-.82-.359-1.12-1.279-1.12h-.779Zm0,3.459h.779c.939,0,1.439-.41,1.439-1.34,0-.949-.42-1.459-1.439-1.459h-.779Z" fill="#fff"/>
    <path d="M296.634,120.732v.29c0,1.27.29,1.69.969,1.69.55,0,.78-.51.869-.981l.68.081a1.663,1.663,0,0,1-1.648,1.5c-1.09,0-1.59-.821-1.59-2.7s.5-2.7,1.59-2.7,1.589.98,1.589,2.479v.339Zm1.739-.6c-.02-1.12-.22-1.619-.869-1.619-.52,0-.86.38-.87,1.619Z" fill="#fff"/>
    <path d="M299.657,116h.72v7.216h-.72Z" fill="#fff"/>
    <path d="M304.474,118.573a.82.82,0,0,0-.21-.019.633.633,0,0,0-.45.2,2.97,2.97,0,0,1,.16,1c0,1.3-.6,1.859-1.4,1.859-.159,0-.319-.041-.48-.041-.12.032-.359.141-.359.34,0,.37.589.391,1.259.53.75.16,1.419.4,1.419,1.249,0,.68-.659,1.22-1.759,1.22-1.179,0-1.778-.44-1.778-1.12a1.136,1.136,0,0,1,.758-1.039.7.7,0,0,1,.121-1.389,1.915,1.915,0,0,1-.62-1.49c0-1.238.6-1.958,1.509-1.958a1.082,1.082,0,0,1,.949.48.95.95,0,0,1,.88-.48Zm-2.239,4.358c-.419.179-.7.42-.7.71,0,.429.359.729,1.14.729.8,0,1.079-.32,1.079-.739C303.755,123.151,302.855,123.071,302.235,122.931Zm.32-1.859c.42,0,.76-.319.76-1.309s-.34-1.309-.76-1.309-.759.319-.759,1.309S302.135,121.072,302.555,121.072Z" fill="#fff"/>
    <path d="M304.972,116h.72v.84h-.72Zm0,2.019h.72v5.2h-.72Z" fill="#fff"/>
    <path d="M309.489,123.211h-.68v-.569a2.063,2.063,0,0,1-1.179.67c-.72,0-1.139-.4-1.139-1.36v-3.938h.72v3.838c0,.6.179.86.569.86a1.359,1.359,0,0,0,.989-.641v-4.057h.72Z" fill="#fff"/>
    <path d="M310.324,123.211v-5.2h.659v.569a1.689,1.689,0,0,1,1.209-.669.993.993,0,0,1,.93.659,1.713,1.713,0,0,1,1.209-.659c.679,0,1.05.46,1.05,1.2v4.1h-.72v-4c0-.54-.16-.7-.539-.7a1.252,1.252,0,0,0-.91.54v4.157h-.72v-4c0-.54-.19-.7-.569-.7a1.142,1.142,0,0,0-.88.54v4.157Z" fill="#fff"/>
    <path d="M285.712,134.311a7.758,7.758,0,0,1,0-8.415l.48.3a7.742,7.742,0,0,0,0,7.817Z" fill="#fff"/>
    <path d="M287.279,126l1.27,5.717h.02L289.838,126h.78l-1.7,7.216h-.72L286.5,126Z" fill="#fff"/>
    <path d="M291.855,126v3.118h2.118V126h.78v7.216h-.78v-3.439h-2.118v3.439h-.78V126Z" fill="#fff"/>
    <path d="M301.453,129.753a5.6,5.6,0,0,1-.5,2.139,4.835,4.835,0,0,0,.88.779l-.42.54a3.312,3.312,0,0,1-.9-.68,2.039,2.039,0,0,1-1.529.781,1.719,1.719,0,0,1-1.849-1.84,3.258,3.258,0,0,1,1.189-2.2,5.282,5.282,0,0,1-.51-1.847c0-1.03.561-1.529,1.26-1.529a1.273,1.273,0,0,1,1.339,1.258,2.975,2.975,0,0,1-1.269,2.189,9.6,9.6,0,0,0,1.289,1.989,5.926,5.926,0,0,0,.32-1.619Zm-2.389,2.9a1.319,1.319,0,0,0,1.009-.6,12.321,12.321,0,0,1-1.459-2.19,2.5,2.5,0,0,0-.76,1.55A1.127,1.127,0,0,0,299.064,132.651Zm-.18-3.908a2.428,2.428,0,0,0,.809-1.648.626.626,0,0,0-.519-.66c-.38,0-.64.219-.64.929A3.587,3.587,0,0,0,298.884,128.743Z" fill="#fff"/>
    <path d="M305.214,126l1.259,5.457h.02L307.722,126h1.24v7.216h-.72V126.6h-.02l-1.5,6.616h-.509l-1.5-6.616h-.021v6.616h-.72V126Z" fill="#fff"/>
    <path d="M312.369,127.854c-.06-.74-.359-1.3-1.109-1.3a.924.924,0,0,0-.99.949c0,1.63,2.9,1.649,2.9,3.968a1.682,1.682,0,0,1-1.849,1.84,1.836,1.836,0,0,1-1.829-2.04h.72c.019.85.419,1.379,1.188,1.379a1.039,1.039,0,0,0,1.07-1.189c0-1.639-2.9-1.829-2.9-3.888a1.61,1.61,0,0,1,1.738-1.678c1.04,0,1.72.7,1.78,1.958Z" fill="#fff"/>
    <path d="M313.831,125.9a7.764,7.764,0,0,1,0,8.415l-.48-.3a7.742,7.742,0,0,0,0-7.817Z" fill="#fff"/>
  </g>
  <rect x="21.455" y="123.03" width="1" height="58.165" fill="#fff"/>
  <g>
    <path d="M18.217,168.375H17.041v-.8a9.01,9.01,0,0,0,1.763-1.115h.756v8.779H18.217Z" fill="#fff"/>
    <path d="M22.357,172.908v.445c0,.563.192.827.635.827s.7-.264.7-.827v-2.028a1.47,1.47,0,0,1-1.223.576c-.864,0-1.583-.5-1.583-1.775V169.1c0-1.824.623-2.639,2.11-2.639s2.111.744,2.111,2.375v4.149c0,1.631-.623,2.375-2.111,2.375a1.822,1.822,0,0,1-1.931-1.918v-.529Zm1.331-4.449c0-.563-.252-.827-.7-.827s-.7.264-.7.827V169.9c0,.564.252.828.623.828a1.526,1.526,0,0,0,.768-.4Z" fill="#fff"/>
    <path d="M25.781,168.831c0-1.631.624-2.375,2.111-2.375S30,167.2,30,168.831v4.149c0,1.631-.624,2.375-2.111,2.375s-2.111-.744-2.111-2.375Zm2.806-.372c0-.563-.251-.827-.7-.827s-.7.264-.7.827v4.894c0,.563.252.827.7.827s.7-.264.7-.827Z" fill="#fff"/>
    <path d="M30.7,167.8v-1.224H34.6v.84l-1.763,7.819h-1.4l1.739-7.435Z" fill="#fff"/>
  </g>
  <rect x="10.299" y="165.174" width="24.485" height="16.374" fill="#fff"/>
  <rect x="55.943" y="75.89" width="1" height="105.306" fill="#fff"/>
  <g>
    <path d="M52.74,168.375H51.565v-.8a9.07,9.07,0,0,0,1.763-1.115h.756v8.779H52.74Z" fill="#fff"/>
    <path d="M56.88,172.908v.445c0,.563.192.827.636.827s.7-.264.7-.827v-2.028a1.468,1.468,0,0,1-1.223.576c-.863,0-1.583-.5-1.583-1.775V169.1c0-1.824.624-2.639,2.111-2.639s2.111.744,2.111,2.375v4.149c0,1.631-.624,2.375-2.111,2.375a1.822,1.822,0,0,1-1.931-1.918v-.529Zm1.331-4.449c0-.563-.251-.827-.7-.827s-.7.264-.7.827V169.9c0,.564.252.828.624.828a1.523,1.523,0,0,0,.767-.4Z" fill="#fff"/>
    <path d="M60.3,168.831c0-1.631.624-2.375,2.111-2.375s2.111.744,2.111,2.375v4.149c0,1.631-.623,2.375-2.111,2.375s-2.111-.744-2.111-2.375Zm2.807-.372c0-.563-.252-.827-.7-.827s-.7.264-.7.827v4.894c0,.563.252.827.7.827s.7-.264.7-.827Z" fill="#fff"/>
    <path d="M65.218,167.8v-1.224h3.91v.84l-1.763,7.819h-1.4L67.7,167.8Z" fill="#fff"/>
  </g>
  <rect x="44.822" y="165.174" width="24.485" height="16.374" fill="#fff"/>
  <rect x="90.431" y="123.03" width="1" height="58.165" fill="#fff"/>
  <g>
    <path d="M87.264,168.375H86.088v-.8a9.01,9.01,0,0,0,1.763-1.115h.756v8.779H87.264Z" fill="#fff"/>
    <path d="M91.4,172.908v.445c0,.563.191.827.635.827s.7-.264.7-.827v-2.028a1.47,1.47,0,0,1-1.224.576c-.863,0-1.583-.5-1.583-1.775V169.1c0-1.824.624-2.639,2.111-2.639s2.111.744,2.111,2.375v4.149c0,1.631-.623,2.375-2.111,2.375a1.822,1.822,0,0,1-1.931-1.918v-.529Zm1.331-4.449c0-.563-.252-.827-.7-.827s-.7.264-.7.827V169.9c0,.564.251.828.623.828a1.526,1.526,0,0,0,.768-.4Z" fill="#fff"/>
    <path d="M94.828,168.831c0-1.631.623-2.375,2.111-2.375s2.111.744,2.111,2.375v4.149c0,1.631-.624,2.375-2.111,2.375s-2.111-.744-2.111-2.375Zm2.806-.372c0-.563-.251-.827-.7-.827s-.7.264-.7.827v4.894c0,.563.252.827.7.827s.7-.264.7-.827Z" fill="#fff"/>
    <path d="M99.741,167.8v-1.224h3.911v.84l-1.764,7.819h-1.4l1.739-7.435Z" fill="#fff"/>
  </g>
  <rect x="79.346" y="165.174" width="24.485" height="16.374" fill="#fff"/>
  <rect x="124.911" y="75.89" width="1.018" height="105.293" fill="#fff"/>
  <g>
    <path d="M121.787,167.9h-1.175v-.833a8.994,8.994,0,0,0,1.763-1.157h.756v9.1h-1.344Z" fill="#fff"/>
    <path d="M125.927,172.6v.46c0,.584.192.857.636.857s.7-.273.7-.857v-2.1a1.454,1.454,0,0,1-1.224.6c-.863,0-1.583-.523-1.583-1.841v-1.069c0-1.891.623-2.737,2.111-2.737s2.111.772,2.111,2.463v4.3c0,1.691-.624,2.462-2.111,2.462a1.856,1.856,0,0,1-1.931-1.989V172.6Zm1.332-4.615c0-.584-.252-.858-.7-.858s-.7.274-.7.858v1.493c0,.585.252.858.624.858a1.521,1.521,0,0,0,.768-.41Z" fill="#fff"/>
    <path d="M129.351,168.37c0-1.691.624-2.463,2.111-2.463s2.111.772,2.111,2.463v4.3c0,1.691-.624,2.462-2.111,2.462s-2.111-.771-2.111-2.462Zm2.807-.386c0-.584-.252-.858-.7-.858s-.7.274-.7.858v5.075c0,.584.252.857.7.857s.7-.273.7-.857Z" fill="#fff"/>
    <path d="M134.265,167.3v-1.269h3.91v.87l-1.763,8.109h-1.4l1.739-7.71Z" fill="#fff"/>
  </g>
  <rect x="113.869" y="164.589" width="24.485" height="16.959" fill="#fff"/>
  <rect x="159.408" y="140.068" width="1" height="41.127" fill="#fff"/>
  <g>
    <path d="M156.311,168.375h-1.176v-.8a9.04,9.04,0,0,0,1.763-1.115h.756v8.779h-1.343Z" fill="#fff"/>
    <path d="M160.45,172.908v.445c0,.563.192.827.636.827s.695-.264.695-.827v-2.028a1.467,1.467,0,0,1-1.223.576c-.863,0-1.583-.5-1.583-1.775V169.1c0-1.824.624-2.639,2.111-2.639s2.111.744,2.111,2.375v4.149c0,1.631-.624,2.375-2.111,2.375a1.822,1.822,0,0,1-1.931-1.918v-.529Zm1.331-4.449c0-.563-.251-.827-.695-.827s-.7.264-.7.827V169.9c0,.564.252.828.624.828a1.519,1.519,0,0,0,.767-.4Z" fill="#fff"/>
    <path d="M163.875,168.831c0-1.631.623-2.375,2.111-2.375s2.11.744,2.11,2.375v4.149c0,1.631-.623,2.375-2.11,2.375s-2.111-.744-2.111-2.375Zm2.806-.372c0-.563-.252-.827-.7-.827s-.7.264-.7.827v4.894c0,.563.252.827.7.827s.7-.264.7-.827Z" fill="#fff"/>
    <path d="M168.788,167.8v-1.224h3.91v.84l-1.763,7.819h-1.4l1.739-7.435Z" fill="#fff"/>
  </g>
  <rect x="148.393" y="165.174" width="24.485" height="16.374" fill="#fff"/>
  <rect x="193.899" y="75.89" width="0.993" height="105.311" fill="#fff"/>
  <g>
    <path d="M190.834,168.546h-1.176v-.793a9.017,9.017,0,0,0,1.764-1.1h.755v8.668h-1.343Z" fill="#fff"/>
    <path d="M194.974,173.022v.438c0,.557.192.817.636.817s.695-.26.695-.817v-2a1.475,1.475,0,0,1-1.223.568c-.863,0-1.583-.5-1.583-1.752v-1.018c0-1.8.623-2.606,2.111-2.606s2.11.735,2.11,2.345v4.1c0,1.611-.623,2.345-2.11,2.345a1.811,1.811,0,0,1-1.932-1.895v-.521Zm1.331-4.393c0-.556-.252-.817-.695-.817s-.7.261-.7.817v1.421c0,.556.252.817.624.817a1.538,1.538,0,0,0,.767-.39Z" fill="#fff"/>
    <path d="M198.4,169c0-1.61.624-2.345,2.111-2.345s2.111.735,2.111,2.345v4.1c0,1.611-.624,2.345-2.111,2.345s-2.111-.734-2.111-2.345Zm2.807-.367c0-.556-.252-.817-.7-.817s-.7.261-.7.817v4.831c0,.557.252.817.7.817s.7-.26.7-.817Z" fill="#fff"/>
    <path d="M203.312,167.978v-1.207h3.91v.828l-1.763,7.72h-1.4l1.74-7.341Z" fill="#fff"/>
  </g>
  <rect x="182.916" y="165.391" width="24.485" height="16.157" fill="#fff"/>
  <rect x="228.384" y="131.833" width="1" height="49.362" fill="#fff"/>
  <g>
    <path d="M225.358,168.375h-1.176v-.8a9.04,9.04,0,0,0,1.763-1.115h.756v8.779h-1.343Z" fill="#fff"/>
    <path d="M229.5,172.908v.445c0,.563.192.827.636.827s.695-.264.695-.827v-2.028a1.467,1.467,0,0,1-1.223.576c-.863,0-1.583-.5-1.583-1.775V169.1c0-1.824.624-2.639,2.111-2.639s2.111.744,2.111,2.375v4.149c0,1.631-.624,2.375-2.111,2.375a1.822,1.822,0,0,1-1.931-1.918v-.529Zm1.331-4.449c0-.563-.251-.827-.695-.827s-.7.264-.7.827V169.9c0,.564.252.828.624.828a1.519,1.519,0,0,0,.767-.4Z" fill="#fff"/>
    <path d="M232.922,168.831c0-1.631.623-2.375,2.11-2.375s2.111.744,2.111,2.375v4.149c0,1.631-.623,2.375-2.111,2.375s-2.11-.744-2.11-2.375Zm2.806-.372c0-.563-.252-.827-.7-.827s-.7.264-.7.827v4.894c0,.563.252.827.7.827s.7-.264.7-.827Z" fill="#fff"/>
    <path d="M237.835,167.8v-1.224h3.91v.84l-1.763,7.819h-1.4l1.739-7.435Z" fill="#fff"/>
  </g>
  <rect x="217.439" y="165.174" width="24.485" height="16.374" fill="#fff"/>
  <rect x="262.872" y="75.89" width="1" height="105.306" fill="#fff"/>
  <g>
    <path d="M259.881,168.375h-1.176v-.8a9.049,9.049,0,0,0,1.764-1.115h.755v8.779h-1.343Z" fill="#fff"/>
    <path d="M264.021,172.908v.445c0,.563.192.827.635.827s.7-.264.7-.827v-2.028a1.47,1.47,0,0,1-1.223.576c-.864,0-1.583-.5-1.583-1.775V169.1c0-1.824.623-2.639,2.11-2.639s2.111.744,2.111,2.375v4.149c0,1.631-.623,2.375-2.111,2.375a1.822,1.822,0,0,1-1.931-1.918v-.529Zm1.331-4.449c0-.563-.252-.827-.7-.827s-.695.264-.695.827V169.9c0,.564.252.828.623.828a1.526,1.526,0,0,0,.768-.4Z" fill="#fff"/>
    <path d="M267.445,168.831c0-1.631.623-2.375,2.11-2.375s2.112.744,2.112,2.375v4.149c0,1.631-.624,2.375-2.112,2.375s-2.11-.744-2.11-2.375Zm2.806-.372c0-.563-.251-.827-.7-.827s-.695.264-.695.827v4.894c0,.563.252.827.695.827s.7-.264.7-.827Z" fill="#fff"/>
    <path d="M272.358,167.8v-1.224h3.91v.84l-1.762,7.819h-1.4l1.74-7.435Z" fill="#fff"/>
  </g>
  <rect x="251.963" y="165.174" width="24.485" height="16.374" fill="#fff"/>
  <rect x="277.794" y="160.236" width="40.932" height="1" transform="translate(129.432 454.492) rotate(-88.434)" fill="#fff"/>
  <g>
    <g>
      <path d="M294.4,168.375h-1.176v-.8a9.049,9.049,0,0,0,1.764-1.115h.756v8.779H294.4Z" fill="#fff"/>
      <path d="M298.544,172.908v.445c0,.563.192.827.635.827s.7-.264.7-.827v-2.028a1.468,1.468,0,0,1-1.223.576c-.863,0-1.583-.5-1.583-1.775V169.1c0-1.824.623-2.639,2.11-2.639s2.112.744,2.112,2.375v4.149c0,1.631-.624,2.375-2.112,2.375a1.822,1.822,0,0,1-1.93-1.918v-.529Zm1.331-4.449c0-.563-.251-.827-.7-.827s-.695.264-.695.827V169.9c0,.564.252.828.623.828a1.522,1.522,0,0,0,.768-.4Z" fill="#fff"/>
      <path d="M301.969,168.831c0-1.631.623-2.375,2.11-2.375s2.111.744,2.111,2.375v4.149c0,1.631-.624,2.375-2.111,2.375s-2.11-.744-2.11-2.375Zm2.805-.372c0-.563-.251-.827-.695-.827s-.695.264-.695.827v4.894c0,.563.251.827.695.827s.695-.264.695-.827Z" fill="#fff"/>
      <path d="M306.882,167.8v-1.224h3.91v.84l-1.763,7.819h-1.4l1.739-7.435Z" fill="#fff"/>
    </g>
    <rect x="286.486" y="165.174" width="24.485" height="16.374" fill="#fff"/>
  </g>
  <g>
    <g>
      <path d="M294.4,186.174h-1.176v-.8a9.049,9.049,0,0,0,1.764-1.115h.756v8.779H294.4Z" fill="#fff"/>
      <path d="M298.544,190.707v.444c0,.564.192.828.635.828s.7-.264.7-.828v-2.027a1.468,1.468,0,0,1-1.223.576c-.863,0-1.583-.5-1.583-1.775v-1.031c0-1.824.623-2.639,2.11-2.639s2.112.744,2.112,2.375v4.149c0,1.631-.624,2.375-2.112,2.375a1.822,1.822,0,0,1-1.93-1.919v-.528Zm1.331-4.449c0-.564-.251-.827-.7-.827s-.695.263-.695.827V187.7c0,.564.252.827.623.827a1.528,1.528,0,0,0,.768-.4Z" fill="#fff"/>
      <path d="M301.969,186.63c0-1.631.623-2.375,2.11-2.375s2.111.744,2.111,2.375v4.149c0,1.631-.624,2.375-2.111,2.375s-2.11-.744-2.11-2.375Zm2.805-.372c0-.564-.251-.827-.695-.827s-.695.263-.695.827v4.893c0,.564.251.828.695.828s.695-.264.695-.828Z" fill="#fff"/>
      <path d="M306.882,185.6v-1.224h3.91v.84l-1.763,7.819h-1.4l1.739-7.435Z" fill="#fff"/>
    </g>
    <rect x="286.486" y="182.973" width="24.485" height="16.374" fill="#fff"/>
  </g>
  <g>
    <path d="M14.631,170.848H13.455v-.8a9.04,9.04,0,0,0,1.763-1.115h.756v8.779H14.631Z" fill="#272425"/>
    <path d="M18.77,175.381v.444c0,.564.192.827.636.827s.7-.263.7-.827V173.8a1.467,1.467,0,0,1-1.223.576c-.863,0-1.583-.5-1.583-1.775v-1.032c0-1.823.624-2.638,2.111-2.638s2.111.744,2.111,2.375v4.149c0,1.631-.624,2.375-2.111,2.375a1.822,1.822,0,0,1-1.931-1.919v-.528Zm1.331-4.449c0-.564-.251-.828-.7-.828s-.7.264-.7.828v1.439c0,.564.252.827.624.827a1.525,1.525,0,0,0,.767-.4Z" fill="#272425"/>
    <path d="M22.2,171.3c0-1.631.623-2.375,2.11-2.375s2.111.744,2.111,2.375v4.149c0,1.631-.623,2.375-2.111,2.375s-2.11-.744-2.11-2.375ZM25,170.932c0-.564-.252-.828-.7-.828s-.7.264-.7.828v4.893c0,.564.252.827.7.827s.7-.263.7-.827Z" fill="#272425"/>
    <path d="M27.108,170.272v-1.223h3.91v.84l-1.763,7.819h-1.4l1.739-7.436Z" fill="#272425"/>
  </g>
  <g>
    <path d="M49.154,170.848H47.978v-.8a9.01,9.01,0,0,0,1.763-1.115H50.5v8.779H49.154Z" fill="#272425"/>
    <path d="M53.294,175.381v.444c0,.564.192.827.635.827s.7-.263.7-.827V173.8a1.47,1.47,0,0,1-1.223.576c-.864,0-1.583-.5-1.583-1.775v-1.032c0-1.823.623-2.638,2.11-2.638s2.111.744,2.111,2.375v4.149c0,1.631-.623,2.375-2.111,2.375A1.822,1.822,0,0,1,52,175.909v-.528Zm1.331-4.449c0-.564-.252-.828-.7-.828s-.7.264-.7.828v1.439c0,.564.252.827.623.827a1.532,1.532,0,0,0,.768-.4Z" fill="#272425"/>
    <path d="M59.119,175.621h-2.59v-1.1l2.518-5.469h1.44v5.469h.791v1.1h-.791v2.087H59.119Zm.024-1.1v-3.382h-.024l-1.451,3.382Z" fill="#272425"/>
    <path d="M61.6,177.708v-1.163c1.847-2.7,2.855-4.186,2.855-5.457,0-.684-.264-.984-.672-.984-.479,0-.72.372-.72.9v.588H61.646v-.408a2.115,2.115,0,0,1,2.207-2.255,1.933,1.933,0,0,1,2.015,1.919c0,1.367-.432,2.375-2.758,5.636h2.626v1.224Z" fill="#272425"/>
  </g>
  <g>
    <path d="M83.677,170.848H82.5v-.8a9.07,9.07,0,0,0,1.763-1.115h.756v8.779H83.677Z" fill="#272425"/>
    <path d="M87.817,175.381v.444c0,.564.192.827.636.827s.695-.263.695-.827V173.8a1.468,1.468,0,0,1-1.223.576c-.863,0-1.583-.5-1.583-1.775v-1.032c0-1.823.624-2.638,2.111-2.638s2.111.744,2.111,2.375v4.149c0,1.631-.624,2.375-2.111,2.375a1.822,1.822,0,0,1-1.931-1.919v-.528Zm1.331-4.449c0-.564-.251-.828-.695-.828s-.7.264-.7.828v1.439c0,.564.252.827.624.827a1.525,1.525,0,0,0,.767-.4Z" fill="#272425"/>
    <path d="M92.6,175.2v.7a.665.665,0,0,0,.66.755c.467,0,.731-.275.731-1.055V173.63c0-.564-.288-.791-.624-.791a.836.836,0,0,0-.8.659H91.411c.049-1.343.108-2.4.108-4.449H95.13l-.048,1.223H92.743l-.084,1.872.024.023a1.255,1.255,0,0,1,1.139-.5c1.14,0,1.584.828,1.584,2.279v1.2c0,1.823-.576,2.686-2.016,2.686-1.2,0-2.134-.528-2.134-1.967v-.66Z" fill="#272425"/>
    <path d="M96.086,171.3c0-1.631.623-2.375,2.111-2.375s2.11.744,2.11,2.375v4.149c0,1.631-.623,2.375-2.11,2.375s-2.111-.744-2.111-2.375Zm2.806-.372c0-.564-.252-.828-.695-.828s-.7.264-.7.828v4.893c0,.564.252.827.7.827s.695-.263.695-.827Z" fill="#272425"/>
  </g>
  <g>
    <path d="M118.2,170.458h-1.176v-.833a9.025,9.025,0,0,0,1.763-1.157h.756v9.1H118.2Z" fill="#272425"/>
    <path d="M122.341,175.159v.46c0,.584.191.858.635.858s.7-.274.7-.858v-2.1a1.453,1.453,0,0,1-1.224.6c-.863,0-1.583-.522-1.583-1.841V171.2c0-1.891.624-2.736,2.111-2.736s2.111.771,2.111,2.463v4.3c0,1.692-.623,2.462-2.111,2.462a1.856,1.856,0,0,1-1.931-1.989v-.547Zm1.331-4.614c0-.584-.252-.858-.7-.858s-.695.274-.695.858v1.492c0,.585.251.859.623.859a1.511,1.511,0,0,0,.768-.411Z" fill="#272425"/>
    <path d="M128.511,171.005v-.46c0-.584-.191-.858-.635-.858s-.7.274-.7.858v2.1a1.452,1.452,0,0,1,1.224-.6c.863,0,1.583.522,1.583,1.841v1.069c0,1.89-.624,2.735-2.111,2.735s-2.111-.77-2.111-2.462v-4.3c0-1.692.623-2.463,2.111-2.463a1.856,1.856,0,0,1,1.93,1.99v.547Zm-1.331,4.614c0,.584.252.858.7.858s.695-.274.695-.858v-1.492c0-.585-.251-.858-.623-.858a1.5,1.5,0,0,0-.768.41Z" fill="#272425"/>
    <path d="M130.606,169.861v-1.268h3.91v.87l-1.763,8.108h-1.4l1.739-7.71Z" fill="#272425"/>
  </g>
  <g>
    <path d="M152.724,170.848h-1.175v-.8a9.07,9.07,0,0,0,1.763-1.115h.756v8.779h-1.344Z" fill="#272425"/>
    <path d="M156.864,175.381v.444c0,.564.192.827.636.827s.695-.263.695-.827V173.8a1.468,1.468,0,0,1-1.223.576c-.863,0-1.583-.5-1.583-1.775v-1.032c0-1.823.623-2.638,2.111-2.638s2.111.744,2.111,2.375v4.149c0,1.631-.624,2.375-2.111,2.375a1.822,1.822,0,0,1-1.931-1.919v-.528Zm1.331-4.449c0-.564-.251-.828-.695-.828s-.7.264-.7.828v1.439c0,.564.252.827.623.827a1.528,1.528,0,0,0,.768-.4Z" fill="#272425"/>
    <path d="M160.3,170.272v-1.223h3.911v.84l-1.764,7.819h-1.4l1.739-7.436Z" fill="#272425"/>
    <path d="M164.857,177.708v-1.163c1.846-2.7,2.854-4.186,2.854-5.457,0-.684-.264-.984-.672-.984-.479,0-.719.372-.719.9v.588h-1.415v-.408a2.114,2.114,0,0,1,2.206-2.255,1.932,1.932,0,0,1,2.015,1.919c0,1.367-.431,2.375-2.758,5.636h2.626v1.224Z" fill="#272425"/>
  </g>
  <g>
    <path d="M187.248,170.985h-1.176v-.793a8.977,8.977,0,0,0,1.763-1.1h.756v8.668h-1.343Z" fill="#272425"/>
    <path d="M191.387,175.462v.437c0,.557.192.818.636.818s.7-.261.7-.818v-2a1.478,1.478,0,0,1-1.224.569c-.863,0-1.583-.5-1.583-1.752V171.7c0-1.8.624-2.6,2.111-2.6s2.111.734,2.111,2.345v4.1c0,1.612-.624,2.345-2.111,2.345a1.811,1.811,0,0,1-1.931-1.9v-.52Zm1.332-4.394c0-.555-.252-.816-.7-.816s-.7.261-.7.816v1.421c0,.557.252.818.624.818a1.534,1.534,0,0,0,.768-.391Z" fill="#272425"/>
    <path d="M195.7,173.2a2.072,2.072,0,0,1-.779-1.7c0-1.658.767-2.4,1.991-2.4s1.991.746,1.991,2.4a2.07,2.07,0,0,1-.78,1.7c.732.462.9,1.149.9,2.191,0,1.61-.72,2.486-2.111,2.486S194.8,177,194.8,175.391C194.8,174.349,194.97,173.662,195.7,173.2Zm1.979,2.1c0-.888-.191-1.421-.767-1.421s-.768.533-.768,1.421.192,1.421.768,1.421S197.68,176.184,197.68,175.3Zm-.12-3.872c0-.829-.192-1.172-.647-1.172s-.648.343-.648,1.172.192,1.173.648,1.173S197.56,172.253,197.56,171.424Z" fill="#272425"/>
    <path d="M199.692,171.436c0-1.611.623-2.345,2.11-2.345s2.111.734,2.111,2.345v4.1c0,1.612-.623,2.345-2.111,2.345s-2.11-.733-2.11-2.345Zm2.806-.368c0-.555-.252-.816-.7-.816s-.695.261-.695.816V175.9c0,.557.252.818.695.818s.7-.261.7-.818Z" fill="#272425"/>
  </g>
  <g>
    <path d="M221.771,170.848H220.6v-.8a9.049,9.049,0,0,0,1.764-1.115h.756v8.779h-1.344Z" fill="#272425"/>
    <path d="M225.911,175.381v.444c0,.564.192.827.636.827s.695-.263.695-.827V173.8a1.47,1.47,0,0,1-1.223.576c-.863,0-1.583-.5-1.583-1.775v-1.032c0-1.823.623-2.638,2.111-2.638s2.11.744,2.11,2.375v4.149c0,1.631-.623,2.375-2.11,2.375a1.823,1.823,0,0,1-1.932-1.919v-.528Zm1.331-4.449c0-.564-.252-.828-.695-.828s-.7.264-.7.828v1.439c0,.564.252.827.623.827a1.528,1.528,0,0,0,.768-.4Z" fill="#272425"/>
    <path d="M230.225,173.091a2.11,2.11,0,0,1-.78-1.728c0-1.678.768-2.434,1.991-2.434s1.991.756,1.991,2.434a2.112,2.112,0,0,1-.779,1.728c.731.468.9,1.163.9,2.219,0,1.63-.72,2.518-2.111,2.518s-2.111-.888-2.111-2.518C229.325,174.254,229.493,173.559,230.225,173.091Zm1.979,2.123c0-.9-.192-1.44-.768-1.44s-.767.539-.767,1.44.192,1.438.767,1.438S232.2,176.113,232.2,175.214Zm-.12-3.922c0-.84-.192-1.188-.648-1.188s-.647.348-.647,1.188.191,1.187.647,1.187S232.084,172.131,232.084,171.292Z" fill="#272425"/>
    <path d="M234.15,177.708v-1.163c1.846-2.7,2.854-4.186,2.854-5.457,0-.684-.264-.984-.672-.984-.479,0-.719.372-.719.9v.588H234.2v-.408a2.114,2.114,0,0,1,2.206-2.255,1.932,1.932,0,0,1,2.015,1.919c0,1.367-.431,2.375-2.758,5.636h2.626v1.224Z" fill="#272425"/>
  </g>
  <g>
    <path d="M256.3,170.848h-1.176v-.8a9.04,9.04,0,0,0,1.763-1.115h.756v8.779H256.3Z" fill="#272425"/>
    <path d="M260.434,175.381v.444c0,.564.192.827.636.827s.695-.263.695-.827V173.8a1.467,1.467,0,0,1-1.223.576c-.863,0-1.583-.5-1.583-1.775v-1.032c0-1.823.624-2.638,2.111-2.638s2.111.744,2.111,2.375v4.149c0,1.631-.624,2.375-2.111,2.375a1.822,1.822,0,0,1-1.931-1.919v-.528Zm1.331-4.449c0-.564-.251-.828-.695-.828s-.7.264-.7.828v1.439c0,.564.252.827.624.827a1.525,1.525,0,0,0,.767-.4Z" fill="#272425"/>
    <path d="M264.748,173.091a2.109,2.109,0,0,1-.779-1.728c0-1.678.767-2.434,1.991-2.434s1.99.756,1.99,2.434a2.112,2.112,0,0,1-.779,1.728c.731.468.9,1.163.9,2.219,0,1.63-.719,2.518-2.11,2.518s-2.111-.888-2.111-2.518C263.849,174.254,264.017,173.559,264.748,173.091Zm1.979,2.123c0-.9-.192-1.44-.767-1.44s-.768.539-.768,1.44.192,1.438.768,1.438S266.727,176.113,266.727,175.214Zm-.12-3.922c0-.84-.192-1.188-.647-1.188s-.648.348-.648,1.188.192,1.187.648,1.187S266.607,172.131,266.607,171.292Z" fill="#272425"/>
    <path d="M271.149,175.621h-2.591v-1.1l2.519-5.469h1.439v5.469h.792v1.1h-.792v2.087h-1.367Zm.025-1.1v-3.382h-.025l-1.451,3.382Z" fill="#272425"/>
  </g>
  <g>
    <path d="M290.818,170.848h-1.176v-.8a9.01,9.01,0,0,0,1.763-1.115h.756v8.779h-1.343Z" fill="#272425"/>
    <path d="M294.958,175.381v.444c0,.564.191.827.636.827s.695-.263.695-.827V173.8a1.47,1.47,0,0,1-1.224.576c-.863,0-1.583-.5-1.583-1.775v-1.032c0-1.823.624-2.638,2.112-2.638s2.11.744,2.11,2.375v4.149c0,1.631-.623,2.375-2.11,2.375a1.823,1.823,0,0,1-1.932-1.919v-.528Zm1.331-4.449c0-.564-.252-.828-.695-.828s-.7.264-.7.828v1.439c0,.564.252.827.624.827a1.532,1.532,0,0,0,.768-.4Z" fill="#272425"/>
    <path d="M299.847,175.381v.444c0,.564.192.827.636.827s.695-.263.695-.827V173.8a1.468,1.468,0,0,1-1.223.576c-.863,0-1.583-.5-1.583-1.775v-1.032c0-1.823.624-2.638,2.111-2.638s2.111.744,2.111,2.375v4.149c0,1.631-.624,2.375-2.111,2.375a1.822,1.822,0,0,1-1.931-1.919v-.528Zm1.331-4.449c0-.564-.251-.828-.695-.828s-.7.264-.7.828v1.439c0,.564.252.827.624.827a1.525,1.525,0,0,0,.767-.4Z" fill="#272425"/>
    <path d="M304.162,173.091a2.109,2.109,0,0,1-.779-1.728c0-1.678.767-2.434,1.99-2.434s1.991.756,1.991,2.434a2.112,2.112,0,0,1-.779,1.728c.731.468.9,1.163.9,2.219,0,1.63-.72,2.518-2.111,2.518s-2.111-.888-2.111-2.518C303.262,174.254,303.43,173.559,304.162,173.091Zm1.978,2.123c0-.9-.191-1.44-.767-1.44s-.768.539-.768,1.44.193,1.438.768,1.438S306.14,176.113,306.14,175.214Zm-.12-3.922c0-.84-.191-1.188-.647-1.188s-.648.348-.648,1.188.193,1.187.648,1.187S306.02,172.131,306.02,171.292Z" fill="#272425"/>
  </g>
  <g>
    <path d="M289.222,195.507v-1.163c1.847-2.7,2.855-4.186,2.855-5.457,0-.684-.264-.984-.672-.984-.479,0-.72.371-.72.9v.588H289.27v-.409a2.114,2.114,0,0,1,2.207-2.254,1.932,1.932,0,0,1,2.015,1.918c0,1.368-.432,2.375-2.758,5.637h2.626v1.224Z" fill="#272425"/>
    <path d="M294.148,189.1c0-1.631.624-2.375,2.112-2.375s2.11.744,2.11,2.375v4.149c0,1.631-.623,2.375-2.11,2.375s-2.112-.744-2.112-2.375Zm2.807-.373c0-.563-.252-.827-.695-.827s-.7.264-.7.827v4.894c0,.564.252.827.7.827s.695-.263.695-.827Z" fill="#272425"/>
    <path d="M299.051,189.1c0-1.631.623-2.375,2.11-2.375s2.111.744,2.111,2.375v4.149c0,1.631-.624,2.375-2.111,2.375s-2.11-.744-2.11-2.375Zm2.806-.373c0-.563-.252-.827-.7-.827s-.695.264-.695.827v4.894c0,.564.252.827.695.827s.7-.263.7-.827Z" fill="#272425"/>
    <path d="M306.351,193.42H303.76v-1.1l2.519-5.468h1.44v5.468h.791v1.1h-.791v2.087h-1.368Zm.024-1.1v-3.381h-.024l-1.452,3.381Z" fill="#272425"/>
  </g>
</svg>
