<svg xmlns="http://www.w3.org/2000/svg" xmlns:xlink="http://www.w3.org/1999/xlink" width="147.881" height="271.171" viewBox="0 0 147.881 271.171">
  <defs>
    <clipPath id="a">
      <rect x="40.125" y="102.995" width="67.629" height="100" fill="none"/>
    </clipPath>
  </defs>
  <g>
    <g clip-path="url(#a)">
      <path d="M104.535,199.548H43.347v-93.1h61.188ZM106.145,103H41.735a1.675,1.675,0,0,0-1.61,1.724v96.553A1.676,1.676,0,0,0,41.735,203h64.41a1.674,1.674,0,0,0,1.609-1.723V104.719A1.673,1.673,0,0,0,106.145,103" fill="#4b4b4a"/>
      <path d="M73.94,144.222a6.178,6.178,0,1,1,5.756-6.164,5.967,5.967,0,0,1-5.756,6.164m0-15.775c-4.951,0-8.977,4.311-8.977,9.611s4.026,9.614,8.977,9.614,8.978-4.311,8.978-9.614-4.027-9.611-8.978-9.611" fill="#4b4b4a"/>
      <path d="M85.614,153.75a1.674,1.674,0,0,0-1.186,1.272l-.807,3.512-4.89-5.237a4.432,4.432,0,0,0,.967-.323,5.508,5.508,0,0,0,3.1-3.814A2.2,2.2,0,0,1,84,147.672l4.872,5.215Zm-9-4.1a5.014,5.014,0,0,0-5.355,0,1.957,1.957,0,0,1-1.853.13,2.266,2.266,0,0,1-1.226-1.508,5.5,5.5,0,0,0-3.786-4.054,2.092,2.092,0,0,1-1.406-1.314,2.347,2.347,0,0,1,.119-1.982,6.027,6.027,0,0,0,0-5.733,2.274,2.274,0,0,1-.119-1.982A2.207,2.207,0,0,1,64.4,131.9a5.491,5.491,0,0,0,3.786-4.052,2.154,2.154,0,0,1,1.226-1.508,2.1,2.1,0,0,1,.807-.172,2.013,2.013,0,0,1,1.046.3,5.018,5.018,0,0,0,5.355,0,1.89,1.89,0,0,1,1.851-.131,2.262,2.262,0,0,1,1.229,1.508,5.491,5.491,0,0,0,3.783,4.052,2.1,2.1,0,0,1,1.409,1.316,2.355,2.355,0,0,1-.122,1.982,6.038,6.038,0,0,0,0,5.733,2.355,2.355,0,0,1,.122,1.982,2.2,2.2,0,0,1-1.409,1.314,5.5,5.5,0,0,0-3.783,4.054,2.17,2.17,0,0,1-1.229,1.508,1.956,1.956,0,0,1-1.851-.13m-12.359,8.858-.8-3.513a1.72,1.72,0,0,0-1.188-1.272l-3.281-.861,4.87-5.217a2.153,2.153,0,0,1,1.209,1.488,5.522,5.522,0,0,0,3.1,3.815,8.665,8.665,0,0,0,.965.322ZM93.2,152.607l-6.3-6.725a5.917,5.917,0,0,0,.965-1.637,5.98,5.98,0,0,0-.322-5.044,2.383,2.383,0,0,1,0-2.263,5.978,5.978,0,0,0,.322-5.043,5.373,5.373,0,0,0-3.562-3.319,2.183,2.183,0,0,1-1.49-1.594,5.513,5.513,0,0,0-3.1-3.815,4.949,4.949,0,0,0-4.71.345,1.967,1.967,0,0,1-2.112,0,4.949,4.949,0,0,0-4.71-.345,5.518,5.518,0,0,0-3.1,3.815,2.179,2.179,0,0,1-1.49,1.594,5.417,5.417,0,0,0-3.563,3.319,5.978,5.978,0,0,0,.323,5.043,2.372,2.372,0,0,1,0,2.263,5.981,5.981,0,0,0-.323,5.044A5.9,5.9,0,0,0,61,145.882l-6.282,6.725a1.805,1.805,0,0,0-.4,1.682,1.668,1.668,0,0,0,1.168,1.206l5.111,1.337,1.249,5.474a1.678,1.678,0,0,0,1.127,1.249,1.472,1.472,0,0,0,.442.065,1.551,1.551,0,0,0,1.148-.518l9.419-10.085L83.4,163.1a1.6,1.6,0,0,0,1.147.518,1.7,1.7,0,0,0,.444-.065,1.675,1.675,0,0,0,1.125-1.249l1.249-5.474,5.114-1.337a1.666,1.666,0,0,0,1.165-1.206,1.927,1.927,0,0,0-.442-1.682" fill="#4b4b4a"/>
      <path d="M97.289,185.065a8.388,8.388,0,0,0-6.281,6.723H56.872a8.392,8.392,0,0,0-6.279-6.723V120.926a8.392,8.392,0,0,0,6.279-6.723H91.008a8.388,8.388,0,0,0,6.281,6.723ZM98.9,117.65a5.026,5.026,0,0,1-4.831-5.172,1.675,1.675,0,0,0-1.61-1.725H55.422a1.675,1.675,0,0,0-1.61,1.725,5.024,5.024,0,0,1-4.831,5.172,1.676,1.676,0,0,0-1.61,1.725v67.241a1.678,1.678,0,0,0,1.61,1.725,5.024,5.024,0,0,1,4.831,5.172,1.676,1.676,0,0,0,1.61,1.725H92.457a1.676,1.676,0,0,0,1.61-1.725,5.026,5.026,0,0,1,4.831-5.172,1.676,1.676,0,0,0,1.61-1.725V119.375a1.674,1.674,0,0,0-1.61-1.725" fill="#4b4b4a"/>
      <path d="M93.665,170.237a1.673,1.673,0,0,1-1.609,1.724H55.825a1.729,1.729,0,0,1,0-3.449H92.056a1.673,1.673,0,0,1,1.609,1.725" fill="#4b4b4a"/>
      <path d="M90.445,180.581a1.674,1.674,0,0,1-1.61,1.725H59.046a1.729,1.729,0,0,1,0-3.449H88.835a1.674,1.674,0,0,1,1.61,1.724" fill="#4b4b4a"/>
    </g>
    <g>
      <path d="M27.8,28.382a.319.319,0,0,1-.338-.338V18.585c0-2.6-1.182-4.122-3.615-4.122a3.649,3.649,0,0,0-3.716,3.953v9.628a.319.319,0,0,1-.338.338H17.635a.32.32,0,0,1-.338-.338V18.585c0-2.6-1.182-4.122-3.614-4.122a3.632,3.632,0,0,0-3.717,3.953v9.628a.319.319,0,0,1-.338.338H7.466a.32.32,0,0,1-.338-.338V12.538a.32.32,0,0,1,.338-.338H9.628a.319.319,0,0,1,.338.338v1.486H10a5.116,5.116,0,0,1,4.527-2.2,5.085,5.085,0,0,1,4.73,2.534h.034a6.023,6.023,0,0,1,5.236-2.534c3.75,0,5.777,2.4,5.777,6.081V28.044a.32.32,0,0,1-.338.338Z" fill="#4b4b4a"/>
      <path d="M33.979,24.4a12.161,12.161,0,0,1-.54-4.121,12.085,12.085,0,0,1,.54-4.088,6.255,6.255,0,0,1,6.385-4.358,6.253,6.253,0,0,1,6.385,4.358,12.057,12.057,0,0,1,.541,4.088,12.132,12.132,0,0,1-.541,4.121,6.291,6.291,0,0,1-6.385,4.358A6.292,6.292,0,0,1,33.979,24.4Zm10.034-.811a10.6,10.6,0,0,0,.372-3.31A10.367,10.367,0,0,0,44.013,17a3.6,3.6,0,0,0-3.649-2.534A3.6,3.6,0,0,0,36.716,17a10.367,10.367,0,0,0-.372,3.277,10.6,10.6,0,0,0,.372,3.31,3.6,3.6,0,0,0,3.648,2.534A3.6,3.6,0,0,0,44.013,23.584Z" fill="#4b4b4a"/>
      <path d="M50.856,28.382a.319.319,0,0,1-.337-.338V12.538a.319.319,0,0,1,.337-.338h2.163a.319.319,0,0,1,.337.338v1.655h.034a4.51,4.51,0,0,1,4.291-2.365,4.971,4.971,0,0,1,3.31,1.216c.169.169.2.3.068.474l-1.25,1.655a.306.306,0,0,1-.473.067,4.558,4.558,0,0,0-2.5-.777c-2.466,0-3.48,1.926-3.48,4.73v8.851a.319.319,0,0,1-.337.338Z" fill="#4b4b4a"/>
      <path d="M62.658,24.362a12.689,12.689,0,0,1-.54-4.088,12.582,12.582,0,0,1,.506-4.088,6.256,6.256,0,0,1,6.352-4.358,6.267,6.267,0,0,1,6.351,4.358,14.117,14.117,0,0,1,.506,4.628.329.329,0,0,1-.371.338H65.226a.179.179,0,0,0-.2.2,6.059,6.059,0,0,0,.27,1.959,4,4,0,0,0,4.088,2.8,5.285,5.285,0,0,0,4.155-1.79.345.345,0,0,1,.507-.068l1.385,1.25a.3.3,0,0,1,.034.473,7.867,7.867,0,0,1-6.317,2.77C65.868,28.753,63.537,27.165,62.658,24.362Zm10.068-5.473a.179.179,0,0,0,.2-.2,5.693,5.693,0,0,0-.236-1.824,3.992,3.992,0,0,0-7.433,0,5.693,5.693,0,0,0-.236,1.824.179.179,0,0,0,.2.2Z" fill="#4b4b4a"/>
      <path d="M91.512,28.551c-3.142,0-4.358-1.419-4.358-4.595V14.7a.179.179,0,0,0-.2-.2H85.6a.319.319,0,0,1-.338-.338V12.538A.319.319,0,0,1,85.6,12.2h1.351a.18.18,0,0,0,.2-.2V7.436a.319.319,0,0,1,.338-.337h2.162a.319.319,0,0,1,.338.337V12a.179.179,0,0,0,.2.2h2.568a.319.319,0,0,1,.338.338v1.621a.319.319,0,0,1-.338.338H90.194a.179.179,0,0,0-.2.2v9.155c0,1.622.608,2.06,2.06,2.06h.71a.32.32,0,0,1,.338.338v1.96a.32.32,0,0,1-.338.338Z" fill="#4b4b4a"/>
      <path d="M106.445,28.382a.32.32,0,0,1-.338-.338V18.585c0-2.6-1.182-4.122-3.614-4.122a3.632,3.632,0,0,0-3.717,3.953v9.628a.319.319,0,0,1-.338.338H96.276a.32.32,0,0,1-.338-.338V5.747a.32.32,0,0,1,.338-.338h2.162a.319.319,0,0,1,.338.338v8.277h.034a5.116,5.116,0,0,1,4.527-2.2c3.514,0,5.608,2.4,5.608,6.081V28.044a.319.319,0,0,1-.338.338Z" fill="#4b4b4a"/>
      <path d="M122.512,28.382a.319.319,0,0,1-.338-.338V26.625h-.034c-.743,1.216-2.331,2.128-4.8,2.128-3.074,0-5.439-1.588-5.439-4.864,0-3.412,2.365-5,6.317-5H121.9a.179.179,0,0,0,.2-.2V17.5c0-2.23-.878-3.176-3.885-3.176a6.29,6.29,0,0,0-3.919,1.149c-.169.135-.371.135-.472-.034l-.913-1.554a.358.358,0,0,1,.068-.473,8.974,8.974,0,0,1,5.506-1.588c4.595,0,6.352,1.521,6.352,5.507V28.044a.319.319,0,0,1-.338.338Zm-.406-5.237v-1.79a.179.179,0,0,0-.2-.2H118.66c-2.8,0-4.02.811-4.02,2.635,0,1.656,1.216,2.534,3.379,2.534C120.552,26.321,122.106,25.139,122.106,23.145Z" fill="#4b4b4a"/>
      <path d="M139.264,28.382a.319.319,0,0,1-.338-.338V18.585c0-2.6-1.183-4.122-3.615-4.122a3.631,3.631,0,0,0-3.716,3.953v9.628a.32.32,0,0,1-.338.338H129.1a.319.319,0,0,1-.338-.338V12.538a.319.319,0,0,1,.338-.338h2.162a.32.32,0,0,1,.338.338v1.486h.033a5.117,5.117,0,0,1,4.527-2.2c3.514,0,5.609,2.4,5.609,6.081V28.044a.32.32,0,0,1-.338.338Z" fill="#4b4b4a"/>
    </g>
    <g>
      <path d="M22.738,237.056a.32.32,0,0,1-.338-.338v-1.96a.32.32,0,0,1,.338-.338h.608c1.318,0,2.028-.574,2.737-2.432l.541-1.487L20.678,215.13c-.068-.2.033-.338.27-.338h2.364a.4.4,0,0,1,.406.338l4.257,11.689h.067L32.13,215.13a.4.4,0,0,1,.406-.338h2.3c.2,0,.337.136.27.338l-6.385,17.1c-1.419,3.817-2.669,4.831-5.1,4.831Z" fill="#4b4b4a"/>
      <path d="M36.834,226.955a12.717,12.717,0,0,1-.54-4.088,12.55,12.55,0,0,1,.507-4.088,6.255,6.255,0,0,1,6.351-4.358,6.267,6.267,0,0,1,6.351,4.358,14.11,14.11,0,0,1,.507,4.628.33.33,0,0,1-.372.338H39.4a.179.179,0,0,0-.2.2,6.056,6.056,0,0,0,.271,1.959,4,4,0,0,0,4.087,2.8,5.285,5.285,0,0,0,4.155-1.79.345.345,0,0,1,.507-.068L49.6,228.1a.3.3,0,0,1,.034.473,7.866,7.866,0,0,1-6.317,2.77C40.044,231.346,37.713,229.758,36.834,226.955ZM46.9,221.481a.178.178,0,0,0,.2-.2,5.689,5.689,0,0,0-.236-1.824,3.653,3.653,0,0,0-3.716-2.534,3.653,3.653,0,0,0-3.716,2.534,5.687,5.687,0,0,0-.237,1.824.179.179,0,0,0,.2.2Z" fill="#4b4b4a"/>
      <path d="M62.975,230.975a.32.32,0,0,1-.338-.338v-1.419H62.6c-.743,1.216-2.331,2.128-4.8,2.128-3.075,0-5.439-1.588-5.439-4.865,0-3.412,2.364-5,6.317-5h3.682a.179.179,0,0,0,.2-.2V220.1c0-2.23-.878-3.176-3.885-3.176a6.3,6.3,0,0,0-3.919,1.148c-.169.136-.371.136-.473-.033l-.912-1.554a.357.357,0,0,1,.068-.473,8.974,8.974,0,0,1,5.506-1.588c4.595,0,6.352,1.52,6.352,5.507v10.709a.32.32,0,0,1-.338.338Zm-.406-5.237v-1.79a.179.179,0,0,0-.2-.2H59.123c-2.8,0-4.02.811-4.02,2.635,0,1.656,1.216,2.534,3.378,2.534C61.015,228.914,62.569,227.731,62.569,225.738Z" fill="#4b4b4a"/>
      <path d="M69.558,230.975a.32.32,0,0,1-.338-.338V215.13a.32.32,0,0,1,.338-.338H71.72a.32.32,0,0,1,.338.338v1.656h.033a4.51,4.51,0,0,1,4.291-2.365,4.974,4.974,0,0,1,3.311,1.216c.168.169.2.3.067.473l-1.25,1.656a.306.306,0,0,1-.473.067,4.558,4.558,0,0,0-2.5-.777c-2.466,0-3.479,1.925-3.479,4.73v8.851a.32.32,0,0,1-.338.338Z" fill="#4b4b4a"/>
      <path d="M80.843,228.914a.327.327,0,0,1,0-.473l1.385-1.486a.325.325,0,0,1,.473,0,7.861,7.861,0,0,0,5,1.857c2.364,0,3.547-1.013,3.547-2.466,0-1.284-.608-1.993-3.142-2.263l-1.723-.169c-3.175-.338-4.831-1.926-4.831-4.561,0-3.074,2.2-4.932,6.014-4.932a9.682,9.682,0,0,1,5.743,1.79.327.327,0,0,1,.067.474l-1.148,1.452a.331.331,0,0,1-.473.068,8.517,8.517,0,0,0-4.358-1.318c-2.027,0-3.074.912-3.074,2.23,0,1.283.777,1.959,3.175,2.2l1.689.169c3.277.305,4.865,1.96,4.865,4.561,0,3.176-2.3,5.3-6.52,5.3A10.059,10.059,0,0,1,80.843,228.914Z" fill="#4b4b4a"/>
      <path d="M104.494,226.988a15.84,15.84,0,0,1,0-8.209,6.856,6.856,0,0,1,12.77,0,15.869,15.869,0,0,1,0,8.209,6.856,6.856,0,0,1-12.77,0Zm10.033-.811a10.6,10.6,0,0,0,.372-3.31,10.363,10.363,0,0,0-.372-3.277,3.894,3.894,0,0,0-7.3,0,10.363,10.363,0,0,0-.372,3.277,10.6,10.6,0,0,0,.372,3.31,3.894,3.894,0,0,0,7.3,0Z" fill="#4b4b4a"/>
      <path d="M121.8,230.975a.32.32,0,0,1-.338-.338V217.292a.178.178,0,0,0-.2-.2h-1.385a.319.319,0,0,1-.338-.338V215.13a.32.32,0,0,1,.338-.338h1.385a.178.178,0,0,0,.2-.2v-1.385c0-3.818,1.555-5.2,4.933-5.2h1.25a.319.319,0,0,1,.338.338V210.3a.319.319,0,0,1-.338.338h-.878c-2.061,0-2.467.44-2.467,2.433v1.52a.179.179,0,0,0,.2.2h3.142a.32.32,0,0,1,.338.338v1.622a.319.319,0,0,1-.338.338H124.5a.179.179,0,0,0-.2.2v13.345a.32.32,0,0,1-.338.338Z" fill="#4b4b4a"/>
      <path d="M2.331,259.955a12.689,12.689,0,0,1-.54-4.088,12.555,12.555,0,0,1,.506-4.088,6.255,6.255,0,0,1,6.351-4.358A6.267,6.267,0,0,1,15,251.779a14.11,14.11,0,0,1,.507,4.628.329.329,0,0,1-.371.338H4.9a.179.179,0,0,0-.2.2,6.059,6.059,0,0,0,.27,1.959,4,4,0,0,0,4.088,2.8,5.287,5.287,0,0,0,4.155-1.79.345.345,0,0,1,.507-.068L15.1,261.1a.3.3,0,0,1,.034.473,7.868,7.868,0,0,1-6.318,2.77C5.541,264.346,3.209,262.758,2.331,259.955ZM12.4,254.481a.179.179,0,0,0,.2-.2,5.689,5.689,0,0,0-.236-1.824,3.654,3.654,0,0,0-3.717-2.534,3.654,3.654,0,0,0-3.716,2.534,5.689,5.689,0,0,0-.236,1.824.178.178,0,0,0,.2.2Z" fill="#4b4b4a"/>
      <path d="M28.437,263.975c-.236,0-.337-.068-.506-.305l-3.919-5.709h-.034l-3.919,5.709a.5.5,0,0,1-.507.305h-2.4c-.271,0-.338-.169-.237-.338l5.507-8.108-5.034-7.4c-.1-.169-.034-.338.237-.338h2.432a.483.483,0,0,1,.507.305l3.412,5.033h.034l3.479-5.033a.489.489,0,0,1,.473-.305H30.4c.271,0,.338.169.237.338l-5.067,7.4,5.54,8.108c.1.169.034.338-.236.338Z" fill="#4b4b4a"/>
      <path d="M34.047,270.056a.32.32,0,0,1-.338-.338V248.13a.32.32,0,0,1,.338-.338h2.162a.32.32,0,0,1,.338.338v1.52h.034c.777-1.283,2.162-2.229,4.595-2.229a5.348,5.348,0,0,1,5.574,3.885,18.539,18.539,0,0,1,0,9.155,5.348,5.348,0,0,1-5.574,3.885,4.924,4.924,0,0,1-4.595-2.263h-.034v7.635a.32.32,0,0,1-.338.338Zm10-10.811a11.233,11.233,0,0,0,.372-3.378,11.529,11.529,0,0,0-.372-3.379,3.433,3.433,0,0,0-3.547-2.432,3.438,3.438,0,0,0-3.581,2.432,10.54,10.54,0,0,0-.372,3.379,10.4,10.4,0,0,0,.372,3.378,3.463,3.463,0,0,0,3.581,2.466A3.46,3.46,0,0,0,44.047,259.245Z" fill="#4b4b4a"/>
      <path d="M50.411,259.955a16.239,16.239,0,0,1-.034-8.176,6.256,6.256,0,0,1,6.351-4.358,6.269,6.269,0,0,1,6.352,4.358,14.145,14.145,0,0,1,.506,4.628.329.329,0,0,1-.371.338H52.978a.179.179,0,0,0-.2.2,6.059,6.059,0,0,0,.27,1.959,4,4,0,0,0,4.088,2.8,5.285,5.285,0,0,0,4.155-1.79.345.345,0,0,1,.507-.068l1.385,1.25a.3.3,0,0,1,.034.473,7.868,7.868,0,0,1-6.318,2.77C53.621,264.346,51.29,262.758,50.411,259.955Zm10.067-5.474a.179.179,0,0,0,.2-.2,5.689,5.689,0,0,0-.236-1.824,3.992,3.992,0,0,0-7.433,0,5.689,5.689,0,0,0-.236,1.824.178.178,0,0,0,.2.2Z" fill="#4b4b4a"/>
      <path d="M67.105,263.975a.319.319,0,0,1-.337-.338V248.13a.319.319,0,0,1,.337-.338h2.163a.319.319,0,0,1,.337.338v1.656h.034a4.51,4.51,0,0,1,4.291-2.365,4.975,4.975,0,0,1,3.311,1.216c.168.169.2.3.067.473l-1.25,1.656a.306.306,0,0,1-.473.067,4.558,4.558,0,0,0-2.5-.777c-2.466,0-3.48,1.925-3.48,4.73v8.851a.319.319,0,0,1-.337.338Z" fill="#4b4b4a"/>
      <path d="M79.968,244.144a.32.32,0,0,1-.338-.338V241.34a.32.32,0,0,1,.338-.338h2.3a.319.319,0,0,1,.337.338v2.466a.319.319,0,0,1-.337.338Zm.068,19.831a.32.32,0,0,1-.338-.338V248.13a.32.32,0,0,1,.338-.338H82.2a.32.32,0,0,1,.338.338v15.507a.32.32,0,0,1-.338.338Z" fill="#4b4b4a"/>
      <path d="M86.256,259.955a12.684,12.684,0,0,1-.541-4.088,12.55,12.55,0,0,1,.507-4.088,6.807,6.807,0,0,1,12.7,0,14.11,14.11,0,0,1,.507,4.628.329.329,0,0,1-.371.338H88.823a.179.179,0,0,0-.2.2,6.059,6.059,0,0,0,.27,1.959,4,4,0,0,0,4.087,2.8,5.289,5.289,0,0,0,4.156-1.79.345.345,0,0,1,.507-.068l1.385,1.25a.3.3,0,0,1,.034.473,7.868,7.868,0,0,1-6.318,2.77C89.465,264.346,87.134,262.758,86.256,259.955Zm10.067-5.474a.179.179,0,0,0,.2-.2,5.717,5.717,0,0,0-.236-1.824,3.992,3.992,0,0,0-7.433,0,5.689,5.689,0,0,0-.236,1.824.178.178,0,0,0,.2.2Z" fill="#4b4b4a"/>
      <path d="M113.119,263.975a.32.32,0,0,1-.338-.338v-9.459c0-2.6-1.183-4.122-3.615-4.122a3.631,3.631,0,0,0-3.716,3.953v9.628a.32.32,0,0,1-.338.338H102.95a.32.32,0,0,1-.338-.338V248.13a.32.32,0,0,1,.338-.338h2.162a.32.32,0,0,1,.338.338v1.487h.033a5.117,5.117,0,0,1,4.527-2.2c3.514,0,5.609,2.4,5.609,6.081v10.135a.32.32,0,0,1-.338.338Z" fill="#4b4b4a"/>
      <path d="M119.226,251.779a6.268,6.268,0,0,1,6.384-4.358,6.489,6.489,0,0,1,5.541,2.736c.1.169.1.3-.1.473l-1.486,1.217a.3.3,0,0,1-.473-.035,3.979,3.979,0,0,0-3.48-1.756A3.509,3.509,0,0,0,122,252.59a14.765,14.765,0,0,0,0,6.587,3.509,3.509,0,0,0,3.614,2.534,3.979,3.979,0,0,0,3.48-1.756.3.3,0,0,1,.473-.034l1.486,1.216c.2.169.2.3.1.473a6.489,6.489,0,0,1-5.541,2.736,6.268,6.268,0,0,1-6.384-4.358,16.868,16.868,0,0,1,0-8.209Z" fill="#4b4b4a"/>
      <path d="M133.757,259.955a12.689,12.689,0,0,1-.54-4.088,12.55,12.55,0,0,1,.507-4.088,6.807,6.807,0,0,1,12.7,0,14.11,14.11,0,0,1,.507,4.628.33.33,0,0,1-.372.338H136.325a.179.179,0,0,0-.2.2,6.056,6.056,0,0,0,.271,1.959,4,4,0,0,0,4.087,2.8,5.287,5.287,0,0,0,4.155-1.79.345.345,0,0,1,.507-.068l1.385,1.25a.3.3,0,0,1,.034.473,7.867,7.867,0,0,1-6.317,2.77C136.967,264.346,134.636,262.758,133.757,259.955Zm10.067-5.474a.179.179,0,0,0,.2-.2,5.689,5.689,0,0,0-.236-1.824,3.992,3.992,0,0,0-7.433,0,5.689,5.689,0,0,0-.236,1.824.179.179,0,0,0,.2.2Z" fill="#4b4b4a"/>
    </g>
    <g>
      <path d="M33.993,55.448h-.147l-7.93,5.433c-.441.294-.808.147-.808-.44V51.336a1.191,1.191,0,0,1,.514-1.028l8.371-6.021a2.051,2.051,0,0,1,1.321-.44h8.224a.694.694,0,0,1,.734.734v48.46a.694.694,0,0,1-.734.735H34.727a.694.694,0,0,1-.734-.735Z" fill="#4b4b4a"/>
      <path d="M53.5,68.811c0-11.087.367-13.363,1.1-15.566,2.056-6.388,7.2-10.206,15.052-10.206s13,3.818,15.053,10.206c.734,2.2,1.1,4.479,1.1,15.566s-.367,13.364-1.1,15.566c-2.056,6.389-7.2,10.206-15.053,10.206s-13-3.817-15.052-10.206C53.866,82.175,53.5,79.9,53.5,68.811ZM69.652,85.919c2.57,0,4.332-1.1,5.067-3.377.44-1.322.587-2.791.587-13.731s-.147-12.409-.587-13.73c-.735-2.276-2.5-3.378-5.067-3.378-2.643,0-4.332,1.1-5.066,3.378C64.145,56.4,64,57.871,64,68.811s.146,12.409.587,13.731C65.32,84.818,67.009,85.919,69.652,85.919Z" fill="#4b4b4a"/>
      <path d="M90.848,68.811c0-11.087.367-13.363,1.1-15.566,2.056-6.388,7.2-10.206,15.052-10.206s13,3.818,15.052,10.206c.735,2.2,1.1,4.479,1.1,15.566s-.367,13.364-1.1,15.566C120,90.766,114.857,94.583,107,94.583s-13-3.817-15.052-10.206C91.215,82.175,90.848,79.9,90.848,68.811ZM107,85.919c2.57,0,4.332-1.1,5.066-3.377.441-1.322.588-2.791.588-13.731s-.147-12.409-.588-13.73c-.734-2.276-2.5-3.378-5.066-3.378-2.643,0-4.332,1.1-5.066,3.378-.441,1.321-.588,2.79-.588,13.73s.147,12.409.588,13.731C102.669,84.818,104.358,85.919,107,85.919Z" fill="#4b4b4a"/>
    </g>
  </g>
</svg>
