<svg xmlns="http://www.w3.org/2000/svg" width="322.839" height="199.744" viewBox="0 0 322.839 199.744">
  <g>
    <g>
      <path d="M262.085,186.373h-1.176v-.8a9.019,9.019,0,0,0,1.764-1.115h.756v8.779h-1.344Z" fill="none"/>
      <path d="M266.225,190.906v.444c0,.564.192.827.636.827s.695-.263.695-.827v-2.027a1.468,1.468,0,0,1-1.223.576c-.863,0-1.583-.5-1.583-1.775v-1.031c0-1.824.623-2.639,2.111-2.639s2.111.744,2.111,2.375v4.149c0,1.631-.624,2.375-2.111,2.375a1.822,1.822,0,0,1-1.931-1.919v-.528Zm1.331-4.449c0-.564-.251-.827-.695-.827s-.7.263-.7.827V187.9c0,.564.252.827.623.827a1.528,1.528,0,0,0,.768-.4Z" fill="none"/>
      <path d="M269.65,186.829c0-1.631.623-2.375,2.11-2.375s2.111.744,2.111,2.375v4.149c0,1.631-.624,2.375-2.111,2.375s-2.11-.744-2.11-2.375Zm2.805-.372c0-.564-.251-.827-.695-.827s-.695.263-.695.827v4.893c0,.564.252.827.695.827s.695-.263.695-.827Z" fill="none"/>
      <path d="M274.563,185.8v-1.224h3.91v.84l-1.763,7.819h-1.4l1.739-7.435Z" fill="none"/>
    </g>
    <rect x="254.167" y="183.172" width="24.485" height="16.374" fill="none"/>
  </g>
  <g>
    <path d="M256.9,195.706v-1.163c1.847-2.7,2.855-4.186,2.855-5.457,0-.684-.265-.984-.672-.984-.48,0-.72.371-.72.9v.588h-1.415v-.409a2.115,2.115,0,0,1,2.206-2.255,1.934,1.934,0,0,1,2.016,1.919c0,1.368-.432,2.375-2.759,5.637h2.627v1.224Z" fill="none"/>
    <path d="M261.83,189.3c0-1.63.623-2.375,2.11-2.375s2.112.745,2.112,2.375v4.15c0,1.631-.624,2.375-2.112,2.375s-2.11-.744-2.11-2.375Zm2.806-.372c0-.563-.251-.827-.7-.827s-.695.264-.695.827v4.894c0,.563.252.827.695.827s.7-.264.7-.827Z" fill="none"/>
    <path d="M266.731,189.3c0-1.63.624-2.375,2.112-2.375s2.11.745,2.11,2.375v4.15c0,1.631-.623,2.375-2.11,2.375s-2.112-.744-2.112-2.375Zm2.807-.372c0-.563-.252-.827-.695-.827s-.7.264-.7.827v4.894c0,.563.252.827.7.827s.695-.264.695-.827Z" fill="none"/>
    <path d="M274.032,193.619h-2.591v-1.1l2.519-5.468H275.4v5.468h.792v1.1H275.4v2.087h-1.367Zm.025-1.1v-3.381h-.025l-1.451,3.381Z" fill="none"/>
  </g>
  <g>
    <g>
      <path d="M46.4,85.96v3.677h.02l2.018-3.677h.84l-1.4,2.518,1.659,4.7H48.7l-1.34-3.9h-.019l-.94,1.679v2.219h-.78V85.96Z" fill="#fff"/>
      <path d="M49.873,87.978h.68v.571a2.057,2.057,0,0,1,1.179-.67c.72,0,1.139.4,1.139,1.359v3.938h-.719V89.338c0-.6-.18-.86-.57-.86a1.362,1.362,0,0,0-.989.64v4.058h-.72Z" fill="#fff"/>
      <path d="M55.005,87.879c1.089,0,1.589.819,1.589,2.7s-.5,2.7-1.589,2.7-1.59-.82-1.59-2.7S53.915,87.879,55.005,87.879Zm0,4.8c.609,0,.869-.379.869-2.1s-.26-2.1-.869-2.1-.87.38-.87,2.1S54.4,92.676,55.005,92.676Z" fill="#fff"/>
      <path d="M57.315,87.978l.74,3.819h.02l.839-3.819h.68l.86,3.819h.02l.679-3.819h.68l-1.079,5.2h-.6l-.9-4.038h-.02l-.9,4.038h-.6l-1.1-5.2Z" fill="#fff"/>
      <path d="M63.955,85.96h.72v2.589a1.86,1.86,0,0,1,1.139-.67c.72,0,1.139.4,1.139,1.359v3.938h-.719V89.338c0-.6-.18-.86-.57-.86a1.362,1.362,0,0,0-.989.64v4.058h-.72Z" fill="#fff"/>
      <path d="M69.087,87.879c1.089,0,1.589.819,1.589,2.7s-.5,2.7-1.589,2.7-1.59-.82-1.59-2.7S68,87.879,69.087,87.879Zm0,4.8c.609,0,.869-.379.869-2.1s-.26-2.1-.869-2.1-.87.38-.87,2.1S68.477,92.676,69.087,92.676Z" fill="#fff"/>
      <path d="M71.4,87.978l.74,3.819h.02L73,87.978h.68l.86,3.819h.02l.679-3.819h.68l-1.079,5.2h-.6l-.9-4.038h-.02l-.9,4.038h-.6l-1.1-5.2Z" fill="#fff"/>
      <path d="M48.13,102.676h-.02a1.258,1.258,0,0,1-1.069.6c-.82,0-1.5-.7-1.5-2.7s.679-2.7,1.5-2.7a1.414,1.414,0,0,1,.959.479v-2.4h.72v5.816a5.659,5.659,0,0,0,.12,1.4h-.68ZM48,98.938a1.2,1.2,0,0,0-.779-.46c-.61,0-.96.5-.96,2.1s.38,2.1.979,2.1a1.127,1.127,0,0,0,.76-.5Z" fill="#fff"/>
      <path d="M50.007,100.7v.29c0,1.27.29,1.689.97,1.689.549,0,.779-.509.869-.979l.679.079a1.662,1.662,0,0,1-1.648,1.5c-1.09,0-1.59-.82-1.59-2.7s.5-2.7,1.59-2.7,1.589.979,1.589,2.478v.34Zm1.739-.6c-.019-1.119-.22-1.619-.869-1.619-.52,0-.859.38-.87,1.619Z" fill="#fff"/>
      <path d="M53.211,97.978l1.04,4.478h.02l1.019-4.478h.72l-1.28,5.2h-.959l-1.28-5.2Z" fill="#fff"/>
      <path d="M56.75,100.7v.29c0,1.27.29,1.689.97,1.689.55,0,.779-.509.869-.979l.68.079a1.664,1.664,0,0,1-1.649,1.5c-1.09,0-1.59-.82-1.59-2.7s.5-2.7,1.59-2.7,1.589.979,1.589,2.478v.34Zm1.739-.6c-.019-1.119-.219-1.619-.869-1.619-.519,0-.859.38-.87,1.619Z" fill="#fff"/>
      <path d="M59.773,95.96h.72v7.216h-.72Z" fill="#fff"/>
      <path d="M62.636,97.879c1.09,0,1.589.819,1.589,2.7s-.5,2.7-1.589,2.7-1.589-.82-1.589-2.7S61.547,97.879,62.636,97.879Zm0,4.8c.61,0,.87-.379.87-2.1s-.26-2.1-.87-2.1-.869.38-.869,2.1S62.026,102.676,62.636,102.676Z" fill="#fff"/>
      <path d="M65.4,98.478h.021a1.226,1.226,0,0,1,1.058-.6c.821,0,1.5.7,1.5,2.7s-.679,2.7-1.5,2.7a1.417,1.417,0,0,1-.959-.48v2.079h-.719v-6.9h.6Zm.12,3.739a1.2,1.2,0,0,0,.78.459c.609,0,.96-.5.96-2.1s-.38-2.1-.98-2.1a1.129,1.129,0,0,0-.76.5Z" fill="#fff"/>
      <path d="M68.635,103.176v-5.2h.659v.571a1.683,1.683,0,0,1,1.209-.67.992.992,0,0,1,.93.659,1.71,1.71,0,0,1,1.209-.659c.679,0,1.049.46,1.049,1.2v4.1h-.719v-4c0-.539-.16-.7-.539-.7a1.259,1.259,0,0,0-.911.54v4.158H70.8v-4c0-.539-.19-.7-.57-.7a1.144,1.144,0,0,0-.879.54v4.158Z" fill="#fff"/>
      <path d="M75.012,100.7v.29c0,1.27.29,1.689.969,1.689.55,0,.78-.509.87-.979l.679.079a1.662,1.662,0,0,1-1.648,1.5c-1.09,0-1.59-.82-1.59-2.7s.5-2.7,1.59-2.7,1.589.979,1.589,2.478v.34Zm1.739-.6c-.02-1.119-.22-1.619-.869-1.619-.52,0-.86.38-.87,1.619Z" fill="#fff"/>
      <path d="M78.013,97.978h.679v.571a2.056,2.056,0,0,1,1.18-.67c.72,0,1.139.4,1.139,1.359v3.938h-.719V99.338c0-.6-.181-.86-.57-.86a1.365,1.365,0,0,0-.99.64v4.058h-.719Z" fill="#fff"/>
      <path d="M81.326,97.978h.7V96.24h.72v1.738H83.7v.6h-.959v3.639a.473.473,0,0,0,.52.519,1.563,1.563,0,0,0,.439-.1v.54a2.115,2.115,0,0,1-.68.1c-.678,0-1-.32-1-1.12V98.578h-.7Z" fill="#fff"/>
      <path d="M45.812,105.96h.719v.84h-.719Zm0,2.018h.719v5.2h-.719Z" fill="#fff"/>
      <path d="M47.333,107.978h.68v.571a2.057,2.057,0,0,1,1.179-.67c.72,0,1.139.4,1.139,1.359v3.938h-.719v-3.838c0-.6-.18-.86-.57-.86a1.362,1.362,0,0,0-.989.64v4.058h-.72Z" fill="#fff"/>
      <path d="M55.892,108.138c-.1-1.139-.46-1.619-1.07-1.619-.91,0-1.309.8-1.309,3.049s.4,3.048,1.309,3.048c.73,0,1.149-.5,1.169-1.839h.78c-.02,1.6-.72,2.5-1.949,2.5-1.29,0-2.089-.979-2.089-3.708s.8-3.708,2.089-3.708c1.07,0,1.729.739,1.849,2.278Z" fill="#fff"/>
      <path d="M60.381,113.176H59.7v-.57a2.056,2.056,0,0,1-1.18.67c-.719,0-1.139-.4-1.139-1.359v-3.939h.72v3.838c0,.6.179.86.569.86a1.365,1.365,0,0,0,.99-.639v-4.059h.719Z" fill="#fff"/>
      <path d="M60.72,107.978h.7V106.24h.719v1.738h.96v.6h-.96v3.639a.473.473,0,0,0,.52.519,1.57,1.57,0,0,0,.44-.1v.54a2.129,2.129,0,0,1-.68.1c-.68,0-1-.32-1-1.12v-3.578h-.7Z" fill="#fff"/>
      <path d="M63.226,107.978h.7V106.24h.719v1.738H65.6v.6h-.959v3.639a.473.473,0,0,0,.52.519,1.563,1.563,0,0,0,.439-.1v.54a2.117,2.117,0,0,1-.679.1c-.68,0-1-.32-1-1.12v-3.578h-.7Z" fill="#fff"/>
      <path d="M66.077,105.96h.72v.84h-.72Zm0,2.018h.72v5.2h-.72Z" fill="#fff"/>
      <path d="M67.6,107.978h.679v.571a2.054,2.054,0,0,1,1.179-.67c.72,0,1.14.4,1.14,1.359v3.938h-.72v-3.838c0-.6-.18-.86-.569-.86a1.364,1.364,0,0,0-.99.64v4.058H67.6Z" fill="#fff"/>
      <path d="M74.69,108.538a.781.781,0,0,0-.21-.02.63.63,0,0,0-.45.2,2.97,2.97,0,0,1,.16,1c0,1.3-.6,1.859-1.4,1.859-.159,0-.319-.04-.479-.04-.121.03-.36.139-.36.34,0,.369.589.389,1.259.529.75.16,1.419.4,1.419,1.249,0,.68-.659,1.22-1.759,1.22-1.179,0-1.778-.44-1.778-1.119a1.135,1.135,0,0,1,.759-1.04.7.7,0,0,1,.12-1.389,1.914,1.914,0,0,1-.619-1.489c0-1.24.6-1.959,1.508-1.959a1.088,1.088,0,0,1,.95.479.948.948,0,0,1,.879-.479ZM72.451,112.9c-.419.18-.7.42-.7.709,0,.43.359.73,1.14.73.8,0,1.079-.32,1.079-.74C73.971,113.116,73.071,113.036,72.451,112.9Zm.32-1.859c.42,0,.76-.319.76-1.31s-.34-1.308-.76-1.308-.759.319-.759,1.308S72.352,111.037,72.771,111.037Z" fill="#fff"/>
      <path d="M74.773,113.276l2.319-7.416h.66l-2.319,7.416Z" fill="#fff"/>
      <path d="M45.722,115.96h1.919a1.617,1.617,0,0,1,1.7,1.779,1.537,1.537,0,0,1-1.1,1.6v.02a1.693,1.693,0,0,1,1.259,1.818c0,1.34-.739,2-2.318,2H45.722Zm.779,3.1h.439c1.121,0,1.62-.34,1.62-1.319,0-.819-.36-1.12-1.28-1.12H46.5Zm0,3.458h.779c.94,0,1.44-.41,1.44-1.34,0-.949-.42-1.458-1.44-1.458H46.5Z" fill="#fff"/>
      <path d="M50.671,120.7v.29c0,1.27.29,1.689.97,1.689.549,0,.779-.509.869-.979l.679.079a1.662,1.662,0,0,1-1.648,1.5c-1.09,0-1.59-.82-1.59-2.7s.5-2.7,1.59-2.7,1.589.979,1.589,2.478v.34Zm1.739-.6c-.019-1.119-.22-1.619-.869-1.619-.52,0-.859.38-.87,1.619Z" fill="#fff"/>
      <path d="M53.672,117.978h.68v.571a2.049,2.049,0,0,1,1.178-.67c.72,0,1.14.4,1.14,1.359v3.938h-.72v-3.838c0-.6-.179-.86-.569-.86a1.36,1.36,0,0,0-.989.64v4.058h-.72Z" fill="#fff"/>
      <path d="M59.858,122.676h-.02a1.257,1.257,0,0,1-1.069.6c-.82,0-1.5-.7-1.5-2.7s.679-2.7,1.5-2.7a1.423,1.423,0,0,1,.96.479v-2.4h.719v5.816a5.672,5.672,0,0,0,.119,1.4h-.679Zm-.129-3.738a1.2,1.2,0,0,0-.781-.46c-.609,0-.959.5-.959,2.1s.38,2.1.98,2.1a1.131,1.131,0,0,0,.76-.5Z" fill="#fff"/>
      <path d="M61.3,115.96h.719v.84H61.3Zm0,2.018h.719v5.2H61.3Z" fill="#fff"/>
      <path d="M62.823,117.978h.68v.571a2.054,2.054,0,0,1,1.179-.67c.719,0,1.139.4,1.139,1.359v3.938H65.1v-3.838c0-.6-.18-.86-.57-.86a1.362,1.362,0,0,0-.989.64v4.058h-.72Z" fill="#fff"/>
      <path d="M69.914,118.538a.781.781,0,0,0-.21-.02.628.628,0,0,0-.449.2,3.021,3.021,0,0,1,.16,1c0,1.3-.6,1.859-1.4,1.859-.161,0-.321-.04-.48-.04-.12.03-.36.139-.36.34,0,.369.59.389,1.26.529.749.16,1.418.4,1.418,1.249,0,.68-.659,1.22-1.758,1.22-1.18,0-1.78-.44-1.78-1.119a1.136,1.136,0,0,1,.76-1.04.7.7,0,0,1,.12-1.389,1.914,1.914,0,0,1-.62-1.489c0-1.24.6-1.959,1.509-1.959a1.088,1.088,0,0,1,.95.479.948.948,0,0,1,.879-.479ZM67.676,122.9c-.42.18-.7.42-.7.709,0,.43.36.73,1.139.73.8,0,1.08-.32,1.08-.74C69.195,123.116,68.3,123.036,67.676,122.9ZM68,121.037c.42,0,.76-.319.76-1.31s-.34-1.308-.76-1.308-.759.319-.759,1.308S67.576,121.037,68,121.037Z" fill="#fff"/>
      <path d="M70,123.276l2.319-7.416h.66l-2.319,7.416Z" fill="#fff"/>
      <path d="M48.3,127.819c-.06-.74-.36-1.3-1.11-1.3a.924.924,0,0,0-.989.949c0,1.63,2.9,1.65,2.9,3.968a1.682,1.682,0,0,1-1.849,1.84,1.835,1.835,0,0,1-1.829-2.039h.72c.019.85.419,1.379,1.188,1.379a1.04,1.04,0,0,0,1.07-1.19c0-1.638-2.9-1.829-2.9-3.887a1.61,1.61,0,0,1,1.738-1.679c1.04,0,1.72.7,1.78,1.959Z" fill="#fff"/>
      <path d="M49.287,127.978h.7V126.24h.72v1.738h.959v.6h-.959v3.639a.473.473,0,0,0,.52.519,1.563,1.563,0,0,0,.439-.1v.54a2.115,2.115,0,0,1-.68.1c-.678,0-1-.32-1-1.12v-3.578h-.7Z" fill="#fff"/>
      <path d="M52.094,129.4a1.59,1.59,0,0,1,1.539-1.519,1.354,1.354,0,0,1,1.489,1.479v2.9a2.141,2.141,0,0,0,.13.919H54.5l-.09-.44a1.91,1.91,0,0,1-1.109.54,1.262,1.262,0,0,1-1.35-1.34c0-1.279,1.409-1.928,2.448-2.158v-.37c0-.569-.289-.93-.749-.93-.549,0-.819.55-.9,1.02Zm2.308.98c-.659.2-1.728.679-1.728,1.5,0,.489.22.8.739.8a1.468,1.468,0,0,0,.989-.54Z" fill="#fff"/>
      <path d="M55.986,133.176v-5.2h.66v.571a1.681,1.681,0,0,1,1.208-.67.991.991,0,0,1,.93.659,1.71,1.71,0,0,1,1.209-.659c.68,0,1.05.46,1.05,1.2v4.1h-.72v-4c0-.539-.16-.7-.539-.7a1.259,1.259,0,0,0-.91.54v4.158h-.72v-4c0-.539-.189-.7-.569-.7a1.148,1.148,0,0,0-.88.54v4.158Z" fill="#fff"/>
      <path d="M62.523,128.478h.021a1.227,1.227,0,0,1,1.059-.6c.82,0,1.5.7,1.5,2.7s-.68,2.7-1.5,2.7a1.413,1.413,0,0,1-.959-.48v2.079h-.72v-6.9h.6Zm.121,3.739a1.2,1.2,0,0,0,.779.459c.609,0,.96-.5.96-2.1s-.38-2.1-.98-2.1a1.127,1.127,0,0,0-.759.5Z" fill="#fff"/>
      <path d="M65.732,125.96h.72v.84h-.72Zm0,2.018h.72v5.2h-.72Z" fill="#fff"/>
      <path d="M67.255,127.978h.68v.571a2.049,2.049,0,0,1,1.178-.67c.72,0,1.14.4,1.14,1.359v3.938h-.72v-3.838c0-.6-.179-.86-.569-.86a1.36,1.36,0,0,0-.989.64v4.058h-.72Z" fill="#fff"/>
      <path d="M74.346,128.538a.784.784,0,0,0-.21-.02.626.626,0,0,0-.45.2,3,3,0,0,1,.16,1c0,1.3-.6,1.859-1.4,1.859-.159,0-.319-.04-.479-.04-.12.03-.36.139-.36.34,0,.369.589.389,1.259.529.75.16,1.419.4,1.419,1.249,0,.68-.659,1.22-1.759,1.22-1.178,0-1.778-.44-1.778-1.119a1.135,1.135,0,0,1,.759-1.04.7.7,0,0,1,.12-1.389,1.917,1.917,0,0,1-.619-1.489c0-1.24.6-1.959,1.509-1.959a1.088,1.088,0,0,1,.949.479.949.949,0,0,1,.88-.479Zm-2.24,4.358c-.418.18-.7.42-.7.709,0,.43.36.73,1.14.73.8,0,1.079-.32,1.079-.74C73.626,133.116,72.727,133.036,72.106,132.9Zm.321-1.859c.42,0,.76-.319.76-1.31s-.34-1.308-.76-1.308-.76.319-.76,1.308S72.007,131.037,72.427,131.037Z" fill="#fff"/>
    </g>
    <g>
      <path d="M111.344,85.96h3.1v.659h-2.318v2.459h1.739v.66h-1.739v3.438h-.779Z" fill="#fff"/>
      <path d="M114.874,85.96h.72v.84h-.72Zm0,2.018h.72v5.2h-.72Z" fill="#fff"/>
      <path d="M116.365,87.978h.72v.63h.02a1.331,1.331,0,0,1,1.319-.729v.679a1.378,1.378,0,0,0-1.339.92v3.7h-.72Z" fill="#fff"/>
      <path d="M120.813,89.3c-.129-.45-.319-.82-.9-.82a.583.583,0,0,0-.579.62c0,1.059,2.2,1.12,2.2,2.739a1.392,1.392,0,0,1-1.419,1.439,1.607,1.607,0,0,1-1.659-1.38l.66-.139c.15.46.419.919.949.919a.791.791,0,0,0,.749-.79c0-1.2-2.2-1.219-2.2-2.748a1.29,1.29,0,0,1,1.35-1.259,1.4,1.4,0,0,1,1.449,1.239Z" fill="#fff"/>
      <path d="M121.6,87.978h.7V86.24h.719v1.738h.959v.6h-.959v3.639a.473.473,0,0,0,.52.519,1.563,1.563,0,0,0,.439-.1v.54a2.117,2.117,0,0,1-.679.1c-.68,0-1-.32-1-1.12V88.578h-.7Z" fill="#fff"/>
      <path d="M126.591,90.7v.29c0,1.27.29,1.689.97,1.689.548,0,.779-.509.869-.979l.679.079a1.664,1.664,0,0,1-1.649,1.5c-1.089,0-1.589-.82-1.589-2.7s.5-2.7,1.589-2.7,1.589.979,1.589,2.478v.34Zm1.739-.6c-.02-1.119-.221-1.619-.87-1.619-.52,0-.859.38-.869,1.619Z" fill="#fff"/>
      <path d="M129.614,85.96h.72v7.216h-.72Z" fill="#fff"/>
      <path d="M131.606,90.7v.29c0,1.27.29,1.689.97,1.689.549,0,.779-.509.869-.979l.68.079a1.664,1.664,0,0,1-1.649,1.5c-1.089,0-1.589-.82-1.589-2.7s.5-2.7,1.589-2.7,1.588.979,1.588,2.478v.34Zm1.74-.6c-.021-1.119-.221-1.619-.87-1.619-.52,0-.86.38-.87,1.619Z" fill="#fff"/>
      <path d="M136.767,89.517c-.071-.779-.38-1.039-.82-1.039-.61,0-.87.38-.87,2.1s.26,2.1.87,2.1c.459,0,.72-.24.839-1.139h.7c-.12,1.019-.6,1.739-1.539,1.739-1.09,0-1.59-.82-1.59-2.7s.5-2.7,1.59-2.7c.94,0,1.379.62,1.519,1.638Z" fill="#fff"/>
      <path d="M137.55,87.978h.7V86.24h.72v1.738h.959v.6h-.959v3.639a.473.473,0,0,0,.519.519,1.562,1.562,0,0,0,.44-.1v.54a2.119,2.119,0,0,1-.68.1c-.679,0-1-.32-1-1.12V88.578h-.7Z" fill="#fff"/>
      <path d="M140.4,85.96h.72v.84h-.72Zm0,2.018h.72v5.2h-.72Z" fill="#fff"/>
      <path d="M143.267,87.879c1.089,0,1.588.819,1.588,2.7s-.5,2.7-1.588,2.7-1.589-.82-1.589-2.7S142.178,87.879,143.267,87.879Zm0,4.8c.61,0,.87-.379.87-2.1s-.26-2.1-.87-2.1-.87.38-.87,2.1S142.657,92.676,143.267,92.676Z" fill="#fff"/>
      <path d="M145.4,87.978h.68v.571a2.056,2.056,0,0,1,1.18-.67c.719,0,1.138.4,1.138,1.359v3.938h-.718V89.338c0-.6-.181-.86-.571-.86a1.362,1.362,0,0,0-.989.64v4.058h-.72Z" fill="#fff"/>
      <path d="M112.623,97.879c1.089,0,1.589.819,1.589,2.7s-.5,2.7-1.589,2.7-1.59-.82-1.59-2.7S111.533,97.879,112.623,97.879Zm0,4.8c.609,0,.869-.379.869-2.1s-.26-2.1-.869-2.1-.87.38-.87,2.1S112.013,102.676,112.623,102.676Z" fill="#fff"/>
      <path d="M114.276,97.978h.8V96.92c0-.7.28-1.06,1.06-1.06a3.2,3.2,0,0,1,.559.06v.559a.92.92,0,0,0-.389-.08c-.35,0-.51.22-.51.55v1.029h.84v.6h-.84v4.6h-.72v-4.6h-.8Z" fill="#fff"/>
      <path d="M118.656,95.96h1.7a1.98,1.98,0,0,1,0,3.958h-.919v3.258h-.78Zm.78,3.3h.819c.78,0,1.239-.419,1.239-1.32s-.459-1.319-1.239-1.319h-.819Z" fill="#fff"/>
      <path d="M122.728,97.978h.719v.63h.02a1.331,1.331,0,0,1,1.319-.729v.679a1.377,1.377,0,0,0-1.339.92v3.7h-.719Z" fill="#fff"/>
      <path d="M125.5,100.7v.29c0,1.27.29,1.689.97,1.689.55,0,.779-.509.869-.979l.68.079a1.664,1.664,0,0,1-1.649,1.5c-1.09,0-1.59-.82-1.59-2.7s.5-2.7,1.59-2.7,1.589.979,1.589,2.478v.34Zm1.739-.6c-.019-1.119-.219-1.619-.869-1.619-.519,0-.859.38-.87,1.619Z" fill="#fff"/>
      <path d="M128.016,97.978h.8V96.92c0-.7.281-1.06,1.06-1.06a3.213,3.213,0,0,1,.56.06v.559a.925.925,0,0,0-.39-.08c-.35,0-.51.22-.51.55v1.029h.84v.6h-.84v4.6h-.72v-4.6h-.8Z" fill="#fff"/>
      <path d="M131.18,100.7v.29c0,1.27.29,1.689.969,1.689.549,0,.78-.509.87-.979l.679.079a1.664,1.664,0,0,1-1.649,1.5c-1.089,0-1.589-.82-1.589-2.7s.5-2.7,1.589-2.7,1.589.979,1.589,2.478v.34Zm1.739-.6c-.021-1.119-.221-1.619-.87-1.619-.52,0-.86.38-.869,1.619Z" fill="#fff"/>
      <path d="M134.154,97.978h.72v.63h.02a1.331,1.331,0,0,1,1.319-.729v.679a1.377,1.377,0,0,0-1.339.92v3.7h-.72Z" fill="#fff"/>
      <path d="M136.505,97.978h.72v.63h.019a1.331,1.331,0,0,1,1.319-.729v.679a1.375,1.375,0,0,0-1.338.92v3.7h-.72Z" fill="#fff"/>
      <path d="M139.275,100.7v.29c0,1.27.29,1.689.97,1.689.549,0,.779-.509.869-.979l.68.079a1.664,1.664,0,0,1-1.649,1.5c-1.089,0-1.589-.82-1.589-2.7s.5-2.7,1.589-2.7,1.588.979,1.588,2.478v.34Zm1.74-.6c-.021-1.119-.221-1.619-.87-1.619-.52,0-.86.38-.87,1.619Z" fill="#fff"/>
      <path d="M144.683,102.676h-.021a1.257,1.257,0,0,1-1.069.6c-.82,0-1.5-.7-1.5-2.7s.679-2.7,1.5-2.7a1.423,1.423,0,0,1,.96.479v-2.4h.719v5.816a5.659,5.659,0,0,0,.12,1.4h-.68Zm-.13-3.738a1.2,1.2,0,0,0-.781-.46c-.609,0-.959.5-.959,2.1s.38,2.1.98,2.1a1.131,1.131,0,0,0,.76-.5Z" fill="#fff"/>
      <path d="M113.422,109.3c-.13-.45-.319-.82-.9-.82a.584.584,0,0,0-.579.62c0,1.059,2.2,1.12,2.2,2.739a1.393,1.393,0,0,1-1.419,1.439,1.607,1.607,0,0,1-1.66-1.38l.661-.139c.149.46.419.919.949.919a.791.791,0,0,0,.749-.79c0-1.2-2.2-1.219-2.2-2.748a1.289,1.289,0,0,1,1.349-1.259,1.4,1.4,0,0,1,1.449,1.239Z" fill="#fff"/>
      <path d="M117.66,113.176h-.68v-.57a2.051,2.051,0,0,1-1.179.67c-.72,0-1.139-.4-1.139-1.359v-3.939h.719v3.838c0,.6.181.86.57.86a1.362,1.362,0,0,0,.989-.639v-4.059h.72Z" fill="#fff"/>
      <path d="M119.084,108.478h.02a1.228,1.228,0,0,1,1.059-.6c.82,0,1.5.7,1.5,2.7s-.68,2.7-1.5,2.7a1.413,1.413,0,0,1-.959-.48v2.079h-.72v-6.9h.6Zm.12,3.739a1.2,1.2,0,0,0,.779.459c.61,0,.96-.5.96-2.1s-.38-2.1-.979-2.1a1.129,1.129,0,0,0-.76.5Z" fill="#fff"/>
      <path d="M122.9,108.478h.02a1.227,1.227,0,0,1,1.059-.6c.82,0,1.5.7,1.5,2.7s-.679,2.7-1.5,2.7a1.42,1.42,0,0,1-.96-.48v2.079h-.718v-6.9h.6Zm.119,3.739a1.2,1.2,0,0,0,.781.459c.609,0,.959-.5.959-2.1s-.38-2.1-.98-2.1a1.131,1.131,0,0,0-.76.5Z" fill="#fff"/>
      <path d="M126.113,105.96h.72v7.216h-.72Z" fill="#fff"/>
      <path d="M127.648,105.96h.72v.84h-.72Zm0,2.018h.72v5.2h-.72Z" fill="#fff"/>
      <path d="M129.645,110.7v.29c0,1.27.29,1.689.969,1.689.55,0,.78-.509.869-.979l.68.079a1.662,1.662,0,0,1-1.648,1.5c-1.09,0-1.59-.82-1.59-2.7s.5-2.7,1.59-2.7,1.589.979,1.589,2.478v.34Zm1.739-.6c-.02-1.119-.22-1.619-.869-1.619-.52,0-.86.38-.87,1.619Z" fill="#fff"/>
      <path d="M132.614,107.978h.72v.63h.02a1.331,1.331,0,0,1,1.319-.729v.679a1.377,1.377,0,0,0-1.339.92v3.7h-.72Z" fill="#fff"/>
      <path d="M113.922,117.819c-.06-.74-.36-1.3-1.11-1.3a.924.924,0,0,0-.989.949c0,1.63,2.9,1.65,2.9,3.968a1.681,1.681,0,0,1-1.849,1.84,1.835,1.835,0,0,1-1.829-2.039h.72c.019.85.419,1.379,1.188,1.379a1.04,1.04,0,0,0,1.07-1.19c0-1.638-2.9-1.829-2.9-3.887a1.61,1.61,0,0,1,1.738-1.679c1.04,0,1.72.7,1.78,1.959Z" fill="#fff"/>
      <path d="M117.49,119.517c-.07-.779-.38-1.039-.819-1.039-.61,0-.87.38-.87,2.1s.26,2.1.87,2.1c.459,0,.72-.24.839-1.139h.7c-.12,1.019-.6,1.739-1.539,1.739-1.09,0-1.59-.82-1.59-2.7s.5-2.7,1.59-2.7c.939,0,1.379.62,1.518,1.638Z" fill="#fff"/>
      <path d="M118.72,115.96h.718v2.589a1.862,1.862,0,0,1,1.14-.67c.72,0,1.14.4,1.14,1.359v3.938H121v-3.838c0-.6-.18-.86-.569-.86a1.365,1.365,0,0,0-.991.64v4.058h-.718Z" fill="#fff"/>
      <path d="M122.511,117.978h.679v.571a2.054,2.054,0,0,1,1.179-.67c.72,0,1.14.4,1.14,1.359v3.938h-.72v-3.838c0-.6-.18-.86-.569-.86a1.365,1.365,0,0,0-.991.64v4.058h-.718Z" fill="#fff"/>
      <path d="M126.772,120.7v.29c0,1.27.29,1.689.97,1.689.549,0,.779-.509.869-.979l.68.079a1.664,1.664,0,0,1-1.649,1.5c-1.089,0-1.589-.82-1.589-2.7s.5-2.7,1.589-2.7,1.588.979,1.588,2.478v.34Zm1.74-.6c-.021-1.119-.221-1.619-.87-1.619-.52,0-.86.38-.87,1.619Z" fill="#fff"/>
      <path d="M129.8,115.96h.72v.84h-.72Zm0,2.018h.72v5.2h-.72Z" fill="#fff"/>
      <path d="M133.729,122.676h-.02a1.257,1.257,0,0,1-1.069.6c-.82,0-1.5-.7-1.5-2.7s.679-2.7,1.5-2.7a1.423,1.423,0,0,1,.96.479v-2.4h.719v5.816a5.672,5.672,0,0,0,.119,1.4h-.679Zm-.129-3.738a1.2,1.2,0,0,0-.781-.46c-.609,0-.959.5-.959,2.1s.38,2.1.98,2.1a1.131,1.131,0,0,0,.76-.5Z" fill="#fff"/>
      <path d="M135.6,120.7v.29c0,1.27.291,1.689.97,1.689.55,0,.779-.509.869-.979l.68.079a1.662,1.662,0,0,1-1.648,1.5c-1.09,0-1.59-.82-1.59-2.7s.5-2.7,1.59-2.7,1.588.979,1.588,2.478v.34Zm1.74-.6c-.02-1.119-.22-1.619-.869-1.619-.52,0-.86.38-.871,1.619Z" fill="#fff"/>
      <path d="M138.575,117.978h.72v.63h.02a1.331,1.331,0,0,1,1.319-.729v.679a1.378,1.378,0,0,0-1.339.92v3.7h-.72Z" fill="#fff"/>
    </g>
    <g>
      <path d="M149.937,17.663,151.2,23.12h.021l1.229-5.457h1.24V24.88h-.72V18.262h-.021l-1.5,6.618h-.509l-1.5-6.618h-.02V24.88h-.72V17.663Z" fill="#fff"/>
      <path d="M154.367,21.1a1.589,1.589,0,0,1,1.539-1.518,1.354,1.354,0,0,1,1.49,1.478v2.9a2.152,2.152,0,0,0,.129.92h-.75l-.089-.441a1.9,1.9,0,0,1-1.11.54,1.262,1.262,0,0,1-1.349-1.34c0-1.279,1.41-1.928,2.449-2.158v-.37c0-.569-.29-.929-.75-.929-.55,0-.82.549-.9,1.02Zm2.309.98c-.66.2-1.73.679-1.73,1.5,0,.489.221.8.741.8a1.472,1.472,0,0,0,.989-.54Z" fill="#fff"/>
      <path d="M157.529,25.938a1.138,1.138,0,0,0,.24.041c.32,0,.5-.18.5-.64V19.682h.719V25.4c0,.86-.34,1.18-1.059,1.18a2.857,2.857,0,0,1-.4-.041Zm.74-8.275h.719v.84h-.719Z" fill="#fff"/>
      <path d="M161.115,19.583c1.089,0,1.589.818,1.589,2.7s-.5,2.7-1.589,2.7-1.59-.82-1.59-2.7S160.025,19.583,161.115,19.583Zm0,4.8c.61,0,.869-.38.869-2.1s-.259-2.1-.869-2.1-.87.379-.87,2.1S160.505,24.38,161.115,24.38Z" fill="#fff"/>
      <path d="M163.226,19.682h.719v.629h.021a1.331,1.331,0,0,1,1.318-.728v.678a1.38,1.38,0,0,0-1.339.92v3.7h-.719Z" fill="#fff"/>
      <path d="M166.745,19.682h.8V18.623c0-.7.28-1.06,1.059-1.06a3.2,3.2,0,0,1,.56.061v.558a.925.925,0,0,0-.39-.08c-.349,0-.509.221-.509.551v1.029h.839v.6h-.839v4.6h-.72v-4.6h-.8Z" fill="#fff"/>
      <path d="M169.489,19.682h.72v.629h.02a1.331,1.331,0,0,1,1.319-.728v.678a1.379,1.379,0,0,0-1.339.92v3.7h-.72Z" fill="#fff"/>
      <path d="M171.713,21.1a1.589,1.589,0,0,1,1.539-1.518,1.353,1.353,0,0,1,1.489,1.478v2.9a2.147,2.147,0,0,0,.13.92h-.75l-.09-.441a1.9,1.9,0,0,1-1.109.54,1.262,1.262,0,0,1-1.35-1.34c0-1.279,1.41-1.928,2.449-2.158v-.37c0-.569-.29-.929-.75-.929-.549,0-.819.549-.9,1.02Zm2.308.98c-.66.2-1.729.679-1.729,1.5,0,.489.221.8.74.8a1.468,1.468,0,0,0,.989-.54Z" fill="#fff"/>
      <path d="M175.6,24.88v-5.2h.66v.57a1.689,1.689,0,0,1,1.21-.669.992.992,0,0,1,.929.658,1.714,1.714,0,0,1,1.209-.658c.68,0,1.05.459,1.05,1.2v4.1h-.72v-4c0-.54-.16-.7-.54-.7a1.258,1.258,0,0,0-.909.539V24.88h-.72v-4c0-.54-.19-.7-.57-.7a1.143,1.143,0,0,0-.879.539V24.88Z" fill="#fff"/>
      <path d="M181.982,22.4v.289c0,1.27.29,1.69.97,1.69.549,0,.779-.51.869-.98l.68.079a1.664,1.664,0,0,1-1.649,1.5c-1.089,0-1.589-.82-1.589-2.7s.5-2.7,1.589-2.7,1.588.978,1.588,2.478v.34Zm1.74-.6c-.021-1.12-.221-1.619-.87-1.619-.52,0-.86.379-.87,1.619Z" fill="#fff"/>
      <path d="M148.757,31.1a1.59,1.59,0,0,1,1.539-1.518,1.353,1.353,0,0,1,1.489,1.478v2.9a2.147,2.147,0,0,0,.13.92h-.749l-.09-.441a1.9,1.9,0,0,1-1.109.54,1.262,1.262,0,0,1-1.35-1.34c0-1.279,1.409-1.928,2.448-2.158v-.37c0-.569-.289-.929-.749-.929-.549,0-.819.549-.9,1.02Zm2.308.98c-.659.2-1.728.679-1.728,1.5,0,.489.22.8.739.8a1.468,1.468,0,0,0,.989-.54Z" fill="#fff"/>
      <path d="M155.994,30.241a.784.784,0,0,0-.21-.02.625.625,0,0,0-.45.2,2.959,2.959,0,0,1,.16,1c0,1.3-.6,1.859-1.4,1.859-.159,0-.32-.04-.48-.04-.12.03-.359.14-.359.34,0,.37.589.389,1.259.53.75.159,1.419.4,1.419,1.248,0,.68-.66,1.221-1.759,1.221-1.179,0-1.779-.441-1.779-1.12a1.138,1.138,0,0,1,.759-1.04.7.7,0,0,1,.12-1.389,1.915,1.915,0,0,1-.619-1.489c0-1.24.6-1.958,1.509-1.958a1.086,1.086,0,0,1,.949.478.949.949,0,0,1,.88-.478ZM153.755,34.6c-.419.18-.7.42-.7.71,0,.43.359.729,1.139.729.8,0,1.079-.32,1.079-.738C155.274,34.819,154.375,34.739,153.755,34.6Zm.32-1.858c.42,0,.76-.32.76-1.311s-.34-1.308-.76-1.308-.76.32-.76,1.308S153.655,32.741,154.075,32.741Z" fill="#fff"/>
      <path d="M156.447,29.682h.72v.629h.02a1.331,1.331,0,0,1,1.319-.728v.678a1.379,1.379,0,0,0-1.339.92v3.7h-.72Z" fill="#fff"/>
      <path d="M159.218,32.4v.289c0,1.27.29,1.69.97,1.69.548,0,.779-.51.869-.98l.679.079a1.664,1.664,0,0,1-1.649,1.5c-1.089,0-1.589-.82-1.589-2.7s.5-2.7,1.589-2.7,1.589.978,1.589,2.478v.34Zm1.739-.6c-.02-1.12-.221-1.619-.87-1.619-.52,0-.859.379-.869,1.619Z" fill="#fff"/>
      <path d="M162.688,32.4v.289c0,1.27.291,1.69.97,1.69.55,0,.78-.51.869-.98l.68.079a1.662,1.662,0,0,1-1.648,1.5c-1.09,0-1.59-.82-1.59-2.7s.5-2.7,1.59-2.7,1.588.978,1.588,2.478v.34Zm1.74-.6c-.02-1.12-.22-1.619-.869-1.619-.52,0-.86.379-.871,1.619Z" fill="#fff"/>
      <path d="M165.729,34.88v-5.2h.661v.57a1.689,1.689,0,0,1,1.209-.669.991.991,0,0,1,.929.658,1.718,1.718,0,0,1,1.209-.658c.68,0,1.05.459,1.05,1.2v4.1h-.72v-4c0-.54-.16-.7-.539-.7a1.258,1.258,0,0,0-.91.539V34.88h-.72v-4c0-.54-.189-.7-.569-.7a1.147,1.147,0,0,0-.88.539V34.88Z" fill="#fff"/>
      <path d="M172.107,32.4v.289c0,1.27.29,1.69.97,1.69.55,0,.779-.51.869-.98l.68.079a1.662,1.662,0,0,1-1.648,1.5c-1.09,0-1.59-.82-1.59-2.7s.5-2.7,1.59-2.7,1.588.978,1.588,2.478v.34Zm1.74-.6c-.02-1.12-.22-1.619-.869-1.619-.52,0-.86.379-.871,1.619Z" fill="#fff"/>
      <path d="M175.108,29.682h.68v.57a2.052,2.052,0,0,1,1.179-.669c.72,0,1.139.4,1.139,1.358V34.88h-.719V31.042c0-.6-.18-.86-.57-.86a1.365,1.365,0,0,0-.99.639V34.88h-.719Z" fill="#fff"/>
      <path d="M178.422,29.682h.7V27.943h.72v1.739h.959v.6h-.959V33.92a.473.473,0,0,0,.519.519,1.561,1.561,0,0,0,.44-.1v.54a2.151,2.151,0,0,1-.68.1c-.679,0-1-.32-1-1.119V30.282h-.7Z" fill="#fff"/>
      <path d="M148.757,41.1a1.59,1.59,0,0,1,1.539-1.518,1.353,1.353,0,0,1,1.489,1.478v2.9a2.147,2.147,0,0,0,.13.92h-.749l-.09-.441a1.9,1.9,0,0,1-1.109.54,1.262,1.262,0,0,1-1.35-1.34c0-1.279,1.409-1.928,2.448-2.158v-.37c0-.569-.289-.929-.749-.929-.549,0-.819.549-.9,1.02Zm2.308.98c-.659.2-1.728.679-1.728,1.5,0,.489.22.8.739.8a1.468,1.468,0,0,0,.989-.54Z" fill="#fff"/>
      <path d="M153.066,42.4v.289c0,1.27.29,1.69.97,1.69.55,0,.779-.51.869-.98l.68.079a1.662,1.662,0,0,1-1.648,1.5c-1.09,0-1.59-.82-1.59-2.7s.5-2.7,1.59-2.7,1.588.978,1.588,2.478v.34Zm1.74-.6c-.02-1.12-.22-1.619-.869-1.619-.52,0-.86.379-.871,1.619Z" fill="#fff"/>
      <path d="M156.036,39.682h.72v.629h.02a1.331,1.331,0,0,1,1.319-.728v.678a1.38,1.38,0,0,0-1.339.92v3.7h-.72Z" fill="#fff"/>
      <path d="M159.677,39.583c1.089,0,1.589.818,1.589,2.7s-.5,2.7-1.589,2.7-1.59-.82-1.59-2.7S158.587,39.583,159.677,39.583Zm0,4.8c.609,0,.869-.38.869-2.1s-.26-2.1-.869-2.1-.87.379-.87,2.1S159.066,44.38,159.677,44.38Z" fill="#fff"/>
      <path d="M163.888,41c-.13-.45-.32-.819-.9-.819a.583.583,0,0,0-.579.619c0,1.059,2.2,1.12,2.2,2.739a1.391,1.391,0,0,1-1.419,1.439,1.607,1.607,0,0,1-1.659-1.379l.66-.14c.15.46.419.92.95.92a.791.791,0,0,0,.749-.789c0-1.2-2.2-1.221-2.2-2.749a1.289,1.289,0,0,1,1.35-1.259,1.4,1.4,0,0,1,1.449,1.238Z" fill="#fff"/>
      <path d="M165.758,40.182h.02a1.226,1.226,0,0,1,1.059-.6c.82,0,1.5.7,1.5,2.7s-.68,2.7-1.5,2.7a1.413,1.413,0,0,1-.959-.48v2.08h-.72v-6.9h.6Zm.12,3.738a1.2,1.2,0,0,0,.779.46c.61,0,.96-.5.96-2.1s-.38-2.1-.979-2.1a1.131,1.131,0,0,0-.76.5Z" fill="#fff"/>
      <path d="M168.864,41.1a1.589,1.589,0,0,1,1.539-1.518,1.354,1.354,0,0,1,1.49,1.478v2.9a2.152,2.152,0,0,0,.129.92h-.75l-.089-.441a1.9,1.9,0,0,1-1.11.54,1.262,1.262,0,0,1-1.349-1.34c0-1.279,1.41-1.928,2.449-2.158v-.37c0-.569-.29-.929-.75-.929-.55,0-.819.549-.9,1.02Zm2.309.98c-.66.2-1.73.679-1.73,1.5,0,.489.221.8.741.8a1.472,1.472,0,0,0,.989-.54Z" fill="#fff"/>
      <path d="M174.862,41.221c-.069-.779-.379-1.039-.819-1.039-.609,0-.869.379-.869,2.1s.26,2.1.869,2.1c.46,0,.72-.241.84-1.14h.7c-.12,1.019-.6,1.739-1.539,1.739-1.089,0-1.589-.82-1.589-2.7s.5-2.7,1.589-2.7c.939,0,1.38.619,1.519,1.638Z" fill="#fff"/>
      <path d="M176.6,42.4v.289c0,1.27.29,1.69.969,1.69.55,0,.78-.51.869-.98l.68.079a1.662,1.662,0,0,1-1.648,1.5c-1.09,0-1.59-.82-1.59-2.7s.5-2.7,1.59-2.7,1.589.978,1.589,2.478v.34Zm1.739-.6c-.02-1.12-.22-1.619-.869-1.619-.52,0-.86.379-.87,1.619Z" fill="#fff"/>
      <path d="M150.036,55.979a7.765,7.765,0,0,1,0-8.416l.481.3a7.732,7.732,0,0,0,0,7.815Z" fill="#fff"/>
      <path d="M153.594,49.522c-.061-.74-.361-1.3-1.11-1.3a.925.925,0,0,0-.99.95c0,1.628,2.9,1.648,2.9,3.966a1.681,1.681,0,0,1-1.849,1.84,1.836,1.836,0,0,1-1.829-2.039h.72c.02.85.419,1.379,1.189,1.379a1.04,1.04,0,0,0,1.069-1.189c0-1.639-2.9-1.829-2.9-3.887a1.611,1.611,0,0,1,1.739-1.68c1.039,0,1.719.7,1.779,1.959Z" fill="#fff"/>
      <path d="M157.214,47.663,158.8,54.88h-.78l-.429-2.139h-1.839l-.43,2.139h-.78l1.59-7.217Zm-1.35,4.418h1.619l-.8-3.878h-.021Z" fill="#fff"/>
      <path d="M159.225,47.663h3.1v.66H160v2.459h1.739v.659H160V54.88h-.779Z" fill="#fff"/>
      <path d="M162.761,47.663H164.5a1.8,1.8,0,0,1,1.979,1.869,1.734,1.734,0,0,1-1.16,1.769l1.22,3.579h-.819l-1.16-3.418-1.02.039V54.88h-.779Zm.779,3.158h.68c1.12,0,1.479-.439,1.479-1.249s-.359-1.249-1.479-1.249h-.68Z" fill="#fff"/>
      <path d="M169.577,47.663l1.59,7.217h-.78l-.43-2.139h-1.839l-.43,2.139h-.779l1.589-7.217Zm-1.348,4.418h1.619l-.8-3.878h-.02Z" fill="#fff"/>
      <path d="M172.756,47.663l1.859,5.317h.021V47.663h.779V54.88h-.84L172.337,48.6h-.021V54.88h-.779V47.663Z" fill="#fff"/>
      <path d="M176.425,47.563a7.765,7.765,0,0,1,0,8.416l-.48-.3a7.738,7.738,0,0,0,0-7.815Z" fill="#fff"/>
      <path d="M149.517,60.182h.02a1.225,1.225,0,0,1,1.059-.6c.82,0,1.5.7,1.5,2.7s-.68,2.7-1.5,2.7a1.413,1.413,0,0,1-.959-.48v2.08h-.72v-6.9h.6Zm.12,3.738a1.2,1.2,0,0,0,.779.46c.609,0,.96-.5.96-2.1s-.38-2.1-.98-2.1a1.129,1.129,0,0,0-.759.5Z" fill="#fff"/>
      <path d="M152.675,59.682h.72v.629h.02a1.331,1.331,0,0,1,1.318-.728v.678a1.378,1.378,0,0,0-1.338.92v3.7h-.72Z" fill="#fff"/>
      <path d="M156.315,59.583c1.089,0,1.589.818,1.589,2.7s-.5,2.7-1.589,2.7-1.589-.82-1.589-2.7S155.226,59.583,156.315,59.583Zm0,4.8c.61,0,.87-.38.87-2.1s-.26-2.1-.87-2.1-.87.379-.87,2.1S155.705,64.38,156.315,64.38Z" fill="#fff"/>
      <path d="M161.73,60.241a.777.777,0,0,0-.209-.02.625.625,0,0,0-.45.2,2.985,2.985,0,0,1,.16,1c0,1.3-.6,1.859-1.4,1.859-.16,0-.32-.04-.479-.04-.121.03-.361.14-.361.34,0,.37.59.389,1.26.53.749.159,1.419.4,1.419,1.248,0,.68-.66,1.221-1.759,1.221-1.18,0-1.779-.441-1.779-1.12a1.137,1.137,0,0,1,.76-1.04.7.7,0,0,1,.12-1.389,1.913,1.913,0,0,1-.62-1.489c0-1.24.6-1.958,1.508-1.958a1.089,1.089,0,0,1,.951.478.945.945,0,0,1,.878-.478ZM159.492,64.6c-.42.18-.7.42-.7.71,0,.43.36.729,1.14.729.8,0,1.079-.32,1.079-.738C161.011,64.819,160.111,64.739,159.492,64.6Zm.32-1.858c.419,0,.759-.32.759-1.311s-.34-1.308-.759-1.308-.759.32-.759,1.308S159.393,62.741,159.812,62.741Z" fill="#fff"/>
      <path d="M162.184,59.682h.719v.629h.021a1.331,1.331,0,0,1,1.318-.728v.678a1.38,1.38,0,0,0-1.339.92v3.7h-.719Z" fill="#fff"/>
      <path d="M164.407,61.1a1.591,1.591,0,0,1,1.539-1.518,1.354,1.354,0,0,1,1.49,1.478v2.9a2.152,2.152,0,0,0,.129.92h-.749l-.089-.441a1.909,1.909,0,0,1-1.11.54,1.262,1.262,0,0,1-1.349-1.34c0-1.279,1.409-1.928,2.448-2.158v-.37c0-.569-.289-.929-.749-.929-.55,0-.82.549-.9,1.02Zm2.309.98c-.659.2-1.729.679-1.729,1.5,0,.489.22.8.74.8a1.472,1.472,0,0,0,.989-.54Z" fill="#fff"/>
      <path d="M168.3,64.88v-5.2h.66v.57a1.689,1.689,0,0,1,1.209-.669.993.993,0,0,1,.93.658,1.716,1.716,0,0,1,1.209-.658c.679,0,1.049.459,1.049,1.2v4.1h-.719v-4c0-.54-.16-.7-.539-.7a1.254,1.254,0,0,0-.91.539V64.88h-.72v-4c0-.54-.19-.7-.57-.7a1.143,1.143,0,0,0-.879.539V64.88Z" fill="#fff"/>
    </g>
    <g>
      <path d="M178.784,84.077h1.7a1.979,1.979,0,0,1,0,3.957h-.92v3.259h-.779Zm.779,3.3h.82c.78,0,1.239-.42,1.239-1.32s-.459-1.319-1.239-1.319h-.82Z" fill="#fff"/>
      <path d="M182.713,87.514A1.591,1.591,0,0,1,184.252,86a1.353,1.353,0,0,1,1.489,1.478v2.9a2.14,2.14,0,0,0,.13.92h-.749l-.09-.441a1.9,1.9,0,0,1-1.109.54,1.262,1.262,0,0,1-1.35-1.339c0-1.279,1.409-1.929,2.448-2.159v-.37c0-.569-.289-.929-.749-.929-.549,0-.819.549-.9,1.02Zm2.308.98c-.659.2-1.728.68-1.728,1.5,0,.49.22.8.739.8a1.468,1.468,0,0,0,.989-.54Z" fill="#fff"/>
      <path d="M186.063,86.1h.7V84.356h.719V86.1h.959v.6h-.959v3.638a.473.473,0,0,0,.52.519,1.555,1.555,0,0,0,.439-.1v.54a2.144,2.144,0,0,1-.679.1c-.679,0-1-.319-1-1.119V86.7h-.7Z" fill="#fff"/>
      <path d="M189.282,88.814V89.1c0,1.27.29,1.69.97,1.69.55,0,.779-.51.869-.98l.68.08a1.662,1.662,0,0,1-1.649,1.5c-1.09,0-1.59-.819-1.59-2.7s.5-2.7,1.59-2.7,1.589.979,1.589,2.478v.34Zm1.739-.6c-.019-1.121-.219-1.62-.869-1.62-.519,0-.859.38-.87,1.62Z" fill="#fff"/>
      <path d="M192.283,86.1h.68v.57A2.052,2.052,0,0,1,194.142,86c.719,0,1.139.4,1.139,1.358v3.939h-.719V87.455c0-.6-.18-.86-.57-.86a1.364,1.364,0,0,0-.99.64v4.058h-.719Z" fill="#fff"/>
      <path d="M195.6,86.1h.7V84.356h.719V86.1h.96v.6h-.96v3.638a.473.473,0,0,0,.52.519,1.577,1.577,0,0,0,.44-.1v.54a2.16,2.16,0,0,1-.68.1c-.68,0-1-.319-1-1.119V86.7h-.7Z" fill="#fff"/>
      <path d="M199.7,86.1h.8V85.036c0-.7.279-1.06,1.06-1.06a3.31,3.31,0,0,1,.559.061V84.6a.908.908,0,0,0-.389-.08c-.351,0-.51.22-.51.55V86.1h.839v.6h-.839v4.6h-.72V86.7h-.8Z" fill="#fff"/>
      <path d="M203.729,86c1.088,0,1.588.819,1.588,2.7s-.5,2.7-1.588,2.7-1.59-.819-1.59-2.7S202.639,86,203.729,86Zm0,4.8c.609,0,.869-.38.869-2.1s-.26-2.1-.869-2.1-.871.38-.871,2.1S203.118,90.793,203.729,90.793Z" fill="#fff"/>
      <path d="M205.839,86.1h.72v.63h.02A1.33,1.33,0,0,1,207.9,86v.679a1.376,1.376,0,0,0-1.338.919v3.7h-.72Z" fill="#fff"/>
      <path d="M209.259,86.1h.7V84.356h.719V86.1h.96v.6h-.96v3.638a.473.473,0,0,0,.52.519,1.569,1.569,0,0,0,.44-.1v.54a2.155,2.155,0,0,1-.68.1c-.68,0-1-.319-1-1.119V86.7h-.7Z" fill="#fff"/>
      <path d="M212.1,84.077h.718v2.588a1.86,1.86,0,0,1,1.14-.669c.72,0,1.14.4,1.14,1.358v3.939h-.72V87.455c0-.6-.18-.86-.569-.86a1.365,1.365,0,0,0-.991.64v4.058H212.1Z" fill="#fff"/>
      <path d="M216.356,88.814V89.1c0,1.27.29,1.69.97,1.69.549,0,.779-.51.869-.98l.68.08a1.663,1.663,0,0,1-1.649,1.5c-1.089,0-1.589-.819-1.589-2.7s.5-2.7,1.589-2.7,1.588.979,1.588,2.478v.34Zm1.74-.6c-.021-1.121-.221-1.62-.87-1.62-.52,0-.86.38-.87,1.62Z" fill="#fff"/>
      <path d="M180.023,94.077l1.259,5.457h.021l1.229-5.457h1.239v7.216h-.719V94.676h-.021l-1.5,6.617h-.51l-1.5-6.617H179.5v6.617h-.72V94.077Z" fill="#fff"/>
      <path d="M186.811,94.077l1.588,7.216h-.779l-.43-2.139h-1.838l-.43,2.139h-.78l1.589-7.216Zm-1.35,4.417h1.619l-.8-3.878h-.02Z" fill="#fff"/>
      <path d="M191.666,96.3c-.06-.94-.34-1.66-1.129-1.66-.87,0-1.29.78-1.29,3.048s.42,3.049,1.29,3.049a1.02,1.02,0,0,0,1.129-1.14V98.574h-.979v-.659h1.758v3.378h-.5l-.1-.54a1.546,1.546,0,0,1-1.309.639c-1.269,0-2.069-.979-2.069-3.708s.8-3.708,2.069-3.708c1.329,0,1.809,1.159,1.908,2.32Z" fill="#fff"/>
      <path d="M195.667,94.077V97.2h2.119V94.077h.779v7.216h-.779V97.854h-2.119v3.439h-.779V94.077Z" fill="#fff"/>
      <path d="M201.311,101.392c-1.22,0-2.04-1.019-2.04-3.708s.82-3.708,2.04-3.708,2.039,1.02,2.039,3.708S202.529,101.392,201.311,101.392Zm0-6.756c-.7,0-1.26.6-1.26,3.048s.559,3.049,1.26,3.049,1.258-.6,1.258-3.049S202.01,94.636,201.311,94.636Z" fill="#fff"/>
      <path d="M205.9,101.392c-1.22,0-2.04-1.019-2.04-3.708s.82-3.708,2.04-3.708,2.039,1.02,2.039,3.708S207.113,101.392,205.9,101.392Zm0-6.756c-.7,0-1.26.6-1.26,3.048s.559,3.049,1.26,3.049,1.258-.6,1.258-3.049S206.594,94.636,205.9,94.636Z" fill="#fff"/>
      <path d="M209.367,94.077v3.678h.021l2.018-3.678h.84l-1.4,2.518,1.659,4.7h-.84l-1.339-3.9h-.02l-.94,1.68v2.219h-.779V94.077Z" fill="#fff"/>
      <path d="M180.982,107.634c-.069-.779-.378-1.039-.819-1.039-.609,0-.869.38-.869,2.1s.26,2.1.869,2.1c.46,0,.72-.241.84-1.14h.7c-.12,1.02-.6,1.739-1.539,1.739-1.089,0-1.589-.819-1.589-2.7s.5-2.7,1.589-2.7c.94,0,1.38.619,1.52,1.638Z" fill="#fff"/>
      <path d="M182.218,107.514A1.59,1.59,0,0,1,183.757,106a1.353,1.353,0,0,1,1.489,1.478v2.9a2.14,2.14,0,0,0,.13.92h-.749l-.09-.441a1.9,1.9,0,0,1-1.109.54,1.262,1.262,0,0,1-1.35-1.339c0-1.279,1.409-1.929,2.448-2.159v-.37c0-.569-.289-.929-.749-.929-.549,0-.819.549-.9,1.02Zm2.308.98c-.659.2-1.728.68-1.728,1.5,0,.49.22.8.739.8a1.468,1.468,0,0,0,.989-.54Z" fill="#fff"/>
      <path d="M186.038,106.1h.72v.63h.02A1.331,1.331,0,0,1,188.1,106v.679a1.378,1.378,0,0,0-1.339.919v3.7h-.72Z" fill="#fff"/>
      <path d="M188.262,107.514A1.59,1.59,0,0,1,189.8,106a1.353,1.353,0,0,1,1.489,1.478v2.9a2.14,2.14,0,0,0,.13.92h-.749l-.09-.441a1.9,1.9,0,0,1-1.109.54,1.262,1.262,0,0,1-1.35-1.339c0-1.279,1.409-1.929,2.448-2.159v-.37c0-.569-.289-.929-.749-.929-.55,0-.819.549-.9,1.02Zm2.308.98c-.659.2-1.728.68-1.728,1.5,0,.49.22.8.739.8a1.468,1.468,0,0,0,.989-.54Z" fill="#fff"/>
      <path d="M192.6,111.293h-.56a5.659,5.659,0,0,0,.12-1.4v-5.816h.719v2.4a1.414,1.414,0,0,1,.96-.479c.819,0,1.5.7,1.5,2.7s-.68,2.7-1.5,2.7a1.285,1.285,0,0,1-1.079-.6Zm.279-1a1.131,1.131,0,0,0,.76.5c.6,0,.979-.5.979-2.1s-.35-2.1-.959-2.1a1.2,1.2,0,0,0-.78.459Z" fill="#fff"/>
      <path d="M195.972,104.077h.719v.839h-.719Zm0,2.018h.719v5.2h-.719Z" fill="#fff"/>
      <path d="M197.493,106.1h.68v.57a2.054,2.054,0,0,1,1.18-.669c.719,0,1.138.4,1.138,1.358v3.939h-.719v-3.838c0-.6-.18-.86-.57-.86a1.362,1.362,0,0,0-.989.64v4.058h-.72Z" fill="#fff"/>
      <path d="M201.755,108.814v.289c0,1.27.29,1.69.97,1.69.549,0,.779-.51.869-.98l.679.08a1.661,1.661,0,0,1-1.648,1.5c-1.09,0-1.59-.819-1.59-2.7s.5-2.7,1.59-2.7,1.589.979,1.589,2.478v.34Zm1.739-.6c-.019-1.121-.22-1.62-.869-1.62-.52,0-.859.38-.87,1.62Z" fill="#fff"/>
      <path d="M204.725,106.1h.719v.63h.02a1.331,1.331,0,0,1,1.319-.729v.679a1.378,1.378,0,0,0-1.339.919v3.7h-.719Z" fill="#fff"/>
    </g>
    <g>
      <path d="M212.927,28.512h-.588v-.4a4.517,4.517,0,0,0,.881-.558h.378v4.39h-.671Z" fill="#fff"/>
      <path d="M214.5,31.942v-.707h.708v.707Z" fill="#fff"/>
      <path d="M219.87,26.905c-.1-1.14-.461-1.619-1.07-1.619-.909,0-1.309.8-1.309,3.049s.4,3.048,1.309,3.048c.73,0,1.149-.5,1.17-1.839h.779c-.02,1.6-.72,2.5-1.949,2.5-1.289,0-2.088-.98-2.088-3.708s.8-3.708,2.088-3.708c1.07,0,1.729.739,1.849,2.278Z" fill="#fff"/>
      <path d="M221.89,29.464v.29c0,1.269.29,1.689.969,1.689.55,0,.78-.51.87-.979l.679.079a1.664,1.664,0,0,1-1.649,1.5c-1.089,0-1.589-.821-1.589-2.7s.5-2.7,1.589-2.7,1.59.98,1.59,2.479v.34Zm1.739-.6c-.021-1.119-.22-1.619-.87-1.619-.52,0-.86.38-.869,1.619Z" fill="#fff"/>
      <path d="M224.859,26.745h.72v.63h.02a1.332,1.332,0,0,1,1.319-.73v.68a1.377,1.377,0,0,0-1.339.92v3.7h-.72Z" fill="#fff"/>
      <path d="M226.911,26.745h.7V25.007h.719v1.738h.96v.6h-.96v3.639a.474.474,0,0,0,.521.52,1.571,1.571,0,0,0,.439-.1v.539a2.094,2.094,0,0,1-.68.1c-.678,0-1-.321-1-1.12V27.344h-.7Z" fill="#fff"/>
      <path d="M229.762,24.726h.719v.84h-.719Zm0,2.019h.719v5.2h-.719Z" fill="#fff"/>
      <path d="M230.851,26.745h.8V25.686c0-.7.281-1.059,1.06-1.059a3.326,3.326,0,0,1,.56.059v.56a.909.909,0,0,0-.39-.08c-.35,0-.51.219-.51.55v1.029h.84v.6h-.84v4.6h-.72v-4.6h-.8Zm3.048-2.019h.72v.84h-.72Zm0,2.019h.72v5.2h-.72Z" fill="#fff"/>
      <path d="M237.586,28.284c-.069-.779-.38-1.039-.819-1.039-.61,0-.87.38-.87,2.1s.26,2.1.87,2.1c.46,0,.719-.24.839-1.14h.7c-.12,1.02-.6,1.74-1.539,1.74-1.09,0-1.59-.821-1.59-2.7s.5-2.7,1.59-2.7c.939,0,1.379.62,1.519,1.639Z" fill="#fff"/>
      <path d="M238.821,28.165a1.591,1.591,0,0,1,1.539-1.52,1.356,1.356,0,0,1,1.491,1.48v2.9a2.148,2.148,0,0,0,.128.919h-.749l-.089-.439a1.915,1.915,0,0,1-1.11.54,1.263,1.263,0,0,1-1.349-1.34c0-1.279,1.409-1.929,2.448-2.158v-.37c0-.57-.289-.93-.749-.93-.55,0-.819.55-.9,1.019Zm2.309.979c-.659.2-1.729.68-1.729,1.5,0,.49.221.8.741.8a1.472,1.472,0,0,0,.988-.54Z" fill="#fff"/>
      <path d="M242.172,26.745h.7V25.007h.719v1.738h.959v.6h-.959v3.639a.473.473,0,0,0,.519.52,1.554,1.554,0,0,0,.44-.1v.539a2.085,2.085,0,0,1-.68.1c-.679,0-1-.321-1-1.12V27.344h-.7Z" fill="#fff"/>
      <path d="M245.023,24.726h.72v.84h-.72Zm0,2.019h.72v5.2h-.72Z" fill="#fff"/>
      <path d="M247.89,26.645c1.089,0,1.588.82,1.588,2.7s-.5,2.7-1.588,2.7-1.59-.821-1.59-2.7S246.8,26.645,247.89,26.645Zm0,4.8c.609,0,.869-.38.869-2.1s-.26-2.1-.869-2.1-.87.38-.87,2.1S247.279,31.443,247.89,31.443Z" fill="#fff"/>
      <path d="M250.027,26.745h.68v.57a2.06,2.06,0,0,1,1.179-.67c.72,0,1.139.4,1.139,1.36v3.937h-.719V28.1c0-.6-.18-.859-.57-.859a1.363,1.363,0,0,0-.989.639v4.058h-.72Z" fill="#fff"/>
      <path d="M219.364,34.726v7.216h-.779V34.726Z" fill="#fff"/>
      <path d="M222.837,36.586c-.061-.741-.359-1.3-1.109-1.3a.925.925,0,0,0-.991.949c0,1.63,2.9,1.649,2.9,3.968a1.681,1.681,0,0,1-1.848,1.84A1.837,1.837,0,0,1,219.958,40h.721c.019.849.419,1.379,1.188,1.379a1.04,1.04,0,0,0,1.07-1.19c0-1.639-2.9-1.829-2.9-3.888a1.61,1.61,0,0,1,1.739-1.678c1.04,0,1.72.7,1.78,1.959Z" fill="#fff"/>
      <path d="M226.1,42.043c-1.219,0-2.039-1.02-2.039-3.708s.82-3.708,2.039-3.708,2.039,1.019,2.039,3.708S227.32,42.043,226.1,42.043Zm0-6.757c-.7,0-1.259.6-1.259,3.049s.559,3.048,1.259,3.048,1.259-.6,1.259-3.048S226.8,35.286,226.1,35.286Z" fill="#fff"/>
      <path d="M230.3,41.942v-.6c.639-2.139,2.638-3.338,2.638-4.978,0-.759-.379-1.139-.869-1.139-.57,0-.99.44-1.05,1.519h-.659c.08-1.639.82-2.118,1.69-2.118.949,0,1.608.639,1.608,1.839,0,1.8-1.619,2.358-2.7,4.877H233.7v.6Z" fill="#fff"/>
      <path d="M236.789,36.065c-.1-.719-.5-.839-.779-.839-.64,0-1.04.879-1.06,2.888a1.567,1.567,0,0,1,1.11-.549c.809,0,1.548.579,1.548,2.219,0,1.4-.6,2.259-1.548,2.259-1.249,0-1.85-.72-1.85-3.319,0-2.9.68-4.1,1.82-4.1.929,0,1.28.559,1.418,1.4Zm-1.858,3.4c0,1.459.379,1.979,1.019,1.979.559,0,.94-.42.94-1.67,0-1.289-.441-1.608-.9-1.608a1.368,1.368,0,0,0-1.058.619Z" fill="#fff"/>
      <path d="M239.879,42.043c-1.179,0-1.739-1.1-1.739-3.708s.56-3.708,1.739-3.708,1.739,1.1,1.739,3.708S241.058,42.043,239.879,42.043Zm0-6.817c-.659,0-1.02.74-1.02,3.109s.361,3.108,1.02,3.108,1.019-.74,1.019-3.108S240.538,35.226,239.879,35.226Z" fill="#fff"/>
      <path d="M243.934,42.043c-1.179,0-1.74-1.1-1.74-3.708s.561-3.708,1.74-3.708,1.739,1.1,1.739,3.708S245.112,42.043,243.934,42.043Zm0-6.817c-.66,0-1.02.74-1.02,3.109s.36,3.108,1.02,3.108,1.019-.74,1.019-3.108S244.593,35.226,243.934,35.226Z" fill="#fff"/>
      <path d="M247.989,42.043c-1.179,0-1.739-1.1-1.739-3.708s.56-3.708,1.739-3.708,1.739,1.1,1.739,3.708S249.168,42.043,247.989,42.043Zm0-6.817c-.66,0-1.019.74-1.019,3.109s.359,3.108,1.019,3.108,1.02-.74,1.02-3.108S248.648,35.226,247.989,35.226Z" fill="#fff"/>
      <path d="M212.128,54.942v-.581c.924-1.35,1.428-2.093,1.428-2.728,0-.342-.132-.493-.336-.493-.241,0-.36.186-.36.451v.293h-.708v-.2a1.059,1.059,0,0,1,1.1-1.128.967.967,0,0,1,1.008.96c0,.684-.216,1.188-1.38,2.819H214.2v.611Z" fill="#fff"/>
      <path d="M214.755,54.942v-.707h.707v.707Z" fill="#fff"/>
      <path d="M219.317,47.726l1.86,5.318h.02V47.726h.78v7.216h-.839l-2.24-6.276h-.02v6.276H218.1V47.726Z" fill="#fff"/>
      <path d="M223.238,52.464v.29c0,1.269.29,1.689.97,1.689.549,0,.779-.51.869-.979l.68.079a1.663,1.663,0,0,1-1.649,1.5c-1.089,0-1.589-.821-1.589-2.7s.5-2.7,1.589-2.7,1.588.98,1.588,2.479v.34Zm1.74-.6c-.02-1.119-.221-1.619-.87-1.619-.519,0-.859.38-.87,1.619Z" fill="#fff"/>
      <path d="M226.419,49.745l.739,3.818h.021l.839-3.818h.679l.86,3.818h.02l.68-3.818h.68l-1.081,5.2h-.6l-.9-4.037h-.02l-.9,4.037h-.6l-1.1-5.2Z" fill="#fff"/>
      <path d="M233.718,50.245h.02a1.23,1.23,0,0,1,1.06-.6c.819,0,1.5.7,1.5,2.7s-.68,2.7-1.5,2.7a1.414,1.414,0,0,1-.96-.481v2.079h-.72v-6.9h.6Zm.12,3.738a1.2,1.2,0,0,0,.78.46c.61,0,.959-.5.959-2.1s-.38-2.1-.979-2.1a1.129,1.129,0,0,0-.76.5Z" fill="#fff"/>
      <path d="M236.927,47.726h.72v7.216h-.72Z" fill="#fff"/>
      <path d="M238.353,51.165a1.589,1.589,0,0,1,1.539-1.52,1.354,1.354,0,0,1,1.488,1.48v2.9a2.133,2.133,0,0,0,.131.919h-.75l-.09-.439a1.9,1.9,0,0,1-1.109.54,1.263,1.263,0,0,1-1.35-1.34c0-1.279,1.41-1.929,2.449-2.158v-.37c0-.57-.29-.93-.75-.93-.55,0-.819.55-.9,1.019Zm2.308.979c-.66.2-1.729.68-1.729,1.5,0,.49.219.8.739.8a1.47,1.47,0,0,0,.99-.54Z" fill="#fff"/>
      <path d="M242.2,49.745h.68v.57a2.06,2.06,0,0,1,1.179-.67c.72,0,1.139.4,1.139,1.36v3.937h-.72V51.1c0-.6-.179-.859-.569-.859a1.362,1.362,0,0,0-.989.639v4.058h-.72Z" fill="#fff"/>
      <path d="M245.517,49.745h.7V48.007h.72v1.738h.96v.6h-.96v3.639a.473.473,0,0,0,.52.52,1.586,1.586,0,0,0,.44-.1v.539a2.1,2.1,0,0,1-.68.1c-.68,0-1-.321-1-1.12V50.344h-.7Z" fill="#fff"/>
      <path d="M218.614,57.726h.72v.84h-.72Zm0,2.019h.72v5.2h-.72Z" fill="#fff"/>
      <path d="M220.136,59.745h.679v.57a2.062,2.062,0,0,1,1.18-.67c.72,0,1.139.4,1.139,1.36v3.937h-.719V61.1c0-.6-.18-.859-.57-.859a1.367,1.367,0,0,0-.99.639v4.058h-.719Z" fill="#fff"/>
      <path d="M225.735,57.726h1.92a1.618,1.618,0,0,1,1.7,1.78,1.536,1.536,0,0,1-1.1,1.6v.021a1.693,1.693,0,0,1,1.259,1.818c0,1.34-.74,2-2.32,2h-1.459Zm.781,3.1h.439c1.12,0,1.619-.34,1.619-1.319,0-.82-.36-1.121-1.279-1.121h-.779Zm0,3.458h.779c.939,0,1.439-.41,1.439-1.34,0-.949-.42-1.459-1.439-1.459h-.779Z" fill="#fff"/>
      <path d="M232.075,65.043c-1.22,0-2.039-1.02-2.039-3.708s.819-3.708,2.039-3.708,2.039,1.019,2.039,3.708S233.294,65.043,232.075,65.043Zm0-6.757c-.7,0-1.26.6-1.26,3.049s.56,3.048,1.26,3.048,1.259-.6,1.259-3.048S232.774,58.286,232.075,58.286Z" fill="#fff"/>
      <path d="M237.393,59.586c-.06-.741-.361-1.3-1.11-1.3a.924.924,0,0,0-.989.949c0,1.63,2.9,1.649,2.9,3.968a1.682,1.682,0,0,1-1.849,1.84A1.835,1.835,0,0,1,234.515,63h.718c.021.849.42,1.379,1.19,1.379a1.04,1.04,0,0,0,1.07-1.19c0-1.639-2.9-1.829-2.9-3.888a1.61,1.61,0,0,1,1.738-1.678c1.039,0,1.719.7,1.779,1.959Z" fill="#fff"/>
      <path d="M239.972,57.726l1.859,5.318h.02V57.726h.779v7.216h-.839l-2.239-6.276h-.02v6.276h-.779V57.726Z" fill="#fff"/>
      <path d="M244.28,57.726v7.216H243.5V57.726Z" fill="#fff"/>
      <path d="M247.392,57.726l1.588,7.216h-.78l-.429-2.139h-1.838l-.43,2.139h-.78l1.589-7.216Zm-1.35,4.418h1.619l-.8-3.878h-.02Z" fill="#fff"/>
    </g>
    <g>
      <path d="M251.66,96.844c-.1-1.139-.46-1.619-1.069-1.619-.909,0-1.31.8-1.31,3.049s.4,3.048,1.31,3.048c.729,0,1.149-.5,1.169-1.839h.78c-.02,1.6-.72,2.5-1.949,2.5-1.289,0-2.089-.979-2.089-3.708s.8-3.708,2.089-3.708c1.069,0,1.729.739,1.848,2.278Z" fill="#fff"/>
      <path d="M253.681,99.4v.29c0,1.27.29,1.69.969,1.69.549,0,.78-.51.87-.98l.679.079a1.664,1.664,0,0,1-1.649,1.5c-1.089,0-1.589-.82-1.589-2.7s.5-2.7,1.589-2.7,1.589.979,1.589,2.478v.34Zm1.739-.6c-.021-1.119-.221-1.619-.87-1.619-.52,0-.86.38-.869,1.619Z" fill="#fff"/>
      <path d="M256.65,96.684h.72v.63h.02a1.331,1.331,0,0,1,1.319-.729v.679a1.377,1.377,0,0,0-1.339.92v3.7h-.72Z" fill="#fff"/>
      <path d="M258.7,96.684h.7V94.946h.719v1.738h.96v.6h-.96v3.639a.473.473,0,0,0,.521.519,1.57,1.57,0,0,0,.439-.1v.539a2.124,2.124,0,0,1-.68.1c-.679,0-1-.32-1-1.12V97.284h-.7Z" fill="#fff"/>
      <path d="M261.553,94.666h.719v.84h-.719Zm0,2.018h.719v5.2h-.719Z" fill="#fff"/>
      <path d="M262.642,96.684h.8V95.626c0-.7.281-1.06,1.06-1.06a3.224,3.224,0,0,1,.56.06v.559a.925.925,0,0,0-.39-.08.48.48,0,0,0-.51.55v1.029H265v.6h-.84v4.6h-.72v-4.6h-.8Zm3.048-2.018h.72v.84h-.72Zm0,2.018h.72v5.2h-.72Z" fill="#fff"/>
      <path d="M269.377,98.223c-.07-.779-.38-1.039-.819-1.039-.611,0-.87.38-.87,2.1s.259,2.1.87,2.1c.46,0,.719-.241.838-1.14h.7c-.12,1.019-.6,1.739-1.539,1.739-1.09,0-1.59-.82-1.59-2.7s.5-2.7,1.59-2.7c.939,0,1.379.62,1.518,1.638Z" fill="#fff"/>
      <path d="M270.612,98.1a1.591,1.591,0,0,1,1.539-1.519,1.354,1.354,0,0,1,1.49,1.479v2.9a2.125,2.125,0,0,0,.13.919h-.75l-.089-.44a1.909,1.909,0,0,1-1.11.54,1.262,1.262,0,0,1-1.349-1.34c0-1.279,1.409-1.928,2.448-2.158v-.37c0-.569-.289-.93-.749-.93-.55,0-.819.55-.9,1.02Zm2.309.98c-.659.2-1.729.679-1.729,1.5,0,.489.22.8.74.8a1.476,1.476,0,0,0,.989-.54Z" fill="#fff"/>
      <path d="M273.963,96.684h.7V94.946h.72v1.738h.959v.6h-.959v3.639a.473.473,0,0,0,.519.519,1.561,1.561,0,0,0,.44-.1v.539a2.115,2.115,0,0,1-.68.1c-.679,0-1-.32-1-1.12V97.284h-.7Z" fill="#fff"/>
      <path d="M276.814,94.666h.72v.84h-.72Zm0,2.018h.72v5.2h-.72Z" fill="#fff"/>
      <path d="M279.68,96.585c1.09,0,1.589.819,1.589,2.7s-.5,2.7-1.589,2.7-1.589-.82-1.589-2.7S278.591,96.585,279.68,96.585Zm0,4.8c.61,0,.87-.38.87-2.1s-.26-2.1-.87-2.1-.869.38-.869,2.1S279.07,101.383,279.68,101.383Z" fill="#fff"/>
      <path d="M281.818,96.684h.68v.571a2.054,2.054,0,0,1,1.179-.67c.719,0,1.139.4,1.139,1.359v3.938H284.1V98.044c0-.6-.18-.86-.57-.86a1.365,1.365,0,0,0-.989.64v4.058h-.72Z" fill="#fff"/>
      <path d="M249.541,104.666v7.216h-.779v-7.216Z" fill="#fff"/>
      <path d="M252.652,104.666l1.589,7.216h-.779l-.43-2.139h-1.839l-.429,2.139h-.781l1.59-7.216Zm-1.349,4.418h1.619l-.8-3.878h-.02Z" fill="#fff"/>
      <path d="M257.4,104.666v.66h-1.479v6.556h-.779v-6.556h-1.48v-.66Z" fill="#fff"/>
      <path d="M257.812,104.666h3.1v.66h-2.318v2.458h1.738v.66h-1.738v3.438h-.781Z" fill="#fff"/>
      <path d="M263.322,111.882v-.6h.88v-5.8l-.9.08v-.439a2.786,2.786,0,0,0,1.138-.56h.481v6.716h.839v.6Z" fill="#fff"/>
      <path d="M268.954,106.005c-.1-.719-.5-.839-.779-.839-.64,0-1.04.879-1.06,2.887a1.57,1.57,0,0,1,1.11-.548c.809,0,1.548.579,1.548,2.218,0,1.4-.6,2.259-1.548,2.259-1.249,0-1.85-.72-1.85-3.318,0-2.9.68-4.1,1.819-4.1.93,0,1.28.56,1.419,1.4Zm-1.859,3.4c0,1.459.38,1.98,1.019,1.98.56,0,.94-.42.94-1.67,0-1.289-.44-1.609-.9-1.609a1.37,1.37,0,0,0-1.059.619Z" fill="#fff"/>
      <path d="M271.059,110.543c.1.719.5.84.779.84.64,0,1.039-.88,1.059-2.889a1.57,1.57,0,0,1-1.109.55c-.809,0-1.55-.58-1.55-2.219,0-1.4.6-2.259,1.55-2.259,1.249,0,1.849.72,1.849,3.318,0,2.9-.68,4.1-1.82,4.1-.928,0-1.279-.56-1.419-1.4Zm1.858-3.4c0-1.459-.38-1.978-1.02-1.978-.559,0-.939.42-.939,1.669,0,1.289.44,1.609.9,1.609a1.369,1.369,0,0,0,1.06-.62Z" fill="#fff"/>
      <path d="M277.034,104.666v4.977h.749v.6h-.749v1.639h-.72v-1.639h-2.308v-.34l1.978-5.237Zm-2.348,4.977h1.628v-4.317H276.3Z" fill="#fff"/>
      <path d="M278.954,110.543c.1.719.5.84.779.84.64,0,1.039-.88,1.06-2.889a1.572,1.572,0,0,1-1.109.55c-.81,0-1.55-.58-1.55-2.219,0-1.4.6-2.259,1.55-2.259,1.249,0,1.848.72,1.848,3.318,0,2.9-.679,4.1-1.819,4.1-.929,0-1.279-.56-1.419-1.4Zm1.858-3.4c0-1.459-.379-1.978-1.019-1.978-.56,0-.939.42-.939,1.669,0,1.289.44,1.609.9,1.609a1.367,1.367,0,0,0,1.059-.62Z" fill="#fff"/>
    </g>
    <g>
      <path d="M1.062,5.068H.474v-.4a4.517,4.517,0,0,0,.881-.558h.378V8.5H1.062Z" fill="#fff"/>
      <path d="M2.635,8.5V7.791h.708V8.5Z" fill="#fff"/>
      <path d="M8.005,3.462c-.1-1.14-.46-1.619-1.069-1.619-.91,0-1.31.8-1.31,3.047s.4,3.049,1.31,3.049c.729,0,1.149-.5,1.168-1.84h.781c-.021,1.6-.72,2.5-1.949,2.5-1.29,0-2.089-.979-2.089-3.708s.8-3.708,2.089-3.708c1.069,0,1.729.741,1.848,2.28Z" fill="#fff"/>
      <path d="M10.025,6.02v.289c0,1.27.29,1.69.97,1.69.549,0,.779-.51.869-.98l.68.08A1.663,1.663,0,0,1,10.9,8.6c-1.089,0-1.589-.819-1.589-2.7s.5-2.7,1.589-2.7,1.588.978,1.588,2.478v.34Zm1.74-.6c-.021-1.12-.221-1.62-.87-1.62-.52,0-.86.379-.87,1.62Z" fill="#fff"/>
      <path d="M13,3.3h.72v.63h.019a1.332,1.332,0,0,1,1.32-.729v.679a1.377,1.377,0,0,0-1.339.92V8.5H13Z" fill="#fff"/>
      <path d="M15.046,3.3h.7V1.562h.719V3.3h.96v.6h-.96V7.539a.473.473,0,0,0,.52.519,1.569,1.569,0,0,0,.44-.1V8.5a2.155,2.155,0,0,1-.68.1c-.68,0-1-.319-1-1.119V3.9h-.7Z" fill="#fff"/>
      <path d="M17.9,1.283h.72v.839H17.9Zm0,2.018h.72V8.5H17.9Z" fill="#fff"/>
      <path d="M18.986,3.3h.8V2.242c0-.7.28-1.06,1.06-1.06a3.31,3.31,0,0,1,.559.061V1.8a.905.905,0,0,0-.389-.08c-.35,0-.51.22-.51.55V3.3h.84v.6h-.84V8.5h-.72V3.9h-.8Zm3.049-2.018h.72v.839h-.72Zm0,2.018h.72V8.5h-.72Z" fill="#fff"/>
      <path d="M25.722,4.841c-.071-.78-.38-1.04-.82-1.04-.61,0-.87.379-.87,2.1s.26,2.1.87,2.1c.459,0,.72-.24.839-1.14h.7c-.12,1.02-.6,1.739-1.539,1.739-1.09,0-1.59-.819-1.59-2.7s.5-2.7,1.59-2.7c.94,0,1.379.619,1.519,1.639Z" fill="#fff"/>
      <path d="M26.957,4.72A1.591,1.591,0,0,1,28.5,3.2,1.353,1.353,0,0,1,29.985,4.68v2.9a2.14,2.14,0,0,0,.13.92h-.749l-.09-.441a1.9,1.9,0,0,1-1.109.54,1.262,1.262,0,0,1-1.35-1.339c0-1.279,1.41-1.929,2.449-2.159V4.73c0-.569-.289-.929-.749-.929-.55,0-.82.549-.9,1.019Zm2.309.98c-.66.2-1.729.68-1.729,1.5,0,.49.22.8.739.8a1.472,1.472,0,0,0,.99-.54Z" fill="#fff"/>
      <path d="M30.308,3.3h.7V1.562h.72V3.3h.959v.6h-.959V7.539a.472.472,0,0,0,.519.519,1.569,1.569,0,0,0,.44-.1V8.5a2.155,2.155,0,0,1-.68.1c-.679,0-1-.319-1-1.119V3.9h-.7Z" fill="#fff"/>
      <path d="M33.159,1.283h.72v.839h-.72Zm0,2.018h.72V8.5h-.72Z" fill="#fff"/>
      <path d="M36.024,3.2c1.09,0,1.589.819,1.589,2.7s-.5,2.7-1.589,2.7-1.588-.819-1.588-2.7S34.936,3.2,36.024,3.2Zm0,4.8c.611,0,.871-.38.871-2.1s-.26-2.1-.871-2.1-.869.379-.869,2.1S35.415,8,36.024,8Z" fill="#fff"/>
      <path d="M38.163,3.3h.68v.57A2.053,2.053,0,0,1,40.021,3.2c.72,0,1.14.4,1.14,1.358V8.5h-.72V4.661c0-.6-.179-.86-.569-.86a1.362,1.362,0,0,0-.99.64V8.5h-.719Z" fill="#fff"/>
      <path d="M9.958,11.283v.659H7.439V14.4H9.3v.659H7.439v2.779h2.639v.66H6.66V11.283Z" fill="#fff"/>
      <path d="M11.8,11.283,13.661,16.6h.021V11.283h.779V18.5h-.84l-2.238-6.277h-.021V18.5h-.779V11.283Z" fill="#fff"/>
      <path d="M15.924,17.159c.1.72.5.84.779.84.64,0,1.039-.88,1.06-2.889a1.565,1.565,0,0,1-1.11.55c-.809,0-1.549-.579-1.549-2.219,0-1.4.6-2.259,1.549-2.259,1.249,0,1.849.72,1.849,3.319,0,2.9-.68,4.1-1.819,4.1-.929,0-1.28-.559-1.419-1.4Zm1.858-3.4c0-1.46-.38-1.979-1.019-1.979-.56,0-.94.42-.94,1.669,0,1.29.441,1.609.9,1.609a1.368,1.368,0,0,0,1.059-.619Z" fill="#fff"/>
      <path d="M19.241,18.5v-.6h.88V12.1l-.9.08v-.44a2.749,2.749,0,0,0,1.138-.56h.481V17.9h.839v.6Z" fill="#fff"/>
      <path d="M23.979,18.6c-1.179,0-1.74-1.1-1.74-3.708s.561-3.708,1.74-3.708,1.739,1.1,1.739,3.708S25.158,18.6,23.979,18.6Zm0-6.816c-.66,0-1.02.74-1.02,3.108S23.319,18,23.979,18,25,17.259,25,14.89,24.639,11.782,23.979,11.782Z" fill="#fff"/>
      <path d="M28.034,18.6c-1.18,0-1.739-1.1-1.739-3.708s.559-3.708,1.739-3.708,1.739,1.1,1.739,3.708S29.213,18.6,28.034,18.6Zm0-6.816c-.66,0-1.019.74-1.019,3.108S27.374,18,28.034,18s1.02-.74,1.02-3.109S28.693,11.782,28.034,11.782Z" fill="#fff"/>
      <path d="M32.034,11.283h1.7a1.831,1.831,0,0,1,1.919,1.978,1.831,1.831,0,0,1-1.919,1.979h-.919V18.5h-.78Zm.78,3.3h.82c.779,0,1.239-.42,1.239-1.32s-.46-1.319-1.239-1.319h-.82Z" fill="#fff"/>
      <path d="M36.035,18.5v-.6c.64-2.139,2.639-3.339,2.639-4.977,0-.76-.38-1.14-.87-1.14-.57,0-.99.44-1.049,1.519H36.1c.08-1.639.82-2.119,1.689-2.119.949,0,1.61.64,1.61,1.839,0,1.8-1.62,2.36-2.7,4.878h2.74v.6Z" fill="#fff"/>
      <path d="M.264,31.5v-.582c.924-1.35,1.427-2.093,1.427-2.729,0-.342-.131-.491-.336-.491-.24,0-.359.186-.359.449v.294H.288v-.2a1.057,1.057,0,0,1,1.1-1.127.965.965,0,0,1,1.006.959c0,.684-.215,1.188-1.378,2.818H2.333V31.5Z" fill="#fff"/>
      <path d="M2.891,31.5v-.708H3.6V31.5Z" fill="#fff"/>
      <path d="M8.261,26.462c-.1-1.14-.46-1.619-1.07-1.619-.91,0-1.309.8-1.309,3.047s.4,3.049,1.309,3.049c.73,0,1.149-.5,1.169-1.84h.78c-.02,1.6-.72,2.5-1.949,2.5C5.9,31.6,5.1,30.619,5.1,27.89s.8-3.708,2.088-3.708c1.07,0,1.729.741,1.849,2.28Z" fill="#fff"/>
      <path d="M10.28,29.02v.289c0,1.27.29,1.69.97,1.69.55,0,.779-.51.869-.98l.68.08a1.662,1.662,0,0,1-1.649,1.5c-1.089,0-1.589-.819-1.589-2.7s.5-2.7,1.589-2.7,1.589.978,1.589,2.478v.34Zm1.74-.6c-.02-1.12-.22-1.62-.87-1.62-.519,0-.859.379-.87,1.62Z" fill="#fff"/>
      <path d="M13.25,26.3h.72v.63h.02a1.331,1.331,0,0,1,1.319-.729v.679a1.377,1.377,0,0,0-1.339.92v3.7h-.72Z" fill="#fff"/>
      <path d="M15.3,26.3H16V24.562h.72V26.3h.959v.6h-.959v3.638a.472.472,0,0,0,.519.519,1.561,1.561,0,0,0,.44-.1v.54a2.155,2.155,0,0,1-.68.1c-.679,0-1-.319-1-1.119V26.9h-.7Z" fill="#fff"/>
      <path d="M18.152,24.283h.72v.839h-.72Zm0,2.018h.72v5.2h-.72Z" fill="#fff"/>
      <path d="M19.242,26.3h.8V25.242c0-.7.28-1.06,1.06-1.06a3.3,3.3,0,0,1,.559.061V24.8a.908.908,0,0,0-.389-.08c-.35,0-.51.22-.51.55V26.3h.84v.6h-.84v4.6h-.72V26.9h-.8Zm3.048-2.018h.72v.839h-.72Zm0,2.018h.72v5.2h-.72Z" fill="#fff"/>
      <path d="M25.977,27.841c-.07-.78-.379-1.04-.82-1.04-.609,0-.869.379-.869,2.1s.26,2.1.869,2.1c.46,0,.72-.24.84-1.14h.7c-.12,1.02-.6,1.739-1.539,1.739-1.089,0-1.589-.819-1.589-2.7s.5-2.7,1.589-2.7c.94,0,1.38.619,1.52,1.639Z" fill="#fff"/>
      <path d="M27.213,27.72A1.589,1.589,0,0,1,28.752,26.2a1.354,1.354,0,0,1,1.489,1.478v2.9a2.14,2.14,0,0,0,.13.92h-.75l-.09-.441a1.892,1.892,0,0,1-1.109.54,1.262,1.262,0,0,1-1.35-1.339c0-1.279,1.41-1.929,2.449-2.159v-.37c0-.569-.29-.929-.75-.929-.549,0-.819.549-.9,1.019Zm2.308.98c-.66.2-1.729.68-1.729,1.5,0,.49.221.8.74.8a1.468,1.468,0,0,0,.989-.54Z" fill="#fff"/>
      <path d="M30.562,26.3h.7V24.562h.718V26.3h.96v.6h-.96v3.638a.473.473,0,0,0,.521.519,1.562,1.562,0,0,0,.439-.1v.54a2.148,2.148,0,0,1-.679.1c-.68,0-1-.319-1-1.119V26.9h-.7Z" fill="#fff"/>
      <path d="M33.414,24.283h.72v.839h-.72Zm0,2.018h.72v5.2h-.72Z" fill="#fff"/>
      <path d="M36.28,26.2c1.089,0,1.589.819,1.589,2.7s-.5,2.7-1.589,2.7-1.59-.819-1.59-2.7S35.19,26.2,36.28,26.2Zm0,4.8c.61,0,.869-.38.869-2.1s-.259-2.1-.869-2.1-.87.379-.87,2.1S35.67,31,36.28,31Z" fill="#fff"/>
      <path d="M38.418,26.3h.68v.57a2.055,2.055,0,0,1,1.179-.669c.72,0,1.139.4,1.139,1.358V31.5H40.7V27.661c0-.6-.18-.86-.57-.86a1.36,1.36,0,0,0-.989.64V31.5h-.72Z" fill="#fff"/>
      <path d="M10.737,42.058a1.428,1.428,0,0,1-1.178-.819A1.6,1.6,0,0,1,8.5,41.6c-1.22,0-2.039-1.019-2.039-3.708s.819-3.708,2.039-3.708,2.039,1.02,2.039,3.708a5.631,5.631,0,0,1-.559,2.859c.179.29.409.6.758.63Zm-2.078-2.6a1.668,1.668,0,0,1,.839.59,6.554,6.554,0,0,0,.26-2.16c0-2.448-.56-3.047-1.259-3.047s-1.26.6-1.26,3.047.56,3.049,1.26,3.049a.853.853,0,0,0,.7-.32,1.9,1.9,0,0,0-.539-.52Z" fill="#fff"/>
      <path d="M14.218,41.5h-.68v-.571a2.045,2.045,0,0,1-1.179.67c-.719,0-1.139-.4-1.139-1.359V36.3h.719v3.838c0,.6.18.86.57.86a1.364,1.364,0,0,0,.99-.64V36.3h.719Z" fill="#fff"/>
      <path d="M14.9,37.72A1.589,1.589,0,0,1,16.443,36.2a1.355,1.355,0,0,1,1.49,1.478v2.9a2.145,2.145,0,0,0,.129.92h-.75l-.089-.441a1.9,1.9,0,0,1-1.11.54,1.261,1.261,0,0,1-1.349-1.339c0-1.279,1.41-1.929,2.449-2.159v-.37c0-.569-.29-.929-.75-.929-.55,0-.819.549-.9,1.019Zm2.309.98c-.66.2-1.73.68-1.73,1.5,0,.49.221.8.741.8a1.472,1.472,0,0,0,.989-.54Z" fill="#fff"/>
      <path d="M18.775,34.283h.72V41.5h-.72Z" fill="#fff"/>
      <path d="M20.311,34.283h.719v.839h-.719Zm0,2.018h.719v5.2h-.719Z" fill="#fff"/>
      <path d="M21.431,36.3h.8V35.242c0-.7.28-1.06,1.06-1.06a3.322,3.322,0,0,1,.56.061V34.8a.909.909,0,0,0-.39-.08c-.351,0-.51.22-.51.55V36.3h.839v.6H22.95v4.6h-.72V36.9h-.8Z" fill="#fff"/>
      <path d="M24.047,37.72A1.591,1.591,0,0,1,25.586,36.2a1.353,1.353,0,0,1,1.489,1.478v2.9a2.14,2.14,0,0,0,.13.92h-.749l-.09-.441a1.9,1.9,0,0,1-1.109.54,1.262,1.262,0,0,1-1.35-1.339c0-1.279,1.409-1.929,2.448-2.159v-.37c0-.569-.289-.929-.749-.929-.549,0-.819.549-.9,1.019Zm2.308.98c-.659.2-1.728.68-1.728,1.5,0,.49.22.8.739.8a1.468,1.468,0,0,0,.989-.54Z" fill="#fff"/>
      <path d="M29.964,37.621c-.13-.45-.32-.82-.9-.82a.585.585,0,0,0-.58.62c0,1.059,2.2,1.119,2.2,2.738A1.392,1.392,0,0,1,29.265,41.6a1.606,1.606,0,0,1-1.66-1.379l.66-.14c.15.46.42.92.949.92a.791.791,0,0,0,.75-.789c0-1.2-2.2-1.22-2.2-2.749A1.289,1.289,0,0,1,29.114,36.2a1.4,1.4,0,0,1,1.449,1.239Z" fill="#fff"/>
      <path d="M.947,53.245v.294c0,.27.109.431.336.431s.355-.149.355-.509v-.329c0-.468-.181-.613-.636-.613v-.587c.437,0,.605-.144.605-.66,0-.407-.078-.575-.3-.575s-.336.1-.336.443v.18H.3v-.2a.943.943,0,0,1,1.013-1.007,1,1,0,0,1,.966,1.109c0,.5-.084.786-.467,1,.437.228.533.486.533,1.073,0,.864-.342,1.271-1.079,1.271-.619,0-.99-.311-.99-1.055v-.258Z" fill="#fff"/>
      <path d="M2.88,54.5v-.708h.707V54.5Z" fill="#fff"/>
      <path d="M8.938,49.462c-.1-1.14-.46-1.619-1.07-1.619-.909,0-1.309.8-1.309,3.047s.4,3.049,1.309,3.049c.73,0,1.15-.5,1.169-1.84h.78c-.02,1.6-.719,2.5-1.949,2.5-1.289,0-2.089-.979-2.089-3.708s.8-3.708,2.089-3.708c1.07,0,1.73.741,1.849,2.28Z" fill="#fff"/>
      <path d="M10.958,52.02v.289c0,1.27.29,1.69.97,1.69.549,0,.779-.51.869-.98l.68.08a1.665,1.665,0,0,1-1.65,1.5c-1.089,0-1.589-.819-1.589-2.7s.5-2.7,1.589-2.7,1.589.978,1.589,2.478v.34Zm1.739-.6c-.02-1.12-.22-1.62-.87-1.62-.519,0-.859.379-.869,1.62Z" fill="#fff"/>
      <path d="M13.928,49.3h.719v.63h.02a1.331,1.331,0,0,1,1.319-.729v.679a1.377,1.377,0,0,0-1.339.92v3.7h-.719Z" fill="#fff"/>
      <path d="M15.979,49.3h.7V47.562H17.4V49.3h.96v.6H17.4v3.638a.473.473,0,0,0,.521.519,1.562,1.562,0,0,0,.439-.1v.54a2.148,2.148,0,0,1-.679.1c-.68,0-1-.319-1-1.119V49.9h-.7Z" fill="#fff"/>
      <path d="M18.83,47.283h.72v.839h-.72Zm0,2.018h.72v5.2h-.72Z" fill="#fff"/>
      <path d="M19.919,49.3h.8V48.242c0-.7.28-1.06,1.059-1.06a3.311,3.311,0,0,1,.56.061V47.8a.909.909,0,0,0-.39-.08.481.481,0,0,0-.51.55V49.3h.84v.6h-.84v4.6h-.719V49.9h-.8Zm3.049-2.018h.72v.839h-.72Zm0,2.018h.72v5.2h-.72Z" fill="#fff"/>
      <path d="M26.654,50.841c-.07-.78-.38-1.04-.819-1.04-.61,0-.87.379-.87,2.1s.26,2.1.87,2.1c.459,0,.72-.24.839-1.14h.7c-.12,1.02-.6,1.739-1.539,1.739-1.09,0-1.59-.819-1.59-2.7s.5-2.7,1.59-2.7c.939,0,1.379.619,1.519,1.639Z" fill="#fff"/>
      <path d="M27.89,50.72A1.59,1.59,0,0,1,29.429,49.2a1.353,1.353,0,0,1,1.489,1.478v2.9a2.14,2.14,0,0,0,.13.92H30.3l-.09-.441a1.9,1.9,0,0,1-1.109.54,1.262,1.262,0,0,1-1.35-1.339c0-1.279,1.409-1.929,2.448-2.159v-.37c0-.569-.289-.929-.749-.929-.55,0-.819.549-.9,1.019Zm2.308.98c-.659.2-1.728.68-1.728,1.5,0,.49.219.8.739.8a1.47,1.47,0,0,0,.989-.54Z" fill="#fff"/>
      <path d="M31.24,49.3h.7V47.562h.72V49.3h.959v.6h-.959v3.638a.473.473,0,0,0,.52.519,1.562,1.562,0,0,0,.439-.1v.54a2.151,2.151,0,0,1-.68.1c-.678,0-1-.319-1-1.119V49.9h-.7Z" fill="#fff"/>
      <path d="M34.092,47.283h.72v.839h-.72Zm0,2.018h.72v5.2h-.72Z" fill="#fff"/>
      <path d="M36.957,49.2c1.09,0,1.589.819,1.589,2.7s-.5,2.7-1.589,2.7-1.589-.819-1.589-2.7S35.868,49.2,36.957,49.2Zm0,4.8c.61,0,.87-.38.87-2.1s-.26-2.1-.87-2.1-.869.379-.869,2.1S36.348,54,36.957,54Z" fill="#fff"/>
      <path d="M39.1,49.3h.679v.57a2.052,2.052,0,0,1,1.179-.669c.72,0,1.14.4,1.14,1.358V54.5h-.72V50.661c0-.6-.18-.86-.569-.86a1.365,1.365,0,0,0-.991.64V54.5H39.1Z" fill="#fff"/>
      <path d="M44.946,50.621c-.13-.45-.32-.82-.9-.82a.584.584,0,0,0-.58.62c0,1.059,2.2,1.119,2.2,2.738A1.392,1.392,0,0,1,44.247,54.6a1.606,1.606,0,0,1-1.659-1.379l.659-.14c.15.46.42.92.949.92a.79.79,0,0,0,.75-.789c0-1.2-2.2-1.22-2.2-2.749A1.29,1.29,0,0,1,44.1,49.2a1.4,1.4,0,0,1,1.449,1.239Z" fill="#fff"/>
      <path d="M7.5,57.283V64.5H6.72V57.283Z" fill="#fff"/>
      <path d="M10.973,59.141c-.061-.739-.361-1.3-1.11-1.3a.924.924,0,0,0-.99.949c0,1.629,2.9,1.649,2.9,3.967A1.68,1.68,0,0,1,9.923,64.6a1.835,1.835,0,0,1-1.829-2.039h.719c.021.85.42,1.38,1.19,1.38a1.04,1.04,0,0,0,1.069-1.189c0-1.64-2.9-1.829-2.9-3.888a1.612,1.612,0,0,1,1.739-1.68c1.039,0,1.719.7,1.779,1.959Z" fill="#fff"/>
      <path d="M14.236,64.6c-1.218,0-2.038-1.019-2.038-3.708s.82-3.708,2.038-3.708,2.039,1.02,2.039,3.708S15.456,64.6,14.236,64.6Zm0-6.755c-.7,0-1.258.6-1.258,3.047s.559,3.049,1.258,3.049,1.26-.6,1.26-3.049S14.937,57.843,14.236,57.843Z" fill="#fff"/>
      <path d="M16.167,64.6l2.318-7.416h.661L16.826,64.6Z" fill="#fff"/>
      <path d="M22.882,57.283v.659H21.4V64.5h-.779V57.942H19.144v-.659Z" fill="#fff"/>
      <path d="M25.892,59.141c-.061-.739-.361-1.3-1.11-1.3a.924.924,0,0,0-.99.949c0,1.629,2.9,1.649,2.9,3.967A1.68,1.68,0,0,1,24.842,64.6a1.835,1.835,0,0,1-1.829-2.039h.719c.021.85.42,1.38,1.19,1.38a1.04,1.04,0,0,0,1.069-1.189c0-1.64-2.9-1.829-2.9-3.888a1.612,1.612,0,0,1,1.739-1.68c1.039,0,1.719.7,1.779,1.959Z" fill="#fff"/>
      <path d="M27.383,64.5v-.6h.879V58.1l-.9.08v-.44a2.757,2.757,0,0,0,1.14-.56h.479V63.9h.84v.6Z" fill="#fff"/>
      <path d="M33.014,58.622c-.1-.72-.5-.84-.78-.84-.639,0-1.039.88-1.059,2.889a1.566,1.566,0,0,1,1.109-.55c.81,0,1.55.58,1.55,2.219,0,1.4-.6,2.258-1.55,2.258-1.249,0-1.848-.719-1.848-3.318,0-2.9.679-4.1,1.819-4.1.929,0,1.279.56,1.419,1.4Zm-1.859,3.4c0,1.459.38,1.979,1.02,1.979.559,0,.939-.42.939-1.669,0-1.289-.44-1.61-.9-1.61a1.368,1.368,0,0,0-1.06.621Z" fill="#fff"/>
      <path d="M35.118,63.159c.1.72.5.84.779.84.64,0,1.04-.88,1.06-2.889a1.564,1.564,0,0,1-1.109.55c-.81,0-1.55-.579-1.55-2.219,0-1.4.6-2.259,1.55-2.259,1.249,0,1.848.72,1.848,3.319,0,2.9-.679,4.1-1.819,4.1-.929,0-1.279-.559-1.419-1.4Zm1.859-3.4c0-1.46-.38-1.979-1.02-1.979-.56,0-.939.42-.939,1.669,0,1.29.44,1.609.9,1.609a1.372,1.372,0,0,0,1.06-.619Z" fill="#fff"/>
      <path d="M41.094,57.283v4.976h.749v.6h-.749V64.5h-.72v-1.64H38.065v-.34l1.979-5.236Zm-2.349,4.976h1.629V57.942h-.02Z" fill="#fff"/>
      <path d="M43.014,63.159c.1.72.5.84.779.84.64,0,1.04-.88,1.06-2.889a1.567,1.567,0,0,1-1.11.55c-.809,0-1.549-.579-1.549-2.219,0-1.4.6-2.259,1.549-2.259,1.25,0,1.85.72,1.85,3.319,0,2.9-.68,4.1-1.82,4.1-.929,0-1.279-.559-1.419-1.4Zm1.859-3.4c0-1.46-.38-1.979-1.019-1.979-.56,0-.94.42-.94,1.669,0,1.29.44,1.609.9,1.609a1.372,1.372,0,0,0,1.06-.619Z" fill="#fff"/>
    </g>
    <g>
      <path d="M68.351,8.571h-.564v-.4a4.308,4.308,0,0,0,.846-.558H69V12h-.644Z" fill="#fff"/>
      <path d="M69.919,12v-.708H70.6V12Z" fill="#fff"/>
      <path d="M74.826,6.644c-.057-.739-.346-1.3-1.065-1.3a.9.9,0,0,0-.95.95c0,1.629,2.783,1.649,2.783,3.967A1.648,1.648,0,0,1,73.818,12.1c-1.084,0-1.737-.829-1.756-2.039h.691c.019.85.4,1.38,1.143,1.38.624,0,1.026-.42,1.026-1.189,0-1.64-2.783-1.829-2.783-3.888a1.578,1.578,0,0,1,1.67-1.68c1,0,1.651.7,1.709,1.959Z" fill="#fff"/>
      <path d="M76.741,9.523v.289c0,1.27.279,1.69.932,1.69.527,0,.748-.51.835-.98l.652.08a1.624,1.624,0,0,1-1.584,1.5c-1.046,0-1.525-.819-1.525-2.7s.479-2.7,1.525-2.7S79.1,7.683,79.1,9.183v.34Zm1.67-.6C78.393,7.8,78.2,7.3,77.576,7.3c-.5,0-.825.379-.835,1.62Z" fill="#fff"/>
      <path d="M79.221,6.8h.672V5.065h.69V6.8h.922v.6h-.922v3.638a.464.464,0,0,0,.5.519,1.455,1.455,0,0,0,.422-.1V12a1.992,1.992,0,0,1-.652.1c-.654,0-.96-.319-.96-1.119V7.4h-.672Z" fill="#fff"/>
      <path d="M86.746,12h-.652v-.571a1.952,1.952,0,0,1-1.133.67c-.691,0-1.095-.4-1.095-1.359V6.8h.692v3.838c0,.6.172.86.546.86a1.307,1.307,0,0,0,.951-.64V6.8h.691Z" fill="#fff"/>
      <path d="M88.226,7.3h.019a1.17,1.17,0,0,1,1.017-.6c.787,0,1.44.7,1.44,2.7s-.653,2.7-1.44,2.7a1.342,1.342,0,0,1-.921-.479V13.7h-.692V6.8h.577Zm.115,3.738a1.14,1.14,0,0,0,.749.46c.585,0,.921-.5.921-2.1s-.365-2.1-.941-2.1a1.081,1.081,0,0,0-.729.5Z" fill="#fff"/>
      <path d="M93.246,4.786h.691v.839h-.691Zm0,2.018h.691V12h-.691Z" fill="#fff"/>
      <path d="M94.819,6.8h.653v.57A1.951,1.951,0,0,1,96.6,6.705c.692,0,1.094.4,1.094,1.358V12h-.69V8.164c0-.6-.173-.86-.548-.86a1.3,1.3,0,0,0-.949.64V12h-.692Z" fill="#fff"/>
      <path d="M100.387,4.786h1.842a1.589,1.589,0,0,1,1.632,1.778,1.538,1.538,0,0,1-1.055,1.6v.019A1.692,1.692,0,0,1,104.015,10c0,1.339-.71,2-2.227,2h-1.4Zm.749,3.1h.422c1.075,0,1.554-.34,1.554-1.32,0-.819-.345-1.119-1.228-1.119h-.748Zm0,3.458h.748c.9,0,1.382-.41,1.382-1.339,0-.95-.4-1.459-1.382-1.459h-.748Z" fill="#fff"/>
      <path d="M106.586,12.1c-1.171,0-1.958-1.019-1.958-3.708s.787-3.708,1.958-3.708,1.958,1.02,1.958,3.708S107.757,12.1,106.586,12.1Zm0-6.756c-.672,0-1.21.6-1.21,3.048s.538,3.049,1.21,3.049,1.209-.6,1.209-3.049S107.258,5.345,106.586,5.345Z" fill="#fff"/>
      <path d="M111.8,6.644c-.058-.739-.346-1.3-1.066-1.3a.9.9,0,0,0-.95.95c0,1.629,2.783,1.649,2.783,3.967A1.648,1.648,0,0,1,110.8,12.1c-1.085,0-1.737-.829-1.757-2.039h.691c.019.85.4,1.38,1.142,1.38.624,0,1.027-.42,1.027-1.189,0-1.64-2.783-1.829-2.783-3.888a1.578,1.578,0,0,1,1.67-1.68c1,0,1.651.7,1.708,1.959Z" fill="#fff"/>
      <path d="M114.391,4.786l1.785,5.316h.018V4.786h.749V12h-.806l-2.15-6.277h-.019V12h-.748V4.786Z" fill="#fff"/>
      <path d="M118.638,4.786V12h-.748V4.786Z" fill="#fff"/>
      <path d="M121.736,4.786,123.263,12h-.749L122.1,9.863h-1.767L119.923,12h-.749L120.7,4.786Zm-1.3,4.417H122l-.768-3.878h-.019Z" fill="#fff"/>
      <path d="M75.9,16.8h.633v2.269h2.179v.66H76.529V22H75.9V19.733H73.717v-.66H75.9Z" fill="#fff"/>
      <path d="M84.256,14.786v.659H81.838V17.9h1.785v.659H81.838v2.779h2.533V22H81.089V14.786Z" fill="#fff"/>
      <path d="M84.643,16.8h.71l.826,1.82.729-1.82h.71l-1.075,2.5L87.81,22H87.1l-.9-2.039L85.353,22h-.71l1.151-2.7Z" fill="#fff"/>
      <path d="M87.805,16.8h.672V15.065h.691V16.8h.921v.6h-.921v3.638a.463.463,0,0,0,.5.519,1.44,1.44,0,0,0,.422-.1V22a1.988,1.988,0,0,1-.652.1c-.653,0-.96-.319-.96-1.119V17.4h-.672Z" fill="#fff"/>
      <path d="M91.013,19.523v.289c0,1.27.278,1.69.931,1.69.528,0,.748-.51.835-.98l.653.08a1.625,1.625,0,0,1-1.584,1.5c-1.046,0-1.526-.819-1.526-2.7s.48-2.7,1.526-2.7,1.526.978,1.526,2.478v.34Zm1.67-.6c-.019-1.121-.211-1.62-.835-1.62-.5,0-.826.379-.835,1.62Z" fill="#fff"/>
      <path d="M94,16.8h.652v.57a1.953,1.953,0,0,1,1.133-.669c.692,0,1.094.4,1.094,1.358V22h-.691V18.164c0-.6-.172-.86-.547-.86a1.3,1.3,0,0,0-.95.64V22H94Z" fill="#fff"/>
      <path d="M99.731,18.124c-.125-.45-.307-.82-.864-.82a.574.574,0,0,0-.556.62c0,1.059,2.111,1.119,2.111,2.738A1.365,1.365,0,0,1,99.06,22.1c-.9,0-1.354-.509-1.594-1.379l.634-.14c.143.46.4.92.912.92a.777.777,0,0,0,.719-.789c0-1.2-2.112-1.22-2.112-2.749a1.261,1.261,0,0,1,1.3-1.259,1.359,1.359,0,0,1,1.392,1.239Z" fill="#fff"/>
      <path d="M101.048,14.786h.69v.839h-.69Zm0,2.018h.69V22h-.69Z" fill="#fff"/>
      <path d="M103.913,16.7c1.046,0,1.526.819,1.526,2.7s-.48,2.7-1.526,2.7-1.526-.819-1.526-2.7S102.867,16.7,103.913,16.7Zm0,4.8c.585,0,.835-.38.835-2.1s-.25-2.1-.835-2.1-.835.379-.835,2.1S103.327,21.5,103.913,21.5Z" fill="#fff"/>
      <path d="M106.077,16.8h.652v.57a1.956,1.956,0,0,1,1.133-.669c.692,0,1.094.4,1.094,1.358V22h-.69V18.164c0-.6-.173-.86-.548-.86a1.3,1.3,0,0,0-.949.64V22h-.692Z" fill="#fff"/>
      <path d="M112.336,17.3h.018a1.173,1.173,0,0,1,1.018-.6c.787,0,1.44.7,1.44,2.7s-.653,2.7-1.44,2.7a1.346,1.346,0,0,1-.922-.479V23.7h-.69V16.8h.576Zm.114,3.738a1.147,1.147,0,0,0,.749.46c.586,0,.922-.5.922-2.1s-.365-2.1-.941-2.1a1.084,1.084,0,0,0-.73.5Z" fill="#fff"/>
      <path d="M115.529,14.786h.691V22h-.691Z" fill="#fff"/>
      <path d="M117.011,18.223c.134-.819.594-1.518,1.477-1.518a1.328,1.328,0,0,1,1.431,1.478v2.9a2.239,2.239,0,0,0,.124.92h-.72l-.086-.441a1.792,1.792,0,0,1-1.065.54,1.237,1.237,0,0,1-1.3-1.339c0-1.279,1.353-1.929,2.352-2.159v-.37c0-.569-.279-.929-.72-.929-.529,0-.787.549-.864,1.019Zm2.217.98c-.634.2-1.661.68-1.661,1.5,0,.49.211.8.71.8a1.4,1.4,0,0,0,.951-.54Z" fill="#fff"/>
      <path d="M120.82,16.8h.653v.57a1.951,1.951,0,0,1,1.132-.669c.692,0,1.094.4,1.094,1.358V22h-.69V18.164c0-.6-.173-.86-.548-.86a1.3,1.3,0,0,0-.949.64V22h-.692Z" fill="#fff"/>
      <path d="M124.113,16.8h.672V15.065h.691V16.8h.921v.6h-.921v3.638a.464.464,0,0,0,.5.519,1.456,1.456,0,0,0,.421-.1V22a1.988,1.988,0,0,1-.652.1c-.653,0-.96-.319-.96-1.119V17.4h-.672Z" fill="#fff"/>
      <path d="M74.053,24.786h.69v.839h-.69Zm0,2.018h.69V32h-.69Z" fill="#fff"/>
      <path d="M75.626,26.8h.652v.57a1.953,1.953,0,0,1,1.133-.669c.692,0,1.094.4,1.094,1.358V32h-.691V28.164c0-.6-.172-.86-.547-.86a1.3,1.3,0,0,0-.95.64V32h-.691Z" fill="#fff"/>
      <path d="M81.193,24.786h1.843a1.589,1.589,0,0,1,1.632,1.778,1.538,1.538,0,0,1-1.056,1.6v.019A1.692,1.692,0,0,1,84.821,30c0,1.339-.71,2-2.226,2h-1.4Zm.749,3.1h.422c1.075,0,1.555-.34,1.555-1.32,0-.819-.346-1.119-1.229-1.119h-.748Zm0,3.458h.748c.9,0,1.382-.41,1.382-1.339,0-.95-.4-1.459-1.382-1.459h-.748Z" fill="#fff"/>
      <path d="M86.057,29.523v.289c0,1.27.278,1.69.931,1.69.528,0,.748-.51.835-.98l.653.08a1.625,1.625,0,0,1-1.584,1.5c-1.046,0-1.526-.819-1.526-2.7s.48-2.7,1.526-2.7,1.526.978,1.526,2.478v.34Zm1.67-.6c-.019-1.121-.211-1.62-.835-1.62-.5,0-.826.379-.835,1.62Z" fill="#fff"/>
      <path d="M89.072,24.786h.692V32h-.692Z" fill="#fff"/>
      <path d="M93.812,27.364a.735.735,0,0,0-.2-.02.593.593,0,0,0-.431.2,3.137,3.137,0,0,1,.153,1c0,1.3-.575,1.858-1.344,1.858-.153,0-.306-.04-.46-.04-.115.03-.345.141-.345.34,0,.37.566.39,1.209.53.719.159,1.363.4,1.363,1.249,0,.68-.634,1.22-1.69,1.22-1.132,0-1.708-.441-1.708-1.12a1.135,1.135,0,0,1,.729-1.039.706.706,0,0,1,.115-1.39,1.954,1.954,0,0,1-.595-1.489c0-1.239.577-1.958,1.45-1.958a1.03,1.03,0,0,1,.912.479.9.9,0,0,1,.845-.479Zm-2.151,4.357c-.4.18-.672.42-.672.71,0,.43.346.73,1.095.73.768,0,1.036-.32,1.036-.739C93.12,31.941,92.256,31.861,91.661,31.721Zm.308-1.858c.4,0,.729-.32.729-1.31s-.327-1.309-.729-1.309-.73.32-.73,1.309S91.565,29.863,91.969,29.863Z" fill="#fff"/>
      <path d="M94.4,24.786h.691v.839H94.4Zm0,2.018h.691V32H94.4Z" fill="#fff"/>
      <path d="M98.851,32H98.2v-.571a1.95,1.95,0,0,1-1.133.67c-.691,0-1.094-.4-1.094-1.359V26.8h.691v3.838c0,.6.173.86.547.86a1.3,1.3,0,0,0,.95-.64V26.8h.692Z" fill="#fff"/>
      <path d="M99.765,32V26.8h.632v.57a1.6,1.6,0,0,1,1.162-.669.955.955,0,0,1,.892.659,1.625,1.625,0,0,1,1.162-.659c.653,0,1.008.459,1.008,1.2V32h-.691V28c0-.54-.154-.7-.519-.7a1.2,1.2,0,0,0-.873.539V32h-.691V28c0-.54-.183-.7-.547-.7a1.1,1.1,0,0,0-.845.539V32Z" fill="#fff"/>
      <path d="M108.586,33.1a8.035,8.035,0,0,1,0-8.416l.461.3a8.01,8.01,0,0,0,0,7.816Z" fill="#fff"/>
      <path d="M110.848,24.786l1.21,5.456h.018l1.181-5.456h1.19V32h-.691V25.385h-.019L112.3,32h-.489l-1.44-6.617h-.019V32h-.691V24.786Z" fill="#fff"/>
      <path d="M117.83,26.644c-.058-.739-.346-1.3-1.065-1.3a.905.905,0,0,0-.951.95c0,1.629,2.784,1.649,2.784,3.967a1.648,1.648,0,0,1-1.776,1.839c-1.085,0-1.737-.829-1.757-2.039h.692c.018.85.4,1.38,1.141,1.38.624,0,1.028-.42,1.028-1.189,0-1.64-2.783-1.829-2.783-3.888a1.578,1.578,0,0,1,1.669-1.68c1,0,1.651.7,1.709,1.959Z" fill="#fff"/>
      <path d="M119.346,24.685a8.035,8.035,0,0,1,0,8.416l-.461-.3a8.017,8.017,0,0,0,0-7.816Z" fill="#fff"/>
      <path d="M67.586,45V44.42c.886-1.35,1.369-2.093,1.369-2.729,0-.342-.127-.491-.322-.491-.231,0-.345.185-.345.449v.294h-.679v-.2a1.037,1.037,0,0,1,1.058-1.127.946.946,0,0,1,.967.959c0,.684-.207,1.188-1.323,2.818H69.57V45Z" fill="#fff"/>
      <path d="M70.164,45v-.708h.679V45Z" fill="#fff"/>
      <path d="M72.6,37.786h1.842a1.589,1.589,0,0,1,1.632,1.778,1.538,1.538,0,0,1-1.055,1.6v.019A1.692,1.692,0,0,1,76.224,43c0,1.339-.71,2-2.227,2H72.6Zm.749,3.1h.422c1.075,0,1.554-.34,1.554-1.32,0-.819-.345-1.119-1.228-1.119h-.748Zm0,3.458h.748c.9,0,1.382-.41,1.382-1.339,0-.95-.4-1.459-1.382-1.459h-.748Z" fill="#fff"/>
      <path d="M77.46,42.523v.289c0,1.27.278,1.69.931,1.69.528,0,.749-.51.835-.98l.653.08A1.625,1.625,0,0,1,78.3,45.1c-1.046,0-1.526-.819-1.526-2.7s.48-2.7,1.526-2.7,1.526.978,1.526,2.478v.34Zm1.67-.6c-.02-1.121-.211-1.62-.835-1.62-.5,0-.825.379-.835,1.62Z" fill="#fff"/>
      <path d="M82.52,41.124c-.125-.45-.308-.82-.865-.82a.574.574,0,0,0-.556.62c0,1.059,2.111,1.119,2.111,2.738A1.365,1.365,0,0,1,81.848,45.1c-.9,0-1.354-.509-1.594-1.379l.634-.14c.143.46.4.92.912.92a.778.778,0,0,0,.72-.789c0-1.2-2.113-1.22-2.113-2.749a1.261,1.261,0,0,1,1.3-1.259A1.359,1.359,0,0,1,83.1,40.944Z" fill="#fff"/>
      <path d="M83.387,39.8h.672V38.065h.691V39.8h.921v.6H84.75v3.638a.463.463,0,0,0,.5.519,1.44,1.44,0,0,0,.422-.1V45a1.988,1.988,0,0,1-.652.1c-.653,0-.96-.319-.96-1.119V40.4h-.672Z" fill="#fff"/>
      <path d="M89.972,41.124c-.125-.45-.307-.82-.864-.82a.574.574,0,0,0-.556.62c0,1.059,2.111,1.119,2.111,2.738A1.366,1.366,0,0,1,89.3,45.1c-.9,0-1.354-.509-1.593-1.379l.633-.14c.144.46.4.92.912.92a.778.778,0,0,0,.72-.789c0-1.2-2.112-1.22-2.112-2.749a1.26,1.26,0,0,1,1.3-1.259,1.359,1.359,0,0,1,1.392,1.239Z" fill="#fff"/>
      <path d="M94.153,45H93.5v-.571a1.952,1.952,0,0,1-1.133.67c-.691,0-1.095-.4-1.095-1.359V39.8h.692v3.838c0,.6.173.86.547.86a1.306,1.306,0,0,0,.95-.64V39.8h.691Z" fill="#fff"/>
      <path d="M95.633,40.3h.019a1.171,1.171,0,0,1,1.017-.6c.787,0,1.44.7,1.44,2.7s-.653,2.7-1.44,2.7a1.344,1.344,0,0,1-.921-.479V46.7h-.691V39.8h.576Zm.115,3.738a1.14,1.14,0,0,0,.749.46c.585,0,.921-.5.921-2.1s-.364-2.1-.94-2.1a1.082,1.082,0,0,0-.73.5Z" fill="#fff"/>
      <path d="M99.413,40.3h.02a1.169,1.169,0,0,1,1.016-.6c.787,0,1.441.7,1.441,2.7s-.654,2.7-1.441,2.7a1.344,1.344,0,0,1-.921-.479V46.7h-.691V39.8h.576Zm.115,3.738a1.142,1.142,0,0,0,.749.46c.585,0,.921-.5.921-2.1s-.364-2.1-.94-2.1a1.082,1.082,0,0,0-.73.5Z" fill="#fff"/>
      <path d="M102.606,37.786h.692V45h-.692Z" fill="#fff"/>
      <path d="M104.194,37.786h.692v.839h-.692Zm0,2.018h.692V45h-.692Z" fill="#fff"/>
      <path d="M106.225,42.523v.289c0,1.27.278,1.69.93,1.69.529,0,.749-.51.835-.98l.654.08a1.625,1.625,0,0,1-1.584,1.5c-1.046,0-1.527-.819-1.527-2.7s.481-2.7,1.527-2.7,1.526.978,1.526,2.478v.34Zm1.67-.6c-.02-1.121-.211-1.62-.835-1.62-.5,0-.826.379-.835,1.62Z" fill="#fff"/>
      <path d="M109.187,39.8h.691v.63h.019a1.267,1.267,0,0,1,1.267-.729v.679c-.518,0-.912.18-1.286.919V45h-.691Z" fill="#fff"/>
      <path d="M75.194,49.705c1.047,0,1.527.819,1.527,2.7s-.48,2.7-1.527,2.7-1.525-.819-1.525-2.7S74.148,49.705,75.194,49.705Zm0,4.8c.586,0,.835-.38.835-2.1s-.249-2.1-.835-2.1-.835.379-.835,2.1S74.609,54.5,75.194,54.5Z" fill="#fff"/>
      <path d="M76.894,49.8h.767V48.745c0-.7.269-1.06,1.018-1.06a3.063,3.063,0,0,1,.537.061v.559a.842.842,0,0,0-.374-.08c-.336,0-.489.22-.489.55V49.8h.805v.6h-.805V55h-.692V50.4h-.767Z" fill="#fff"/>
      <path d="M80.829,49.8H81.5V48.065h.69V49.8h.922v.6h-.922v3.638a.465.465,0,0,0,.5.519,1.455,1.455,0,0,0,.422-.1V55a1.988,1.988,0,0,1-.652.1c-.653,0-.96-.319-.96-1.119V50.4h-.672Z" fill="#fff"/>
      <path d="M83.665,47.786h.691v2.588a1.769,1.769,0,0,1,1.094-.669c.692,0,1.094.4,1.094,1.358V55h-.69V51.164c0-.6-.173-.86-.548-.86a1.3,1.3,0,0,0-.95.64V55h-.691Z" fill="#fff"/>
      <path d="M87.868,52.523v.289c0,1.27.278,1.69.932,1.69.527,0,.748-.51.835-.98l.652.08A1.624,1.624,0,0,1,88.7,55.1c-1.046,0-1.525-.819-1.525-2.7s.479-2.7,1.525-2.7,1.526.978,1.526,2.478v.34Zm1.67-.6c-.018-1.121-.211-1.62-.835-1.62-.5,0-.825.379-.835,1.62Z" fill="#fff"/>
      <path d="M92.668,49.8l.94,3.978h.02L94.4,49.8h.71l-1.142,5.087c-.259,1.14-.739,1.81-1.574,1.81h-.355v-.6h.211c.547,0,.9-.41,1.036-1.139L91.958,49.8Z" fill="#fff"/>
      <path d="M95.853,52.523v.289c0,1.27.278,1.69.93,1.69.529,0,.749-.51.835-.98l.653.08a1.624,1.624,0,0,1-1.583,1.5c-1.046,0-1.527-.819-1.527-2.7s.481-2.7,1.527-2.7,1.526.978,1.526,2.478v.34Zm1.669-.6c-.019-1.121-.21-1.62-.834-1.62-.5,0-.826.379-.835,1.62Z" fill="#fff"/>
      <path d="M98.832,51.223c.134-.819.6-1.518,1.478-1.518a1.328,1.328,0,0,1,1.43,1.478v2.9a2.239,2.239,0,0,0,.124.92h-.719l-.086-.441a1.794,1.794,0,0,1-1.066.54,1.237,1.237,0,0,1-1.3-1.339c0-1.279,1.354-1.929,2.352-2.159v-.37c0-.569-.278-.929-.72-.929-.528,0-.787.549-.864,1.019Zm2.217.98c-.634.2-1.66.68-1.66,1.5,0,.49.211.8.71.8a1.4,1.4,0,0,0,.95-.54Z" fill="#fff"/>
      <path d="M102.611,49.8h.692v.63h.019a1.266,1.266,0,0,1,1.267-.729v.679c-.519,0-.912.18-1.286.919V55h-.692Z" fill="#fff"/>
      <path d="M76.989,57.786v.659h-1.42V65H74.82V58.445H73.4v-.659Z" fill="#fff"/>
      <path d="M77.476,57.786h.691v2.588a1.769,1.769,0,0,1,1.094-.669c.691,0,1.094.4,1.094,1.358V65h-.691V61.164c0-.6-.173-.86-.547-.86a1.3,1.3,0,0,0-.95.64V65h-.691Z" fill="#fff"/>
      <path d="M81.384,59.8l.94,3.978h.02l.767-3.978h.711L82.68,64.891c-.259,1.14-.74,1.81-1.575,1.81h-.354v-.6h.211c.547,0,.9-.41,1.036-1.139L80.674,59.8Z" fill="#fff"/>
      <path d="M86.167,61.124c-.125-.45-.307-.82-.863-.82a.574.574,0,0,0-.557.62c0,1.059,2.111,1.119,2.111,2.738A1.366,1.366,0,0,1,85.5,65.1c-.9,0-1.353-.509-1.593-1.379l.633-.14c.145.46.4.92.912.92a.778.778,0,0,0,.72-.789c0-1.2-2.111-1.22-2.111-2.749a1.26,1.26,0,0,1,1.3-1.259,1.359,1.359,0,0,1,1.391,1.239Z" fill="#fff"/>
      <path d="M89.564,61.124c-.125-.45-.306-.82-.863-.82a.574.574,0,0,0-.556.62c0,1.059,2.111,1.119,2.111,2.738A1.366,1.366,0,0,1,88.893,65.1c-.9,0-1.354-.509-1.593-1.379l.633-.14c.144.46.4.92.912.92a.777.777,0,0,0,.719-.789c0-1.2-2.111-1.22-2.111-2.749a1.26,1.26,0,0,1,1.3-1.259,1.359,1.359,0,0,1,1.392,1.239Z" fill="#fff"/>
      <path d="M91.345,62.523v.289c0,1.27.278,1.69.93,1.69.529,0,.749-.51.835-.98l.654.08a1.625,1.625,0,0,1-1.584,1.5c-1.046,0-1.527-.819-1.527-2.7s.481-2.7,1.527-2.7,1.526.978,1.526,2.478v.34Zm1.67-.6C93,60.8,92.8,60.3,92.18,60.3c-.5,0-.826.379-.835,1.62Z" fill="#fff"/>
      <path d="M94.337,59.8h.653v.57a1.951,1.951,0,0,1,1.132-.669c.691,0,1.095.4,1.095,1.358V65h-.692V61.164c0-.6-.172-.86-.546-.86a1.306,1.306,0,0,0-.951.64V65h-.691Z" fill="#fff"/>
      <path d="M100.558,57.786v3.678h.018l1.94-3.678h.8L101.978,60.3l1.593,4.7h-.806l-1.286-3.9h-.019l-.9,1.68V65h-.749V57.786Z" fill="#fff"/>
      <path d="M103.972,59.8h.691v.63h.02a1.265,1.265,0,0,1,1.266-.729v.679c-.518,0-.912.18-1.286.919V65h-.691Z" fill="#fff"/>
      <path d="M109.249,65H108.6v-.571a1.95,1.95,0,0,1-1.133.67c-.691,0-1.094-.4-1.094-1.359V59.8h.692v3.838c0,.6.171.86.546.86a1.309,1.309,0,0,0,.951-.64V59.8h.69Z" fill="#fff"/>
      <path d="M110.729,60.3h.019a1.172,1.172,0,0,1,1.018-.6c.787,0,1.439.7,1.439,2.7s-.652,2.7-1.439,2.7a1.344,1.344,0,0,1-.922-.479V66.7h-.691V59.8h.576Zm.115,3.738a1.145,1.145,0,0,0,.749.46c.586,0,.922-.5.922-2.1s-.366-2.1-.942-2.1a1.083,1.083,0,0,0-.729.5Z" fill="#fff"/>
      <path d="M114.51,60.3h.018a1.172,1.172,0,0,1,1.018-.6c.787,0,1.439.7,1.439,2.7s-.652,2.7-1.439,2.7a1.344,1.344,0,0,1-.922-.479V66.7h-.69V59.8h.576Zm.114,3.738a1.145,1.145,0,0,0,.749.46c.586,0,.922-.5.922-2.1s-.365-2.1-.941-2.1a1.084,1.084,0,0,0-.73.5Z" fill="#fff"/>
    </g>
    <g>
      <rect x="24.151" y="75.855" width="1" height="105.305" fill="#fff"/>
      <g>
        <g>
          <path d="M21.372,168.341H20.2v-.8a9.049,9.049,0,0,0,1.764-1.115h.756V175.2H21.372Z" fill="#fff"/>
          <path d="M25.512,172.874v.444c0,.564.192.827.635.827s.7-.263.7-.827v-2.027a1.468,1.468,0,0,1-1.223.576c-.863,0-1.583-.5-1.583-1.775V169.06c0-1.823.623-2.638,2.11-2.638s2.112.744,2.112,2.375v4.149c0,1.631-.624,2.375-2.112,2.375a1.823,1.823,0,0,1-1.93-1.919v-.528Zm1.331-4.449c0-.564-.251-.828-.7-.828s-.695.264-.695.828v1.439c0,.563.252.827.623.827a1.528,1.528,0,0,0,.768-.4Z" fill="#fff"/>
          <path d="M28.937,168.8c0-1.631.623-2.375,2.11-2.375s2.111.744,2.111,2.375v4.149c0,1.631-.624,2.375-2.111,2.375s-2.11-.744-2.11-2.375Zm2.805-.372c0-.564-.251-.828-.7-.828s-.7.264-.7.828v4.893c0,.564.252.827.7.827s.7-.263.7-.827Z" fill="#fff"/>
          <path d="M33.85,167.765v-1.223h3.91v.84L36,175.2h-1.4l1.739-7.436Z" fill="#fff"/>
        </g>
        <rect x="13.454" y="165.139" width="24.485" height="16.374" fill="#fff"/>
      </g>
    </g>
    <g>
      <rect x="58.64" y="140.037" width="1" height="41.123" fill="#fff"/>
      <g>
        <g>
          <path d="M55.9,168.341H54.72v-.8a9.04,9.04,0,0,0,1.763-1.115h.756V175.2H55.9Z" fill="#fff"/>
          <path d="M60.035,172.874v.444c0,.564.193.827.636.827s.7-.263.7-.827v-2.027a1.468,1.468,0,0,1-1.222.576c-.864,0-1.583-.5-1.583-1.775V169.06c0-1.823.623-2.638,2.11-2.638s2.111.744,2.111,2.375v4.149c0,1.631-.624,2.375-2.111,2.375A1.823,1.823,0,0,1,58.74,173.4v-.528Zm1.331-4.449c0-.564-.251-.828-.7-.828s-.7.264-.7.828v1.439c0,.563.252.827.623.827a1.525,1.525,0,0,0,.767-.4Z" fill="#fff"/>
          <path d="M63.46,168.8c0-1.631.623-2.375,2.11-2.375s2.112.744,2.112,2.375v4.149c0,1.631-.624,2.375-2.112,2.375s-2.11-.744-2.11-2.375Zm2.806-.372c0-.564-.251-.828-.7-.828s-.695.264-.695.828v4.893c0,.564.252.827.695.827s.7-.263.7-.827Z" fill="#fff"/>
          <path d="M68.373,167.765v-1.223h3.91v.84L70.521,175.2h-1.4l1.739-7.436Z" fill="#fff"/>
        </g>
        <rect x="47.978" y="165.139" width="24.485" height="16.374" fill="#fff"/>
      </g>
    </g>
    <g>
      <rect x="93.128" y="75.855" width="1" height="105.305" fill="#fff"/>
      <g>
        <g>
          <path d="M90.419,168.341H89.243v-.8a9.049,9.049,0,0,0,1.764-1.115h.756V175.2H90.419Z" fill="#fff"/>
          <path d="M94.559,172.874v.444c0,.564.192.827.635.827s.7-.263.7-.827v-2.027a1.468,1.468,0,0,1-1.223.576c-.863,0-1.583-.5-1.583-1.775V169.06c0-1.823.623-2.638,2.11-2.638s2.112.744,2.112,2.375v4.149c0,1.631-.624,2.375-2.112,2.375a1.823,1.823,0,0,1-1.93-1.919v-.528Zm1.331-4.449c0-.564-.251-.828-.7-.828s-.7.264-.7.828v1.439c0,.563.252.827.623.827a1.528,1.528,0,0,0,.768-.4Z" fill="#fff"/>
          <path d="M97.983,168.8c0-1.631.623-2.375,2.111-2.375s2.111.744,2.111,2.375v4.149c0,1.631-.624,2.375-2.111,2.375s-2.111-.744-2.111-2.375Zm2.806-.372c0-.564-.251-.828-.7-.828s-.7.264-.7.828v4.893c0,.564.252.827.7.827s.7-.263.7-.827Z" fill="#fff"/>
          <path d="M102.9,167.765v-1.223h3.911v.84l-1.763,7.819h-1.4l1.739-7.436Z" fill="#fff"/>
        </g>
        <rect x="82.501" y="165.139" width="24.485" height="16.374" fill="#fff"/>
      </g>
    </g>
    <g>
      <rect x="127.751" y="131.799" width="0.66" height="49.361" fill="#fff"/>
      <g>
        <g>
          <path d="M124.942,168.341h-1.175v-.8a9.04,9.04,0,0,0,1.763-1.115h.756V175.2h-1.344Z" fill="#fff"/>
          <path d="M129.082,172.874v.444c0,.564.192.827.636.827s.7-.263.7-.827v-2.027a1.468,1.468,0,0,1-1.223.576c-.863,0-1.583-.5-1.583-1.775V169.06c0-1.823.623-2.638,2.111-2.638s2.111.744,2.111,2.375v4.149c0,1.631-.624,2.375-2.111,2.375a1.823,1.823,0,0,1-1.931-1.919v-.528Zm1.331-4.449c0-.564-.251-.828-.7-.828s-.7.264-.7.828v1.439c0,.563.252.827.624.827a1.529,1.529,0,0,0,.767-.4Z" fill="#fff"/>
          <path d="M132.507,168.8c0-1.631.623-2.375,2.11-2.375s2.112.744,2.112,2.375v4.149c0,1.631-.625,2.375-2.112,2.375s-2.11-.744-2.11-2.375Zm2.805-.372c0-.564-.25-.828-.7-.828s-.695.264-.695.828v4.893c0,.564.252.827.695.827s.7-.263.7-.827Z" fill="#fff"/>
          <path d="M137.42,167.765v-1.223h3.91v.84l-1.763,7.819h-1.4l1.739-7.436Z" fill="#fff"/>
        </g>
        <rect x="117.024" y="165.139" width="24.485" height="16.374" fill="#fff"/>
      </g>
    </g>
    <g>
      <rect x="162.069" y="75.855" width="1" height="105.305" fill="#fff"/>
      <g>
        <g>
          <path d="M159.466,168.341H158.29v-.8a9.049,9.049,0,0,0,1.764-1.115h.756V175.2h-1.344Z" fill="#fff"/>
          <path d="M163.6,172.874v.444c0,.564.193.827.636.827s.7-.263.7-.827v-2.027a1.47,1.47,0,0,1-1.223.576c-.863,0-1.583-.5-1.583-1.775V169.06c0-1.823.623-2.638,2.11-2.638s2.112.744,2.112,2.375v4.149c0,1.631-.624,2.375-2.112,2.375a1.822,1.822,0,0,1-1.93-1.919v-.528Zm1.332-4.449c0-.564-.251-.828-.7-.828s-.7.264-.7.828v1.439c0,.563.252.827.623.827a1.528,1.528,0,0,0,.768-.4Z" fill="#fff"/>
          <path d="M167.03,168.8c0-1.631.623-2.375,2.111-2.375s2.111.744,2.111,2.375v4.149c0,1.631-.624,2.375-2.111,2.375s-2.111-.744-2.111-2.375Zm2.806-.372c0-.564-.251-.828-.7-.828s-.7.264-.7.828v4.893c0,.564.252.827.7.827s.7-.263.7-.827Z" fill="#fff"/>
          <path d="M171.943,167.765v-1.223h3.911v.84l-1.763,7.819h-1.4l1.739-7.436Z" fill="#fff"/>
        </g>
        <rect x="151.548" y="165.139" width="24.485" height="16.374" fill="#fff"/>
      </g>
    </g>
    <g>
      <rect x="196.558" y="122.995" width="1" height="58.165" fill="#fff"/>
      <g>
        <g>
          <path d="M193.989,168.341h-1.176v-.8a9.019,9.019,0,0,0,1.764-1.115h.756V175.2h-1.344Z" fill="#fff"/>
          <path d="M198.129,172.874v.444c0,.564.192.827.636.827s.7-.263.7-.827v-2.027a1.468,1.468,0,0,1-1.223.576c-.863,0-1.583-.5-1.583-1.775V169.06c0-1.823.623-2.638,2.111-2.638s2.111.744,2.111,2.375v4.149c0,1.631-.624,2.375-2.111,2.375a1.823,1.823,0,0,1-1.931-1.919v-.528Zm1.331-4.449c0-.564-.251-.828-.7-.828s-.7.264-.7.828v1.439c0,.563.252.827.623.827a1.528,1.528,0,0,0,.768-.4Z" fill="#fff"/>
          <path d="M201.554,168.8c0-1.631.623-2.375,2.11-2.375s2.111.744,2.111,2.375v4.149c0,1.631-.624,2.375-2.111,2.375s-2.11-.744-2.11-2.375Zm2.805-.372c0-.564-.251-.828-.7-.828s-.695.264-.695.828v4.893c0,.564.252.827.695.827s.7-.263.7-.827Z" fill="#fff"/>
          <path d="M206.467,167.765v-1.223h3.91v.84l-1.763,7.819h-1.4l1.739-7.436Z" fill="#fff"/>
        </g>
        <rect x="186.071" y="165.139" width="24.485" height="16.374" fill="#fff"/>
      </g>
    </g>
    <g>
      <rect x="231.045" y="76.649" width="1" height="104.511" fill="#fff"/>
      <g>
        <g>
          <path d="M228.513,168.341h-1.176v-.8a9.079,9.079,0,0,0,1.764-1.115h.755V175.2h-1.343Z" fill="#fff"/>
          <path d="M232.652,172.874v.444c0,.564.193.827.636.827s.695-.263.695-.827v-2.027a1.466,1.466,0,0,1-1.222.576c-.864,0-1.583-.5-1.583-1.775V169.06c0-1.823.623-2.638,2.11-2.638s2.111.744,2.111,2.375v4.149c0,1.631-.624,2.375-2.111,2.375a1.823,1.823,0,0,1-1.931-1.919v-.528Zm1.331-4.449c0-.564-.251-.828-.695-.828s-.7.264-.7.828v1.439c0,.563.252.827.623.827a1.525,1.525,0,0,0,.767-.4Z" fill="#fff"/>
          <path d="M236.077,168.8c0-1.631.623-2.375,2.111-2.375s2.111.744,2.111,2.375v4.149c0,1.631-.624,2.375-2.111,2.375s-2.111-.744-2.111-2.375Zm2.806-.372c0-.564-.251-.828-.7-.828s-.7.264-.7.828v4.893c0,.564.252.827.7.827s.7-.263.7-.827Z" fill="#fff"/>
          <path d="M240.99,167.765v-1.223h3.91v.84l-1.762,7.819h-1.4l1.74-7.436Z" fill="#fff"/>
        </g>
        <rect x="220.595" y="165.139" width="24.485" height="16.374" fill="#fff"/>
      </g>
    </g>
    <g>
      <rect x="265.533" y="122.995" width="1" height="58.165" fill="#fff"/>
      <g>
        <g>
          <path d="M263.036,168.341H261.86v-.8a9.019,9.019,0,0,0,1.764-1.115h.756V175.2h-1.344Z" fill="#fff"/>
          <path d="M267.176,172.874v.444c0,.564.192.827.636.827s.695-.263.695-.827v-2.027a1.468,1.468,0,0,1-1.223.576c-.863,0-1.583-.5-1.583-1.775V169.06c0-1.823.623-2.638,2.111-2.638s2.111.744,2.111,2.375v4.149c0,1.631-.624,2.375-2.111,2.375a1.823,1.823,0,0,1-1.931-1.919v-.528Zm1.331-4.449c0-.564-.251-.828-.695-.828s-.7.264-.7.828v1.439c0,.563.252.827.623.827a1.528,1.528,0,0,0,.768-.4Z" fill="#fff"/>
          <path d="M270.6,168.8c0-1.631.623-2.375,2.11-2.375s2.111.744,2.111,2.375v4.149c0,1.631-.624,2.375-2.111,2.375s-2.11-.744-2.11-2.375Zm2.805-.372c0-.564-.251-.828-.695-.828s-.695.264-.695.828v4.893c0,.564.252.827.695.827s.695-.263.695-.827Z" fill="#fff"/>
          <path d="M275.514,167.765v-1.223h3.91v.84l-1.763,7.819h-1.4L278,167.765Z" fill="#fff"/>
        </g>
        <rect x="255.118" y="165.139" width="24.485" height="16.374" fill="#fff"/>
      </g>
    </g>
    <polygon points="294.811 173.139 286.158 181.792 286.158 164.487 294.811 173.139" fill="#fff"/>
    <g>
      <path d="M16.19,177.673V176.51c1.847-2.7,2.855-4.185,2.855-5.457,0-.683-.264-.984-.672-.984-.479,0-.72.371-.72.9v.588H16.238v-.408a2.116,2.116,0,0,1,2.207-2.256,1.933,1.933,0,0,1,2.015,1.92c0,1.367-.432,2.375-2.758,5.637h2.626v1.223Z" fill="#272425"/>
      <path d="M21.116,171.268c0-1.631.624-2.375,2.112-2.375s2.11.744,2.11,2.375v4.151c0,1.631-.623,2.375-2.11,2.375s-2.112-.744-2.112-2.375Zm2.807-.371c0-.564-.252-.828-.695-.828s-.7.264-.7.828v4.893c0,.564.252.828.7.828s.695-.264.695-.828Z" fill="#272425"/>
      <path d="M26.019,171.268c0-1.631.623-2.375,2.11-2.375s2.111.744,2.111,2.375v4.151c0,1.631-.624,2.375-2.111,2.375s-2.11-.744-2.11-2.375Zm2.806-.371c0-.564-.252-.828-.7-.828s-.7.264-.7.828v4.893c0,.564.252.828.7.828s.7-.264.7-.828Z" fill="#272425"/>
      <path d="M32.251,175.167v.588c0,.539.216.863.672.863.431,0,.708-.3.708-1.02v-.66c0-.935-.36-1.222-1.272-1.222V172.54c.875,0,1.211-.287,1.211-1.319,0-.816-.156-1.152-.6-1.152-.42,0-.672.2-.672.887v.361H30.956v-.408a1.886,1.886,0,0,1,2.026-2.016,2,2,0,0,1,1.932,2.219c0,1.008-.168,1.572-.935,1.992.875.455,1.067.971,1.067,2.147,0,1.726-.684,2.543-2.159,2.543-1.236,0-1.979-.625-1.979-2.112v-.515Z" fill="#272425"/>
    </g>
    <g>
      <path d="M50.714,177.673V176.51c1.847-2.7,2.854-4.185,2.854-5.457,0-.683-.263-.984-.672-.984-.479,0-.719.371-.719.9v.588H50.762v-.408a2.115,2.115,0,0,1,2.207-2.256,1.932,1.932,0,0,1,2.014,1.92c0,1.367-.431,2.375-2.757,5.637h2.626v1.223Z" fill="#272425"/>
      <path d="M55.64,171.268c0-1.631.624-2.375,2.111-2.375s2.11.744,2.11,2.375v4.151c0,1.631-.623,2.375-2.11,2.375s-2.111-.744-2.111-2.375Zm2.806-.371c0-.564-.252-.828-.7-.828s-.7.264-.7.828v4.893c0,.564.252.828.7.828s.7-.264.7-.828Z" fill="#272425"/>
      <path d="M61.9,170.813H60.728v-.8a9.034,9.034,0,0,0,1.762-1.116h.756v8.78H61.9Z" fill="#272425"/>
      <path d="M65.94,170.813H64.765v-.8a9.042,9.042,0,0,0,1.763-1.116h.756v8.78H65.94Z" fill="#272425"/>
    </g>
    <g>
      <path d="M85.237,177.673V176.51c1.847-2.7,2.855-4.185,2.855-5.457,0-.683-.264-.984-.672-.984-.48,0-.72.371-.72.9v.588H85.285v-.408a2.116,2.116,0,0,1,2.207-2.256,1.933,1.933,0,0,1,2.015,1.92c0,1.367-.432,2.375-2.758,5.637h2.626v1.223Z" fill="#272425"/>
      <path d="M90.163,171.268c0-1.631.624-2.375,2.111-2.375s2.111.744,2.111,2.375v4.151c0,1.631-.623,2.375-2.111,2.375s-2.111-.744-2.111-2.375Zm2.807-.371c0-.564-.252-.828-.7-.828s-.7.264-.7.828v4.893c0,.564.252.828.7.828s.7-.264.7-.828Z" fill="#272425"/>
      <path d="M96.427,170.813H95.251v-.8a9.073,9.073,0,0,0,1.763-1.116h.756v8.78H96.427Z" fill="#272425"/>
      <path d="M99.079,177.673V176.51c1.847-2.7,2.855-4.185,2.855-5.457,0-.683-.265-.984-.672-.984-.48,0-.72.371-.72.9v.588H99.127v-.408a2.115,2.115,0,0,1,2.207-2.256,1.933,1.933,0,0,1,2.015,1.92c0,1.367-.432,2.375-2.759,5.637h2.627v1.223Z" fill="#272425"/>
    </g>
    <g>
      <path d="M119.761,177.673V176.51c1.846-2.7,2.854-4.185,2.854-5.457,0-.683-.263-.984-.672-.984-.479,0-.719.371-.719.9v.588h-1.415v-.408a2.115,2.115,0,0,1,2.207-2.256,1.932,1.932,0,0,1,2.014,1.92c0,1.367-.431,2.375-2.758,5.637H123.9v1.223Z" fill="#272425"/>
      <path d="M124.687,171.268c0-1.631.624-2.375,2.111-2.375s2.11.744,2.11,2.375v4.151c0,1.631-.623,2.375-2.11,2.375s-2.111-.744-2.111-2.375Zm2.806-.371c0-.564-.252-.828-.695-.828s-.7.264-.7.828v4.893c0,.564.252.828.7.828s.695-.264.695-.828Z" fill="#272425"/>
      <path d="M130.95,170.813h-1.176v-.8a9.012,9.012,0,0,0,1.763-1.116h.756v8.78H130.95Z" fill="#272425"/>
      <path d="M134.958,175.167v.588c0,.539.216.863.671.863.433,0,.708-.3.708-1.02v-.66c0-.935-.359-1.222-1.272-1.222V172.54c.876,0,1.212-.287,1.212-1.319,0-.816-.156-1.152-.6-1.152-.42,0-.672.2-.672.887v.361h-1.344v-.408a1.886,1.886,0,0,1,2.027-2.016,2,2,0,0,1,1.931,2.219c0,1.008-.168,1.572-.935,1.992.876.455,1.067.971,1.067,2.147,0,1.726-.684,2.543-2.158,2.543-1.236,0-1.98-.625-1.98-2.112v-.515Z" fill="#272425"/>
    </g>
    <g>
      <path d="M154.284,177.673V176.51c1.847-2.7,2.855-4.185,2.855-5.457,0-.683-.264-.984-.672-.984-.48,0-.72.371-.72.9v.588h-1.415v-.408a2.115,2.115,0,0,1,2.207-2.256,1.933,1.933,0,0,1,2.015,1.92c0,1.367-.432,2.375-2.758,5.637h2.626v1.223Z" fill="#272425"/>
      <path d="M159.21,171.268c0-1.631.624-2.375,2.111-2.375s2.111.744,2.111,2.375v4.151c0,1.631-.623,2.375-2.111,2.375s-2.111-.744-2.111-2.375Zm2.807-.371c0-.564-.252-.828-.7-.828s-.7.264-.7.828v4.893c0,.564.252.828.7.828s.7-.264.7-.828Z" fill="#272425"/>
      <path d="M165.474,170.813H164.3v-.8a9.073,9.073,0,0,0,1.763-1.116h.755v8.78h-1.342Z" fill="#272425"/>
      <path d="M169.505,175.167v.695a.667.667,0,0,0,.66.756c.468,0,.731-.275.731-1.057v-1.967c0-.562-.288-.791-.624-.791a.838.838,0,0,0-.8.661h-1.152c.049-1.344.109-2.4.109-4.45h3.61l-.048,1.223h-2.339l-.084,1.871.024.024a1.255,1.255,0,0,1,1.14-.5c1.139,0,1.583.828,1.583,2.279v1.2c0,1.824-.576,2.688-2.015,2.688-1.2,0-2.135-.53-2.135-1.967v-.66Z" fill="#272425"/>
    </g>
    <g>
      <path d="M188.808,177.673V176.51c1.846-2.7,2.854-4.185,2.854-5.457,0-.683-.264-.984-.672-.984-.479,0-.719.371-.719.9v.588h-1.416v-.408a2.116,2.116,0,0,1,2.207-2.256,1.933,1.933,0,0,1,2.015,1.92c0,1.367-.431,2.375-2.758,5.637h2.626v1.223Z" fill="#272425"/>
      <path d="M193.733,171.268c0-1.631.624-2.375,2.112-2.375s2.11.744,2.11,2.375v4.151c0,1.631-.623,2.375-2.11,2.375s-2.112-.744-2.112-2.375Zm2.807-.371c0-.564-.252-.828-.695-.828s-.7.264-.7.828v4.893c0,.564.252.828.7.828s.695-.264.695-.828Z" fill="#272425"/>
      <path d="M200,170.813h-1.176v-.8a9.042,9.042,0,0,0,1.763-1.116h.756v8.78H200Z" fill="#272425"/>
      <path d="M202.722,170.237v-1.223h3.909v.84l-1.763,7.819h-1.4l1.739-7.436Z" fill="#272425"/>
    </g>
    <g>
      <path d="M223.331,177.673V176.51c1.847-2.7,2.855-4.185,2.855-5.457,0-.683-.264-.984-.672-.984-.48,0-.72.371-.72.9v.588h-1.415v-.408a2.115,2.115,0,0,1,2.207-2.256,1.933,1.933,0,0,1,2.015,1.92c0,1.367-.432,2.375-2.758,5.637h2.626v1.223Z" fill="#272425"/>
      <path d="M228.257,171.268c0-1.631.624-2.375,2.111-2.375s2.111.744,2.111,2.375v4.151c0,1.631-.624,2.375-2.111,2.375s-2.111-.744-2.111-2.375Zm2.806-.371c0-.564-.251-.828-.695-.828s-.7.264-.7.828v4.893c0,.564.252.828.7.828s.695-.264.695-.828Z" fill="#272425"/>
      <path d="M234.521,170.813h-1.176v-.8a9.034,9.034,0,0,0,1.762-1.116h.756v8.78h-1.342Z" fill="#272425"/>
      <path d="M238.084,173.055a2.105,2.105,0,0,1-.779-1.726c0-1.68.767-2.436,1.991-2.436s1.99.756,1.99,2.436a2.105,2.105,0,0,1-.779,1.726c.731.469.9,1.164.9,2.219,0,1.631-.719,2.52-2.11,2.52s-2.111-.889-2.111-2.52C237.185,174.219,237.353,173.524,238.084,173.055Zm1.979,2.123c0-.9-.192-1.439-.767-1.439s-.768.539-.768,1.439.192,1.44.768,1.44S240.063,176.079,240.063,175.178Zm-.12-3.921c0-.84-.192-1.188-.647-1.188s-.648.348-.648,1.188.192,1.187.648,1.187S239.943,172.1,239.943,171.257Z" fill="#272425"/>
    </g>
    <g>
      <path d="M257.854,177.673V176.51c1.847-2.7,2.855-4.185,2.855-5.457,0-.683-.264-.984-.672-.984-.479,0-.72.371-.72.9v.588H257.9v-.408a2.116,2.116,0,0,1,2.207-2.256,1.933,1.933,0,0,1,2.015,1.92c0,1.367-.432,2.375-2.758,5.637h2.626v1.223Z" fill="#272425"/>
      <path d="M262.78,171.268c0-1.631.624-2.375,2.112-2.375s2.11.744,2.11,2.375v4.151c0,1.631-.623,2.375-2.11,2.375s-2.112-.744-2.112-2.375Zm2.807-.371c0-.564-.252-.828-.695-.828s-.7.264-.7.828v4.893c0,.564.252.828.7.828s.695-.264.695-.828Z" fill="#272425"/>
      <path d="M269.044,170.813h-1.176v-.8a9.042,9.042,0,0,0,1.763-1.116h.756v8.78h-1.343Z" fill="#272425"/>
      <path d="M273.184,175.346v.444c0,.564.191.828.635.828s.7-.264.7-.828v-2.028a1.468,1.468,0,0,1-1.224.577c-.863,0-1.583-.5-1.583-1.776v-1.031c0-1.822.624-2.639,2.111-2.639s2.111.744,2.111,2.375v4.151c0,1.631-.623,2.375-2.111,2.375a1.824,1.824,0,0,1-1.931-1.92v-.528Zm1.331-4.449c0-.564-.252-.828-.7-.828s-.7.264-.7.828v1.44c0,.562.252.826.624.826a1.532,1.532,0,0,0,.768-.4Z" fill="#272425"/>
    </g>
  </g>
</svg>
