<svg xmlns="http://www.w3.org/2000/svg" xmlns:xlink="http://www.w3.org/1999/xlink" width="297.622" height="136.464" viewBox="0 0 297.622 136.464">
  <defs>
    <clipPath id="a">
      <rect x="120.378" width="88.244" height="100" fill="none"/>
    </clipPath>
  </defs>
  <g>
    <g>
      <g clip-path="url(#a)">
        <path d="M164.5,20c-4.062,0-7.353-3.731-7.353-8.333s3.293-8.329,7.353-8.335,7.354,3.732,7.354,8.335S168.562,20,164.5,20m0-20c-5.685,0-10.3,5.223-10.3,11.668s4.613,11.659,10.3,11.665,10.3-5.222,10.3-11.665S170.186,0,164.5,0" fill="#4b4b4a"/>
        <path d="M168.912,25h-8.823c-7.309.009-13.231,6.721-13.237,15V68.333h5.883V100h2.941V61.667h-2.941V65h-2.943V40c.007-6.441,4.614-11.659,10.3-11.667h8.823c5.683.008,10.29,5.226,10.3,11.667V65h-2.943V61.667h-2.941V100h2.941V68.333h5.883V40c-.008-8.279-5.93-14.991-13.237-15" fill="#4b4b4a"/>
      </g>
      <rect x="163.031" y="68.334" width="2.941" height="31.666" fill="#4b4b4a"/>
      <g clip-path="url(#a)">
        <path d="M193.915,33.333c-3.248,0-5.883-2.984-5.883-6.667S190.667,20,193.915,20s5.883,2.986,5.883,6.667-2.634,6.667-5.883,6.667m0-16.666c-4.873,0-8.824,4.478-8.824,10s3.953,10,8.824,10,8.824-4.477,8.824-10-3.95-10-8.824-10" fill="#4b4b4a"/>
        <path d="M198.328,38.334H185.091v3.332h13.237c4.059.006,7.349,3.735,7.353,8.335V71.668h-2.94V68.333H199.8V100h2.943V75h5.883V50c-.007-6.441-4.613-11.661-10.3-11.667" fill="#4b4b4a"/>
      </g>
      <polygon points="185.091 68.333 185.091 71.668 179.208 71.668 179.208 75 185.091 75 185.091 99.999 188.031 99.999 188.031 68.333 185.091 68.333" fill="#4b4b4a"/>
      <rect x="192.445" y="74.999" width="2.941" height="25.001" fill="#4b4b4a"/>
      <g clip-path="url(#a)">
        <path d="M135.085,33.333c-3.248,0-5.883-2.984-5.883-6.667S131.837,20,135.085,20s5.883,2.986,5.883,6.667-2.634,6.667-5.883,6.667m0-16.666c-4.873,0-8.824,4.478-8.824,10s3.953,10,8.824,10,8.824-4.477,8.824-10-3.95-10-8.824-10" fill="#4b4b4a"/>
        <path d="M130.673,38.334c-5.683.006-10.29,5.226-10.3,11.667V75h5.883v25H129.2V68.333H126.26v3.335h-2.94V50c0-4.6,3.293-8.329,7.353-8.335H143.91V38.334Z" fill="#4b4b4a"/>
      </g>
      <polygon points="140.968 68.333 140.968 99.999 143.909 99.999 143.909 75 149.794 75 149.794 71.668 143.909 71.668 143.909 68.333 140.968 68.333" fill="#4b4b4a"/>
      <rect x="133.615" y="74.999" width="2.941" height="25.001" fill="#4b4b4a"/>
    </g>
    <g>
      <path d="M113.72,127.206a.327.327,0,0,1,0-.473l1.385-1.486a.328.328,0,0,1,.474,0,7.859,7.859,0,0,0,5,1.858c2.365,0,3.547-1.014,3.547-2.467,0-1.283-.607-1.993-3.141-2.263l-1.723-.169c-3.176-.338-4.831-1.926-4.831-4.56,0-3.075,2.195-4.933,6.013-4.933a9.675,9.675,0,0,1,5.743,1.791.326.326,0,0,1,.068.473l-1.149,1.452a.331.331,0,0,1-.473.068,8.514,8.514,0,0,0-4.358-1.318c-2.027,0-3.074.913-3.074,2.23,0,1.284.777,1.959,3.175,2.2l1.69.169c3.277.3,4.864,1.959,4.864,4.561,0,3.175-2.3,5.3-6.52,5.3A10.056,10.056,0,0,1,113.72,127.206Z" fill="#4b4b4a"/>
      <path d="M140.674,129.267a.58.58,0,0,1-.54-.338L135.54,121.4l-2.8,3.277v4.257a.319.319,0,0,1-.338.338h-2.162a.32.32,0,0,1-.338-.338v-22.3a.32.32,0,0,1,.338-.338H132.4a.319.319,0,0,1,.338.338v14.291l6.386-7.534a.718.718,0,0,1,.608-.3h2.5c.2,0,.27.169.135.338L137.4,119.2l5.98,9.73a.218.218,0,0,1-.2.338Z" fill="#4b4b4a"/>
      <path d="M146.247,109.436a.319.319,0,0,1-.338-.338v-2.466a.319.319,0,0,1,.338-.338h2.3a.319.319,0,0,1,.338.338V109.1a.319.319,0,0,1-.338.338Zm.067,19.831a.319.319,0,0,1-.337-.338V113.423a.319.319,0,0,1,.337-.338h2.163a.319.319,0,0,1,.337.338v15.506a.319.319,0,0,1-.337.338Z" fill="#4b4b4a"/>
      <path d="M156.667,129.436c-2.838,0-3.953-1.352-3.953-4.257V106.632a.319.319,0,0,1,.338-.338h2.162a.319.319,0,0,1,.338.338V125.01c0,1.352.507,1.791,1.621,1.791h.642a.319.319,0,0,1,.338.337v1.96a.319.319,0,0,1-.338.338Z" fill="#4b4b4a"/>
      <path d="M164.664,129.436c-2.838,0-3.953-1.352-3.953-4.257V106.632a.319.319,0,0,1,.338-.338h2.162a.319.319,0,0,1,.338.338V125.01c0,1.352.507,1.791,1.621,1.791h.642a.319.319,0,0,1,.338.337v1.96a.319.319,0,0,1-.338.338Z" fill="#4b4b4a"/>
      <path d="M168.337,125.247a12.684,12.684,0,0,1-.541-4.088,12.55,12.55,0,0,1,.507-4.088,6.807,6.807,0,0,1,12.7,0,14.11,14.11,0,0,1,.507,4.628.329.329,0,0,1-.371.338H170.9a.179.179,0,0,0-.2.2,6.059,6.059,0,0,0,.27,1.959,4,4,0,0,0,4.088,2.8,5.288,5.288,0,0,0,4.155-1.79.345.345,0,0,1,.507-.068l1.385,1.25a.3.3,0,0,1,.034.473,7.868,7.868,0,0,1-6.318,2.77C171.546,129.638,169.215,128.051,168.337,125.247Zm10.067-5.473a.179.179,0,0,0,.2-.2,5.693,5.693,0,0,0-.236-1.824,3.992,3.992,0,0,0-7.433,0,5.693,5.693,0,0,0-.236,1.824.179.179,0,0,0,.2.2Z" fill="#4b4b4a"/>
      <path d="M195.112,129.267a.32.32,0,0,1-.338-.338v-1.554h-.033a4.925,4.925,0,0,1-4.6,2.263,5.347,5.347,0,0,1-5.574-3.885,13.474,13.474,0,0,1-.574-4.594,13.39,13.39,0,0,1,.574-4.561,5.347,5.347,0,0,1,5.574-3.885c2.433,0,3.817.946,4.6,2.23h.033v-8.311a.32.32,0,0,1,.338-.338h2.162a.319.319,0,0,1,.338.338v22.3a.319.319,0,0,1-.338.338Zm-.709-4.73a10.409,10.409,0,0,0,.371-3.378,10.55,10.55,0,0,0-.371-3.379,3.828,3.828,0,0,0-7.129,0,11.534,11.534,0,0,0-.371,3.379,11.234,11.234,0,0,0,.371,3.378,3.809,3.809,0,0,0,7.129,0Z" fill="#4b4b4a"/>
      <path d="M209.912,135.348a.319.319,0,0,1-.338-.338V113.423a.319.319,0,0,1,.338-.338h2.162a.319.319,0,0,1,.338.338v1.52h.034c.777-1.284,2.162-2.23,4.595-2.23a5.348,5.348,0,0,1,5.574,3.885,13.39,13.39,0,0,1,.574,4.561,13.474,13.474,0,0,1-.574,4.594,5.348,5.348,0,0,1-5.574,3.885,4.924,4.924,0,0,1-4.595-2.263h-.034v7.635a.319.319,0,0,1-.338.338Zm10-10.811a11.229,11.229,0,0,0,.372-3.378,11.529,11.529,0,0,0-.372-3.379,3.827,3.827,0,0,0-7.128,0,10.544,10.544,0,0,0-.372,3.379,10.4,10.4,0,0,0,.372,3.378,3.808,3.808,0,0,0,7.128,0Z" fill="#4b4b4a"/>
      <path d="M226.276,125.247a12.684,12.684,0,0,1-.541-4.088,12.55,12.55,0,0,1,.507-4.088,6.807,6.807,0,0,1,12.7,0,14.11,14.11,0,0,1,.507,4.628.329.329,0,0,1-.371.338H228.843a.179.179,0,0,0-.2.2,6.059,6.059,0,0,0,.27,1.959A4,4,0,0,0,233,127a5.288,5.288,0,0,0,4.155-1.79.345.345,0,0,1,.507-.068l1.385,1.25a.3.3,0,0,1,.034.473,7.868,7.868,0,0,1-6.318,2.77C229.485,129.638,227.154,128.051,226.276,125.247Zm10.067-5.473a.179.179,0,0,0,.2-.2,5.693,5.693,0,0,0-.236-1.824,3.992,3.992,0,0,0-7.433,0,5.693,5.693,0,0,0-.236,1.824.179.179,0,0,0,.2.2Z" fill="#4b4b4a"/>
      <path d="M242.477,125.28a15.869,15.869,0,0,1,0-8.209,6.856,6.856,0,0,1,12.77,0,15.84,15.84,0,0,1,0,8.209,6.856,6.856,0,0,1-12.77,0Zm10.034-.811a10.6,10.6,0,0,0,.371-3.31,10.372,10.372,0,0,0-.371-3.277,3.894,3.894,0,0,0-7.3,0,10.372,10.372,0,0,0-.371,3.277,10.6,10.6,0,0,0,.371,3.31,3.894,3.894,0,0,0,7.3,0Z" fill="#4b4b4a"/>
      <path d="M259.354,135.348a.319.319,0,0,1-.338-.338V113.423a.319.319,0,0,1,.338-.338h2.162a.32.32,0,0,1,.338.338v1.52h.033c.778-1.284,2.162-2.23,4.6-2.23a5.347,5.347,0,0,1,5.574,3.885,13.39,13.39,0,0,1,.574,4.561,13.474,13.474,0,0,1-.574,4.594,5.347,5.347,0,0,1-5.574,3.885,4.925,4.925,0,0,1-4.6-2.263h-.033v7.635a.32.32,0,0,1-.338.338Zm10-10.811a11.234,11.234,0,0,0,.371-3.378,11.534,11.534,0,0,0-.371-3.379,3.828,3.828,0,0,0-7.129,0,10.55,10.55,0,0,0-.371,3.379,10.409,10.409,0,0,0,.371,3.378,3.809,3.809,0,0,0,7.129,0Z" fill="#4b4b4a"/>
      <path d="M279.822,129.436c-2.838,0-3.953-1.352-3.953-4.257V106.632a.319.319,0,0,1,.338-.338h2.162a.319.319,0,0,1,.338.338V125.01c0,1.352.507,1.791,1.622,1.791h.641a.319.319,0,0,1,.338.337v1.96a.319.319,0,0,1-.338.338Z" fill="#4b4b4a"/>
      <path d="M283.5,125.247a12.684,12.684,0,0,1-.541-4.088,12.55,12.55,0,0,1,.507-4.088,6.807,6.807,0,0,1,12.7,0,14.11,14.11,0,0,1,.507,4.628.329.329,0,0,1-.372.338H286.066a.18.18,0,0,0-.2.2,6.056,6.056,0,0,0,.271,1.959,4,4,0,0,0,4.087,2.8,5.285,5.285,0,0,0,4.155-1.79.345.345,0,0,1,.507-.068l1.386,1.25a.3.3,0,0,1,.033.473,7.864,7.864,0,0,1-6.317,2.77C286.708,129.638,284.377,128.051,283.5,125.247Zm10.067-5.473a.18.18,0,0,0,.2-.2,5.691,5.691,0,0,0-.237-1.824,3.992,3.992,0,0,0-7.432,0,5.691,5.691,0,0,0-.237,1.824.18.18,0,0,0,.2.2Z" fill="#4b4b4a"/>
    </g>
    <g>
      <path d="M4.772,107.136a1.374,1.374,0,0,1,.368-1.028L22.688,85.256a10.21,10.21,0,0,0,2.937-6.9c0-3.3-1.982-5.727-5.433-5.727-3.378,0-5.434,2.056-5.874,5.874,0,.441-.294.661-.808.588L5.434,77.766a.71.71,0,0,1-.588-.881c.514-6.9,6.094-12.923,15.713-12.923,9.545,0,15.346,6.168,15.346,14.245,0,4.772-1.909,8.517-5.066,12.115L17.7,105.815v.146H35.171a.694.694,0,0,1,.734.735v7.269a.694.694,0,0,1-.734.734H5.507a.694.694,0,0,1-.735-.734Z" fill="#4b4b4a"/>
      <path d="M40.5,89.735c0-11.088.367-13.364,1.1-15.567,2.056-6.388,7.2-10.206,15.052-10.206s13,3.818,15.052,10.206c.734,2.2,1.1,4.479,1.1,15.567S72.438,103.1,71.7,105.3c-2.056,6.388-7.2,10.206-15.052,10.206s-13-3.818-15.052-10.206C40.866,103.1,40.5,100.822,40.5,89.735Zm16.153,17.108c2.57,0,4.332-1.1,5.066-3.378.441-1.322.588-2.79.588-13.73S62.159,77.325,61.718,76c-.734-2.276-2.5-3.378-5.066-3.378-2.643,0-4.332,1.1-5.067,3.378-.44,1.321-.587,2.79-.587,13.731s.147,12.408.587,13.73C52.32,105.741,54.009,106.843,56.652,106.843Z" fill="#4b4b4a"/>
      <path d="M77.847,89.735c0-11.088.367-13.364,1.1-15.567C81,67.78,86.144,63.962,94,63.962s13,3.818,15.053,10.206c.734,2.2,1.1,4.479,1.1,15.567s-.367,13.363-1.1,15.566c-2.056,6.388-7.2,10.206-15.053,10.206S81,111.689,78.948,105.3C78.214,103.1,77.847,100.822,77.847,89.735ZM94,106.843c2.57,0,4.333-1.1,5.067-3.378.44-1.322.587-2.79.587-13.73S99.507,77.325,99.067,76c-.734-2.276-2.5-3.378-5.067-3.378-2.643,0-4.332,1.1-5.066,3.378-.44,1.321-.587,2.79-.587,13.731s.147,12.408.587,13.73C89.668,105.741,91.357,106.843,94,106.843Z" fill="#4b4b4a"/>
    </g>
  </g>
</svg>
