<svg xmlns="http://www.w3.org/2000/svg" width="162.606mm" height="104.641mm" viewBox="0 0 460.93 296.62">
  <g>
    <path d="M214.454,270.133A130.473,130.473,0,0,1,94.3,88.969l11.974,5.063a117.4,117.4,0,1,0,216.36,0l11.973-5.063A130.366,130.366,0,0,1,214.454,270.133Z" fill="#898a8d"/>
    <path d="M322.634,94.033a117.3,117.3,0,0,0-108.18-71.707v-13A130.54,130.54,0,0,1,334.607,88.968Z" fill="#4e4e50"/>
    <path d="M106.273,94.033,94.3,88.968A130.3,130.3,0,0,1,214.454,9.326v13A117.543,117.543,0,0,0,106.273,94.033Z" fill="#a6a8aa"/>
    <polygon points="214.384 139.965 318.146 84.56 327.13 86.122 329.669 77.919 339.63 89.052 214.384 139.965" fill="#fff"/>
    <polygon points="214.287 141.864 104.339 100.347 99.996 92.328 90.869 94.68 96.441 81.56 214.287 141.864" fill="#fff"/>
    <polygon points="214.136 140.499 202.26 23.472 207.115 15.753 200.49 10.291 214.57 5.301 214.136 140.499" fill="#fff"/>
    <g>
      <path d="M361.737,158.907a.209.209,0,0,1-.017-.289l1.292-1.478a.171.171,0,0,1,.255-.018,4.906,4.906,0,0,0,3.025,1.19c1.208,0,1.887-.561,1.887-1.376,0-.68-.408-1.106-1.784-1.292l-.612-.085c-2.346-.324-3.655-1.428-3.655-3.468,0-2.125,1.6-3.535,4.1-3.535a6.546,6.546,0,0,1,3.927,1.206c.1.068.119.136.034.255l-1.037,1.546a.169.169,0,0,1-.237.052,4.779,4.779,0,0,0-2.687-.884c-1.019,0-1.546.527-1.546,1.258,0,.662.476,1.088,1.8,1.275l.611.085c2.38.323,3.638,1.411,3.638,3.5s-1.547,3.637-4.538,3.637A6.818,6.818,0,0,1,361.737,158.907Z" fill="#898a8d"/>
      <path d="M372.413,148.912a.161.161,0,0,1,.17-.17h2.159a.162.162,0,0,1,.17.17v4.335a.09.09,0,0,0,.1.1h3.774a.091.091,0,0,0,.1-.1v-4.335a.162.162,0,0,1,.17-.17h2.159a.161.161,0,0,1,.17.17v11.219a.161.161,0,0,1-.17.17h-2.159a.161.161,0,0,1-.17-.17v-4.453a.09.09,0,0,0-.1-.1h-3.774a.09.09,0,0,0-.1.1v4.453a.161.161,0,0,1-.17.17h-2.159a.161.161,0,0,1-.17-.17Z" fill="#898a8d"/>
      <path d="M386.709,148.912a.222.222,0,0,1,.221-.17h2.142a.221.221,0,0,1,.221.17l3.91,11.219c.034.1,0,.17-.12.17h-2.208a.205.205,0,0,1-.222-.17l-.663-2.023h-4.045l-.647,2.023a.2.2,0,0,1-.22.17h-2.227c-.119,0-.153-.068-.119-.17Zm2.6,7.071L388,151.937h-.05l-1.31,4.046Z" fill="#898a8d"/>
      <path d="M394.716,160.3a.161.161,0,0,1-.17-.17V148.912a.162.162,0,0,1,.17-.17H399.2c2.516,0,4.029,1.513,4.029,3.723,0,2.176-1.53,3.706-4.029,3.706h-2.057a.09.09,0,0,0-.1.1v3.859a.161.161,0,0,1-.17.17Zm6.018-7.836a1.516,1.516,0,0,0-1.683-1.564h-1.9a.091.091,0,0,0-.1.1v2.907a.091.091,0,0,0,.1.1h1.9A1.5,1.5,0,0,0,400.734,152.465Z" fill="#898a8d"/>
      <path d="M404.832,148.912a.161.161,0,0,1,.169-.17h2.16a.162.162,0,0,1,.17.17v11.219a.161.161,0,0,1-.17.17H405a.16.16,0,0,1-.169-.17Z" fill="#898a8d"/>
      <path d="M409.541,148.912a.161.161,0,0,1,.169-.17h2.04a.317.317,0,0,1,.29.17l4.079,7.275h.085v-7.275a.161.161,0,0,1,.17-.17h1.92a.161.161,0,0,1,.17.17v11.219a.16.16,0,0,1-.17.17h-2.022a.3.3,0,0,1-.289-.17l-4.1-7.258H411.8v7.258a.16.16,0,0,1-.17.17H409.71a.16.16,0,0,1-.169-.17Z" fill="#898a8d"/>
      <path d="M420.37,154.521a9.322,9.322,0,0,1,.323-3.161,4.642,4.642,0,0,1,8.362-.34.174.174,0,0,1-.067.255l-1.82.765c-.119.034-.2,0-.237-.085a2.111,2.111,0,0,0-1.989-1.19,1.784,1.784,0,0,0-1.853,1.292,8.359,8.359,0,0,0-.187,2.464,8.508,8.508,0,0,0,.187,2.482,1.8,1.8,0,0,0,1.887,1.275,1.826,1.826,0,0,0,1.853-1.19,4,4,0,0,0,.135-1.139.089.089,0,0,0-.1-.1H425.3a.161.161,0,0,1-.17-.17v-1.632a.16.16,0,0,1,.17-.17h3.978a.161.161,0,0,1,.17.17V155a9.228,9.228,0,0,1-.289,2.6,4.138,4.138,0,0,1-4.216,2.889,4.094,4.094,0,0,1-4.249-2.8A9.332,9.332,0,0,1,420.37,154.521Z" fill="#898a8d"/>
      <path d="M440.157,160.3a.16.16,0,0,1-.17-.17v-.544h-.018a2.685,2.685,0,0,1-2.261.9,2.448,2.448,0,0,1-2.736-2.515c0-1.82,1.377-2.653,3.416-2.653h1.462a.091.091,0,0,0,.1-.1v-.307c0-.765-.374-1.121-1.683-1.121a3.065,3.065,0,0,0-1.836.526.136.136,0,0,1-.222-.034l-.764-1.343a.163.163,0,0,1,.051-.237,5.214,5.214,0,0,1,3.06-.816c2.686,0,3.654.918,3.654,2.974v5.27a.161.161,0,0,1-.17.17Zm-.2-2.737V157a.091.091,0,0,0-.1-.1H438.7c-1,0-1.462.289-1.462.935,0,.578.408.867,1.189.867C439.443,158.7,439.953,158.329,439.953,157.564Z" fill="#898a8d"/>
      <path d="M449.421,160.3a.161.161,0,0,1-.17-.17v-4.726c0-.9-.424-1.5-1.274-1.5-.816,0-1.292.595-1.292,1.5v4.726a.161.161,0,0,1-.17.17h-2.04a.161.161,0,0,1-.17-.17v-7.887a.161.161,0,0,1,.17-.17h2.04a.161.161,0,0,1,.17.17v.578h.017a2.523,2.523,0,0,1,2.125-.935c1.818,0,2.8,1.258,2.8,3.059v5.185a.161.161,0,0,1-.17.17Z" fill="#898a8d"/>
      <path d="M458.72,160.3a.161.161,0,0,1-.17-.17v-.595h-.016a2.452,2.452,0,0,1-2.159.952,2.726,2.726,0,0,1-2.789-1.971,7.25,7.25,0,0,1-.288-2.33,7.175,7.175,0,0,1,.288-2.329,2.707,2.707,0,0,1,2.789-1.971,2.452,2.452,0,0,1,2.159.952h.016v-3.927a.162.162,0,0,1,.17-.17h2.04a.161.161,0,0,1,.17.17v11.219a.161.161,0,0,1-.17.17Zm-.323-2.7a6.587,6.587,0,0,0,0-2.823,1.349,1.349,0,0,0-2.532,0,6.546,6.546,0,0,0,0,2.823,1.349,1.349,0,0,0,2.532,0Z" fill="#898a8d"/>
      <path d="M359.374,169.312a.159.159,0,0,1,.169-.169h7.412a.16.16,0,0,1,.17.169v1.819a.162.162,0,0,1-.17.17h-4.981a.09.09,0,0,0-.1.1v2.431a.091.091,0,0,0,.1.1h4.148a.161.161,0,0,1,.17.169v1.8a.161.161,0,0,1-.17.17h-4.148a.09.09,0,0,0-.1.1v4.351a.161.161,0,0,1-.17.17h-2.159a.16.16,0,0,1-.169-.17Z" fill="#898a8d"/>
      <path d="M368.859,178.083a15.634,15.634,0,0,1,0-6.323,4.571,4.571,0,0,1,8.432,0,15.681,15.681,0,0,1,0,6.323,4.571,4.571,0,0,1-8.432,0Zm6.034-.68a16.478,16.478,0,0,0,0-4.964,1.936,1.936,0,0,0-3.638,0,16.653,16.653,0,0,0,0,4.964,1.935,1.935,0,0,0,3.638,0Z" fill="#898a8d"/>
      <path d="M385.909,180.7a.231.231,0,0,1-.255-.17l-1.988-4.232h-1.547a.09.09,0,0,0-.1.1v4.131a.16.16,0,0,1-.17.17h-2.158a.16.16,0,0,1-.17-.17V169.312a.159.159,0,0,1,.17-.169h4.606c2.363,0,3.927,1.478,3.927,3.585a3.384,3.384,0,0,1-2.057,3.213l2.278,4.556a.131.131,0,0,1-.119.2Zm-.187-7.973a1.4,1.4,0,0,0-1.563-1.427h-2.04a.09.09,0,0,0-.1.1v2.668a.091.091,0,0,0,.1.1h2.04A1.409,1.409,0,0,0,385.722,172.728Z" fill="#898a8d"/>
      <path d="M390.125,169.312a.16.16,0,0,1,.17-.169h2.024a.259.259,0,0,1,.271.169l2.924,6.595h.069l2.872-6.595a.26.26,0,0,1,.272-.169h1.988a.159.159,0,0,1,.17.169v11.219a.16.16,0,0,1-.17.17h-1.921a.16.16,0,0,1-.169-.17V174.02h-.068l-2.142,4.879a.325.325,0,0,1-.323.221h-1.173a.326.326,0,0,1-.323-.221l-2.141-4.879h-.069v6.511a.16.16,0,0,1-.17.17H390.3a.161.161,0,0,1-.17-.17Z" fill="#898a8d"/>
      <path d="M403.1,169.312a.16.16,0,0,1,.17-.169h2.159a.16.16,0,0,1,.17.169v11.219a.161.161,0,0,1-.17.17h-2.159a.161.161,0,0,1-.17-.17Z" fill="#898a8d"/>
      <path d="M407.805,169.312a.16.16,0,0,1,.17-.169h2.04a.315.315,0,0,1,.289.169l4.079,7.275h.085v-7.275a.16.16,0,0,1,.17-.169h1.921a.159.159,0,0,1,.17.169v11.219a.16.16,0,0,1-.17.17h-2.022a.3.3,0,0,1-.289-.17l-4.1-7.259h-.085v7.259a.16.16,0,0,1-.17.17h-1.921a.161.161,0,0,1-.17-.17Z" fill="#898a8d"/>
      <path d="M418.634,174.922a9.318,9.318,0,0,1,.324-3.162,4.641,4.641,0,0,1,8.362-.34.174.174,0,0,1-.068.255l-1.819.764c-.119.035-.2,0-.237-.085a2.112,2.112,0,0,0-1.989-1.189,1.783,1.783,0,0,0-1.853,1.292,8.316,8.316,0,0,0-.187,2.465,8.466,8.466,0,0,0,.187,2.481,1.8,1.8,0,0,0,1.887,1.275,1.824,1.824,0,0,0,1.852-1.19,3.989,3.989,0,0,0,.136-1.138.09.09,0,0,0-.1-.1h-1.563a.16.16,0,0,1-.17-.17v-1.632a.161.161,0,0,1,.17-.17h3.978a.161.161,0,0,1,.169.17v.952a9.228,9.228,0,0,1-.289,2.6,4.137,4.137,0,0,1-4.215,2.89,4.093,4.093,0,0,1-4.249-2.805A9.311,9.311,0,0,1,418.634,174.922Z" fill="#898a8d"/>
    </g>
    <g>
      <path d="M308.1,14.561a.161.161,0,0,1,.17-.17h4.3a3.782,3.782,0,0,1,4,2.6,9.767,9.767,0,0,1,.306,3.178,9.77,9.77,0,0,1-.306,3.179,3.782,3.782,0,0,1-4,2.6h-4.3a.161.161,0,0,1-.17-.17Zm2.6,9.162h1.308c1.157,0,1.853-.34,2.142-1.275a7.074,7.074,0,0,0,.187-2.278,7.061,7.061,0,0,0-.187-2.277c-.289-.936-.985-1.275-2.142-1.275H310.7a.09.09,0,0,0-.1.1v6.9A.09.09,0,0,0,310.7,23.723Z" fill="#4e4e50"/>
      <path d="M318.809,14.561a.16.16,0,0,1,.17-.17h7.411a.161.161,0,0,1,.17.17V16.38a.161.161,0,0,1-.17.17h-4.98a.09.09,0,0,0-.1.1v2.294a.09.09,0,0,0,.1.1h4.147a.161.161,0,0,1,.17.17v1.8a.161.161,0,0,1-.17.17H321.41a.09.09,0,0,0-.1.1v2.4a.09.09,0,0,0,.1.1h4.98a.161.161,0,0,1,.17.17V25.78a.161.161,0,0,1-.17.17h-7.411a.16.16,0,0,1-.17-.17Z" fill="#4e4e50"/>
      <path d="M327.853,24.556a.209.209,0,0,1-.018-.289l1.292-1.479a.17.17,0,0,1,.255-.017,4.91,4.91,0,0,0,3.027,1.19c1.206,0,1.886-.561,1.886-1.377,0-.68-.408-1.105-1.785-1.292l-.612-.085c-2.346-.323-3.654-1.428-3.654-3.467,0-2.125,1.6-3.536,4.1-3.536a6.537,6.537,0,0,1,3.927,1.207c.1.068.119.136.034.254l-1.037,1.547a.171.171,0,0,1-.238.052,4.776,4.776,0,0,0-2.686-.884c-1.019,0-1.547.527-1.547,1.258,0,.662.476,1.088,1.8,1.275l.613.085c2.379.322,3.637,1.41,3.637,3.5s-1.547,3.638-4.539,3.638A6.813,6.813,0,0,1,327.853,24.556Z" fill="#4e4e50"/>
      <path d="M338.529,14.561a.16.16,0,0,1,.17-.17h2.158a.161.161,0,0,1,.17.17V25.78a.161.161,0,0,1-.17.17H338.7a.16.16,0,0,1-.17-.17Z" fill="#4e4e50"/>
      <path d="M342.931,20.17a9.374,9.374,0,0,1,.323-3.161,4.643,4.643,0,0,1,8.364-.341.176.176,0,0,1-.069.256l-1.818.764c-.119.035-.2,0-.238-.085a2.112,2.112,0,0,0-1.989-1.189,1.783,1.783,0,0,0-1.853,1.292,8.312,8.312,0,0,0-.187,2.464,8.474,8.474,0,0,0,.187,2.482,1.8,1.8,0,0,0,1.887,1.275,1.826,1.826,0,0,0,1.853-1.19,4,4,0,0,0,.136-1.139.09.09,0,0,0-.1-.1h-1.564a.161.161,0,0,1-.17-.17V19.694a.161.161,0,0,1,.17-.17h3.977a.16.16,0,0,1,.17.17v.952a9.228,9.228,0,0,1-.289,2.6,4.137,4.137,0,0,1-4.215,2.89,4.1,4.1,0,0,1-4.25-2.8A9.377,9.377,0,0,1,342.931,20.17Z" fill="#4e4e50"/>
      <path d="M353.914,14.561a.16.16,0,0,1,.169-.17h2.04a.316.316,0,0,1,.289.17l4.08,7.275h.085V14.561a.161.161,0,0,1,.17-.17h1.92a.161.161,0,0,1,.17.17V25.78a.161.161,0,0,1-.17.17h-2.022a.3.3,0,0,1-.289-.17l-4.1-7.259h-.085V25.78a.161.161,0,0,1-.17.17h-1.921a.16.16,0,0,1-.169-.17Z" fill="#4e4e50"/>
      <path d="M373.853,25.95a.161.161,0,0,1-.17-.17v-.544h-.016a2.686,2.686,0,0,1-2.261.9,2.449,2.449,0,0,1-2.738-2.516c0-1.819,1.377-2.652,3.417-2.652h1.462a.09.09,0,0,0,.1-.1v-.306c0-.765-.374-1.122-1.683-1.122a3.067,3.067,0,0,0-1.836.527.135.135,0,0,1-.22-.034l-.765-1.343a.162.162,0,0,1,.051-.237,5.206,5.206,0,0,1,3.059-.816c2.686,0,3.655.918,3.655,2.974v5.27a.161.161,0,0,1-.17.17Zm-.2-2.737v-.561a.09.09,0,0,0-.1-.1h-1.156c-1,0-1.462.289-1.462.935,0,.578.408.867,1.191.867C373.139,24.352,373.649,23.978,373.649,23.213Z" fill="#4e4e50"/>
      <path d="M383.119,25.95a.16.16,0,0,1-.17-.17V21.054c0-.9-.426-1.5-1.276-1.5-.815,0-1.292.595-1.292,1.5V25.78a.16.16,0,0,1-.17.17h-2.04a.161.161,0,0,1-.17-.17V17.893a.161.161,0,0,1,.17-.17h2.04a.16.16,0,0,1,.17.17v.577h.018a2.523,2.523,0,0,1,2.124-.934c1.819,0,2.8,1.257,2.8,3.059V25.78a.161.161,0,0,1-.17.17Z" fill="#4e4e50"/>
      <path d="M392.417,25.95a.16.16,0,0,1-.169-.17v-.6h-.018a2.448,2.448,0,0,1-2.158.952,2.723,2.723,0,0,1-2.788-1.972A7.207,7.207,0,0,1,387,21.836a7.139,7.139,0,0,1,.289-2.329,2.7,2.7,0,0,1,2.788-1.971,2.447,2.447,0,0,1,2.158.951h.018V14.561a.16.16,0,0,1,.169-.17h2.04a.16.16,0,0,1,.169.17V25.78a.16.16,0,0,1-.169.17Zm-.323-2.7a4.44,4.44,0,0,0,.154-1.411,4.44,4.44,0,0,0-.154-1.411,1.349,1.349,0,0,0-2.533,0,4.455,4.455,0,0,0-.152,1.411,4.455,4.455,0,0,0,.152,1.411,1.349,1.349,0,0,0,2.533,0Z" fill="#4e4e50"/>
      <path d="M329.075,46.35a.16.16,0,0,1-.17-.17V34.961a.161.161,0,0,1,.17-.171h4.487c2.516,0,4.028,1.514,4.028,3.723,0,2.176-1.529,3.706-4.028,3.706h-2.057a.09.09,0,0,0-.1.1V46.18a.161.161,0,0,1-.17.17Zm6.017-7.837a1.516,1.516,0,0,0-1.683-1.563h-1.9a.09.09,0,0,0-.1.1v2.906a.09.09,0,0,0,.1.1h1.9A1.5,1.5,0,0,0,335.092,38.513Z" fill="#4e4e50"/>
      <path d="M345.581,46.35a.23.23,0,0,1-.255-.17l-1.989-4.233h-1.546a.09.09,0,0,0-.1.1V46.18a.16.16,0,0,1-.17.17H339.36a.16.16,0,0,1-.17-.17V34.961a.161.161,0,0,1,.17-.171h4.606c2.363,0,3.927,1.48,3.927,3.587a3.385,3.385,0,0,1-2.058,3.213l2.279,4.555a.131.131,0,0,1-.119.2Zm-.187-7.973a1.4,1.4,0,0,0-1.563-1.427h-2.04a.09.09,0,0,0-.1.1V39.72a.09.09,0,0,0,.1.1h2.04A1.408,1.408,0,0,0,345.394,38.377Z" fill="#4e4e50"/>
      <path d="M349.747,43.732a9.344,9.344,0,0,1-.324-3.162,9.334,9.334,0,0,1,.324-3.161,4.57,4.57,0,0,1,8.431,0,9.347,9.347,0,0,1,.322,3.161,9.358,9.358,0,0,1-.322,3.162,4.57,4.57,0,0,1-8.431,0Zm6.034-.68a8.474,8.474,0,0,0,.187-2.482,8.479,8.479,0,0,0-.187-2.482,1.935,1.935,0,0,0-3.638,0,8.5,8.5,0,0,0-.186,2.482,8.49,8.49,0,0,0,.186,2.482,1.935,1.935,0,0,0,3.638,0Z" fill="#4e4e50"/>
      <path d="M362.649,46.35a.161.161,0,0,1-.17-.17V37.12a.09.09,0,0,0-.1-.1h-2.923a.16.16,0,0,1-.17-.17V34.961a.161.161,0,0,1,.17-.171H368a.161.161,0,0,1,.17.171v1.887a.161.161,0,0,1-.17.17H365.08a.09.09,0,0,0-.1.1v9.06a.161.161,0,0,1-.17.17Z" fill="#4e4e50"/>
      <path d="M369.28,43.732a9.325,9.325,0,0,1-.323-3.162,9.314,9.314,0,0,1,.323-3.161,4.569,4.569,0,0,1,8.43,0,9.334,9.334,0,0,1,.324,3.161,9.344,9.344,0,0,1-.324,3.162,4.569,4.569,0,0,1-8.43,0Zm6.034-.68a8.49,8.49,0,0,0,.186-2.482,8.5,8.5,0,0,0-.186-2.482,1.935,1.935,0,0,0-3.638,0,8.517,8.517,0,0,0-.187,2.482,8.513,8.513,0,0,0,.187,2.482,1.935,1.935,0,0,0,3.638,0Z" fill="#4e4e50"/>
      <path d="M382.182,46.35a.161.161,0,0,1-.17-.17V37.12a.09.09,0,0,0-.1-.1h-2.924a.16.16,0,0,1-.17-.17V34.961a.161.161,0,0,1,.17-.171h8.55a.162.162,0,0,1,.17.171v1.887a.161.161,0,0,1-.17.17h-2.924a.09.09,0,0,0-.1.1v9.06a.161.161,0,0,1-.17.17Z" fill="#4e4e50"/>
      <path d="M391.736,46.35a.161.161,0,0,1-.17-.17V41.743l-3.417-6.782a.116.116,0,0,1,.119-.171h2.21a.255.255,0,0,1,.255.171l2.091,4.215h.051l2.09-4.215a.257.257,0,0,1,.255-.171h2.143c.118,0,.17.086.118.171l-3.416,6.782V46.18a.161.161,0,0,1-.17.17Z" fill="#4e4e50"/>
      <path d="M398.927,46.35a.161.161,0,0,1-.17-.17V34.961a.161.161,0,0,1,.17-.171h4.488c2.515,0,4.028,1.514,4.028,3.723,0,2.176-1.529,3.706-4.028,3.706h-2.057a.091.091,0,0,0-.1.1V46.18a.16.16,0,0,1-.17.17Zm6.018-7.837a1.517,1.517,0,0,0-1.684-1.563h-1.9a.09.09,0,0,0-.1.1v2.906a.091.091,0,0,0,.1.1h1.9A1.5,1.5,0,0,0,404.945,38.513Z" fill="#4e4e50"/>
      <path d="M409.042,34.961a.161.161,0,0,1,.17-.171h2.159a.161.161,0,0,1,.17.171V46.18a.161.161,0,0,1-.17.17h-2.159a.161.161,0,0,1-.17-.17Z" fill="#4e4e50"/>
      <path d="M413.751,34.961a.161.161,0,0,1,.17-.171h2.039a.317.317,0,0,1,.29.171l4.08,7.275h.085V34.961a.161.161,0,0,1,.169-.171h1.921a.161.161,0,0,1,.17.171V46.18a.161.161,0,0,1-.17.17h-2.022a.3.3,0,0,1-.289-.17l-4.1-7.259h-.085V46.18a.161.161,0,0,1-.17.17h-1.921a.161.161,0,0,1-.17-.17Z" fill="#4e4e50"/>
      <path d="M424.58,40.57a9.341,9.341,0,0,1,.323-3.161,4.642,4.642,0,0,1,8.363-.341.176.176,0,0,1-.068.256l-1.819.764c-.119.035-.2,0-.238-.085a2.112,2.112,0,0,0-1.988-1.19A1.785,1.785,0,0,0,427.3,38.1a8.379,8.379,0,0,0-.186,2.465,8.529,8.529,0,0,0,.186,2.482,1.8,1.8,0,0,0,1.887,1.275,1.828,1.828,0,0,0,1.854-1.19A4,4,0,0,0,431.175,42a.09.09,0,0,0-.1-.1h-1.565a.161.161,0,0,1-.17-.17V40.094a.161.161,0,0,1,.17-.17h3.978a.161.161,0,0,1,.17.17v.952a9.228,9.228,0,0,1-.289,2.6,4.138,4.138,0,0,1-4.215,2.89,4.094,4.094,0,0,1-4.25-2.8A9.351,9.351,0,0,1,424.58,40.57Z" fill="#4e4e50"/>
    </g>
    <g>
      <path d="M52.938,14.561a.161.161,0,0,1,.17-.17h4.3c2.023,0,3.434.867,3.994,2.6a9.767,9.767,0,0,1,.306,3.178,9.77,9.77,0,0,1-.306,3.179c-.56,1.734-1.971,2.6-3.994,2.6h-4.3a.161.161,0,0,1-.17-.17Zm2.6,9.162h1.309c1.156,0,1.853-.34,2.142-1.275a7.074,7.074,0,0,0,.187-2.278,7.061,7.061,0,0,0-.187-2.277c-.289-.936-.986-1.275-2.142-1.275H55.539a.09.09,0,0,0-.1.1v6.9A.09.09,0,0,0,55.539,23.723Z" fill="#a6a8aa"/>
      <path d="M63.648,14.561a.161.161,0,0,1,.17-.17h7.411a.16.16,0,0,1,.17.17V16.38a.161.161,0,0,1-.17.17h-4.98a.09.09,0,0,0-.1.1v2.294a.09.09,0,0,0,.1.1H70.4a.16.16,0,0,1,.17.17v1.8a.16.16,0,0,1-.17.17H66.249a.09.09,0,0,0-.1.1v2.4a.09.09,0,0,0,.1.1h4.98a.16.16,0,0,1,.17.17V25.78a.16.16,0,0,1-.17.17H63.818a.161.161,0,0,1-.17-.17Z" fill="#a6a8aa"/>
      <path d="M73.253,14.561a.161.161,0,0,1,.17-.17h2.159a.161.161,0,0,1,.17.17v9.06a.09.09,0,0,0,.1.1h5.1a.161.161,0,0,1,.17.17V25.78a.161.161,0,0,1-.17.17H73.423a.161.161,0,0,1-.17-.17Z" fill="#a6a8aa"/>
      <path d="M82.6,14.561a.161.161,0,0,1,.17-.17h2.159a.161.161,0,0,1,.17.17V25.78a.161.161,0,0,1-.17.17H82.773a.161.161,0,0,1-.17-.17Z" fill="#a6a8aa"/>
      <path d="M90.287,25.95a.221.221,0,0,1-.222-.17l-3.671-11.2c-.034-.119.034-.187.153-.187h2.21a.2.2,0,0,1,.221.17l2.312,7.581h.05l2.244-7.581a.205.205,0,0,1,.221-.17H96a.133.133,0,0,1,.136.187l-3.672,11.2a.215.215,0,0,1-.2.17Z" fill="#a6a8aa"/>
      <path d="M97.427,14.561a.161.161,0,0,1,.17-.17h7.411a.161.161,0,0,1,.17.17V16.38a.161.161,0,0,1-.17.17h-4.981a.09.09,0,0,0-.1.1v2.294a.09.09,0,0,0,.1.1h4.148a.161.161,0,0,1,.17.17v1.8a.161.161,0,0,1-.17.17h-4.148a.09.09,0,0,0-.1.1v2.4a.09.09,0,0,0,.1.1h4.981a.161.161,0,0,1,.17.17V25.78a.161.161,0,0,1-.17.17H97.6a.161.161,0,0,1-.17-.17Z" fill="#a6a8aa"/>
      <path d="M113.423,25.95a.23.23,0,0,1-.255-.17l-1.989-4.233h-1.547a.09.09,0,0,0-.1.1V25.78a.161.161,0,0,1-.17.17H107.2a.161.161,0,0,1-.17-.17V14.561a.161.161,0,0,1,.17-.17h4.606c2.363,0,3.927,1.479,3.927,3.587a3.385,3.385,0,0,1-2.057,3.212l2.278,4.556a.131.131,0,0,1-.119.2Zm-.187-7.972a1.405,1.405,0,0,0-1.564-1.428h-2.04a.09.09,0,0,0-.1.1V19.32a.09.09,0,0,0,.1.1h2.04A1.409,1.409,0,0,0,113.236,17.978Z" fill="#a6a8aa"/>
      <path d="M119.833,25.95a.16.16,0,0,1-.17-.17V21.343l-3.417-6.782a.115.115,0,0,1,.119-.17h2.21a.256.256,0,0,1,.255.17l2.09,4.215h.051l2.091-4.215a.255.255,0,0,1,.255-.17h2.142c.119,0,.17.085.119.17l-3.417,6.782V25.78a.161.161,0,0,1-.17.17Z" fill="#a6a8aa"/>
    </g>
    <g>
      <path d="M15,135.358a.17.17,0,0,1-.255,0l-1.173-1.172a5.241,5.241,0,0,1-2.346.526,4.079,4.079,0,0,1-4.215-2.8,9.351,9.351,0,0,1-.323-3.162,9.351,9.351,0,0,1,.323-3.162,4.078,4.078,0,0,1,4.215-2.8,4.092,4.092,0,0,1,4.216,2.8,9.351,9.351,0,0,1,.323,3.162,9.351,9.351,0,0,1-.323,3.162,6.5,6.5,0,0,1-.289.7l1.207,1.19a.164.164,0,0,1,0,.238Zm-3.162-2.906-.731-.731a.152.152,0,0,1,0-.238l1.36-1.292a.171.171,0,0,1,.256,0l.459.459a16.727,16.727,0,0,0,.067-1.9,8.625,8.625,0,0,0-.187-2.5,1.775,1.775,0,0,0-1.836-1.275,1.776,1.776,0,0,0-1.835,1.275,16.791,16.791,0,0,0,0,5,1.777,1.777,0,0,0,1.835,1.275A2.367,2.367,0,0,0,11.841,132.452Z" fill="#898a8d"/>
      <path d="M17.622,130.276v-7.139a.161.161,0,0,1,.17-.17h2.159a.161.161,0,0,1,.17.17v7.207a1.941,1.941,0,1,0,3.858,0v-7.207a.161.161,0,0,1,.17-.17h2.159a.161.161,0,0,1,.17.17v7.139a4.11,4.11,0,0,1-4.42,4.436A4.115,4.115,0,0,1,17.622,130.276Z" fill="#898a8d"/>
      <path d="M31.34,123.137a.221.221,0,0,1,.222-.17H33.7a.22.22,0,0,1,.221.17l3.91,11.218c.034.1,0,.17-.119.17h-2.21a.2.2,0,0,1-.221-.17l-.663-2.023H30.576l-.646,2.023a.2.2,0,0,1-.222.17H27.482c-.119,0-.153-.068-.119-.17Zm2.6,7.071-1.309-4.046h-.05l-1.31,4.046Z" fill="#898a8d"/>
      <path d="M39.178,123.137a.161.161,0,0,1,.17-.17h2.158a.161.161,0,0,1,.17.17v9.06a.09.09,0,0,0,.1.1h5.1a.161.161,0,0,1,.17.17v1.886a.161.161,0,0,1-.17.17h-7.53a.161.161,0,0,1-.17-.17Z" fill="#898a8d"/>
      <path d="M48.527,123.137a.161.161,0,0,1,.17-.17h2.159a.161.161,0,0,1,.17.17v11.218a.161.161,0,0,1-.17.17H48.7a.161.161,0,0,1-.17-.17Z" fill="#898a8d"/>
      <path d="M55.786,134.525a.161.161,0,0,1-.17-.17V125.3a.091.091,0,0,0-.1-.1H52.59a.161.161,0,0,1-.17-.17v-1.886a.161.161,0,0,1,.17-.17h8.551a.161.161,0,0,1,.17.17v1.886a.161.161,0,0,1-.17.17H58.217a.091.091,0,0,0-.1.1v9.06a.161.161,0,0,1-.17.17Z" fill="#898a8d"/>
      <path d="M65.34,134.525a.161.161,0,0,1-.17-.17v-4.436l-3.417-6.782a.115.115,0,0,1,.119-.17h2.21a.255.255,0,0,1,.255.17l2.091,4.215h.051l2.09-4.215a.256.256,0,0,1,.255-.17h2.142c.119,0,.17.085.119.17l-3.417,6.782v4.436a.16.16,0,0,1-.169.17Z" fill="#898a8d"/>
      <path d="M0,149.145a8.7,8.7,0,0,1,.323-3.127,3.977,3.977,0,0,1,4.114-2.838,4.064,4.064,0,0,1,4.028,2.566.131.131,0,0,1-.085.2l-1.853.833a.161.161,0,0,1-.237-.085,1.907,1.907,0,0,0-1.836-1.309,1.7,1.7,0,0,0-1.734,1.275,16.558,16.558,0,0,0,0,4.963A1.7,1.7,0,0,0,4.454,152.9a1.906,1.906,0,0,0,1.836-1.308.16.16,0,0,1,.237-.085l1.853.833a.13.13,0,0,1,.085.2,4.065,4.065,0,0,1-4.028,2.567,3.978,3.978,0,0,1-4.114-2.839A8.7,8.7,0,0,1,0,149.145Z" fill="#898a8d"/>
      <path d="M10.1,152.308a15.639,15.639,0,0,1,0-6.324,4.078,4.078,0,0,1,4.215-2.8,4.079,4.079,0,0,1,4.216,2.8,15.639,15.639,0,0,1,0,6.324,4.08,4.08,0,0,1-4.216,2.8A4.079,4.079,0,0,1,10.1,152.308Zm6.034-.681a16.558,16.558,0,0,0,0-4.963,1.755,1.755,0,0,0-1.819-1.275,1.756,1.756,0,0,0-1.818,1.275,16.558,16.558,0,0,0,0,4.963,1.755,1.755,0,0,0,1.818,1.275A1.754,1.754,0,0,0,16.132,151.627Z" fill="#898a8d"/>
      <path d="M20.757,143.536a.161.161,0,0,1,.17-.17h2.039a.315.315,0,0,1,.289.17l4.08,7.275h.085v-7.275a.161.161,0,0,1,.17-.17h1.921a.161.161,0,0,1,.17.17v11.219a.161.161,0,0,1-.17.17H27.488a.3.3,0,0,1-.289-.17L23.1,147.5h-.085v7.258a.161.161,0,0,1-.17.17H20.927a.161.161,0,0,1-.17-.17Z" fill="#898a8d"/>
      <path d="M34.441,154.925a.161.161,0,0,1-.17-.17V145.7a.09.09,0,0,0-.1-.1H31.246a.161.161,0,0,1-.17-.17v-1.887a.161.161,0,0,1,.17-.17H39.8a.161.161,0,0,1,.17.17v1.887a.161.161,0,0,1-.17.17H36.872a.09.09,0,0,0-.1.1v9.06a.161.161,0,0,1-.17.17Z" fill="#898a8d"/>
      <path d="M47.751,154.925a.23.23,0,0,1-.254-.17l-1.989-4.233H43.961a.091.091,0,0,0-.1.1v4.131a.161.161,0,0,1-.17.17H41.53a.161.161,0,0,1-.17-.17V143.536a.161.161,0,0,1,.17-.17h4.607c2.363,0,3.926,1.479,3.926,3.587a3.387,3.387,0,0,1-2.057,3.213l2.278,4.555a.131.131,0,0,1-.118.2Zm-.187-7.972A1.4,1.4,0,0,0,46,145.525h-2.04a.09.09,0,0,0-.1.1V148.3a.09.09,0,0,0,.1.1H46A1.407,1.407,0,0,0,47.564,146.953Z" fill="#898a8d"/>
      <path d="M51.917,152.308a15.639,15.639,0,0,1,0-6.324,4.079,4.079,0,0,1,4.216-2.8,4.079,4.079,0,0,1,4.216,2.8,15.686,15.686,0,0,1,0,6.324,4.08,4.08,0,0,1-4.216,2.8A4.08,4.08,0,0,1,51.917,152.308Zm6.035-.681a16.558,16.558,0,0,0,0-4.963,1.935,1.935,0,0,0-3.638,0,16.558,16.558,0,0,0,0,4.963,1.935,1.935,0,0,0,3.638,0Z" fill="#898a8d"/>
      <path d="M62.576,143.536a.161.161,0,0,1,.17-.17h2.159a.161.161,0,0,1,.17.17V152.6a.09.09,0,0,0,.1.1h5.1a.161.161,0,0,1,.17.17v1.887a.161.161,0,0,1-.17.17h-7.53a.161.161,0,0,1-.17-.17Z" fill="#898a8d"/>
      <path d="M9.9,204.736a.218.218,0,0,1,.22-.17h2.142a.22.22,0,0,1,.221.17l3.91,11.219c.034.1,0,.17-.119.17h-2.21a.2.2,0,0,1-.221-.17l-.663-2.022H9.14l-.646,2.022a.205.205,0,0,1-.221.17H6.046c-.119,0-.153-.068-.119-.17Zm2.6,7.072L11.2,207.762h-.05l-1.31,4.046Z" fill="#898a8d"/>
      <path d="M17.181,214.731a.209.209,0,0,1-.017-.289l1.292-1.479a.169.169,0,0,1,.254-.017,4.9,4.9,0,0,0,3.026,1.19c1.207,0,1.887-.561,1.887-1.376,0-.681-.408-1.106-1.785-1.292l-.612-.085c-2.346-.323-3.654-1.428-3.654-3.468,0-2.125,1.6-3.536,4.1-3.536a6.539,6.539,0,0,1,3.927,1.207c.1.068.119.136.034.255l-1.037,1.547a.169.169,0,0,1-.238.05,4.783,4.783,0,0,0-2.686-.883c-1.02,0-1.546.527-1.546,1.257,0,.664.475,1.088,1.8,1.276l.612.085c2.38.323,3.638,1.411,3.638,3.5s-1.547,3.636-4.539,3.636A6.817,6.817,0,0,1,17.181,214.731Z" fill="#898a8d"/>
      <path d="M27.3,214.731a.21.21,0,0,1-.017-.289l1.292-1.479a.17.17,0,0,1,.255-.017,4.9,4.9,0,0,0,3.026,1.19c1.207,0,1.887-.561,1.887-1.376,0-.681-.408-1.106-1.785-1.292l-.612-.085c-2.346-.323-3.654-1.428-3.654-3.468,0-2.125,1.6-3.536,4.1-3.536a6.534,6.534,0,0,1,3.926,1.207c.1.068.12.136.035.255l-1.037,1.547a.169.169,0,0,1-.238.05,4.783,4.783,0,0,0-2.686-.883c-1.02,0-1.547.527-1.547,1.257,0,.664.476,1.088,1.8,1.276l.612.085c2.38.323,3.638,1.411,3.638,3.5s-1.547,3.636-4.539,3.636A6.818,6.818,0,0,1,27.3,214.731Z" fill="#898a8d"/>
      <path d="M37.971,204.736a.161.161,0,0,1,.17-.17h7.411a.161.161,0,0,1,.17.17v1.819a.161.161,0,0,1-.17.17h-4.98a.09.09,0,0,0-.1.1v2.3a.091.091,0,0,0,.1.1h4.147a.161.161,0,0,1,.17.17v1.8a.16.16,0,0,1-.17.17H40.572a.09.09,0,0,0-.1.1v2.4a.09.09,0,0,0,.1.1h4.98a.161.161,0,0,1,.17.17v1.819a.161.161,0,0,1-.17.17H38.141a.161.161,0,0,1-.17-.17Z" fill="#898a8d"/>
      <path d="M47.576,204.736a.161.161,0,0,1,.17-.17h2.023a.262.262,0,0,1,.272.17l2.923,6.595h.069l2.872-6.595a.262.262,0,0,1,.272-.17h1.989a.161.161,0,0,1,.17.17v11.219a.161.161,0,0,1-.17.17H56.245a.161.161,0,0,1-.17-.17v-6.511h-.068l-2.142,4.879a.324.324,0,0,1-.323.221H52.37a.326.326,0,0,1-.324-.221l-2.141-4.879h-.068v6.511a.161.161,0,0,1-.17.17H47.746a.161.161,0,0,1-.17-.17Z" fill="#898a8d"/>
      <path d="M60.547,204.736a.161.161,0,0,1,.17-.17h4.5c2.516,0,3.689,1.241,3.689,3.077a2.633,2.633,0,0,1-1.343,2.464v.035a2.732,2.732,0,0,1,1.547,2.618c0,2.277-1.513,3.365-4.011,3.365H60.717a.161.161,0,0,1-.17-.17Zm4.369,4.556a1.324,1.324,0,0,0,1.512-1.36c0-.85-.561-1.343-1.512-1.343H63.147a.091.091,0,0,0-.1.1v2.5a.091.091,0,0,0,.1.1ZM63.147,214.1h1.9a1.45,1.45,0,1,0,0-2.89h-1.9a.09.09,0,0,0-.1.1V214A.091.091,0,0,0,63.147,214.1Z" fill="#898a8d"/>
      <path d="M70.917,204.736a.16.16,0,0,1,.169-.17h2.159a.161.161,0,0,1,.17.17v9.06a.09.09,0,0,0,.1.1h5.1a.161.161,0,0,1,.17.17v1.887a.161.161,0,0,1-.17.17H71.086a.16.16,0,0,1-.169-.17Z" fill="#898a8d"/>
      <path d="M81.269,216.125a.161.161,0,0,1-.17-.17v-4.436l-3.417-6.783a.115.115,0,0,1,.119-.17h2.21a.255.255,0,0,1,.255.17l2.091,4.216h.051l2.091-4.216a.254.254,0,0,1,.254-.17H86.9c.118,0,.169.085.118.17L83.6,211.519v4.436a.161.161,0,0,1-.17.17Z" fill="#898a8d"/>
    </g>
    <circle cx="216.15" cy="139.417" r="139.417" fill="none"/>
    <g>
      <path d="M131.867,295.039a.209.209,0,0,1-.017-.289l1.292-1.479a.17.17,0,0,1,.255-.017,4.907,4.907,0,0,0,3.026,1.19c1.206,0,1.887-.561,1.887-1.377,0-.679-.409-1.105-1.785-1.292l-.612-.085c-2.346-.323-3.655-1.427-3.655-3.467,0-2.125,1.6-3.536,4.1-3.536a6.536,6.536,0,0,1,3.926,1.207c.1.068.119.136.034.254l-1.037,1.547a.169.169,0,0,1-.237.052,4.776,4.776,0,0,0-2.686-.884c-1.02,0-1.547.527-1.547,1.258,0,.662.476,1.088,1.8,1.274l.612.085c2.38.324,3.637,1.412,3.637,3.5s-1.547,3.638-4.538,3.638A6.818,6.818,0,0,1,131.867,295.039Z" fill="#898a8d"/>
      <path d="M142.492,292.184v-7.14a.161.161,0,0,1,.17-.17h2.159a.161.161,0,0,1,.17.17v7.207a1.941,1.941,0,1,0,3.858,0v-7.207a.161.161,0,0,1,.17-.17h2.159a.161.161,0,0,1,.17.17v7.14a4.428,4.428,0,1,1-8.856,0Z" fill="#898a8d"/>
      <path d="M159.9,296.433a.23.23,0,0,1-.255-.17l-1.989-4.233h-1.547a.091.091,0,0,0-.1.1v4.131a.161.161,0,0,1-.17.17h-2.158a.161.161,0,0,1-.17-.17V285.044a.161.161,0,0,1,.17-.17h4.606c2.363,0,3.927,1.479,3.927,3.587a3.388,3.388,0,0,1-2.057,3.213l2.278,4.554a.131.131,0,0,1-.119.2Zm-.187-7.972a1.405,1.405,0,0,0-1.564-1.428h-2.04a.09.09,0,0,0-.1.1V289.8a.09.09,0,0,0,.1.1h2.04A1.408,1.408,0,0,0,159.712,288.461Z" fill="#898a8d"/>
      <path d="M164.116,285.044a.161.161,0,0,1,.17-.17H171.7a.161.161,0,0,1,.17.17v1.819a.161.161,0,0,1-.17.17h-4.981a.09.09,0,0,0-.1.1v2.43a.09.09,0,0,0,.1.1h4.148a.16.16,0,0,1,.17.17v1.8a.161.161,0,0,1-.17.17h-4.148a.09.09,0,0,0-.1.1v4.352a.161.161,0,0,1-.17.17h-2.158a.161.161,0,0,1-.17-.17Z" fill="#898a8d"/>
      <path d="M175.709,285.044a.22.22,0,0,1,.221-.17h2.142a.22.22,0,0,1,.221.17l3.91,11.219c.034.1,0,.17-.12.17h-2.209a.2.2,0,0,1-.221-.17l-.663-2.023h-4.046l-.646,2.023a.2.2,0,0,1-.22.17h-2.227c-.12,0-.153-.068-.12-.17Zm2.6,7.071L177,288.069h-.051l-1.309,4.046Z" fill="#898a8d"/>
      <path d="M182.747,290.653a8.7,8.7,0,0,1,.323-3.128,3.978,3.978,0,0,1,4.114-2.838,4.065,4.065,0,0,1,4.028,2.567.131.131,0,0,1-.085.2l-1.853.833a.161.161,0,0,1-.237-.085,1.908,1.908,0,0,0-1.836-1.31,1.7,1.7,0,0,0-1.734,1.276,16.558,16.558,0,0,0,0,4.963,1.7,1.7,0,0,0,1.734,1.275,1.906,1.906,0,0,0,1.836-1.308.16.16,0,0,1,.237-.085l1.853.833a.13.13,0,0,1,.085.2,4.065,4.065,0,0,1-4.028,2.567,3.978,3.978,0,0,1-4.114-2.839A8.7,8.7,0,0,1,182.747,290.653Z" fill="#898a8d"/>
      <path d="M192.828,285.044a.161.161,0,0,1,.17-.17h7.411a.161.161,0,0,1,.17.17v1.819a.161.161,0,0,1-.17.17h-4.98a.09.09,0,0,0-.1.1v2.3a.089.089,0,0,0,.1.1h4.147a.162.162,0,0,1,.171.17v1.8a.162.162,0,0,1-.171.171h-4.147a.089.089,0,0,0-.1.1v2.4a.09.09,0,0,0,.1.1h4.98a.161.161,0,0,1,.17.17v1.819a.161.161,0,0,1-.17.17H193a.161.161,0,0,1-.17-.17Z" fill="#898a8d"/>
      <path d="M208.808,296.433a.161.161,0,0,1-.17-.17V287.2a.09.09,0,0,0-.1-.1h-2.924a.161.161,0,0,1-.17-.17v-1.887a.161.161,0,0,1,.17-.17h8.551a.161.161,0,0,1,.17.17v1.887a.161.161,0,0,1-.17.17h-2.924a.09.09,0,0,0-.1.1v9.06a.161.161,0,0,1-.17.17Z" fill="#898a8d"/>
      <path d="M222.119,296.433a.229.229,0,0,1-.255-.17l-1.989-4.233h-1.547a.09.09,0,0,0-.1.1v4.131a.161.161,0,0,1-.17.17H215.9a.161.161,0,0,1-.17-.17V285.044a.161.161,0,0,1,.17-.17H220.5c2.364,0,3.927,1.479,3.927,3.587a3.389,3.389,0,0,1-2.056,3.213l2.277,4.554a.131.131,0,0,1-.118.2Zm-.188-7.972a1.4,1.4,0,0,0-1.563-1.428h-2.04a.09.09,0,0,0-.1.1V289.8a.09.09,0,0,0,.1.1h2.04A1.407,1.407,0,0,0,221.931,288.461Z" fill="#898a8d"/>
      <path d="M226.335,285.044a.161.161,0,0,1,.17-.17h7.412a.16.16,0,0,1,.169.17v1.819a.16.16,0,0,1-.169.17h-4.981a.09.09,0,0,0-.1.1v2.3a.09.09,0,0,0,.1.1h4.147a.161.161,0,0,1,.17.17v1.8a.161.161,0,0,1-.17.171h-4.147a.09.09,0,0,0-.1.1v2.4a.091.091,0,0,0,.1.1h4.981a.16.16,0,0,1,.169.17v1.819a.16.16,0,0,1-.169.17h-7.412a.161.161,0,0,1-.17-.17Z" fill="#898a8d"/>
      <path d="M239.05,285.044a.221.221,0,0,1,.222-.17h2.142a.219.219,0,0,1,.22.17l3.91,11.219c.034.1,0,.17-.119.17h-2.21a.2.2,0,0,1-.22-.17l-.663-2.023h-4.046l-.646,2.023a.205.205,0,0,1-.222.17h-2.226c-.119,0-.152-.068-.119-.17Zm2.6,7.071-1.31-4.046h-.05l-1.309,4.046Z" fill="#898a8d"/>
      <path d="M248.35,296.433a.161.161,0,0,1-.17-.17V287.2a.09.09,0,0,0-.1-.1h-2.924a.161.161,0,0,1-.17-.17v-1.887a.161.161,0,0,1,.17-.17h8.551a.161.161,0,0,1,.17.17v1.887a.161.161,0,0,1-.17.17h-2.924a.09.09,0,0,0-.1.1v9.06a.16.16,0,0,1-.17.17Z" fill="#898a8d"/>
      <path d="M255.269,285.044a.16.16,0,0,1,.17-.17h2.022a.264.264,0,0,1,.273.17l2.923,6.6h.068l2.873-6.6a.262.262,0,0,1,.272-.17h1.989a.161.161,0,0,1,.17.17v11.219a.161.161,0,0,1-.17.17h-1.921a.16.16,0,0,1-.17-.17v-6.51H263.7l-2.142,4.878a.325.325,0,0,1-.323.221h-1.173a.326.326,0,0,1-.323-.221l-2.142-4.878h-.067v6.51a.161.161,0,0,1-.17.17h-1.921a.16.16,0,0,1-.17-.17Z" fill="#898a8d"/>
      <path d="M268.24,285.044a.16.16,0,0,1,.17-.17h7.411a.161.161,0,0,1,.17.17v1.819a.161.161,0,0,1-.17.17H270.84a.09.09,0,0,0-.1.1v2.3a.089.089,0,0,0,.1.1h4.148a.162.162,0,0,1,.17.17v1.8a.162.162,0,0,1-.17.171H270.84a.089.089,0,0,0-.1.1v2.4a.09.09,0,0,0,.1.1h4.981a.161.161,0,0,1,.17.17v1.819a.161.161,0,0,1-.17.17H268.41a.16.16,0,0,1-.17-.17Z" fill="#898a8d"/>
      <path d="M277.844,285.044a.161.161,0,0,1,.17-.17h2.04a.316.316,0,0,1,.289.17l4.079,7.275h.085v-7.275a.161.161,0,0,1,.17-.17H286.6a.16.16,0,0,1,.17.17v11.219a.16.16,0,0,1-.17.17h-2.022a.3.3,0,0,1-.289-.17l-4.1-7.258h-.085v7.258a.16.16,0,0,1-.17.17h-1.921a.161.161,0,0,1-.17-.17Z" fill="#898a8d"/>
      <path d="M291.529,296.433a.161.161,0,0,1-.17-.17V287.2a.09.09,0,0,0-.1-.1h-2.924a.16.16,0,0,1-.169-.17v-1.887a.16.16,0,0,1,.169-.17h8.55a.161.161,0,0,1,.17.17v1.887a.161.161,0,0,1-.17.17h-2.924a.09.09,0,0,0-.1.1v9.06a.161.161,0,0,1-.17.17Z" fill="#898a8d"/>
    </g>
    <line x1="214.384" y1="139.965" x2="335.375" y2="244.784" fill="none" stroke="#fff" stroke-miterlimit="10" stroke-width="3"/>
    <line x1="214.384" y1="139.965" x2="121.065" y2="257.193" fill="none" stroke="#fff" stroke-miterlimit="10" stroke-width="3"/>
    <g>
      <path d="M181.1,129.364c0-2.938.13-3.952.468-4.966a5.685,5.685,0,0,1,5.877-4.16,5.906,5.906,0,0,1,5.668,3.562.256.256,0,0,1-.1.338l-1.56.754a.259.259,0,0,1-.364-.13,3.862,3.862,0,0,0-3.64-2.366,3.545,3.545,0,0,0-3.666,2.6,14.436,14.436,0,0,0-.339,4.368,14.436,14.436,0,0,0,.339,4.368,3.545,3.545,0,0,0,3.666,2.6,3.862,3.862,0,0,0,3.64-2.366.259.259,0,0,1,.364-.13l1.56.754a.256.256,0,0,1,.1.338,5.906,5.906,0,0,1-5.668,3.562,5.685,5.685,0,0,1-5.877-4.16C181.234,133.316,181.1,132.3,181.1,129.364Z" fill="#272525"/>
      <path d="M199.12,138.334c-2.184,0-3.042-1.04-3.042-3.275V120.784a.246.246,0,0,1,.26-.26H198a.246.246,0,0,1,.26.26v14.144c0,1.04.39,1.379,1.248,1.379H200a.245.245,0,0,1,.26.259v1.508a.246.246,0,0,1-.26.26Z" fill="#272525"/>
      <path d="M203.228,122.942a.246.246,0,0,1-.261-.26v-1.9a.246.246,0,0,1,.261-.26H205a.246.246,0,0,1,.26.26v1.9a.246.246,0,0,1-.26.26Zm.051,15.262a.244.244,0,0,1-.259-.26V126.01a.245.245,0,0,1,.259-.26h1.664a.245.245,0,0,1,.26.26v11.934a.245.245,0,0,1-.26.26Z" fill="#272525"/>
      <path d="M208.786,135.11a9.759,9.759,0,0,1-.416-3.146,9.661,9.661,0,0,1,.39-3.146,5.24,5.24,0,0,1,9.777,0,10.9,10.9,0,0,1,.389,3.562.253.253,0,0,1-.286.26h-7.878a.139.139,0,0,0-.157.156,4.7,4.7,0,0,0,.208,1.508,3.078,3.078,0,0,0,3.147,2.158,4.069,4.069,0,0,0,3.2-1.378c.13-.13.259-.156.389-.052l1.067.962a.232.232,0,0,1,.025.364,6.053,6.053,0,0,1-4.861,2.132A4.816,4.816,0,0,1,208.786,135.11Zm7.749-4.212a.138.138,0,0,0,.156-.156,4.38,4.38,0,0,0-.183-1.4,3.072,3.072,0,0,0-5.72,0,4.38,4.38,0,0,0-.183,1.4.139.139,0,0,0,.157.156Z" fill="#272525"/>
      <path d="M230.18,138.2a.246.246,0,0,1-.261-.26v-7.279c0-2-.91-3.173-2.781-3.173a2.8,2.8,0,0,0-2.86,3.042v7.41a.246.246,0,0,1-.261.26h-1.664a.246.246,0,0,1-.26-.26V126.01a.246.246,0,0,1,.26-.26h1.664a.246.246,0,0,1,.261.26v1.144h.025a3.939,3.939,0,0,1,3.485-1.69c2.7,0,4.316,1.846,4.316,4.68v7.8a.245.245,0,0,1-.26.26Z" fill="#272525"/>
      <path d="M239.406,138.334c-2.418,0-3.354-1.092-3.354-3.536v-7.124a.138.138,0,0,0-.156-.156h-1.04a.246.246,0,0,1-.261-.26V126.01a.246.246,0,0,1,.261-.26h1.04a.138.138,0,0,0,.156-.156v-3.51a.246.246,0,0,1,.26-.26h1.664a.246.246,0,0,1,.26.26v3.51a.138.138,0,0,0,.156.156h1.976a.246.246,0,0,1,.26.26v1.248a.246.246,0,0,1-.26.26h-1.976a.138.138,0,0,0-.156.156v7.046c0,1.248.468,1.587,1.586,1.587h.546a.245.245,0,0,1,.26.259v1.508a.246.246,0,0,1-.26.26Z" fill="#272525"/>
      <path d="M148.579,160.618a.251.251,0,0,1,0-.364l1.067-1.144a.25.25,0,0,1,.363,0,6.053,6.053,0,0,0,3.848,1.43c1.821,0,2.73-.78,2.73-1.9,0-.989-.467-1.535-2.418-1.743l-1.326-.13c-2.444-.26-3.718-1.482-3.718-3.51,0-2.366,1.69-3.8,4.628-3.8a7.446,7.446,0,0,1,4.421,1.378.251.251,0,0,1,.052.364l-.884,1.118a.255.255,0,0,1-.364.052,6.553,6.553,0,0,0-3.354-1.014c-1.561,0-2.367.7-2.367,1.716,0,.988.6,1.508,2.444,1.69l1.3.13c2.522.234,3.745,1.508,3.745,3.51,0,2.445-1.768,4.082-5.018,4.082A7.742,7.742,0,0,1,148.579,160.618Z" fill="#272525"/>
      <path d="M169.566,162.2a.244.244,0,0,1-.259-.26v-1.091h-.027a4.085,4.085,0,0,1-3.692,1.637c-2.366,0-4.186-1.221-4.186-3.744,0-2.626,1.82-3.848,4.862-3.848H169.1a.138.138,0,0,0,.155-.156v-.91c0-1.716-.676-2.444-2.99-2.444a4.848,4.848,0,0,0-3.016.883c-.13.105-.286.105-.364-.025l-.7-1.2a.275.275,0,0,1,.052-.364,6.908,6.908,0,0,1,4.238-1.222c3.536,0,4.888,1.17,4.888,4.238v8.242a.245.245,0,0,1-.259.26Zm-.312-4.03V156.8a.138.138,0,0,0-.155-.156h-2.5c-2.159,0-3.095.624-3.095,2.028,0,1.274.936,1.95,2.6,1.95C168.059,160.618,169.254,159.708,169.254,158.174Z" fill="#272525"/>
      <path d="M178.783,162.334c-2.418,0-3.354-1.092-3.354-3.536v-7.124a.138.138,0,0,0-.156-.156h-1.04a.246.246,0,0,1-.26-.26V150.01a.245.245,0,0,1,.26-.26h1.04a.138.138,0,0,0,.156-.156v-3.51a.246.246,0,0,1,.26-.261h1.665a.246.246,0,0,1,.259.261v3.51a.138.138,0,0,0,.157.156h1.975a.245.245,0,0,1,.26.26v1.248a.246.246,0,0,1-.26.26H177.77a.138.138,0,0,0-.157.156v7.046c0,1.248.468,1.587,1.586,1.587h.546a.245.245,0,0,1,.26.259v1.508a.246.246,0,0,1-.26.26Z" fill="#272525"/>
      <path d="M183.123,146.941a.245.245,0,0,1-.26-.259v-1.9a.246.246,0,0,1,.26-.26h1.768a.246.246,0,0,1,.26.26v1.9a.245.245,0,0,1-.26.259Zm.052,15.263a.245.245,0,0,1-.26-.26V150.01a.245.245,0,0,1,.26-.26h1.664a.245.245,0,0,1,.26.26v11.934a.245.245,0,0,1-.26.26Z" fill="#272525"/>
      <path d="M188.06,160.618a.251.251,0,0,1,0-.364l1.066-1.144a.251.251,0,0,1,.364,0,6.05,6.05,0,0,0,3.848,1.43c1.82,0,2.73-.78,2.73-1.9,0-.989-.468-1.535-2.418-1.743l-1.326-.13c-2.444-.26-3.719-1.482-3.719-3.51,0-2.366,1.691-3.8,4.629-3.8a7.443,7.443,0,0,1,4.42,1.378.251.251,0,0,1,.052.364l-.884,1.118a.254.254,0,0,1-.364.052,6.547,6.547,0,0,0-3.354-1.014c-1.56,0-2.366.7-2.366,1.716,0,.988.6,1.508,2.444,1.69l1.3.13c2.522.234,3.744,1.508,3.744,3.51,0,2.445-1.768,4.082-5.018,4.082A7.739,7.739,0,0,1,188.06,160.618Z" fill="#272525"/>
      <path d="M202.167,162.2a.245.245,0,0,1-.26-.26v-10.27a.138.138,0,0,0-.156-.156h-1.066a.246.246,0,0,1-.26-.26V150.01a.245.245,0,0,1,.26-.26h1.066a.138.138,0,0,0,.156-.156v-1.067c0-2.937,1.2-4,3.8-4h.962a.246.246,0,0,1,.26.26v1.509a.246.246,0,0,1-.26.26h-.676c-1.586,0-1.9.338-1.9,1.872v1.17a.138.138,0,0,0,.156.156h2.418a.245.245,0,0,1,.26.26v1.248a.246.246,0,0,1-.26.26h-2.418a.138.138,0,0,0-.156.156v10.27a.245.245,0,0,1-.26.26Z" fill="#272525"/>
      <path d="M217.068,162.2a.245.245,0,0,1-.26-.26v-1.091h-.026a4.087,4.087,0,0,1-3.693,1.637c-2.365,0-4.186-1.221-4.186-3.744,0-2.626,1.821-3.848,4.863-3.848H216.6a.137.137,0,0,0,.155-.156v-.91c0-1.716-.675-2.444-2.989-2.444a4.852,4.852,0,0,0-3.017.883c-.13.105-.286.105-.364-.025l-.7-1.2a.275.275,0,0,1,.052-.364,6.909,6.909,0,0,1,4.239-1.222c3.536,0,4.888,1.17,4.888,4.238v8.242a.245.245,0,0,1-.26.26Zm-.313-4.03V156.8a.137.137,0,0,0-.155-.156h-2.5c-2.159,0-3.1.624-3.1,2.028,0,1.274.936,1.95,2.6,1.95C215.56,160.618,216.755,159.708,216.755,158.174Z" fill="#272525"/>
      <path d="M222.369,152.818a4.825,4.825,0,0,1,4.915-3.354,4.993,4.993,0,0,1,4.263,2.106c.078.13.078.234-.078.364l-1.143.936a.234.234,0,0,1-.365-.026,3.059,3.059,0,0,0-2.677-1.352,2.7,2.7,0,0,0-2.783,1.95,11.377,11.377,0,0,0,0,5.07,2.7,2.7,0,0,0,2.783,1.95,3.059,3.059,0,0,0,2.677-1.352.234.234,0,0,1,.365-.026l1.143.936c.156.13.156.234.078.364a4.99,4.99,0,0,1-4.263,2.106,4.825,4.825,0,0,1-4.915-3.354,12.989,12.989,0,0,1,0-6.318Z" fill="#272525"/>
      <path d="M238.759,162.334c-2.418,0-3.353-1.092-3.353-3.536v-7.124a.138.138,0,0,0-.156-.156h-1.041a.246.246,0,0,1-.26-.26V150.01a.245.245,0,0,1,.26-.26h1.041a.138.138,0,0,0,.156-.156v-3.51a.246.246,0,0,1,.26-.261h1.664a.246.246,0,0,1,.259.261v3.51a.138.138,0,0,0,.157.156h1.975a.246.246,0,0,1,.261.26v1.248a.246.246,0,0,1-.261.26h-1.975a.138.138,0,0,0-.157.156v7.046c0,1.248.468,1.587,1.586,1.587h.546a.246.246,0,0,1,.261.259v1.508a.246.246,0,0,1-.261.26Z" fill="#272525"/>
      <path d="M243.1,146.941a.245.245,0,0,1-.26-.259v-1.9a.247.247,0,0,1,.26-.26h1.769a.245.245,0,0,1,.259.26v1.9a.244.244,0,0,1-.259.259Zm.052,15.263a.246.246,0,0,1-.26-.26V150.01a.246.246,0,0,1,.26-.26h1.664a.246.246,0,0,1,.261.26v11.934a.246.246,0,0,1-.261.26Z" fill="#272525"/>
      <path d="M248.657,159.136a12.2,12.2,0,0,1,0-6.318,5.277,5.277,0,0,1,9.828,0,12.2,12.2,0,0,1,0,6.318,5.277,5.277,0,0,1-9.828,0Zm7.722-.624a8.153,8.153,0,0,0,.287-2.548,7.97,7.97,0,0,0-.287-2.522,3,3,0,0,0-5.616,0,7.975,7.975,0,0,0-.286,2.522,8.158,8.158,0,0,0,.286,2.548,3,3,0,0,0,5.616,0Z" fill="#272525"/>
      <path d="M270.19,162.2a.246.246,0,0,1-.261-.26v-7.28c0-2-.91-3.172-2.781-3.172a2.794,2.794,0,0,0-2.86,3.042v7.41a.246.246,0,0,1-.261.26h-1.664a.246.246,0,0,1-.26-.26V150.01a.246.246,0,0,1,.26-.26h1.664a.246.246,0,0,1,.261.26v1.144h.025a3.936,3.936,0,0,1,3.484-1.69c2.7,0,4.317,1.846,4.317,4.68v7.8a.246.246,0,0,1-.26.26Z" fill="#272525"/>
    </g>
  </g>
</svg>
