<svg xmlns="http://www.w3.org/2000/svg" xmlns:xlink="http://www.w3.org/1999/xlink" width="135.353" height="238.171" viewBox="0 0 135.353 238.171">
  <defs>
    <clipPath id="a">
      <rect x="16.864" y="97.995" width="98.462" height="100" fill="none"/>
    </clipPath>
  </defs>
  <g>
    <g clip-path="url(#a)">
      <path d="M73.774,193.425a25.022,25.022,0,0,0,2.291-3.6,63.776,63.776,0,0,0,5.616-17.644,8.132,8.132,0,0,0,7.129-6.218h19.078A45.67,45.67,0,0,1,73.774,193.425ZM28.4,181.979a4.231,4.231,0,1,1,4.231,4.3,4.27,4.27,0,0,1-4.231-4.3M43.25,133.932a8.186,8.186,0,0,0,5.382,5.86c-.149,2.7-.23,5.449-.23,8.2,0,4.831.23,9.554.674,14.064H22.849a47.162,47.162,0,0,1,.011-28.126Zm7.844-6.249a4.3,4.3,0,1,1-4.23,4.3,4.269,4.269,0,0,1,4.23-4.3m15-25.783c3.222,0,6.708,4.761,9.325,12.738a87.068,87.068,0,0,1,3.368,15.387H58.937a8.2,8.2,0,0,0-4.635-5.573C57.226,108.891,62.274,101.9,66.1,101.9m37.694,12.111a4.231,4.231,0,1,1-4.232-4.3,4.269,4.269,0,0,1,4.232,4.3M79.07,113.4A36.742,36.742,0,0,0,73.8,102.556a44.413,44.413,0,0,1,18.525,7.816,8.261,8.261,0,0,0-.839,3.639,8.149,8.149,0,0,0,8.076,8.2,7.926,7.926,0,0,0,3.583-.854,46.112,46.112,0,0,1,4.772,8.666H82.666A92.023,92.023,0,0,0,79.07,113.4Zm1.9,54.9a4.3,4.3,0,1,1,4.23-4.3,4.27,4.27,0,0,1-4.23,4.3M52.248,147.994c0-2.665.077-5.323.221-7.934a8.145,8.145,0,0,0,6.468-6.128H79.248a139.809,139.809,0,0,1,.692,14.062c0,2.658-.076,5.309-.218,7.911a8.146,8.146,0,0,0-6.6,6.153H52.94a140.115,140.115,0,0,1-.692-14.064M32.633,173.777a7.949,7.949,0,0,0-3.582.852,46,46,0,0,1-4.773-8.667H49.522a92.307,92.307,0,0,0,3.6,16.625,36.835,36.835,0,0,0,5.274,10.845,44.463,44.463,0,0,1-18.526-7.815,8.219,8.219,0,0,0-7.235-11.84M66.1,194.088c-3.221,0-6.709-4.762-9.327-12.736A87.426,87.426,0,0,1,53.4,165.965H73.123a8.2,8.2,0,0,0,4.755,5.625c-2.927,15.524-7.97,22.5-11.783,22.5m43.222-32.03H88.81a8.19,8.19,0,0,0-5.256-5.817c.152-2.712.233-5.476.233-8.247,0-4.829-.23-9.555-.674-14.062h26.229a47.078,47.078,0,0,1-.025,28.126m-3.231-43.227a8.247,8.247,0,0,0,1.549-4.82,8.15,8.15,0,0,0-8.078-8.2,7.95,7.95,0,0,0-4.746,1.571,48.635,48.635,0,0,0-57.073-.261,1.972,1.972,0,0,0-.462,2.723,1.906,1.906,0,0,0,2.68.469,44.627,44.627,0,0,1,18.465-7.753,24.984,24.984,0,0,0-2.311,3.634,63.865,63.865,0,0,0-5.6,17.61,8.128,8.128,0,0,0-7.26,6.225H24.287a46.345,46.345,0,0,1,4.11-7.706,1.974,1.974,0,0,0-.525-2.71,1.9,1.9,0,0,0-2.667.532,50.655,50.655,0,0,0,.9,57.017,8.257,8.257,0,0,0-1.549,4.821,8.15,8.15,0,0,0,8.078,8.2,7.953,7.953,0,0,0,4.746-1.572,48.664,48.664,0,0,0,63.526-5.262,50.593,50.593,0,0,0,5.181-64.518" fill="#4b4b4a"/>
      <path d="M32.26,116.366a1.925,1.925,0,0,0,1.362-.573,1.98,1.98,0,0,0,0-2.762,1.9,1.9,0,0,0-2.722,0,1.975,1.975,0,0,0,0,2.762,1.921,1.921,0,0,0,1.36.573" fill="#4b4b4a"/>
    </g>
    <g>
      <path d="M3.107,34.463a.319.319,0,0,1-.337-.338V12.538a.319.319,0,0,1,.337-.338H5.27a.318.318,0,0,1,.337.338v1.52h.035c.777-1.284,2.162-2.23,4.594-2.23a5.349,5.349,0,0,1,5.575,3.885,13.415,13.415,0,0,1,.574,4.561,13.5,13.5,0,0,1-.574,4.594,5.349,5.349,0,0,1-5.575,3.885A4.924,4.924,0,0,1,5.642,26.49H5.607v7.635a.318.318,0,0,1-.337.338Zm10-10.811a11.191,11.191,0,0,0,.373-3.378,11.49,11.49,0,0,0-.373-3.379,3.434,3.434,0,0,0-3.546-2.432A3.438,3.438,0,0,0,5.98,16.9a10.51,10.51,0,0,0-.373,3.379,10.369,10.369,0,0,0,.373,3.378,3.463,3.463,0,0,0,3.581,2.466A3.46,3.46,0,0,0,13.107,23.652Z" fill="#4b4b4a"/>
      <path d="M20.035,28.382a.32.32,0,0,1-.338-.338V12.538a.32.32,0,0,1,.338-.338H22.2a.319.319,0,0,1,.338.338v1.655h.034a4.507,4.507,0,0,1,4.29-2.365,4.976,4.976,0,0,1,3.312,1.216c.168.169.2.3.067.474l-1.25,1.655a.306.306,0,0,1-.473.067,4.558,4.558,0,0,0-2.5-.777c-2.466,0-3.48,1.926-3.48,4.73v8.851a.319.319,0,0,1-.338.338Z" fill="#4b4b4a"/>
      <path d="M31.837,24.362a12.689,12.689,0,0,1-.54-4.088,12.55,12.55,0,0,1,.507-4.088,6.254,6.254,0,0,1,6.35-4.358,6.267,6.267,0,0,1,6.352,4.358,14.11,14.11,0,0,1,.507,4.628.33.33,0,0,1-.372.338H34.4a.179.179,0,0,0-.2.2,6.056,6.056,0,0,0,.271,1.959,4,4,0,0,0,4.087,2.8,5.287,5.287,0,0,0,4.155-1.79.345.345,0,0,1,.507-.068l1.385,1.25a.3.3,0,0,1,.034.473,7.868,7.868,0,0,1-6.318,2.77C35.047,28.753,32.716,27.165,31.837,24.362ZM41.9,18.889a.179.179,0,0,0,.2-.2,5.693,5.693,0,0,0-.236-1.824,3.654,3.654,0,0,0-3.717-2.534,3.652,3.652,0,0,0-3.715,2.534,5.691,5.691,0,0,0-.237,1.824.179.179,0,0,0,.2.2Z" fill="#4b4b4a"/>
      <path d="M47.346,26.321a.327.327,0,0,1,0-.473l1.386-1.486a.326.326,0,0,1,.472,0,7.862,7.862,0,0,0,5,1.858c2.364,0,3.547-1.014,3.547-2.467,0-1.283-.607-1.993-3.142-2.263l-1.722-.169c-3.176-.338-4.831-1.926-4.831-4.56,0-3.075,2.2-4.933,6.013-4.933a9.675,9.675,0,0,1,5.743,1.791.326.326,0,0,1,.068.473l-1.149,1.452a.331.331,0,0,1-.473.068A8.514,8.514,0,0,0,53.9,14.294c-2.027,0-3.074.913-3.074,2.23,0,1.284.777,1.959,3.175,2.2l1.689.169c3.278.3,4.866,1.959,4.866,4.561,0,3.175-2.3,5.3-6.521,5.3A10.056,10.056,0,0,1,47.346,26.321Z" fill="#4b4b4a"/>
      <path d="M63.463,24.362a12.684,12.684,0,0,1-.541-4.088,12.55,12.55,0,0,1,.507-4.088,6.255,6.255,0,0,1,6.351-4.358,6.267,6.267,0,0,1,6.351,4.358,14.11,14.11,0,0,1,.507,4.628.329.329,0,0,1-.371.338H66.03a.18.18,0,0,0-.2.2,6.056,6.056,0,0,0,.271,1.959,4,4,0,0,0,4.088,2.8,5.288,5.288,0,0,0,4.155-1.79.345.345,0,0,1,.507-.068l1.384,1.25a.3.3,0,0,1,.035.473,7.869,7.869,0,0,1-6.318,2.77C66.672,28.753,64.341,27.165,63.463,24.362ZM73.53,18.889a.179.179,0,0,0,.2-.2,5.693,5.693,0,0,0-.236-1.824,3.992,3.992,0,0,0-7.432,0,5.691,5.691,0,0,0-.237,1.824.18.18,0,0,0,.2.2Z" fill="#4b4b4a"/>
      <path d="M90.326,28.382a.319.319,0,0,1-.338-.338V18.585c0-2.6-1.182-4.122-3.615-4.122a3.632,3.632,0,0,0-3.716,3.953v9.628a.319.319,0,0,1-.338.338H80.157a.319.319,0,0,1-.338-.338V12.538a.319.319,0,0,1,.338-.338h2.162a.319.319,0,0,1,.338.338v1.486h.033a5.119,5.119,0,0,1,4.528-2.2c3.514,0,5.608,2.4,5.608,6.081V28.044a.32.32,0,0,1-.338.338Z" fill="#4b4b4a"/>
      <path d="M101.378,28.551c-3.142,0-4.357-1.419-4.357-4.595V14.7a.18.18,0,0,0-.2-.2h-1.35a.319.319,0,0,1-.338-.338V12.538a.319.319,0,0,1,.338-.338h1.35a.18.18,0,0,0,.2-.2V7.436a.318.318,0,0,1,.337-.337h2.163a.319.319,0,0,1,.337.337V12a.18.18,0,0,0,.2.2h2.567a.319.319,0,0,1,.338.338v1.621a.319.319,0,0,1-.338.338h-2.567a.179.179,0,0,0-.2.2v9.155c0,1.622.608,2.06,2.061,2.06h.709a.32.32,0,0,1,.338.338v1.96a.32.32,0,0,1-.338.338Z" fill="#4b4b4a"/>
      <path d="M114.049,8.551a.32.32,0,0,1-.338-.338V5.747a.32.32,0,0,1,.338-.338h2.3a.32.32,0,0,1,.338.338V8.213a.32.32,0,0,1-.338.338Zm.067,19.831a.32.32,0,0,1-.338-.338V12.538a.32.32,0,0,1,.338-.338h2.162a.319.319,0,0,1,.338.338V28.044a.319.319,0,0,1-.338.338Z" fill="#4b4b4a"/>
      <path d="M131.093,28.382a.32.32,0,0,1-.338-.338V18.585c0-2.6-1.183-4.122-3.614-4.122a3.631,3.631,0,0,0-3.717,3.953v9.628a.319.319,0,0,1-.338.338h-2.162a.32.32,0,0,1-.338-.338V12.538a.32.32,0,0,1,.338-.338h2.162a.319.319,0,0,1,.338.338v1.486h.034a5.115,5.115,0,0,1,4.526-2.2c3.514,0,5.609,2.4,5.609,6.081V28.044a.319.319,0,0,1-.338.338Z" fill="#4b4b4a"/>
    </g>
    <g>
      <path d="M5.421,218.779a6.268,6.268,0,0,1,6.385-4.358,6.488,6.488,0,0,1,5.54,2.736c.1.169.1.3-.1.473l-1.486,1.217a.3.3,0,0,1-.473-.035,3.978,3.978,0,0,0-3.479-1.756A3.513,3.513,0,0,0,8.19,219.59a14.8,14.8,0,0,0,0,6.587,3.513,3.513,0,0,0,3.616,2.534,3.978,3.978,0,0,0,3.479-1.756.3.3,0,0,1,.473-.034l1.486,1.216c.2.169.2.3.1.473a6.488,6.488,0,0,1-5.54,2.736,6.268,6.268,0,0,1-6.385-4.358,16.868,16.868,0,0,1,0-8.209Z" fill="#4b4b4a"/>
      <path d="M19.952,226.988a15.869,15.869,0,0,1,0-8.209,6.254,6.254,0,0,1,6.385-4.358,6.255,6.255,0,0,1,6.386,4.358,15.869,15.869,0,0,1,0,8.209,6.292,6.292,0,0,1-6.386,4.358A6.292,6.292,0,0,1,19.952,226.988Zm10.034-.811a10.6,10.6,0,0,0,.371-3.31,10.368,10.368,0,0,0-.371-3.277,3.6,3.6,0,0,0-3.649-2.534,3.6,3.6,0,0,0-3.648,2.534,10.363,10.363,0,0,0-.372,3.277,10.6,10.6,0,0,0,.372,3.31,3.6,3.6,0,0,0,3.648,2.534A3.6,3.6,0,0,0,29.986,226.177Z" fill="#4b4b4a"/>
      <path d="M46.684,230.975a.32.32,0,0,1-.338-.338v-1.52h-.033a4.936,4.936,0,0,1-4.426,2.229c-3.547,0-5.609-2.432-5.609-6.115v-10.1a.32.32,0,0,1,.338-.338h2.162a.319.319,0,0,1,.338.338v9.426c0,2.635,1.183,4.155,3.581,4.155,2.2,0,3.649-1.554,3.649-3.986V215.13a.32.32,0,0,1,.338-.338h2.162a.32.32,0,0,1,.338.338v15.507a.32.32,0,0,1-.338.338Z" fill="#4b4b4a"/>
      <path d="M63.689,230.975a.32.32,0,0,1-.338-.338v-9.459c0-2.6-1.183-4.122-3.615-4.122a3.631,3.631,0,0,0-3.716,3.953v9.628a.32.32,0,0,1-.338.338H53.52a.32.32,0,0,1-.338-.338V215.13a.32.32,0,0,1,.338-.338h2.162a.32.32,0,0,1,.338.338v1.487h.034a5.115,5.115,0,0,1,4.526-2.2c3.514,0,5.609,2.4,5.609,6.081v10.135a.32.32,0,0,1-.338.338Z" fill="#4b4b4a"/>
      <path d="M74.741,231.144c-3.141,0-4.358-1.419-4.358-4.595v-9.257a.179.179,0,0,0-.2-.2H68.829a.32.32,0,0,1-.338-.338V215.13a.32.32,0,0,1,.338-.338h1.352a.179.179,0,0,0,.2-.2v-4.561a.32.32,0,0,1,.338-.338h2.162a.32.32,0,0,1,.338.338v4.561a.179.179,0,0,0,.2.2h2.567a.32.32,0,0,1,.338.338v1.622a.319.319,0,0,1-.338.338H73.424a.179.179,0,0,0-.2.2v9.156c0,1.621.608,2.06,2.06,2.06h.71a.32.32,0,0,1,.338.338v1.96a.32.32,0,0,1-.338.338Z" fill="#4b4b4a"/>
      <path d="M79.506,230.975a.32.32,0,0,1-.338-.338V215.13a.32.32,0,0,1,.338-.338h2.162a.32.32,0,0,1,.338.338v1.656h.033a4.51,4.51,0,0,1,4.291-2.365,4.975,4.975,0,0,1,3.311,1.216c.169.169.2.3.067.473l-1.25,1.656a.306.306,0,0,1-.473.067,4.555,4.555,0,0,0-2.5-.777c-2.465,0-3.479,1.925-3.479,4.73v8.851a.32.32,0,0,1-.338.338Z" fill="#4b4b4a"/>
      <path d="M92.369,211.144a.319.319,0,0,1-.338-.338V208.34a.319.319,0,0,1,.338-.338h2.3a.319.319,0,0,1,.338.338v2.466a.319.319,0,0,1-.338.338Zm.068,19.831a.319.319,0,0,1-.338-.338V215.13a.319.319,0,0,1,.338-.338H94.6a.32.32,0,0,1,.338.338v15.507a.32.32,0,0,1-.338.338Z" fill="#4b4b4a"/>
      <path d="M98.656,226.955a12.684,12.684,0,0,1-.541-4.088,12.55,12.55,0,0,1,.507-4.088,6.807,6.807,0,0,1,12.7,0,14.11,14.11,0,0,1,.507,4.628.329.329,0,0,1-.371.338H101.224a.179.179,0,0,0-.2.2,6.059,6.059,0,0,0,.27,1.959,4,4,0,0,0,4.088,2.8,5.287,5.287,0,0,0,4.155-1.79.345.345,0,0,1,.507-.068l1.385,1.25a.3.3,0,0,1,.034.473,7.866,7.866,0,0,1-6.317,2.77C101.865,231.346,99.534,229.758,98.656,226.955Zm10.068-5.474a.179.179,0,0,0,.2-.2,5.717,5.717,0,0,0-.236-1.824,3.992,3.992,0,0,0-7.433,0,5.689,5.689,0,0,0-.236,1.824.179.179,0,0,0,.2.2Z" fill="#4b4b4a"/>
      <path d="M114.165,228.914a.325.325,0,0,1,0-.473l1.385-1.486a.325.325,0,0,1,.473,0,7.863,7.863,0,0,0,5,1.857c2.365,0,3.547-1.013,3.547-2.466,0-1.284-.608-1.993-3.141-2.263l-1.724-.169c-3.176-.338-4.831-1.926-4.831-4.561,0-3.074,2.2-4.932,6.014-4.932a9.684,9.684,0,0,1,5.743,1.79.327.327,0,0,1,.067.474l-1.148,1.452a.331.331,0,0,1-.473.068,8.52,8.52,0,0,0-4.358-1.318c-2.028,0-3.074.912-3.074,2.23,0,1.283.777,1.959,3.175,2.2l1.69.169c3.276.305,4.864,1.96,4.864,4.561,0,3.176-2.3,5.3-6.52,5.3A10.057,10.057,0,0,1,114.165,228.914Z" fill="#4b4b4a"/>
    </g>
    <g>
      <path d="M32.2,82.175l8.077-1.542a.743.743,0,0,1,.881.587,6.531,6.531,0,0,0,6.535,4.7c3.819,0,6.168-2.716,6.168-6.461,0-4.479-2.716-7.049-6.975-7.049h-2.13a.694.694,0,0,1-.735-.734V64.553a.694.694,0,0,1,.735-.735H46.74c3.745,0,6.168-2.423,6.168-6.241,0-3.524-2.129-5.874-5.653-5.874-3.157,0-4.92,1.836-5.654,4.626a.7.7,0,0,1-.881.514l-8-1.542a.645.645,0,0,1-.588-.808c1.175-6.608,6.828-11.454,15.64-11.454,9.765,0,15.419,5.8,15.419,13.8a11.962,11.962,0,0,1-5.581,10.28v.147c3.011,1.468,6.536,5.506,6.536,12.115,0,9.1-6.9,15.2-16.3,15.2-8.518,0-14.832-4.258-16.227-11.454A.818.818,0,0,1,32.2,82.175Z" fill="#4b4b4a"/>
      <path d="M85.249,73.731l-.146-.147a9.479,9.479,0,0,1-3.084.44c-7.857,0-14.318-5.874-14.318-15.052,0-10.059,7.269-15.933,16.74-15.933,9.546,0,16.742,5.874,16.742,15.713,0,4.259-1.322,8.077-3.671,12.335L85.4,93.262c-.221.441-.368.514-.881.514H75.19c-.587,0-.734-.294-.514-.735Zm5.8-15.126c0-4.038-2.569-6.9-6.609-6.9s-6.608,2.864-6.608,6.9c0,4.112,2.57,6.976,6.608,6.976S91.05,62.717,91.05,58.605Z" fill="#4b4b4a"/>
    </g>
  </g>
</svg>
