<svg xmlns="http://www.w3.org/2000/svg" xmlns:xlink="http://www.w3.org/1999/xlink" width="152.438" height="155.761" viewBox="0 0 152.438 155.761">
  <defs>
    <clipPath id="a">
      <rect x="76.266" y="11.728" width="76.172" height="100" fill="none"/>
    </clipPath>
  </defs>
  <g>
    <g clip-path="url(#a)">
      <path d="M100.326,79.334a2.948,2.948,0,0,0-1.139-1.091,32.227,32.227,0,1,1,30.333,0,2.933,2.933,0,0,0-1.141,1.091l-14.026,23.709Zm41.37,26.534H119.489l13.525-22.859a38.089,38.089,0,1,0-37.321,0l13.522,22.859H87.008a2.93,2.93,0,0,0,0,5.86H141.7a2.93,2.93,0,0,0,0-5.86" fill="#4b4b4a"/>
      <path d="M117.283,67.147v-7a10.782,10.782,0,0,0,7.4-7.4h7a17.624,17.624,0,0,1-14.4,14.4M114.352,54.7a4.882,4.882,0,1,1,4.884-4.881,4.887,4.887,0,0,1-4.884,4.881m-2.928,12.452a17.63,17.63,0,0,1-14.4-14.4h7a10.781,10.781,0,0,0,7.4,7.4Zm0-34.666v7a10.784,10.784,0,0,0-7.4,7.4h-7a17.624,17.624,0,0,1,14.405-14.4m5.859,0a17.618,17.618,0,0,1,14.4,14.4h-7a10.782,10.782,0,0,0-7.4-7.4ZM129.1,69.491l-.586-1.014a23.654,23.654,0,0,0,4.507-4.505l1.012.587a2.93,2.93,0,0,0,2.931-5.075l-1.006-.582a23.2,23.2,0,0,0,1.653-6.159h1.159a2.93,2.93,0,1,0,0-5.86h-1.159a23.188,23.188,0,0,0-1.653-6.159l1.006-.58a2.93,2.93,0,1,0-2.931-5.075l-1.012.586a23.717,23.717,0,0,0-4.507-4.506l.586-1.015a2.93,2.93,0,0,0-5.075-2.929l-.579,1.006a23.225,23.225,0,0,0-6.16-1.653V25.4a2.93,2.93,0,1,0-5.859,0v1.159a23.2,23.2,0,0,0-6.16,1.653l-.581-1.006a2.929,2.929,0,1,0-5.073,2.929l.584,1.015a23.677,23.677,0,0,0-4.505,4.506l-1.014-.586a2.929,2.929,0,1,0-2.929,5.073l1,.582a23.259,23.259,0,0,0-1.65,6.159H89.938a2.93,2.93,0,0,0,0,5.86H91.1a23.194,23.194,0,0,0,1.65,6.159l-1,.582a2.93,2.93,0,0,0,1.467,5.467,2.9,2.9,0,0,0,1.464-.395l1.014-.584a23.614,23.614,0,0,0,4.505,4.505l-.586,1.014a2.93,2.93,0,1,0,5.075,2.929l.579-1a23.238,23.238,0,0,0,6.162,1.652v1.161a2.93,2.93,0,0,0,5.859,0V73.067a23.3,23.3,0,0,0,6.16-1.65l.579,1a2.93,2.93,0,0,0,5.075-2.929" fill="#4b4b4a"/>
    </g>
    <g>
      <path d="M81.977,142.646a.327.327,0,0,1,0-.473l1.385-1.486a.327.327,0,0,1,.473,0,7.862,7.862,0,0,0,5,1.858c2.364,0,3.547-1.014,3.547-2.466,0-1.284-.607-1.994-3.142-2.264l-1.722-.169c-3.176-.337-4.831-1.925-4.831-4.56,0-3.075,2.2-4.933,6.012-4.933a9.676,9.676,0,0,1,5.744,1.791.326.326,0,0,1,.068.473l-1.149,1.453a.33.33,0,0,1-.473.067,8.513,8.513,0,0,0-4.358-1.317c-2.027,0-3.075.912-3.075,2.229,0,1.284.778,1.96,3.176,2.2l1.689.169c3.278.3,4.865,1.959,4.865,4.561,0,3.175-2.3,5.3-6.52,5.3A10.054,10.054,0,0,1,81.977,142.646Z" fill="#4b4b4a"/>
      <path d="M98.4,124.876a.319.319,0,0,1-.338-.337v-2.467a.32.32,0,0,1,.338-.338h2.3a.319.319,0,0,1,.337.338v2.467a.318.318,0,0,1-.337.337Zm.067,19.831a.32.32,0,0,1-.338-.338V128.863a.32.32,0,0,1,.338-.338h2.162a.319.319,0,0,1,.338.338v15.506a.319.319,0,0,1-.338.338Z" fill="#4b4b4a"/>
      <path d="M109.863,144.876c-3.141,0-4.357-1.419-4.357-4.595v-9.256a.179.179,0,0,0-.2-.2h-1.351a.319.319,0,0,1-.338-.338v-1.621a.319.319,0,0,1,.338-.338H105.3a.179.179,0,0,0,.2-.2v-4.56a.319.319,0,0,1,.338-.338h2.162a.32.32,0,0,1,.338.338v4.56a.179.179,0,0,0,.2.2h2.567a.319.319,0,0,1,.338.338v1.621a.319.319,0,0,1-.338.338h-2.567a.179.179,0,0,0-.2.2v9.155c0,1.622.607,2.061,2.06,2.061h.709a.319.319,0,0,1,.338.338v1.959a.319.319,0,0,1-.338.338Z" fill="#4b4b4a"/>
      <path d="M113.838,140.687a12.684,12.684,0,0,1-.54-4.088,12.55,12.55,0,0,1,.507-4.088,6.807,6.807,0,0,1,12.7,0,14.117,14.117,0,0,1,.507,4.629.33.33,0,0,1-.372.338H116.405a.179.179,0,0,0-.2.2,6.063,6.063,0,0,0,.271,1.96,4,4,0,0,0,4.087,2.8,5.285,5.285,0,0,0,4.155-1.79.345.345,0,0,1,.507-.068l1.386,1.25a.3.3,0,0,1,.033.474,7.869,7.869,0,0,1-6.318,2.77C117.048,145.079,114.717,143.491,113.838,140.687Zm10.067-5.473a.18.18,0,0,0,.2-.2,5.691,5.691,0,0,0-.237-1.824,3.992,3.992,0,0,0-7.432,0,5.691,5.691,0,0,0-.237,1.824.179.179,0,0,0,.2.2Z" fill="#4b4b4a"/>
      <path d="M129.347,142.646a.325.325,0,0,1,0-.473l1.385-1.486a.326.326,0,0,1,.472,0,7.866,7.866,0,0,0,5,1.858c2.366,0,3.548-1.014,3.548-2.466,0-1.284-.608-1.994-3.142-2.264l-1.723-.169c-3.176-.337-4.831-1.925-4.831-4.56,0-3.075,2.2-4.933,6.014-4.933a9.677,9.677,0,0,1,5.743,1.791.325.325,0,0,1,.067.473l-1.148,1.453a.33.33,0,0,1-.473.067,8.52,8.52,0,0,0-4.358-1.317c-2.028,0-3.075.912-3.075,2.229,0,1.284.778,1.96,3.176,2.2l1.689.169c3.277.3,4.865,1.959,4.865,4.561,0,3.175-2.3,5.3-6.521,5.3A10.051,10.051,0,0,1,129.347,142.646Z" fill="#4b4b4a"/>
    </g>
    <path d="M5.924,105.623V90.885a3.666,3.666,0,0,1,.289-1.734L35.688,24.277a1.935,1.935,0,0,1,2.023-1.155h18.35c1.01,0,1.3.577,1.01,1.444L27.6,89.151v.434h18.06a.767.767,0,0,0,.868-.867V67.478a1.365,1.365,0,0,1,1.444-1.444H64.73a1.365,1.365,0,0,1,1.445,1.444v21.24a.766.766,0,0,0,.866.867h6.5a1.365,1.365,0,0,1,1.445,1.445v14.593a1.364,1.364,0,0,1-1.445,1.444h-6.5a.766.766,0,0,0-.866.868v11.992a1.366,1.366,0,0,1-1.445,1.445H47.969a1.365,1.365,0,0,1-1.444-1.445V107.935a.767.767,0,0,0-.868-.868H7.369A1.364,1.364,0,0,1,5.924,105.623Z" fill="#4b4b4a"/>
  </g>
</svg>
