<svg xmlns="http://www.w3.org/2000/svg" xmlns:xlink="http://www.w3.org/1999/xlink" width="1920" height="1817.689" viewBox="0 0 1920 1817.689">
  <defs>
    <clipPath id="a">
      <rect x="376.523" y="158.328" width="324.945" height="278.062" fill="none"/>
    </clipPath>
  </defs>
  <g>
    <g>
      <g clip-path="url(#a)">
        <path d="M414.058,427.314h54.507V354.845H414.058Zm59.151,9.075H409.42a4.592,4.592,0,0,1-4.644-4.54V350.3a4.592,4.592,0,0,1,4.644-4.541h63.789a4.592,4.592,0,0,1,4.644,4.541v81.545a4.592,4.592,0,0,1-4.644,4.54" fill="#4b4b4a"/>
        <path d="M477.85,427.314h54.506V319.747H477.85ZM537,436.389h-63.79a4.592,4.592,0,0,1-4.644-4.54V315.206a4.592,4.592,0,0,1,4.644-4.541H537a4.592,4.592,0,0,1,4.644,4.541V431.849a4.592,4.592,0,0,1-4.644,4.54" fill="#4b4b4a"/>
        <path d="M541.642,427.314h54.506V282.875H541.642Zm59.151,9.075H537a4.592,4.592,0,0,1-4.644-4.54V278.334A4.591,4.591,0,0,1,537,273.8h63.79a4.591,4.591,0,0,1,4.644,4.535V431.849a4.592,4.592,0,0,1-4.644,4.54" fill="#4b4b4a"/>
        <path d="M664.566,367.382a4.592,4.592,0,0,1-4.644-4.541v-13.3a4.645,4.645,0,0,1,9.288,0v13.3a4.592,4.592,0,0,1-4.644,4.541" fill="#4b4b4a"/>
        <path d="M664.566,436.371H600.783a4.6,4.6,0,0,1-4.644-4.541V230.084H568.567a4.591,4.591,0,0,1-4.639-4.541,4.51,4.51,0,0,1,1.355-3.209l64.111-62.676a4.711,4.711,0,0,1,6.561,0l64.157,62.676a4.472,4.472,0,0,1,0,6.424,4.714,4.714,0,0,1-3.284,1.326H669.21v42.572a4.645,4.645,0,0,1-9.288,0V225.543a4.591,4.591,0,0,1,4.644-4.535h21.045L632.7,169.262l-52.923,51.746h21.011a4.591,4.591,0,0,1,4.644,4.535V427.3h54.5V394.66a4.645,4.645,0,0,1,9.288,0v37.17a4.592,4.592,0,0,1-4.644,4.541" fill="#4b4b4a"/>
        <path d="M664.566,322.312a4.592,4.592,0,0,1-4.644-4.541V304.384a4.645,4.645,0,0,1,9.288,0v13.387a4.592,4.592,0,0,1-4.644,4.541" fill="#4b4b4a"/>
        <path d="M695.6,436.389H381.164a4.539,4.539,0,1,1,0-9.075H695.6a4.539,4.539,0,1,1,0,9.075" fill="#4b4b4a"/>
      </g>
      <g>
        <path d="M261.74,301.488a1.05,1.05,0,0,1-1.111-1.112V269.26c0-8.557-3.89-13.558-11.891-13.558-7.112,0-12.224,5.112-12.224,13v31.672a1.051,1.051,0,0,1-1.112,1.112H228.29a1.05,1.05,0,0,1-1.111-1.112V269.26c0-8.557-3.89-13.558-11.891-13.558-7.224,0-12.225,5.112-12.225,13v31.672a1.05,1.05,0,0,1-1.111,1.112H194.84a1.051,1.051,0,0,1-1.112-1.112V249.368a1.051,1.051,0,0,1,1.112-1.111h7.112a1.049,1.049,0,0,1,1.111,1.111v4.89h.112c2.555-4.112,7.668-7.224,14.891-7.224s12.558,3,15.558,8.335h.111c3.668-5.112,9.114-8.335,17.226-8.335,12.335,0,19,7.89,19,20v33.339a1.05,1.05,0,0,1-1.111,1.112Z" fill="#4b4b4a"/>
        <path d="M282.216,236.254a1.05,1.05,0,0,1-1.112-1.111V227.03a1.051,1.051,0,0,1,1.112-1.111h7.556a1.051,1.051,0,0,1,1.112,1.111v8.113a1.05,1.05,0,0,1-1.112,1.111Zm.221,65.234a1.051,1.051,0,0,1-1.111-1.112V249.368a1.05,1.05,0,0,1,1.111-1.111h7.113a1.049,1.049,0,0,1,1.111,1.111v51.008a1.05,1.05,0,0,1-1.111,1.112Z" fill="#4b4b4a"/>
        <path d="M315.008,302.043c-9.335,0-13-4.445-13-14V227.03a1.05,1.05,0,0,1,1.111-1.111h7.112a1.051,1.051,0,0,1,1.112,1.111v60.455c0,4.445,1.667,5.89,5.334,5.89h2.111a1.05,1.05,0,0,1,1.111,1.112v6.445a1.049,1.049,0,0,1-1.111,1.111Z" fill="#4b4b4a"/>
        <path d="M339.888,302.043c-9.335,0-13-4.445-13-14V227.03A1.05,1.05,0,0,1,328,225.919h7.112a1.051,1.051,0,0,1,1.112,1.111v60.455c0,4.445,1.667,5.89,5.334,5.89h2.111a1.05,1.05,0,0,1,1.111,1.112v6.445a1.049,1.049,0,0,1-1.111,1.111Z" fill="#4b4b4a"/>
        <path d="M352.933,236.254a1.05,1.05,0,0,1-1.112-1.111V227.03a1.051,1.051,0,0,1,1.112-1.111h7.556a1.051,1.051,0,0,1,1.112,1.111v8.113a1.05,1.05,0,0,1-1.112,1.111Zm.221,65.234a1.051,1.051,0,0,1-1.111-1.112V249.368a1.05,1.05,0,0,1,1.111-1.111h7.113a1.049,1.049,0,0,1,1.111,1.111v51.008a1.05,1.05,0,0,1-1.111,1.112Z" fill="#4b4b4a"/>
        <path d="M372.177,288.374c-1.223-3.667-1.779-7.334-1.779-13.558,0-6.112.556-9.779,1.779-13.446,2.889-9.113,10.668-14.336,21-14.336s18.113,5.223,21,14.336c1.222,3.667,1.778,7.334,1.778,13.446,0,6.224-.556,9.891-1.778,13.558-2.89,9-10.668,14.336-21,14.336S375.066,297.376,372.177,288.374Zm33.006-2.667c.888-2.889,1.221-5.779,1.221-10.891s-.333-7.89-1.221-10.779c-1.779-5.335-6.113-8.335-12-8.335s-10.225,3-12,8.335c-.89,2.889-1.223,5.667-1.223,10.779s.333,8,1.223,10.891c1.777,5.334,6.111,8.335,12,8.335S403.4,291.041,405.183,285.707Z" fill="#4b4b4a"/>
        <path d="M459.71,301.488a1.05,1.05,0,0,1-1.111-1.112V269.26c0-8.557-3.89-13.558-11.891-13.558-7.224,0-12.225,5.112-12.225,13v31.672a1.05,1.05,0,0,1-1.111,1.112H426.26a1.051,1.051,0,0,1-1.112-1.112V249.368a1.051,1.051,0,0,1,1.112-1.111h7.112a1.049,1.049,0,0,1,1.111,1.111v4.89h.112c2.555-4.112,7.668-7.224,14.891-7.224,11.558,0,18.448,7.89,18.448,20v33.339a1.051,1.051,0,0,1-1.112,1.112Z" fill="#4b4b4a"/>
        <path d="M475.91,294.709a1.075,1.075,0,0,1,0-1.556l4.557-4.89a1.074,1.074,0,0,1,1.555,0,25.863,25.863,0,0,0,16.448,6.112c7.779,0,11.668-3.334,11.668-8.112,0-4.223-2-6.557-10.335-7.446l-5.667-.556c-10.447-1.111-15.892-6.334-15.892-15,0-10.113,7.224-16.225,19.781-16.225a31.842,31.842,0,0,1,18.892,5.89,1.073,1.073,0,0,1,.223,1.556l-3.779,4.778a1.088,1.088,0,0,1-1.556.223,28.02,28.02,0,0,0-14.335-4.335c-6.668,0-10.114,3-10.114,7.335,0,4.223,2.556,6.445,10.447,7.223l5.556.556c10.78,1,16,6.446,16,15,0,10.447-7.557,17.448-21.448,17.448A33.081,33.081,0,0,1,475.91,294.709Z" fill="#4b4b4a"/>
      </g>
      <g>
        <path d="M182.779,170.747c-2.3-6.911-3.583-14.334-3.583-25.085a1.357,1.357,0,0,0-1.536-1.536h-9.215a2.418,2.418,0,0,1-2.559-2.559V125.7a2.418,2.418,0,0,1,2.559-2.559h9.215A1.357,1.357,0,0,0,179.2,121.6v-8.7a1.357,1.357,0,0,0-1.536-1.535h-9.215a2.418,2.418,0,0,1-2.559-2.56V92.933a2.418,2.418,0,0,1,2.559-2.56h9.215a1.357,1.357,0,0,0,1.536-1.535,73.351,73.351,0,0,1,3.583-24.061c7.68-24.061,27.133-36.859,54.266-36.859,26.364,0,43,13.054,51.705,30.971.768,1.792,0,2.816-1.28,3.584L263.153,73.736c-1.536.511-2.815.511-3.84-1.28-5.119-9.215-11.262-14.334-21.756-14.334-9.727,0-16.638,4.607-20.222,15.1-1.023,3.327-1.792,7.934-1.792,15.614a1.357,1.357,0,0,0,1.536,1.535h42.49a2.419,2.419,0,0,1,2.56,2.56l-2.56,15.87c-.256,1.791-1.023,2.56-2.559,2.56H217.079a1.358,1.358,0,0,0-1.536,1.535v8.7a1.358,1.358,0,0,0,1.536,1.536H254.45a2.418,2.418,0,0,1,2.56,2.559l-2.56,15.871c-.256,1.791-1.023,2.559-2.559,2.559H217.079a1.358,1.358,0,0,0-1.536,1.536c0,8.7.769,13.31,1.792,16.638,3.584,10.495,10.5,15.1,20.222,15.1,10.494,0,16.637-5.12,21.756-14.334,1.025-1.792,2.3-1.792,3.84-1.28L287.47,173.05c1.28.769,2.048,1.792,1.28,3.584-8.7,17.917-25.341,30.972-51.705,30.972C209.912,207.606,190.459,194.807,182.779,170.747Z" fill="#4b4b4a"/>
        <path d="M302.651,178.425a4.787,4.787,0,0,1,1.281-3.583l61.175-72.694c6.656-7.679,10.239-15.1,10.239-24.061,0-11.518-6.911-19.965-18.942-19.965-11.774,0-18.941,7.167-20.477,20.477,0,1.535-1.024,2.3-2.816,2.048l-28.156-4.608a2.476,2.476,0,0,1-2.048-3.072c1.792-24.06,21.245-45.049,54.778-45.049,33.275,0,53.5,21.5,53.5,49.657,0,16.638-6.655,29.692-17.661,42.234L347.7,173.819v.511h60.92a2.419,2.419,0,0,1,2.56,2.56v25.341a2.418,2.418,0,0,1-2.56,2.559H305.211a2.419,2.419,0,0,1-2.56-2.559Z" fill="#4b4b4a"/>
        <path d="M427.207,117.762c0-38.651,1.28-46.586,3.84-54.265,7.167-22.269,25.085-35.579,52.473-35.579s45.306,13.31,52.473,35.579c2.56,7.679,3.839,15.614,3.839,54.265s-1.279,46.585-3.839,54.265c-7.167,22.269-25.085,35.579-52.473,35.579s-45.306-13.31-52.473-35.579C428.487,164.347,427.207,156.413,427.207,117.762ZM483.52,177.4c8.958,0,15.1-3.84,17.662-11.774,1.536-4.608,2.047-9.727,2.047-47.866S502.718,74.5,501.182,69.9c-2.56-7.935-8.7-11.774-17.662-11.774-9.215,0-15.1,3.839-17.662,11.774-1.536,4.608-2.047,9.727-2.047,47.866s.511,43.258,2.047,47.866C468.418,173.562,474.305,177.4,483.52,177.4Z" fill="#4b4b4a"/>
      </g>
    </g>
    <g>
      <g>
        <path d="M1424.3,375.008c-11.3,0-20.447-10.373-20.447-23.17s9.158-23.159,20.447-23.177c11.295,0,20.447,10.379,20.447,23.177s-9.152,23.17-20.447,23.17m0-55.613c-15.808,0-28.63,14.521-28.63,32.443.018,17.9,12.828,32.418,28.63,32.436,15.808,0,28.63-14.521,28.63-32.436S1440.111,319.4,1424.3,319.4" fill="#00030c"/>
        <path d="M1436.571,388.91h-24.535c-20.322.024-36.789,18.687-36.807,41.708V509.4h16.359v88.05h8.177V490.865h-8.177v9.272h-8.182V430.618c.018-17.909,12.827-32.418,28.63-32.442h24.535c15.8.024,28.612,14.533,28.63,32.442v69.519h-8.182v-9.272h-8.177V597.453h8.177V509.4h16.359V430.618c-.024-23.021-16.491-41.684-36.807-41.708" fill="#00030c"/>
        <rect x="1420.216" y="509.405" width="8.177" height="88.05" fill="#00030c"/>
        <path d="M1506.094,412.08c-9.032,0-16.359-8.3-16.359-18.538S1497.062,375,1506.094,375s16.359,8.3,16.359,18.538-7.326,18.538-16.359,18.538m0-46.342c-13.551,0-24.535,12.451-24.535,27.8s10.99,27.792,24.535,27.81c13.552,0,24.536-12.451,24.536-27.81s-10.984-27.8-24.536-27.8" fill="#00030c"/>
        <path d="M1518.363,425.985h-36.806v9.266h36.806c11.29.018,20.436,10.385,20.448,23.176v60.247h-8.177V509.4h-8.182v88.056h8.182V527.94h16.359V458.427c-.018-17.909-12.827-32.424-28.63-32.442" fill="#00030c"/>
        <polygon points="1481.557 509.402 1481.557 518.674 1465.198 518.674 1465.198 527.94 1481.557 527.94 1481.557 597.452 1489.734 597.452 1489.734 509.402 1481.557 509.402" fill="#00030c"/>
        <rect x="1502.006" y="527.937" width="8.177" height="69.518" fill="#00030c"/>
        <path d="M1342.511,412.08c-9.033,0-16.359-8.3-16.359-18.538S1333.478,375,1342.511,375s16.359,8.3,16.359,18.538-7.327,18.538-16.359,18.538m0-46.342c-13.552,0-24.536,12.451-24.536,27.8s10.99,27.792,24.536,27.81c13.551,0,24.535-12.451,24.535-27.81s-10.984-27.8-24.535-27.8" fill="#00030c"/>
        <path d="M1330.242,425.985c-15.8.018-28.612,14.533-28.629,32.442V527.94h16.359v69.518h8.182V509.4h-8.182v9.272H1309.8V458.427c.012-12.791,9.158-23.158,20.447-23.176h36.807v-9.266Z" fill="#00030c"/>
        <polygon points="1358.87 509.402 1358.87 597.452 1367.046 597.452 1367.046 527.94 1383.411 527.94 1383.411 518.674 1367.046 518.674 1367.046 509.402 1358.87 509.402" fill="#00030c"/>
        <rect x="1338.421" y="527.937" width="8.177" height="69.518" fill="#00030c"/>
      </g>
      <g>
        <path d="M1283.1,673.107a.906.906,0,0,1,0-1.314l3.852-4.134a.908.908,0,0,1,1.315,0,21.866,21.866,0,0,0,13.9,5.167c6.576,0,9.865-2.818,9.865-6.859,0-3.57-1.691-5.542-8.737-6.294l-4.792-.47c-8.831-.94-13.435-5.355-13.435-12.683,0-8.55,6.107-13.717,16.723-13.717a26.919,26.919,0,0,1,15.971,4.98.907.907,0,0,1,.188,1.315l-3.194,4.04a.918.918,0,0,1-1.315.188,23.7,23.7,0,0,0-12.12-3.664c-5.637,0-8.549,2.537-8.549,6.2,0,3.57,2.161,5.449,8.831,6.107l4.7.47c9.113.845,13.528,5.448,13.528,12.683,0,8.831-6.388,14.75-18.132,14.75A27.968,27.968,0,0,1,1283.1,673.107Z" fill="#00030c"/>
        <path d="M1356.826,678.839a1.613,1.613,0,0,1-1.5-.94l-12.776-20.951-7.8,9.113V677.9a.888.888,0,0,1-.939.94H1327.8a.888.888,0,0,1-.94-.94V615.893a.887.887,0,0,1,.94-.939h6.013a.887.887,0,0,1,.939.939v39.741l17.756-20.952a2,2,0,0,1,1.691-.845h6.952c.564,0,.751.469.376.939l-13.81,16.066,16.629,27.057a.608.608,0,0,1-.565.94Z" fill="#00030c"/>
        <path d="M1371.145,623.691a.888.888,0,0,1-.94-.94v-6.858a.887.887,0,0,1,.94-.939h6.388a.887.887,0,0,1,.94.939v6.858a.888.888,0,0,1-.94.94Zm.188,55.148a.887.887,0,0,1-.939-.94V634.776a.887.887,0,0,1,.939-.939h6.013a.888.888,0,0,1,.939.939V677.9a.888.888,0,0,1-.939.94Z" fill="#00030c"/>
        <path d="M1398.868,679.308c-7.891,0-10.992-3.758-10.992-11.838V615.893a.887.887,0,0,1,.939-.939h6.013a.887.887,0,0,1,.94.939V667c0,3.758,1.409,4.979,4.509,4.979h1.785a.888.888,0,0,1,.94.94v5.449a.888.888,0,0,1-.94.939Z" fill="#00030c"/>
        <path d="M1419.9,679.308c-7.891,0-10.992-3.758-10.992-11.838V615.893a.887.887,0,0,1,.94-.939h6.012a.887.887,0,0,1,.94.939V667c0,3.758,1.409,4.979,4.509,4.979h1.786a.888.888,0,0,1,.939.94v5.449a.888.888,0,0,1-.939.939Z" fill="#00030c"/>
        <path d="M1428.913,667.659a35.3,35.3,0,0,1-1.5-11.368c0-5.167.47-8.644,1.409-11.368,2.536-7.8,9.114-12.12,17.662-12.12,8.644,0,15.126,4.416,17.663,12.12.939,2.913,1.409,6.012,1.409,12.871a.916.916,0,0,1-1.033.939h-28.467a.5.5,0,0,0-.564.564,16.854,16.854,0,0,0,.752,5.449c1.785,5.167,5.824,7.8,11.367,7.8a14.7,14.7,0,0,0,11.556-4.98.958.958,0,0,1,1.409-.187l3.853,3.475a.843.843,0,0,1,.094,1.316c-3.571,4.509-9.677,7.7-17.569,7.7C1437.838,679.872,1431.355,675.456,1428.913,667.659Zm28-15.22a.5.5,0,0,0,.564-.564,15.836,15.836,0,0,0-.659-5.074c-1.5-4.508-5.26-7.045-10.334-7.045s-8.831,2.537-10.334,7.045a15.867,15.867,0,0,0-.658,5.074.5.5,0,0,0,.564.564Z" fill="#00030c"/>
        <path d="M1502.2,678.839a.887.887,0,0,1-.939-.94v-4.322h-.095c-2.16,3.57-6.013,6.295-12.776,6.295-7.8,0-13.248-3.664-15.5-10.8-1.221-3.57-1.6-7.141-1.6-12.777,0-5.543.376-9.114,1.6-12.683,2.254-7.141,7.7-10.8,15.5-10.8,6.763,0,10.616,2.631,12.776,6.2h.095V615.893a.887.887,0,0,1,.939-.939h6.013a.887.887,0,0,1,.939.939V677.9a.888.888,0,0,1-.939.94Zm-1.974-13.154c.752-2.16,1.035-4.885,1.035-9.394s-.283-7.14-1.035-9.4c-1.5-4.51-4.978-6.764-9.958-6.764s-8.361,2.348-9.865,6.764a32.047,32.047,0,0,0-1.033,9.4,31.226,31.226,0,0,0,1.033,9.394c1.5,4.416,4.886,6.859,9.865,6.859S1498.727,670.2,1500.229,665.685Z" fill="#00030c"/>
        <path d="M1543.353,695.749a.887.887,0,0,1-.939-.94V634.776a.887.887,0,0,1,.939-.939h6.013a.888.888,0,0,1,.94.939v4.229h.093c2.162-3.571,6.013-6.2,12.778-6.2,7.8,0,13.246,3.664,15.5,10.8,1.221,3.569,1.6,7.14,1.6,12.683,0,5.636-.376,9.207-1.6,12.777-2.255,7.14-7.7,10.8-15.5,10.8-6.765,0-10.616-2.725-12.778-6.295h-.093v21.232a.888.888,0,0,1-.94.94Zm27.809-30.064a31.226,31.226,0,0,0,1.033-9.394,32.047,32.047,0,0,0-1.033-9.4c-1.5-4.416-4.886-6.764-9.865-6.764s-8.455,2.254-9.958,6.764c-.752,2.255-1.033,4.885-1.033,9.4s.281,7.234,1.033,9.394c1.5,4.51,4.979,6.859,9.958,6.859S1569.659,670.1,1571.162,665.685Z" fill="#00030c"/>
        <path d="M1587.7,667.659a35.3,35.3,0,0,1-1.5-11.368c0-5.167.47-8.644,1.409-11.368,2.537-7.8,9.114-12.12,17.663-12.12,8.643,0,15.126,4.416,17.662,12.12.939,2.913,1.409,6.012,1.409,12.871a.916.916,0,0,1-1.033.939h-28.467a.5.5,0,0,0-.564.564,16.882,16.882,0,0,0,.752,5.449c1.786,5.167,5.825,7.8,11.368,7.8a14.7,14.7,0,0,0,11.555-4.98.958.958,0,0,1,1.409-.187l3.853,3.475a.842.842,0,0,1,.094,1.316c-3.571,4.509-9.677,7.7-17.569,7.7C1596.623,679.872,1590.141,675.456,1587.7,667.659Zm28-15.22a.5.5,0,0,0,.564-.564,15.867,15.867,0,0,0-.658-5.074c-1.5-4.508-5.261-7.045-10.334-7.045s-8.831,2.537-10.334,7.045a15.836,15.836,0,0,0-.659,5.074.5.5,0,0,0,.564.564Z" fill="#00030c"/>
        <path d="M1631.582,667.753c-1.033-3.1-1.5-6.2-1.5-11.462a33.565,33.565,0,0,1,1.5-11.368c2.442-7.7,9.02-12.12,17.756-12.12s15.314,4.416,17.757,12.12a33.565,33.565,0,0,1,1.5,11.368c0,5.26-.47,8.361-1.5,11.462-2.443,7.609-9.02,12.119-17.757,12.119S1634.024,675.362,1631.582,667.753Zm27.9-2.255a29.461,29.461,0,0,0,1.035-9.207,28.809,28.809,0,0,0-1.035-9.114c-1.5-4.508-5.167-7.045-10.146-7.045s-8.643,2.537-10.147,7.045a28.848,28.848,0,0,0-1.033,9.114,29.5,29.5,0,0,0,1.033,9.207c1.5,4.51,5.168,7.046,10.147,7.046S1657.981,670.008,1659.484,665.5Z" fill="#00030c"/>
        <path d="M1677.309,695.749a.888.888,0,0,1-.94-.94V634.776a.887.887,0,0,1,.94-.939h6.012a.888.888,0,0,1,.94.939v4.229h.093c2.162-3.571,6.013-6.2,12.778-6.2,7.8,0,13.246,3.664,15.5,10.8,1.221,3.569,1.6,7.14,1.6,12.683,0,5.636-.376,9.207-1.6,12.777-2.255,7.14-7.7,10.8-15.5,10.8-6.765,0-10.616-2.725-12.778-6.295h-.093v21.232a.888.888,0,0,1-.94.94Zm27.808-30.064a31.226,31.226,0,0,0,1.033-9.394,32.047,32.047,0,0,0-1.033-9.4c-1.5-4.416-4.886-6.764-9.865-6.764s-8.455,2.254-9.958,6.764c-.752,2.255-1.033,4.885-1.033,9.4s.281,7.234,1.033,9.394c1.5,4.51,4.979,6.859,9.958,6.859S1703.614,670.1,1705.117,665.685Z" fill="#00030c"/>
        <path d="M1733.039,679.308c-7.892,0-10.992-3.758-10.992-11.838V615.893a.887.887,0,0,1,.939-.939H1729a.887.887,0,0,1,.939.939V667c0,3.758,1.41,4.979,4.51,4.979h1.785a.888.888,0,0,1,.94.94v5.449a.888.888,0,0,1-.94.939Z" fill="#00030c"/>
        <path d="M1742.049,667.659a35.27,35.27,0,0,1-1.5-11.368c0-5.167.47-8.644,1.409-11.368,2.536-7.8,9.113-12.12,17.662-12.12,8.644,0,15.126,4.416,17.662,12.12.94,2.913,1.409,6.012,1.409,12.871a.916.916,0,0,1-1.033.939h-28.467a.5.5,0,0,0-.563.564,16.854,16.854,0,0,0,.752,5.449c1.785,5.167,5.824,7.8,11.367,7.8a14.7,14.7,0,0,0,11.556-4.98.958.958,0,0,1,1.409-.187l3.853,3.475a.842.842,0,0,1,.093,1.316c-3.57,4.509-9.677,7.7-17.568,7.7C1750.974,679.872,1744.491,675.456,1742.049,667.659Zm28-15.22a.5.5,0,0,0,.563-.564,15.839,15.839,0,0,0-.658-5.074c-1.5-4.508-5.261-7.045-10.334-7.045s-8.831,2.537-10.334,7.045a15.839,15.839,0,0,0-.658,5.074.5.5,0,0,0,.563.564Z" fill="#00030c"/>
      </g>
      <g>
        <path d="M891.831,657.727a4.945,4.945,0,0,1,1.321-3.7l63.171-75.064c6.872-7.93,10.572-15.595,10.572-24.846,0-11.894-7.136-20.616-19.559-20.616-12.158,0-19.559,7.4-21.145,21.144,0,1.586-1.057,2.379-2.907,2.115L894.21,552a2.558,2.558,0,0,1-2.115-3.172c1.85-24.846,21.938-46.52,56.563-46.52,34.361,0,55.241,22.2,55.241,51.278,0,17.179-6.872,30.66-18.237,43.611L938.35,652.97v.529h62.906a2.5,2.5,0,0,1,2.643,2.642v26.167a2.5,2.5,0,0,1-2.643,2.644H894.474a2.5,2.5,0,0,1-2.643-2.644Z" fill="#00030c"/>
        <path d="M1020.443,595.086c0-39.911,1.322-48.106,3.965-56.035,7.4-23,25.9-36.74,54.184-36.74s46.784,13.745,54.184,36.74c2.644,7.929,3.965,16.124,3.965,56.035s-1.321,48.1-3.965,56.034c-7.4,23-25.9,36.739-54.184,36.739s-46.783-13.744-54.184-36.739C1021.765,643.19,1020.443,635,1020.443,595.086Zm58.149,61.585c9.251,0,15.595-3.965,18.238-12.159,1.586-4.757,2.114-10.044,2.114-49.426s-.528-44.669-2.114-49.427c-2.643-8.193-8.987-12.158-18.238-12.158-9.515,0-15.594,3.965-18.238,12.158-1.585,4.758-2.114,10.044-2.114,49.427s.529,44.669,2.114,49.426C1063,652.706,1069.077,656.671,1078.592,656.671Z" fill="#00030c"/>
        <path d="M1154.9,595.086c0-39.911,1.322-48.106,3.965-56.035,7.4-23,25.9-36.74,54.184-36.74s46.784,13.745,54.184,36.74c2.644,7.929,3.965,16.124,3.965,56.035s-1.321,48.1-3.965,56.034c-7.4,23-25.9,36.739-54.184,36.739s-46.783-13.744-54.184-36.739C1156.219,643.19,1154.9,635,1154.9,595.086Zm58.149,61.585c9.251,0,15.6-3.965,18.238-12.159,1.586-4.757,2.114-10.044,2.114-49.426s-.528-44.669-2.114-49.427c-2.643-8.193-8.987-12.158-18.238-12.158-9.515,0-15.594,3.965-18.237,12.158-1.586,4.758-2.115,10.044-2.115,49.427s.529,44.669,2.115,49.426C1197.452,652.706,1203.531,656.671,1213.046,656.671Z" fill="#00030c"/>
      </g>
    </g>
    <g>
      <g>
        <path d="M651.654,1039.653H481.513V780.768H651.654Zm4.476-268.476h-179.1a4.66,4.66,0,0,0-4.476,4.8v268.476a4.658,4.658,0,0,0,4.476,4.789h179.1a4.653,4.653,0,0,0,4.476-4.789V775.973a4.655,4.655,0,0,0-4.476-4.8" fill="#00030c"/>
        <path d="M566.582,885.815c-8.846,0-16-7.667-16-17.14s7.159-17.139,16-17.139,16,7.673,16,17.139-7.16,17.14-16,17.14m0-43.864c-13.767,0-24.963,11.986-24.963,26.724s11.2,26.732,24.963,26.732,24.963-11.987,24.963-26.732-11.2-26.724-24.963-26.724" fill="#00030c"/>
        <path d="M599.041,912.308a4.654,4.654,0,0,0-3.3,3.535l-2.244,9.768-13.6-14.563a12.215,12.215,0,0,0,2.69-.9,15.331,15.331,0,0,0,8.613-10.607,6.116,6.116,0,0,1,3.36-4.137l13.548,14.5Zm-25.013-11.391a13.946,13.946,0,0,0-14.889,0,5.439,5.439,0,0,1-5.153.364,6.308,6.308,0,0,1-3.41-4.194,15.283,15.283,0,0,0-10.526-11.272,5.825,5.825,0,0,1-3.912-3.655,6.523,6.523,0,0,1,.333-5.51,16.761,16.761,0,0,0,0-15.942,6.33,6.33,0,0,1-.333-5.511,6.142,6.142,0,0,1,3.912-3.661,15.265,15.265,0,0,0,10.526-11.265,5.992,5.992,0,0,1,3.41-4.194,5.816,5.816,0,0,1,2.244-.477,5.626,5.626,0,0,1,2.909.84,13.946,13.946,0,0,0,14.889,0,5.259,5.259,0,0,1,5.147-.363,6.288,6.288,0,0,1,3.417,4.194,15.265,15.265,0,0,0,10.519,11.265,5.846,5.846,0,0,1,3.918,3.661,6.551,6.551,0,0,1-.338,5.511,16.788,16.788,0,0,0,0,15.942,6.549,6.549,0,0,1,.338,5.51,6.114,6.114,0,0,1-3.918,3.655,15.283,15.283,0,0,0-10.519,11.272,6.029,6.029,0,0,1-3.417,4.194,5.437,5.437,0,0,1-5.147-.364m-34.367,24.631-2.238-9.767a4.779,4.779,0,0,0-3.3-3.536L525,909.85l13.541-14.506a5.974,5.974,0,0,1,3.361,4.137,15.355,15.355,0,0,0,8.619,10.608,24.067,24.067,0,0,0,2.684.9Zm80.482-16.419-17.516-18.7a16.61,16.61,0,0,0,1.787-18.575,6.632,6.632,0,0,1,0-6.294,16.621,16.621,0,0,0,.9-14.024,14.94,14.94,0,0,0-9.9-9.228,6.071,6.071,0,0,1-4.143-4.432,15.325,15.325,0,0,0-8.62-10.607,13.757,13.757,0,0,0-13.1.959,5.468,5.468,0,0,1-5.874,0,13.757,13.757,0,0,0-13.1-.959,15.338,15.338,0,0,0-8.62,10.607,6.056,6.056,0,0,1-4.144,4.432,15.062,15.062,0,0,0-9.9,9.228,16.621,16.621,0,0,0,.9,14.024,6.6,6.6,0,0,1,0,6.294,16.622,16.622,0,0,0-.9,14.024,16.362,16.362,0,0,0,2.689,4.551l-17.465,18.7a5.016,5.016,0,0,0-1.116,4.677,4.641,4.641,0,0,0,3.248,3.354l14.211,3.717,3.473,15.222a4.667,4.667,0,0,0,3.135,3.473,4.1,4.1,0,0,0,1.229.181,4.311,4.311,0,0,0,3.191-1.441l26.191-28.042,26.192,28.042a4.441,4.441,0,0,0,3.191,1.441,4.749,4.749,0,0,0,1.235-.181,4.668,4.668,0,0,0,3.128-3.473l3.473-15.222,14.219-3.717a4.634,4.634,0,0,0,3.241-3.354,5.366,5.366,0,0,0-1.229-4.677" fill="#00030c"/>
        <path d="M631.506,999.383c-8.79,1.918-15.673,9.347-17.466,18.694H519.121c-1.793-9.347-8.676-16.776-17.459-18.694V821.036c8.783-1.918,15.666-9.347,17.459-18.694H614.04c1.793,9.347,8.676,16.776,17.466,18.694Zm4.476-187.456c-7.385,0-13.435-6.469-13.435-14.381a4.656,4.656,0,0,0-4.476-4.8H515.09a4.656,4.656,0,0,0-4.476,4.8c0,7.912-6.043,14.381-13.434,14.381a4.661,4.661,0,0,0-4.477,4.8V1003.7a4.664,4.664,0,0,0,4.477,4.8c7.391,0,13.434,6.469,13.434,14.381a4.66,4.66,0,0,0,4.476,4.8H618.071a4.66,4.66,0,0,0,4.476-4.8c0-7.912,6.05-14.381,13.435-14.381a4.66,4.66,0,0,0,4.476-4.8V816.723a4.656,4.656,0,0,0-4.476-4.8" fill="#00030c"/>
        <path d="M621.43,958.15a4.655,4.655,0,0,1-4.476,4.8H516.211a4.807,4.807,0,0,1,0-9.591H616.954a4.655,4.655,0,0,1,4.476,4.795" fill="#00030c"/>
        <path d="M612.475,986.916a4.656,4.656,0,0,1-4.476,4.8H525.167a4.807,4.807,0,0,1,0-9.592H608a4.656,4.656,0,0,1,4.476,4.8" fill="#00030c"/>
      </g>
      <g>
        <path d="M118.709,750.887a.887.887,0,0,1-.939-.939V723.642c0-7.233-3.289-11.461-10.053-11.461-6.013,0-10.334,4.322-10.334,10.992v26.775a.888.888,0,0,1-.94.939H90.431a.888.888,0,0,1-.94-.939V723.642c0-7.233-3.288-11.461-10.053-11.461-6.106,0-10.334,4.322-10.334,10.992v26.775a.888.888,0,0,1-.939.939H62.152a.887.887,0,0,1-.939-.939V706.826a.887.887,0,0,1,.939-.94h6.013a.888.888,0,0,1,.939.94v4.134H69.2c2.161-3.477,6.483-6.107,12.589-6.107S92.4,707.389,94.94,711.9h.094c3.1-4.321,7.7-7.046,14.562-7.046,10.428,0,16.065,6.67,16.065,16.91v28.185a.888.888,0,0,1-.939.939Z" fill="#00030c"/>
        <path d="M134.682,739.8c-1.034-3.1-1.5-6.2-1.5-11.46a33.547,33.547,0,0,1,1.5-11.369c2.442-7.7,9.019-12.119,17.755-12.119s15.315,4.415,17.757,12.119a33.547,33.547,0,0,1,1.5,11.369c0,5.26-.469,8.361-1.5,11.46-2.442,7.611-9.019,12.12-17.757,12.12S137.124,747.412,134.682,739.8Zm27.9-2.254a29.459,29.459,0,0,0,1.034-9.206,28.806,28.806,0,0,0-1.034-9.114c-1.5-4.51-5.167-7.046-10.147-7.046s-8.642,2.536-10.146,7.046a28.84,28.84,0,0,0-1.033,9.114,29.494,29.494,0,0,0,1.033,9.206c1.5,4.509,5.168,7.046,10.146,7.046S161.081,742.056,162.584,737.547Z" fill="#00030c"/>
        <path d="M180.407,750.887a.887.887,0,0,1-.939-.939V706.826a.887.887,0,0,1,.939-.94h6.013a.888.888,0,0,1,.939.94v4.6h.094c1.973-3.851,5.919-6.576,11.932-6.576a13.833,13.833,0,0,1,9.207,3.382c.47.47.563.846.187,1.315l-3.475,4.6a.852.852,0,0,1-1.316.188,12.672,12.672,0,0,0-6.952-2.161c-6.858,0-9.677,5.355-9.677,13.153v24.614a.888.888,0,0,1-.939.939Z" fill="#00030c"/>
        <path d="M212.03,739.708a35.287,35.287,0,0,1-1.5-11.367c0-5.168.47-8.644,1.41-11.369,2.536-7.8,9.113-12.119,17.662-12.119,8.643,0,15.126,4.415,17.662,12.119.939,2.912,1.409,6.013,1.409,12.871a.916.916,0,0,1-1.033.94H219.17a.5.5,0,0,0-.564.563,16.888,16.888,0,0,0,.752,5.45c1.786,5.167,5.825,7.8,11.368,7.8a14.7,14.7,0,0,0,11.555-4.979.96.96,0,0,1,1.409-.189l3.853,3.477a.841.841,0,0,1,.094,1.315c-3.571,4.51-9.677,7.7-17.569,7.7C220.955,751.921,214.473,747.506,212.03,739.708Zm28-15.22a.5.5,0,0,0,.564-.563,15.855,15.855,0,0,0-.658-5.074c-1.5-4.509-5.261-7.046-10.334-7.046s-8.831,2.537-10.334,7.046a15.824,15.824,0,0,0-.659,5.074.5.5,0,0,0,.564.563Z" fill="#00030c"/>
        <path d="M292.264,751.357c-8.738,0-12.119-3.945-12.119-12.776V712.839a.5.5,0,0,0-.565-.564h-3.758a.888.888,0,0,1-.939-.939v-4.51a.888.888,0,0,1,.939-.94h3.758a.5.5,0,0,0,.565-.563V692.639a.887.887,0,0,1,.939-.939H287.1a.888.888,0,0,1,.939.939v12.684a.5.5,0,0,0,.564.563h7.139a.888.888,0,0,1,.94.94v4.51a.887.887,0,0,1-.94.939H288.6a.5.5,0,0,0-.564.564V738.3c0,4.509,1.691,5.73,5.731,5.73h1.972a.887.887,0,0,1,.94.939v5.45a.887.887,0,0,1-.94.939Z" fill="#00030c"/>
        <path d="M332.549,750.887a.888.888,0,0,1-.94-.939V723.642c0-7.233-3.288-11.461-10.052-11.461-6.107,0-10.334,4.322-10.334,10.992v26.775a.888.888,0,0,1-.94.939H304.27a.887.887,0,0,1-.939-.939V687.942a.887.887,0,0,1,.939-.939h6.013a.888.888,0,0,1,.94.939V710.96h.093c2.162-3.477,6.483-6.107,12.589-6.107,9.771,0,15.6,6.67,15.6,16.91v28.185a.888.888,0,0,1-.939.939Z" fill="#00030c"/>
        <path d="M375.973,750.887a.887.887,0,0,1-.94-.939V746h-.1c-2.066,3.381-6.482,5.918-13.34,5.918-8.549,0-15.125-4.415-15.125-13.529,0-9.488,6.576-13.9,17.568-13.9h10.24a.5.5,0,0,0,.564-.563v-3.289c0-6.2-2.443-8.831-10.8-8.831-5.073,0-8.268,1.316-10.9,3.2-.47.375-1.034.375-1.316-.1l-2.536-4.321a1,1,0,0,1,.187-1.316c3.383-2.63,8.644-4.415,15.314-4.415,12.777,0,17.663,4.228,17.663,15.314v29.781a.888.888,0,0,1-.939.939Zm-1.128-14.561v-4.98a.5.5,0,0,0-.564-.563h-9.019c-7.8,0-11.18,2.255-11.18,7.328,0,4.6,3.383,7.046,9.4,7.046C370.523,745.157,374.845,741.869,374.845,736.326Z" fill="#00030c"/>
        <path d="M421.323,750.887a.888.888,0,0,1-.939-.939V723.642c0-7.233-3.288-11.461-10.053-11.461-6.106,0-10.334,4.322-10.334,10.992v26.775a.888.888,0,0,1-.939.939h-6.013a.887.887,0,0,1-.94-.939V706.826a.888.888,0,0,1,.94-.94h6.013a.888.888,0,0,1,.939.94v4.134h.094c2.161-3.477,6.482-6.107,12.589-6.107,9.77,0,15.595,6.67,15.595,16.91v28.185a.888.888,0,0,1-.939.939Z" fill="#00030c"/>
      </g>
      <g>
        <path d="M692.555,1058.129a.888.888,0,0,1-.94-.94v-5.449a.888.888,0,0,1,.94-.94h1.691c3.664,0,5.637-1.6,7.61-6.764l1.5-4.134-16.535-42.746c-.187-.564.094-.939.752-.939h6.576a1.1,1.1,0,0,1,1.127.939l11.838,32.506h.188l11.368-32.506a1.1,1.1,0,0,1,1.127-.939h6.388c.564,0,.94.375.752.939l-17.756,47.538c-3.946,10.615-7.422,13.435-14.186,13.435Z" fill="#00030c"/>
        <path d="M730.52,1030.038a35.3,35.3,0,0,1-1.5-11.368c0-5.167.469-8.643,1.409-11.368,2.536-7.8,9.113-12.12,17.662-12.12,8.643,0,15.126,4.416,17.662,12.12.939,2.913,1.409,6.013,1.409,12.872a.916.916,0,0,1-1.033.939H737.66a.5.5,0,0,0-.563.563,16.865,16.865,0,0,0,.752,5.45c1.785,5.167,5.824,7.8,11.367,7.8a14.7,14.7,0,0,0,11.555-4.979.96.96,0,0,1,1.41-.188l3.852,3.476a.842.842,0,0,1,.094,1.316c-3.57,4.508-9.677,7.7-17.568,7.7C739.445,1042.251,732.963,1037.836,730.52,1030.038Zm28-15.22a.5.5,0,0,0,.563-.563,15.83,15.83,0,0,0-.658-5.074c-1.5-4.509-5.261-7.047-10.334-7.047s-8.831,2.538-10.334,7.047a15.83,15.83,0,0,0-.658,5.074.5.5,0,0,0,.563.563Z" fill="#00030c"/>
        <path d="M802,1041.217a.887.887,0,0,1-.939-.939v-3.946h-.1c-2.067,3.383-6.483,5.919-13.341,5.919-8.549,0-15.125-4.415-15.125-13.529,0-9.489,6.576-13.9,17.568-13.9h10.241a.5.5,0,0,0,.563-.563v-3.288c0-6.2-2.442-8.833-10.8-8.833-5.073,0-8.267,1.316-10.9,3.195-.47.376-1.033.376-1.315-.094l-2.537-4.321a.994.994,0,0,1,.188-1.316c3.383-2.631,8.643-4.416,15.313-4.416,12.778,0,17.663,4.229,17.663,15.315v29.781a.887.887,0,0,1-.939.939Zm-1.128-14.561v-4.98a.5.5,0,0,0-.563-.563h-9.02c-7.8,0-11.18,2.254-11.18,7.327,0,4.6,3.383,7.047,9.4,7.047C796.548,1035.487,800.869,1032.2,800.869,1026.656Z" fill="#00030c"/>
        <path d="M819.069,1041.217a.887.887,0,0,1-.939-.939V997.156a.887.887,0,0,1,.939-.939h6.013a.887.887,0,0,1,.939.939v4.6h.094c1.973-3.852,5.919-6.577,11.932-6.577a13.829,13.829,0,0,1,9.207,3.383c.47.47.563.846.187,1.316l-3.475,4.6a.852.852,0,0,1-1.316.188,12.673,12.673,0,0,0-6.952-2.162c-6.858,0-9.677,5.356-9.677,13.154v24.614a.887.887,0,0,1-.939.939Z" fill="#00030c"/>
        <path d="M849.283,1035.487a.908.908,0,0,1,0-1.315l3.852-4.134a.908.908,0,0,1,1.315,0,21.863,21.863,0,0,0,13.9,5.167c6.577,0,9.866-2.819,9.866-6.859,0-3.57-1.692-5.543-8.738-6.294l-4.792-.469c-8.831-.94-13.434-5.356-13.434-12.684,0-8.549,6.106-13.717,16.722-13.717a26.915,26.915,0,0,1,15.972,4.98.907.907,0,0,1,.188,1.315l-3.2,4.04a.917.917,0,0,1-1.314.188,23.7,23.7,0,0,0-12.12-3.664c-5.637,0-8.549,2.537-8.549,6.2,0,3.569,2.161,5.448,8.831,6.106l4.7.47c9.114.846,13.529,5.449,13.529,12.683,0,8.831-6.388,14.75-18.132,14.75A27.964,27.964,0,0,1,849.283,1035.487Z" fill="#00030c"/>
        <path d="M915.047,1030.132c-1.033-3.1-1.5-6.2-1.5-11.462a33.565,33.565,0,0,1,1.5-11.368c2.442-7.7,9.019-12.12,17.756-12.12s15.314,4.416,17.757,12.12a33.569,33.569,0,0,1,1.5,11.368c0,5.261-.469,8.361-1.5,11.462-2.443,7.609-9.02,12.119-17.757,12.119S917.489,1037.741,915.047,1030.132Zm27.9-2.255a29.462,29.462,0,0,0,1.034-9.207,28.8,28.8,0,0,0-1.034-9.113c-1.5-4.509-5.167-7.047-10.146-7.047s-8.643,2.538-10.147,7.047a28.837,28.837,0,0,0-1.033,9.113,29.5,29.5,0,0,0,1.033,9.207c1.5,4.509,5.168,7.046,10.147,7.046S941.446,1032.386,942.949,1027.877Z" fill="#00030c"/>
        <path d="M961.937,1041.217a.887.887,0,0,1-.939-.939v-37.109a.5.5,0,0,0-.563-.564h-3.853a.888.888,0,0,1-.939-.94v-4.509a.887.887,0,0,1,.939-.939h3.853a.5.5,0,0,0,.563-.565V991.8c0-10.616,4.321-14.467,13.717-14.467h3.475a.888.888,0,0,1,.94.939v5.449a.888.888,0,0,1-.94.94h-2.442c-5.731,0-6.858,1.221-6.858,6.764v4.227a.5.5,0,0,0,.563.565h8.737a.887.887,0,0,1,.94.939v4.509a.888.888,0,0,1-.94.94h-8.737a.5.5,0,0,0-.563.564v37.109a.887.887,0,0,1-.94.939Z" fill="#00030c"/>
        <path d="M638.144,1121.8a35.277,35.277,0,0,1-1.5-11.369c0-5.167.469-8.642,1.409-11.367,2.536-7.8,9.113-12.12,17.662-12.12,8.643,0,15.126,4.416,17.662,12.12.939,2.912,1.409,6.013,1.409,12.871a.916.916,0,0,1-1.033.94H645.283a.5.5,0,0,0-.563.563,16.854,16.854,0,0,0,.752,5.449c1.785,5.167,5.824,7.8,11.367,7.8A14.7,14.7,0,0,0,668.4,1121.7a.959.959,0,0,1,1.409-.189l3.852,3.477a.841.841,0,0,1,.094,1.315c-3.57,4.509-9.677,7.7-17.568,7.7C647.068,1134.01,640.586,1129.6,638.144,1121.8Zm28-15.22a.5.5,0,0,0,.563-.564,15.824,15.824,0,0,0-.658-5.073c-1.5-4.51-5.261-7.047-10.334-7.047s-8.831,2.537-10.334,7.047a15.824,15.824,0,0,0-.658,5.073.5.5,0,0,0,.563.564Z" fill="#00030c"/>
        <path d="M709.526,1132.977c-.657,0-.939-.187-1.409-.845l-10.9-15.877h-.094l-10.9,15.877a1.4,1.4,0,0,1-1.41.845h-6.67c-.752,0-.94-.469-.658-.939L692.8,1109.49l-14-20.574c-.283-.47-.094-.94.657-.94h6.765a1.344,1.344,0,0,1,1.409.846l9.489,14h.094l9.676-14a1.357,1.357,0,0,1,1.316-.846h6.764c.752,0,.939.47.658.94l-14.093,20.574,15.407,22.548c.282.47.1.939-.657.939Z" fill="#00030c"/>
        <path d="M723.939,1149.888a.887.887,0,0,1-.939-.939v-60.033a.887.887,0,0,1,.939-.94h6.013a.888.888,0,0,1,.94.94v4.227h.093c2.161-3.57,6.013-6.2,12.778-6.2,7.8,0,13.246,3.664,15.5,10.805,1.221,3.57,1.6,7.139,1.6,12.682,0,5.637-.376,9.207-1.6,12.778-2.255,7.139-7.7,10.8-15.5,10.8-6.765,0-10.617-2.724-12.778-6.293h-.093v21.232a.888.888,0,0,1-.94.939Zm27.809-30.063a31.249,31.249,0,0,0,1.033-9.4,32.039,32.039,0,0,0-1.033-9.394c-1.5-4.416-4.886-6.765-9.865-6.765s-8.455,2.255-9.958,6.765c-.752,2.255-1.033,4.885-1.033,9.394s.281,7.235,1.033,9.4c1.5,4.509,4.979,6.857,9.958,6.857S750.245,1124.24,751.748,1119.825Z" fill="#00030c"/>
        <path d="M768.284,1121.8a35.3,35.3,0,0,1-1.5-11.369c0-5.167.47-8.642,1.409-11.367,2.537-7.8,9.114-12.12,17.663-12.12,8.643,0,15.125,4.416,17.662,12.12.939,2.912,1.409,6.013,1.409,12.871a.916.916,0,0,1-1.033.94H775.424a.5.5,0,0,0-.564.563,16.882,16.882,0,0,0,.752,5.449c1.785,5.167,5.825,7.8,11.367,7.8a14.7,14.7,0,0,0,11.556-4.978c.47-.47.94-.565,1.409-.189l3.853,3.477a.841.841,0,0,1,.094,1.315c-3.571,4.509-9.677,7.7-17.569,7.7C777.209,1134.01,770.727,1129.6,768.284,1121.8Zm28-15.22a.5.5,0,0,0,.564-.564,15.852,15.852,0,0,0-.658-5.073c-1.5-4.51-5.261-7.047-10.334-7.047s-8.832,2.537-10.334,7.047a15.822,15.822,0,0,0-.659,5.073.5.5,0,0,0,.564.564Z" fill="#00030c"/>
        <path d="M813.493,1132.977a.887.887,0,0,1-.939-.939v-43.122a.887.887,0,0,1,.939-.94h6.013a.888.888,0,0,1,.939.94v4.6h.094c1.973-3.852,5.919-6.577,11.932-6.577a13.829,13.829,0,0,1,9.207,3.383c.469.47.563.846.187,1.315l-3.475,4.6a.852.852,0,0,1-1.316.187,12.68,12.68,0,0,0-6.952-2.161c-6.858,0-9.677,5.356-9.677,13.154v24.614a.888.888,0,0,1-.939.939Z" fill="#00030c"/>
        <path d="M848.132,1077.83a.888.888,0,0,1-.94-.94v-6.858a.888.888,0,0,1,.94-.94h6.388a.888.888,0,0,1,.94.94v6.858a.888.888,0,0,1-.94.94Zm.188,55.147a.887.887,0,0,1-.939-.939v-43.122a.887.887,0,0,1,.939-.94h6.013a.888.888,0,0,1,.939.94v43.122a.888.888,0,0,1-.939.939Z" fill="#00030c"/>
        <path d="M864.4,1121.8a35.3,35.3,0,0,1-1.5-11.369c0-5.167.47-8.642,1.41-11.367,2.536-7.8,9.113-12.12,17.662-12.12,8.643,0,15.126,4.416,17.662,12.12.939,2.912,1.409,6.013,1.409,12.871a.916.916,0,0,1-1.033.94H871.543a.5.5,0,0,0-.564.563,16.882,16.882,0,0,0,.752,5.449c1.786,5.167,5.825,7.8,11.368,7.8a14.7,14.7,0,0,0,11.555-4.978c.47-.47.94-.565,1.409-.189l3.853,3.477a.841.841,0,0,1,.094,1.315c-3.571,4.509-9.677,7.7-17.569,7.7C873.328,1134.01,866.846,1129.6,864.4,1121.8Zm28-15.22a.5.5,0,0,0,.564-.564,15.852,15.852,0,0,0-.658-5.073c-1.5-4.51-5.261-7.047-10.334-7.047s-8.831,2.537-10.334,7.047a15.822,15.822,0,0,0-.659,5.073.5.5,0,0,0,.564.564Z" fill="#00030c"/>
        <path d="M937.891,1132.977a.888.888,0,0,1-.94-.939v-26.306c0-7.234-3.288-11.462-10.053-11.462-6.106,0-10.334,4.322-10.334,10.992v26.776a.888.888,0,0,1-.939.939h-6.013a.887.887,0,0,1-.939-.939v-43.122a.887.887,0,0,1,.939-.94h6.013a.888.888,0,0,1,.939.94v4.134h.094c2.161-3.477,6.483-6.108,12.589-6.108,9.771,0,15.6,6.671,15.6,16.911v28.185a.888.888,0,0,1-.94.939Z" fill="#00030c"/>
        <path d="M953.666,1099.062c2.536-7.8,9.113-12.12,17.756-12.12,6.858,0,12.119,2.913,15.408,7.61.281.47.281.846-.282,1.316l-4.134,3.382a.84.84,0,0,1-1.315-.094c-2.631-3.288-5.167-4.886-9.677-4.886-4.885,0-8.549,2.349-10.053,7.047a41.124,41.124,0,0,0,0,18.319c1.5,4.7,5.168,7.046,10.053,7.046,4.51,0,7.046-1.6,9.677-4.884a.84.84,0,0,1,1.315-.094l4.134,3.382c.563.469.563.845.282,1.315-3.289,4.7-8.55,7.609-15.408,7.609-8.643,0-15.22-4.321-17.756-12.119a46.939,46.939,0,0,1,0-22.829Z" fill="#00030c"/>
        <path d="M992.86,1121.8a35.3,35.3,0,0,1-1.5-11.369c0-5.167.47-8.642,1.41-11.367,2.536-7.8,9.113-12.12,17.662-12.12,8.643,0,15.126,4.416,17.662,12.12.939,2.912,1.409,6.013,1.409,12.871a.916.916,0,0,1-1.033.94H1000a.5.5,0,0,0-.563.563,16.885,16.885,0,0,0,.751,5.449c1.786,5.167,5.825,7.8,11.368,7.8a14.7,14.7,0,0,0,11.555-4.978c.47-.47.94-.565,1.409-.189l3.853,3.477a.841.841,0,0,1,.094,1.315c-3.571,4.509-9.677,7.7-17.569,7.7C1001.785,1134.01,995.3,1129.6,992.86,1121.8Zm28-15.22a.5.5,0,0,0,.564-.564,15.852,15.852,0,0,0-.658-5.073c-1.5-4.51-5.261-7.047-10.334-7.047s-8.831,2.537-10.334,7.047a15.824,15.824,0,0,0-.658,5.073.5.5,0,0,0,.563.564Z" fill="#00030c"/>
      </g>
      <g>
        <path d="M95.246,808.042h-.572l-30.9,21.173c-1.716,1.144-3.147.572-3.147-1.717V792.019a4.64,4.64,0,0,1,2-4.006l32.617-23.461a7.992,7.992,0,0,1,5.15-1.716h32.045a2.7,2.7,0,0,1,2.862,2.86V954.534a2.7,2.7,0,0,1-2.862,2.861H98.107a2.7,2.7,0,0,1-2.861-2.861Z" fill="#00030c"/>
        <path d="M171.265,860.115c0-43.2,1.43-52.073,4.292-60.656,8.01-24.893,28.039-39.771,58.654-39.771s50.642,14.878,58.653,39.771c2.862,8.583,4.292,17.453,4.292,60.656s-1.43,52.073-4.292,60.657c-8.011,24.893-28.039,39.771-58.653,39.771s-50.644-14.878-58.654-39.771C172.7,912.188,171.265,903.319,171.265,860.115Zm62.946,66.666c10.014,0,16.881-4.292,19.742-13.162,1.716-5.15,2.288-10.872,2.288-53.5s-.572-48.354-2.288-53.5c-2.861-8.869-9.728-13.161-19.742-13.161-10.3,0-16.881,4.292-19.742,13.161-1.717,5.15-2.289,10.873-2.289,53.5s.572,48.354,2.289,53.5C217.33,922.489,223.91,926.781,234.211,926.781Z" fill="#00030c"/>
        <path d="M316.811,860.115c0-43.2,1.43-52.073,4.292-60.656,8.01-24.893,28.039-39.771,58.654-39.771s50.642,14.878,58.653,39.771c2.861,8.583,4.292,17.453,4.292,60.656s-1.431,52.073-4.292,60.657c-8.011,24.893-28.039,39.771-58.653,39.771s-50.644-14.878-58.654-39.771C318.241,912.188,316.811,903.319,316.811,860.115Zm62.946,66.666c10.013,0,16.881-4.292,19.742-13.162,1.716-5.15,2.288-10.872,2.288-53.5s-.572-48.354-2.288-53.5c-2.861-8.869-9.729-13.161-19.742-13.161-10.3,0-16.881,4.292-19.742,13.161-1.717,5.15-2.289,10.873-2.289,53.5s.572,48.354,2.289,53.5C362.876,922.489,369.456,926.781,379.757,926.781Z" fill="#00030c"/>
      </g>
    </g>
    <g>
      <path d="M1310.866,1480.713a69.718,69.718,0,0,0,6.369-10.012c6.507-12.249,11.88-29.144,15.616-49.061a22.611,22.611,0,0,0,19.823-17.29h53.048C1389.19,1443.864,1353.677,1473.272,1310.866,1480.713ZM1184.7,1448.885a11.765,11.765,0,1,1,11.767,11.949,11.872,11.872,0,0,1-11.767-11.949m41.287-133.6a22.76,22.76,0,0,0,14.965,16.293c-.414,7.5-.64,15.152-.64,22.806,0,13.435.64,26.568,1.875,39.106h-72.928a131.147,131.147,0,0,1,.032-78.2Zm21.81-17.378a11.95,11.95,0,1,1-11.76,11.949,11.872,11.872,0,0,1,11.76-11.949m41.714-71.692c8.959,0,18.651,13.24,25.929,35.419a242.257,242.257,0,0,1,9.366,42.786h-55.2a22.8,22.8,0,0,0-12.889-15.5c8.131-43.268,22.167-62.708,32.793-62.708m104.812,33.677a11.765,11.765,0,1,1-11.767-11.949,11.871,11.871,0,0,1,11.767,11.949m-68.734-1.693c-4.237-12.914-9.171-23.014-14.669-30.16a123.5,123.5,0,0,1,51.512,21.734,22.952,22.952,0,0,0-2.332,10.119,22.66,22.66,0,0,0,22.456,22.806,22.019,22.019,0,0,0,9.961-2.376,128.341,128.341,0,0,1,13.272,24.1h-70.2A255.779,255.779,0,0,0,1325.591,1258.2Zm5.273,152.669a11.95,11.95,0,1,1,11.76-11.949,11.872,11.872,0,0,1-11.76,11.949m-79.855-56.484c0-7.41.213-14.8.614-22.06a22.652,22.652,0,0,0,17.986-17.039h56.478a389.29,389.29,0,0,1,1.924,39.1c0,7.391-.213,14.764-.608,22a22.655,22.655,0,0,0-18.349,17.108h-56.12a389.056,389.056,0,0,1-1.925-39.106m-54.54,71.693a22.092,22.092,0,0,0-9.962,2.369,127.9,127.9,0,0,1-13.271-24.1h70.194a256.307,256.307,0,0,0,10,46.228c4.238,12.908,9.172,23.007,14.663,30.154A123.629,123.629,0,0,1,1216.586,1459a22.889,22.889,0,0,0,2.338-10.118,22.659,22.659,0,0,0-22.455-22.806m93.044,56.477c-8.958,0-18.656-13.24-25.935-35.414a242.765,242.765,0,0,1-9.365-42.785h54.841A22.811,22.811,0,0,0,1322.275,1420c-8.137,43.168-22.161,62.558-32.762,62.558m120.183-89.064h-57.022a22.77,22.77,0,0,0-14.614-16.174c.421-7.541.646-15.227.646-22.932,0-13.428-.639-26.568-1.874-39.1h72.933a130.886,130.886,0,0,1-.069,78.2m-8.983-120.195a22.94,22.94,0,0,0,4.307-13.4,22.662,22.662,0,0,0-22.462-22.813,22.088,22.088,0,0,0-13.2,4.369,135.239,135.239,0,0,0-158.7-.727,5.486,5.486,0,0,0-1.285,7.573,5.3,5.3,0,0,0,7.453,1.3,124.077,124.077,0,0,1,51.344-21.559,69.542,69.542,0,0,0-6.426,10.105c-6.489,12.244-11.842,29.1-15.572,48.968a22.6,22.6,0,0,0-20.187,17.308h-52.728a128.853,128.853,0,0,1,11.428-21.427,5.487,5.487,0,0,0-1.46-7.535,5.291,5.291,0,0,0-7.417,1.479,140.852,140.852,0,0,0,2.5,158.543,22.94,22.94,0,0,0-4.307,13.4,22.662,22.662,0,0,0,22.462,22.813,22.137,22.137,0,0,0,13.2-4.369,135.322,135.322,0,0,0,176.642-14.632,140.681,140.681,0,0,0,14.406-179.4" fill="#4b4b4a"/>
      <path d="M1195.43,1266.44a5.341,5.341,0,0,0,3.786-1.592,5.5,5.5,0,0,0,0-7.68,5.291,5.291,0,0,0-7.566,0,5.489,5.489,0,0,0,0,7.68,5.329,5.329,0,0,0,3.78,1.592" fill="#4b4b4a"/>
      <g>
        <path d="M1418.489,1218.079a.887.887,0,0,1-.939-.94v-60.033a.887.887,0,0,1,.939-.939h6.013a.888.888,0,0,1,.939.939v4.228h.094c2.161-3.571,6.013-6.2,12.777-6.2,7.8,0,13.247,3.664,15.5,10.8,1.222,3.571,1.6,7.141,1.6,12.684,0,5.637-.376,9.206-1.6,12.776-2.254,7.141-7.7,10.8-15.5,10.8-6.764,0-10.616-2.724-12.777-6.294h-.094v21.232a.888.888,0,0,1-.939.94Zm27.809-30.064a31.23,31.23,0,0,0,1.033-9.394,32.054,32.054,0,0,0-1.033-9.4c-1.5-4.415-4.886-6.763-9.865-6.763s-8.455,2.254-9.958,6.763c-.752,2.255-1.034,4.886-1.034,9.4s.282,7.233,1.034,9.394c1.5,4.51,4.979,6.859,9.958,6.859S1444.8,1192.43,1446.3,1188.015Z" fill="#4b4b4a"/>
        <path d="M1464.375,1201.168a.887.887,0,0,1-.939-.94v-43.122a.887.887,0,0,1,.939-.939h6.013a.888.888,0,0,1,.939.939v4.6h.094c1.973-3.852,5.919-6.576,11.932-6.576a13.833,13.833,0,0,1,9.207,3.381c.469.47.563.846.187,1.316l-3.476,4.6a.851.851,0,0,1-1.315.188,12.672,12.672,0,0,0-6.952-2.16c-6.859,0-9.677,5.354-9.677,13.152v24.614a.888.888,0,0,1-.939.94Z" fill="#4b4b4a"/>
        <path d="M1496,1189.988a35.287,35.287,0,0,1-1.5-11.367c0-5.168.47-8.644,1.409-11.368,2.536-7.8,9.114-12.119,17.662-12.119,8.644,0,15.126,4.415,17.662,12.119.94,2.912,1.41,6.012,1.41,12.871a.916.916,0,0,1-1.034.939h-28.466a.5.5,0,0,0-.564.564,16.858,16.858,0,0,0,.752,5.449c1.785,5.167,5.824,7.8,11.367,7.8a14.7,14.7,0,0,0,11.556-4.98.96.96,0,0,1,1.409-.188l3.853,3.476a.842.842,0,0,1,.093,1.316c-3.57,4.51-9.676,7.7-17.568,7.7C1504.923,1202.2,1498.44,1197.786,1496,1189.988Zm28-15.22a.5.5,0,0,0,.564-.563,15.817,15.817,0,0,0-.659-5.073c-1.5-4.51-5.26-7.046-10.334-7.046s-8.831,2.536-10.334,7.046a15.848,15.848,0,0,0-.658,5.073.5.5,0,0,0,.564.563Z" fill="#4b4b4a"/>
        <path d="M1537.956,1195.437a.908.908,0,0,1,0-1.315l3.852-4.134a.908.908,0,0,1,1.315,0,21.863,21.863,0,0,0,13.9,5.167c6.576,0,9.866-2.818,9.866-6.858,0-3.57-1.692-5.543-8.738-6.294l-4.792-.47c-8.831-.94-13.434-5.356-13.434-12.684,0-8.549,6.106-13.715,16.722-13.715a26.924,26.924,0,0,1,15.972,4.978.907.907,0,0,1,.188,1.315l-3.195,4.04a.917.917,0,0,1-1.314.188,23.7,23.7,0,0,0-12.12-3.663c-5.637,0-8.549,2.536-8.549,6.2,0,3.57,2.161,5.449,8.831,6.107l4.7.469c9.113.846,13.528,5.449,13.528,12.684,0,8.831-6.387,14.749-18.131,14.749A27.959,27.959,0,0,1,1537.956,1195.437Z" fill="#4b4b4a"/>
        <path d="M1581.605,1189.988a35.291,35.291,0,0,1-1.5-11.367c0-5.168.469-8.644,1.409-11.368,2.536-7.8,9.113-12.119,17.662-12.119,8.643,0,15.126,4.415,17.662,12.119.939,2.912,1.409,6.012,1.409,12.871a.916.916,0,0,1-1.033.939h-28.467a.5.5,0,0,0-.563.564,16.858,16.858,0,0,0,.752,5.449c1.785,5.167,5.824,7.8,11.367,7.8a14.7,14.7,0,0,0,11.555-4.98.961.961,0,0,1,1.41-.188l3.852,3.476a.842.842,0,0,1,.094,1.316c-3.57,4.51-9.677,7.7-17.568,7.7C1590.53,1202.2,1584.048,1197.786,1581.605,1189.988Zm28-15.22a.5.5,0,0,0,.563-.563,15.82,15.82,0,0,0-.658-5.073c-1.5-4.51-5.261-7.046-10.334-7.046s-8.831,2.536-10.334,7.046a15.82,15.82,0,0,0-.658,5.073.5.5,0,0,0,.563.563Z" fill="#4b4b4a"/>
        <path d="M1655.093,1201.168a.888.888,0,0,1-.94-.94v-26.305c0-7.234-3.288-11.461-10.052-11.461-6.107,0-10.334,4.321-10.334,10.991v26.775a.888.888,0,0,1-.94.94h-6.013a.887.887,0,0,1-.939-.94v-43.122a.887.887,0,0,1,.939-.939h6.013a.888.888,0,0,1,.94.939v4.134h.093c2.161-3.477,6.483-6.106,12.589-6.106,9.771,0,15.6,6.669,15.6,16.91v28.184a.888.888,0,0,1-.94.94Z" fill="#4b4b4a"/>
        <path d="M1684.594,1201.637c-8.738,0-12.119-3.945-12.119-12.776v-25.742a.5.5,0,0,0-.565-.564h-3.758a.888.888,0,0,1-.939-.939v-4.51a.888.888,0,0,1,.939-.939h3.758a.5.5,0,0,0,.565-.564V1142.92a.888.888,0,0,1,.939-.94h6.013a.888.888,0,0,1,.939.94V1155.6a.5.5,0,0,0,.564.564h7.139a.887.887,0,0,1,.94.939v4.51a.887.887,0,0,1-.94.939h-7.139a.5.5,0,0,0-.564.564v25.46c0,4.51,1.691,5.73,5.731,5.73h1.972a.888.888,0,0,1,.94.94v5.449a.887.887,0,0,1-.94.939Z" fill="#4b4b4a"/>
        <path d="M1719.824,1146.02a.888.888,0,0,1-.939-.939v-6.859a.888.888,0,0,1,.939-.939h6.389a.888.888,0,0,1,.939.939v6.859a.888.888,0,0,1-.939.939Zm.189,55.148a.888.888,0,0,1-.94-.94v-43.122a.887.887,0,0,1,.94-.939h6.012a.888.888,0,0,1,.94.939v43.122a.888.888,0,0,1-.94.94Z" fill="#4b4b4a"/>
        <path d="M1765.962,1201.168a.888.888,0,0,1-.94-.94v-26.305c0-7.234-3.288-11.461-10.052-11.461-6.107,0-10.334,4.321-10.334,10.991v26.775a.888.888,0,0,1-.94.94h-6.012a.888.888,0,0,1-.94-.94v-43.122a.887.887,0,0,1,.94-.939h6.012a.888.888,0,0,1,.94.939v4.134h.093c2.162-3.477,6.483-6.106,12.589-6.106,9.771,0,15.6,6.669,15.6,16.91v28.184a.888.888,0,0,1-.939.94Z" fill="#4b4b4a"/>
      </g>
      <g>
        <path d="M1430.107,1538.558c2.537-7.8,9.114-12.12,17.756-12.12,6.859,0,12.119,2.913,15.408,7.611.282.469.282.845-.282,1.315l-4.134,3.382a.841.841,0,0,1-1.315-.094c-2.631-3.288-5.167-4.886-9.677-4.886-4.885,0-8.549,2.349-10.052,7.047a41.089,41.089,0,0,0,0,18.32c1.5,4.7,5.167,7.045,10.052,7.045,4.51,0,7.046-1.6,9.677-4.884a.841.841,0,0,1,1.315-.094l4.134,3.382c.564.469.564.845.282,1.315-3.289,4.7-8.549,7.61-15.408,7.61-8.642,0-15.219-4.322-17.756-12.12a46.939,46.939,0,0,1,0-22.829Z" fill="#4b4b4a"/>
        <path d="M1469.3,1561.387c-1.033-3.1-1.5-6.2-1.5-11.462a33.563,33.563,0,0,1,1.5-11.367c2.442-7.7,9.019-12.12,17.756-12.12s15.314,4.416,17.756,12.12a33.538,33.538,0,0,1,1.5,11.367c0,5.262-.469,8.362-1.5,11.462-2.442,7.61-9.019,12.12-17.756,12.12S1471.745,1569,1469.3,1561.387Zm27.9-2.254a29.465,29.465,0,0,0,1.034-9.208,28.8,28.8,0,0,0-1.034-9.112c-1.5-4.51-5.167-7.047-10.146-7.047s-8.643,2.537-10.147,7.047a28.834,28.834,0,0,0-1.033,9.112,29.5,29.5,0,0,0,1.033,9.208c1.5,4.509,5.168,7.045,10.147,7.045S1495.7,1563.642,1497.205,1559.133Z" fill="#4b4b4a"/>
        <path d="M1542.433,1572.473a.888.888,0,0,1-.94-.939v-4.228h-.094c-2.349,3.758-6.482,6.2-12.307,6.2-9.864,0-15.6-6.764-15.6-17.005v-28.09a.888.888,0,0,1,.94-.94h6.012a.888.888,0,0,1,.94.94v26.211c0,7.328,3.288,11.555,9.959,11.555,6.106,0,10.146-4.321,10.146-11.086v-26.68a.888.888,0,0,1,.94-.94h6.012a.888.888,0,0,1,.94.94v43.122a.888.888,0,0,1-.94.939Z" fill="#4b4b4a"/>
        <path d="M1588.468,1572.473a.888.888,0,0,1-.94-.939v-26.306c0-7.234-3.288-11.462-10.052-11.462-6.107,0-10.334,4.323-10.334,10.993v26.775a.888.888,0,0,1-.94.939h-6.013a.887.887,0,0,1-.939-.939v-43.122a.887.887,0,0,1,.939-.94h6.013a.888.888,0,0,1,.94.94v4.134h.093c2.161-3.477,6.483-6.108,12.589-6.108,9.771,0,15.6,6.671,15.6,16.911v28.185a.888.888,0,0,1-.94.939Z" fill="#4b4b4a"/>
        <path d="M1617.969,1572.943c-8.738,0-12.119-3.946-12.119-12.777v-25.741a.5.5,0,0,0-.565-.564h-3.758a.888.888,0,0,1-.939-.94v-4.509a.888.888,0,0,1,.939-.94h3.758a.5.5,0,0,0,.565-.564v-12.683a.887.887,0,0,1,.939-.939h6.013a.888.888,0,0,1,.939.939v12.683a.5.5,0,0,0,.564.564h7.139a.888.888,0,0,1,.94.94v4.509a.888.888,0,0,1-.94.94h-7.139a.5.5,0,0,0-.564.564v25.459c0,4.51,1.691,5.731,5.731,5.731h1.972a.887.887,0,0,1,.94.939V1572a.887.887,0,0,1-.94.939Z" fill="#4b4b4a"/>
        <path d="M1629.976,1572.473a.887.887,0,0,1-.94-.939v-43.122a.888.888,0,0,1,.94-.94h6.012a.888.888,0,0,1,.94.94v4.6h.093c1.973-3.852,5.919-6.577,11.932-6.577a13.829,13.829,0,0,1,9.207,3.383c.47.47.564.846.188,1.315l-3.476,4.6a.851.851,0,0,1-1.315.187,12.686,12.686,0,0,0-6.953-2.161c-6.858,0-9.676,5.356-9.676,13.154v24.614a.888.888,0,0,1-.94.939Z" fill="#4b4b4a"/>
        <path d="M1664.614,1517.326a.888.888,0,0,1-.939-.94v-6.858a.888.888,0,0,1,.939-.939H1671a.888.888,0,0,1,.939.939v6.858a.888.888,0,0,1-.939.94Zm.189,55.147a.887.887,0,0,1-.94-.939v-43.122a.888.888,0,0,1,.94-.94h6.012a.888.888,0,0,1,.94.94v43.122a.888.888,0,0,1-.94.939Z" fill="#4b4b4a"/>
        <path d="M1680.886,1561.294a35.272,35.272,0,0,1-1.5-11.369c0-5.166.47-8.642,1.409-11.367,2.536-7.8,9.113-12.12,17.662-12.12,8.644,0,15.126,4.416,17.662,12.12.94,2.912,1.409,6.013,1.409,12.87a.916.916,0,0,1-1.033.941h-28.467a.5.5,0,0,0-.563.563,16.865,16.865,0,0,0,.752,5.45c1.785,5.167,5.824,7.8,11.367,7.8a14.7,14.7,0,0,0,11.556-4.978.959.959,0,0,1,1.409-.189l3.852,3.477a.841.841,0,0,1,.094,1.315c-3.57,4.509-9.677,7.7-17.568,7.7C1689.811,1573.507,1683.328,1569.092,1680.886,1561.294Zm28-15.22a.5.5,0,0,0,.563-.564,15.824,15.824,0,0,0-.658-5.073c-1.5-4.51-5.261-7.046-10.334-7.046s-8.831,2.536-10.334,7.046a15.824,15.824,0,0,0-.658,5.073.5.5,0,0,0,.563.564Z" fill="#4b4b4a"/>
        <path d="M1722.844,1566.743a.909.909,0,0,1,0-1.316l3.851-4.133a.909.909,0,0,1,1.316,0,21.863,21.863,0,0,0,13.9,5.167c6.576,0,9.865-2.819,9.865-6.859,0-3.57-1.691-5.543-8.737-6.294l-4.792-.469c-8.831-.94-13.435-5.356-13.435-12.684,0-8.549,6.107-13.717,16.723-13.717a26.917,26.917,0,0,1,15.972,4.98.907.907,0,0,1,.187,1.315l-3.194,4.04a.918.918,0,0,1-1.315.188,23.7,23.7,0,0,0-12.12-3.664c-5.636,0-8.549,2.537-8.549,6.2,0,3.569,2.162,5.448,8.832,6.106l4.7.47c9.113.846,13.528,5.449,13.528,12.683,0,8.831-6.388,14.75-18.132,14.75A27.963,27.963,0,0,1,1722.844,1566.743Z" fill="#4b4b4a"/>
      </g>
      <g>
        <path d="M1432.073,1424.3l39.273-7.5c2.142-.357,3.57.714,4.284,2.856,4.285,12.853,14.639,22.849,31.775,22.849,18.566,0,29.99-13.209,29.99-31.418,0-21.778-13.209-34.274-33.917-34.274h-10.353a3.372,3.372,0,0,1-3.57-3.57v-34.631a3.372,3.372,0,0,1,3.57-3.57h9.64c18.208,0,29.989-11.783,29.989-30.348,0-17.137-10.354-28.562-27.49-28.562-15.353,0-23.921,8.926-27.492,22.493-.713,2.142-2.142,2.856-4.284,2.5l-38.916-7.5a3.137,3.137,0,0,1-2.856-3.928c5.713-32.132,33.2-55.695,76.047-55.695,47.484,0,74.975,28.2,74.975,67.12,0,20.708-9.639,38.558-27.135,49.983v.715c14.639,7.14,31.776,26.776,31.776,58.909,0,44.271-33.561,73.9-79.26,73.9-41.414,0-72.118-20.708-78.9-55.7A3.98,3.98,0,0,1,1432.073,1424.3Z" fill="#4b4b4a"/>
        <path d="M1690.023,1383.245l-.714-.714c-2.5,1.071-8.569,2.142-15,2.142-38.2,0-69.619-28.562-69.619-73.19,0-48.913,35.345-77.474,81.4-77.474,46.413,0,81.4,28.561,81.4,76.4,0,20.707-6.426,39.272-17.851,59.98l-58.909,107.822c-1.071,2.141-1.785,2.5-4.284,2.5H1641.11c-2.856,0-3.57-1.428-2.5-3.571Zm28.205-73.547c0-19.637-12.5-33.561-32.132-33.561s-32.132,13.924-32.132,33.561c0,19.993,12.5,33.917,32.132,33.917S1718.228,1329.691,1718.228,1309.7Z" fill="#4b4b4a"/>
      </g>
    </g>
    <g>
      <g>
        <path d="M537.882,1794.7a.908.908,0,0,1,0-1.315l3.851-4.134a.909.909,0,0,1,1.316,0,21.863,21.863,0,0,0,13.9,5.167c6.576,0,9.865-2.819,9.865-6.859,0-3.57-1.691-5.543-8.737-6.294l-4.792-.469c-8.831-.94-13.435-5.356-13.435-12.684,0-8.549,6.107-13.717,16.723-13.717a26.917,26.917,0,0,1,15.972,4.98.905.905,0,0,1,.187,1.315l-3.194,4.04a.917.917,0,0,1-1.314.188,23.7,23.7,0,0,0-12.121-3.664c-5.636,0-8.548,2.537-8.548,6.2,0,3.569,2.161,5.448,8.831,6.106l4.7.47c9.113.846,13.528,5.449,13.528,12.683,0,8.831-6.387,14.75-18.132,14.75A27.963,27.963,0,0,1,537.882,1794.7Z" fill="#4b4b4a"/>
        <path d="M582.311,1745.28a.888.888,0,0,1-.94-.939v-6.859a.888.888,0,0,1,.94-.939H588.7a.888.888,0,0,1,.94.939v6.859a.888.888,0,0,1-.94.939Zm.188,55.147a.887.887,0,0,1-.939-.939v-43.122a.887.887,0,0,1,.939-.94h6.013a.888.888,0,0,1,.939.94v43.122a.888.888,0,0,1-.939.939Z" fill="#4b4b4a"/>
        <path d="M612.975,1800.9c-8.738,0-12.12-3.946-12.12-12.777v-25.741a.5.5,0,0,0-.564-.564h-3.758a.888.888,0,0,1-.939-.94v-4.509a.888.888,0,0,1,.939-.94h3.758a.5.5,0,0,0,.564-.564v-12.683a.888.888,0,0,1,.94-.939h6.013a.888.888,0,0,1,.939.939v12.683a.5.5,0,0,0,.564.564h7.139a.888.888,0,0,1,.94.94v4.509a.888.888,0,0,1-.94.94h-7.139a.5.5,0,0,0-.564.564v25.46c0,4.509,1.69,5.73,5.731,5.73h1.972a.888.888,0,0,1,.94.94v5.449a.887.887,0,0,1-.94.939Z" fill="#4b4b4a"/>
        <path d="M622.773,1789.248a35.294,35.294,0,0,1-1.5-11.368c0-5.167.47-8.643,1.41-11.368,2.536-7.8,9.113-12.12,17.662-12.12,8.643,0,15.126,4.416,17.662,12.12.939,2.913,1.409,6.013,1.409,12.872a.916.916,0,0,1-1.033.939H629.913a.5.5,0,0,0-.563.563,16.865,16.865,0,0,0,.752,5.45c1.785,5.167,5.824,7.8,11.367,7.8a14.7,14.7,0,0,0,11.555-4.979.96.96,0,0,1,1.41-.188l3.852,3.476a.842.842,0,0,1,.094,1.316c-3.57,4.508-9.677,7.7-17.568,7.7C631.7,1801.461,625.216,1797.046,622.773,1789.248Zm28-15.22a.5.5,0,0,0,.564-.563,15.855,15.855,0,0,0-.658-5.074c-1.5-4.509-5.261-7.047-10.334-7.047s-8.831,2.538-10.334,7.047a15.826,15.826,0,0,0-.658,5.074.5.5,0,0,0,.563.563Z" fill="#4b4b4a"/>
        <path d="M664.732,1794.7a.908.908,0,0,1,0-1.315l3.852-4.134a.908.908,0,0,1,1.315,0,21.864,21.864,0,0,0,13.9,5.167c6.576,0,9.865-2.819,9.865-6.859,0-3.57-1.691-5.543-8.737-6.294l-4.792-.469c-8.831-.94-13.435-5.356-13.435-12.684,0-8.549,6.107-13.717,16.723-13.717a26.912,26.912,0,0,1,15.971,4.98.906.906,0,0,1,.188,1.315l-3.194,4.04a.918.918,0,0,1-1.315.188,23.7,23.7,0,0,0-12.12-3.664c-5.637,0-8.549,2.537-8.549,6.2,0,3.569,2.161,5.448,8.831,6.106l4.7.47c9.114.846,13.529,5.449,13.529,12.683,0,8.831-6.388,14.75-18.132,14.75A27.966,27.966,0,0,1,664.732,1794.7Z" fill="#4b4b4a"/>
      </g>
      <path d="M526.9,1691.746v-40.982a10.185,10.185,0,0,1,.8-4.821l81.963-180.4c1.205-2.41,2.813-3.214,5.625-3.214h51.026c2.813,0,3.616,1.607,2.813,4.017l-81.963,179.6v1.2h50.222a2.131,2.131,0,0,0,2.411-2.41v-59.062a3.8,3.8,0,0,1,4.017-4.018h46.607a3.8,3.8,0,0,1,4.017,4.018v59.062a2.131,2.131,0,0,0,2.412,2.41h18.08a3.8,3.8,0,0,1,4.017,4.018v40.58a3.8,3.8,0,0,1-4.017,4.017h-18.08a2.132,2.132,0,0,0-2.412,2.412v33.347a3.8,3.8,0,0,1-4.017,4.018H643.815a3.8,3.8,0,0,1-4.017-4.018v-33.347a2.132,2.132,0,0,0-2.411-2.412H530.916A3.8,3.8,0,0,1,526.9,1691.746Z" fill="#4b4b4a"/>
      <g>
        <path d="M266.478,1804.481a7.306,7.306,0,0,1,0-14.612H357.2l-55.1-93.137-.886-.5a140.633,140.633,0,0,1-71.623-122.383c0-77.423,62.992-140.412,140.421-140.412s140.411,62.989,140.411,140.412a140.635,140.635,0,0,1-71.616,122.383l-.886.5-55.1,93.137h90.717a7.306,7.306,0,0,1,0,14.612Zm103.533-356.428A125.786,125.786,0,0,0,310.8,1684.83a7.325,7.325,0,0,1,2.84,2.725l56.367,95.267,56.361-95.275a7.266,7.266,0,0,1,2.839-2.713,125.789,125.789,0,0,0-59.2-236.781Z" fill="#4b4b4a"/>
        <path d="M370.005,1673.594a7.311,7.311,0,0,1-7.3-7.3v-7.738l-3.314-.414a84.127,84.127,0,0,1-22.325-5.99l-3.084-1.3-3.865,6.71a7.339,7.339,0,0,1-6.332,3.653,7.307,7.307,0,0,1-6.326-10.959l3.889-6.729-2.654-2.019a85.7,85.7,0,0,1-16.332-16.327l-2.016-2.655-6.73,3.871a7.19,7.19,0,0,1-3.651.991,7.312,7.312,0,0,1-3.662-13.64l6.7-3.874-1.3-3.077a83.932,83.932,0,0,1-5.981-22.313l-.412-3.321H277.57a7.306,7.306,0,0,1,0-14.612h7.737l.416-3.316a84.424,84.424,0,0,1,5.981-22.318l1.3-3.072-6.683-3.879a7.294,7.294,0,0,1-2.685-9.983,7.3,7.3,0,0,1,9.98-2.665l6.729,3.886,2.019-2.655a85.961,85.961,0,0,1,16.333-16.343l2.649-2.015-3.871-6.729a7.3,7.3,0,1,1,12.645-7.306l3.876,6.7,3.08-1.3a84.153,84.153,0,0,1,22.318-5.986l3.314-.414v-7.731a7.307,7.307,0,1,1,14.613,0v7.731l3.314.414a84.4,84.4,0,0,1,22.318,5.986l3.083,1.305,3.864-6.711a7.3,7.3,0,0,1,9.979-2.673,7.306,7.306,0,0,1,2.679,9.979l-3.89,6.73,2.655,2.018a86.008,86.008,0,0,1,16.342,16.343l2.023,2.655,6.72-3.89a7.31,7.31,0,0,1,7.306,12.663l-6.7,3.861,1.305,3.083a84.145,84.145,0,0,1,5.988,22.314l.416,3.316h7.727a7.306,7.306,0,1,1,0,14.612h-7.727l-.416,3.317a84.074,84.074,0,0,1-5.988,22.314l-1.3,3.08,6.7,3.874a7.309,7.309,0,1,1-7.315,12.657l-6.709-3.883-2.023,2.655a85.562,85.562,0,0,1-16.338,16.328l-2.661,2.022,3.892,6.729a7.31,7.31,0,0,1-6.317,10.959,7.347,7.347,0,0,1-6.343-3.656l-3.865-6.693-3.079,1.3a84.439,84.439,0,0,1-22.319,5.983l-3.314.414v7.738A7.316,7.316,0,0,1,370.005,1673.594Zm35.48-89.688a37.168,37.168,0,0,1-25.418,25.427l-2.75.78v33.842l4.416-.743a70.356,70.356,0,0,0,57.631-57.642l.743-4.415h-33.84ZM300.65,1585.57a70.367,70.367,0,0,0,57.638,57.642l4.416.743v-33.842l-2.75-.78a37.178,37.178,0,0,1-25.427-25.427l-.782-2.751H299.9Zm69.355-33.99a22.271,22.271,0,1,0,22.277,22.273A22.3,22.3,0,0,0,370.005,1551.58Zm7.312-13.991,2.752.78a37.138,37.138,0,0,1,25.416,25.42l.78,2.754h33.842l-.743-4.414a70.335,70.335,0,0,0-57.633-57.635l-4.414-.743Zm-19.027-33.1a70.345,70.345,0,0,0-57.64,57.635l-.745,4.414h33.84l.782-2.75a37.16,37.16,0,0,1,25.425-25.424l2.752-.78v-33.838Z" fill="#4b4b4a"/>
      </g>
      <rect x="522.349" y="1433.441" width="206.242" height="272.5" fill="none"/>
    </g>
  </g>
</svg>
