<svg xmlns="http://www.w3.org/2000/svg" xmlns:xlink="http://www.w3.org/1999/xlink" width="173.948" height="147.948" viewBox="0 0 173.948 147.948">
  <defs>
    <clipPath id="a">
      <rect x="57.087" y="47.948" width="116.861" height="100" fill="none"/>
    </clipPath>
  </defs>
  <g>
    <g clip-path="url(#a)">
      <path d="M70.586,144.684h19.6V118.622h-19.6Zm21.273,3.264H68.918a1.651,1.651,0,0,1-1.67-1.633V116.989a1.651,1.651,0,0,1,1.67-1.633H91.859a1.651,1.651,0,0,1,1.67,1.633v29.326a1.651,1.651,0,0,1-1.67,1.633" fill="#4b4b4a"/>
      <path d="M93.528,144.684h19.6V106h-19.6Zm21.272,3.264H91.86a1.652,1.652,0,0,1-1.671-1.633V104.366a1.652,1.652,0,0,1,1.671-1.633H114.8a1.651,1.651,0,0,1,1.67,1.633v41.949a1.651,1.651,0,0,1-1.67,1.633" fill="#4b4b4a"/>
      <path d="M116.469,144.684h19.6V92.739h-19.6Zm21.273,3.264H114.8a1.652,1.652,0,0,1-1.67-1.633V91.106a1.652,1.652,0,0,1,1.67-1.631h22.941a1.651,1.651,0,0,1,1.67,1.631v55.209a1.651,1.651,0,0,1-1.67,1.633" fill="#4b4b4a"/>
      <path d="M160.677,123.131a1.651,1.651,0,0,1-1.67-1.633v-4.782a1.67,1.67,0,0,1,3.34,0V121.5a1.651,1.651,0,0,1-1.67,1.633" fill="#4b4b4a"/>
      <path d="M160.677,147.941H137.738a1.653,1.653,0,0,1-1.67-1.633V73.754h-9.915a1.652,1.652,0,0,1-1.669-1.633,1.62,1.62,0,0,1,.488-1.154l23.056-22.541a1.694,1.694,0,0,1,2.36,0L173.46,70.967a1.607,1.607,0,0,1,0,2.31,1.7,1.7,0,0,1-1.18.477h-9.933v15.31a1.67,1.67,0,0,1-3.34,0V72.121a1.65,1.65,0,0,1,1.67-1.631h7.569L149.215,51.88,130.182,70.49h7.556a1.651,1.651,0,0,1,1.671,1.631v72.556h19.6V132.941a1.67,1.67,0,0,1,3.34,0v13.367a1.651,1.651,0,0,1-1.67,1.633" fill="#4b4b4a"/>
      <path d="M160.677,106.922a1.651,1.651,0,0,1-1.67-1.633v-4.814a1.67,1.67,0,0,1,3.34,0v4.814a1.651,1.651,0,0,1-1.67,1.633" fill="#4b4b4a"/>
      <path d="M171.839,147.948H58.756a1.632,1.632,0,1,1,0-3.264H171.839a1.632,1.632,0,1,1,0,3.264" fill="#4b4b4a"/>
    </g>
    <g>
      <path d="M23.445,98.5a.32.32,0,0,1-.338-.338V88.7c0-2.6-1.182-4.122-3.614-4.122a3.649,3.649,0,0,0-3.716,3.953V98.16a.32.32,0,0,1-.338.338H13.277a.32.32,0,0,1-.338-.338V88.7c0-2.6-1.183-4.122-3.615-4.122a3.631,3.631,0,0,0-3.716,3.953V98.16a.32.32,0,0,1-.338.338H3.108a.32.32,0,0,1-.338-.338V82.653a.32.32,0,0,1,.338-.338H5.27a.32.32,0,0,1,.338.338V84.14h.034a5.115,5.115,0,0,1,4.526-2.2,5.084,5.084,0,0,1,4.73,2.534h.034a6.024,6.024,0,0,1,5.236-2.534c3.75,0,5.777,2.4,5.777,6.081V98.16a.32.32,0,0,1-.338.338Z" fill="#4b4b4a"/>
      <path d="M30.114,78.667a.32.32,0,0,1-.338-.338V75.863a.32.32,0,0,1,.338-.338h2.3a.319.319,0,0,1,.337.338v2.466a.319.319,0,0,1-.337.338ZM30.182,98.5a.32.32,0,0,1-.338-.338V82.653a.32.32,0,0,1,.338-.338h2.162a.32.32,0,0,1,.338.338V98.16a.32.32,0,0,1-.338.338Z" fill="#4b4b4a"/>
      <path d="M40.534,98.667c-2.838,0-3.953-1.352-3.953-4.257V75.863a.319.319,0,0,1,.338-.338h2.162a.319.319,0,0,1,.338.338V94.241c0,1.351.507,1.79,1.622,1.79h.641a.32.32,0,0,1,.338.338v1.96a.32.32,0,0,1-.338.338Z" fill="#4b4b4a"/>
      <path d="M48.531,98.667c-2.838,0-3.952-1.352-3.952-4.257V75.863a.319.319,0,0,1,.338-.338h2.162a.32.32,0,0,1,.338.338V94.241c0,1.351.506,1.79,1.621,1.79h.642a.32.32,0,0,1,.338.338v1.96a.32.32,0,0,1-.338.338Z" fill="#4b4b4a"/>
      <path d="M52.934,78.667a.319.319,0,0,1-.338-.338V75.863a.319.319,0,0,1,.338-.338h2.3a.319.319,0,0,1,.338.338v2.466a.319.319,0,0,1-.338.338ZM53,98.5a.319.319,0,0,1-.337-.338V82.653A.319.319,0,0,1,53,82.315h2.163a.319.319,0,0,1,.337.338V98.16a.319.319,0,0,1-.337.338Z" fill="#4b4b4a"/>
      <path d="M59.222,94.511a12.136,12.136,0,0,1-.541-4.121,12.057,12.057,0,0,1,.541-4.088,6.253,6.253,0,0,1,6.384-4.358A6.255,6.255,0,0,1,71.992,86.3a12.085,12.085,0,0,1,.54,4.088,12.165,12.165,0,0,1-.54,4.121,6.292,6.292,0,0,1-6.386,4.358A6.29,6.29,0,0,1,59.222,94.511ZM69.255,93.7a10.6,10.6,0,0,0,.372-3.31,10.363,10.363,0,0,0-.372-3.277,3.894,3.894,0,0,0-7.3,0,10.363,10.363,0,0,0-.372,3.277,10.6,10.6,0,0,0,.372,3.31,3.894,3.894,0,0,0,7.3,0Z" fill="#4b4b4a"/>
      <path d="M86.267,98.5a.32.32,0,0,1-.338-.338V88.7c0-2.6-1.182-4.122-3.615-4.122A3.632,3.632,0,0,0,78.6,88.532V98.16a.32.32,0,0,1-.338.338H76.1a.32.32,0,0,1-.338-.338V82.653a.32.32,0,0,1,.338-.338H78.26a.32.32,0,0,1,.338.338V84.14h.034a5.116,5.116,0,0,1,4.527-2.2c3.513,0,5.608,2.4,5.608,6.081V98.16a.32.32,0,0,1-.338.338Z" fill="#4b4b4a"/>
      <path d="M91.63,96.437a.327.327,0,0,1,0-.473l1.386-1.486a.324.324,0,0,1,.472,0,7.865,7.865,0,0,0,5,1.857c2.365,0,3.548-1.013,3.548-2.466,0-1.284-.608-1.993-3.142-2.263l-1.723-.169C94,91.1,92.34,89.511,92.34,86.876c0-3.074,2.2-4.932,6.014-4.932a9.681,9.681,0,0,1,5.742,1.79.328.328,0,0,1,.068.474l-1.149,1.452a.331.331,0,0,1-.473.068,8.513,8.513,0,0,0-4.357-1.318c-2.028,0-3.075.912-3.075,2.23,0,1.283.777,1.959,3.176,2.195L99.975,89c3.277.3,4.865,1.96,4.865,4.561,0,3.176-2.3,5.3-6.521,5.3A10.061,10.061,0,0,1,91.63,96.437Z" fill="#4b4b4a"/>
    </g>
    <g>
      <path d="M8.2,55.72A23.271,23.271,0,0,1,7.093,48a.418.418,0,0,0-.473-.473H3.783A.744.744,0,0,1,3,46.735V41.849a.744.744,0,0,1,.788-.788H6.62a.418.418,0,0,0,.473-.473v-2.68a.417.417,0,0,0-.473-.472H3.783A.745.745,0,0,1,3,36.647V31.761a.744.744,0,0,1,.788-.788H6.62a.418.418,0,0,0,.473-.473,22.586,22.586,0,0,1,1.1-7.408C10.561,15.684,16.55,11.743,24.9,11.743c8.118,0,13.241,4.019,15.92,9.536a.783.783,0,0,1-.394,1.1L32.943,25.85a.85.85,0,0,1-1.182-.394c-1.576-2.837-3.468-4.414-6.7-4.414-3,0-5.123,1.419-6.226,4.65a16.186,16.186,0,0,0-.552,4.808.418.418,0,0,0,.473.473H31.84a.744.744,0,0,1,.788.788l-.788,4.886c-.079.552-.316.789-.788.789H18.757a.418.418,0,0,0-.473.472v2.68a.418.418,0,0,0,.473.473H30.264a.745.745,0,0,1,.788.788l-.788,4.886c-.079.552-.316.788-.788.788H18.757a.418.418,0,0,0-.473.473,17.153,17.153,0,0,0,.552,5.123c1.1,3.231,3.231,4.65,6.226,4.65,3.231,0,5.123-1.577,6.7-4.414a.851.851,0,0,1,1.182-.394l7.487,3.468a.783.783,0,0,1,.394,1.1c-2.679,5.517-7.8,9.536-15.92,9.536C16.55,67.068,10.561,63.128,8.2,55.72Z" fill="#4b4b4a"/>
      <path d="M45.1,58.084a1.478,1.478,0,0,1,.394-1.1L64.334,34.6c2.049-2.364,3.153-4.65,3.153-7.408,0-3.546-2.128-6.148-5.832-6.148-3.626,0-5.832,2.208-6.3,6.306,0,.472-.315.709-.867.63l-8.67-1.418a.764.764,0,0,1-.63-.946c.552-7.408,6.542-13.871,16.866-13.871,10.245,0,16.472,6.62,16.472,15.289,0,5.123-2.05,9.142-5.438,13L58.975,56.666v.157H77.732a.745.745,0,0,1,.789.788v7.8a.746.746,0,0,1-.789.788H45.892a.745.745,0,0,1-.788-.788Z" fill="#4b4b4a"/>
      <path d="M83.454,39.406c0-11.9.394-14.344,1.182-16.708,2.207-6.857,7.723-10.955,16.156-10.955s13.95,4.1,16.157,10.955c.788,2.364,1.182,4.807,1.182,16.708s-.394,14.344-1.182,16.708c-2.207,6.856-7.724,10.954-16.157,10.954s-13.949-4.1-16.156-10.954C83.848,53.75,83.454,51.306,83.454,39.406Zm17.338,18.363c2.759,0,4.65-1.183,5.438-3.625.473-1.419.631-3,.631-14.738s-.158-13.32-.631-14.738c-.788-2.443-2.679-3.626-5.438-3.626-2.837,0-4.649,1.183-5.438,3.626-.473,1.418-.63,3-.63,14.738s.157,13.319.63,14.738C96.143,56.586,97.955,57.769,100.792,57.769Z" fill="#4b4b4a"/>
    </g>
  </g>
</svg>
